<svg width="21" height="29" viewBox="0 0 21 29" fill="none" xmlns="http://www.w3.org/2000/svg">
<path d="M19.7749 26.1919C19.1126 26.1919 18.4534 26.1919 17.791 26.1919C16.7463 26.1919 15.7015 26.1919 14.6567 26.1919C14.408 26.1919 14.153 26.2074 13.9043 26.1887C13.9882 26.2012 14.0691 26.2105 14.153 26.2229C14.125 26.2198 14.1001 26.2105 14.0722 26.1981C14.1468 26.2291 14.2214 26.2602 14.296 26.2913C14.2121 26.2416 14.2401 26.2757 14.3862 26.3969C14.5075 26.5398 14.5417 26.5709 14.4919 26.487C14.523 26.5616 14.5541 26.6362 14.5852 26.7107C14.5728 26.6859 14.5666 26.6579 14.5603 26.6299C14.5728 26.7138 14.5821 26.7946 14.5945 26.8785C14.5759 26.6393 14.5914 26.3969 14.5914 26.1608C14.5914 25.5394 14.5914 24.9211 14.5914 24.2997C14.5914 23.38 14.5914 22.4604 14.5914 21.5407C14.5914 20.4191 14.5914 19.2944 14.5914 18.1727C14.5914 16.9424 14.5914 15.712 14.5914 14.4816C14.5914 13.2389 14.5914 11.9992 14.5914 10.7564C14.5914 9.60369 14.5914 8.451 14.5914 7.29831C14.5914 6.31961 14.5914 5.34402 14.5914 4.36532C14.5914 3.66314 14.5914 2.96096 14.5914 2.25879C14.5914 1.92945 14.5852 1.597 14.5914 1.26766C14.5914 1.2397 14.5914 1.21173 14.5945 1.18377C14.5821 1.26766 14.5728 1.34844 14.5603 1.43233C14.5635 1.40437 14.5728 1.37951 14.5852 1.35155C14.5541 1.42612 14.523 1.50068 14.4919 1.57525C14.5417 1.49136 14.5075 1.51933 14.3862 1.66535C14.2432 1.78653 14.2121 1.8207 14.296 1.77099C14.2214 1.80206 14.1468 1.83313 14.0722 1.8642C14.097 1.85177 14.125 1.84556 14.153 1.83934C14.0691 1.85177 13.9882 1.86109 13.9043 1.87352C14.1064 1.85799 14.3147 1.87041 14.5168 1.87041C14.9832 1.87041 15.4496 1.87041 15.9161 1.87041C16.967 1.87041 18.0149 1.87041 19.0659 1.87041C19.3147 1.87041 19.5696 1.85488 19.8184 1.87352C19.7344 1.86109 19.6536 1.85177 19.5696 1.83934C19.5976 1.84245 19.6225 1.85177 19.6505 1.8642C19.5759 1.83313 19.5012 1.80206 19.4266 1.77099C19.5106 1.8207 19.4826 1.78653 19.3364 1.66535C19.2152 1.52243 19.181 1.49136 19.2307 1.57525C19.1996 1.50068 19.1685 1.42612 19.1374 1.35155C19.1499 1.3764 19.1561 1.40437 19.1623 1.43233C19.1499 1.34844 19.1405 1.26766 19.1281 1.18377C19.1468 1.42301 19.1312 1.66535 19.1312 1.90148C19.1312 2.52288 19.1312 3.14117 19.1312 3.76256C19.1312 4.68223 19.1312 5.6019 19.1312 6.52156C19.1312 7.64318 19.1312 8.76791 19.1312 9.88953C19.1312 11.1199 19.1312 12.3503 19.1312 13.5806C19.1312 14.8234 19.1312 16.0631 19.1312 17.3059C19.1312 18.4586 19.1312 19.6113 19.1312 20.764C19.1312 21.7427 19.1312 22.7183 19.1312 23.6969C19.1312 24.3991 19.1312 25.1013 19.1312 25.8035C19.1312 26.1328 19.1374 26.4653 19.1312 26.7946C19.1312 26.8226 19.1312 26.8505 19.1281 26.8785C19.1405 26.7946 19.1499 26.7138 19.1623 26.6299C19.1592 26.6579 19.1499 26.6828 19.1374 26.7107C19.1685 26.6362 19.1996 26.5616 19.2307 26.487C19.181 26.5709 19.2152 26.5429 19.3364 26.3969C19.4795 26.2757 19.5106 26.2416 19.4266 26.2913C19.5012 26.2602 19.5759 26.2291 19.6505 26.1981C19.6256 26.2105 19.5976 26.2167 19.5696 26.2229C19.6536 26.2105 19.7344 26.2012 19.8184 26.1887C19.8029 26.1919 19.7873 26.1919 19.7749 26.1919C19.5261 26.2105 19.296 26.282 19.1157 26.4653C18.954 26.6268 18.8327 26.8909 18.842 27.124C18.8638 27.5993 19.2525 28.0933 19.7749 28.056C20.1107 28.0312 20.4123 27.9318 20.6548 27.6832C20.8756 27.4533 20.9876 27.1488 21 26.835C21 26.8288 21 26.8195 21 26.8133C21 26.7635 21 26.7138 21 26.6672C21 26.4404 21 26.2136 21 25.9868C21 25.1075 21 24.2282 21 23.349C21 22.0565 21 20.7671 21 19.4746C21 17.9553 21 16.4328 21 14.9135C21 13.3662 21 11.8221 21 10.2748C21 8.87044 21 7.46919 21 6.06484C21 5.00846 21 3.94898 21 2.89261C21 2.36442 21 1.83624 21 1.30805C21 1.28009 21 1.25212 21 1.22727C20.9813 0.512663 20.4092 0.00622559 19.7096 0.00622559C19.2276 0.00622559 18.7488 0.00622559 18.2668 0.00622559C16.9173 0.00622559 15.5647 0.00622559 14.2152 0.00622559C14.0659 0.00622559 13.9291 0.00622566 13.7799 0.0248675C13.158 0.108756 12.7382 0.636943 12.7227 1.25212C12.7196 1.39505 12.7227 1.54107 12.7227 1.68399C12.7227 2.43588 12.7227 3.19088 12.7227 3.94277C12.7227 5.14828 12.7227 6.35068 12.7227 7.55619C12.7227 9.03822 12.7227 10.5234 12.7227 12.0054C12.7227 13.5651 12.7227 15.1248 12.7227 16.6845C12.7227 18.1386 12.7227 19.5895 12.7227 21.0436C12.7227 22.2056 12.7227 23.3645 12.7227 24.5265C12.7227 25.2007 12.7227 25.8718 12.7227 26.5461C12.7227 26.6424 12.7196 26.7387 12.7227 26.835C12.7413 27.5123 13.2699 28.0374 13.9447 28.056C13.9696 28.056 13.9944 28.056 14.0193 28.056C14.1996 28.056 14.38 28.056 14.5603 28.056C15.9751 28.056 17.3899 28.056 18.8016 28.056C19.125 28.056 19.4484 28.056 19.7718 28.056C20.2599 28.056 20.7264 27.6273 20.7046 27.124C20.6828 26.6206 20.2973 26.1919 19.7749 26.1919Z" fill="#B3B3C3"/>
<path d="M13.6524 24.685C14.3738 24.685 15.0983 24.685 15.8197 24.685C16.9701 24.685 18.1206 24.685 19.2742 24.685C19.5385 24.685 19.7997 24.685 20.064 24.685C20.5522 24.685 21.0186 24.2562 20.9969 23.7529C20.9751 23.2465 20.5864 22.8208 20.064 22.8208C19.3426 22.8208 18.6181 22.8208 17.8968 22.8208C16.7463 22.8208 15.5958 22.8208 14.4422 22.8208C14.1779 22.8208 13.9167 22.8208 13.6524 22.8208C13.1642 22.8208 12.6978 23.2496 12.7195 23.7529C12.7413 24.2593 13.13 24.685 13.6524 24.685Z" fill="#B3B3C3"/>
<path d="M20.064 3.37729C19.3426 3.37729 18.6181 3.37729 17.8968 3.37729C16.7463 3.37729 15.5958 3.37729 14.4422 3.37729C14.1779 3.37729 13.9167 3.37729 13.6524 3.37729C13.1642 3.37729 12.6978 3.80605 12.7195 4.30938C12.7413 4.81582 13.13 5.24148 13.6524 5.24148C14.3738 5.24148 15.0983 5.24148 15.8197 5.24148C16.9701 5.24148 18.1206 5.24148 19.2742 5.24148C19.5385 5.24148 19.7997 5.24148 20.064 5.24148C20.5522 5.24148 21.0186 4.81271 20.9969 4.30938C20.972 3.80295 20.5864 3.37729 20.064 3.37729Z" fill="#B3B3C3"/>
<path d="M15.9254 11.9028C15.9254 13.242 15.9254 14.5811 15.9254 15.9233C15.9254 16.1128 15.9254 16.3054 15.9254 16.495C15.9254 16.9828 16.3545 17.4488 16.8582 17.4271C17.3651 17.4053 17.791 17.0169 17.791 16.495C17.791 15.1559 17.791 13.8167 17.791 12.4745C17.791 12.285 17.791 12.0924 17.791 11.9028C17.791 11.415 17.3619 10.949 16.8582 10.9707C16.3514 10.9956 15.9254 11.3809 15.9254 11.9028Z" fill="#B3B3C3"/>
<path d="M7.39874 26.1918C6.70222 26.1918 6.00571 26.1918 5.30608 26.1918C4.19912 26.1918 3.08905 26.1918 1.98209 26.1918C1.71779 26.1918 1.45038 26.2074 1.18608 26.1887C1.27003 26.2012 1.35088 26.2105 1.43483 26.2229C1.40685 26.2198 1.38197 26.2105 1.35399 26.1981C1.42861 26.2291 1.50324 26.2602 1.57787 26.2913C1.49391 26.2415 1.5219 26.2757 1.66804 26.3969C1.78931 26.5398 1.82351 26.5709 1.77376 26.487C1.80486 26.5616 1.83595 26.6361 1.86705 26.7107C1.85461 26.6858 1.84839 26.6579 1.84217 26.6299C1.85461 26.7138 1.86394 26.7946 1.87637 26.8785C1.85772 26.6392 1.87326 26.3969 1.87326 26.1608C1.87326 25.5394 1.87326 24.9211 1.87326 24.2997C1.87326 23.38 1.87326 22.4604 1.87326 21.5407C1.87326 20.4191 1.87326 19.2943 1.87326 18.1727C1.87326 16.9424 1.87326 15.712 1.87326 14.4816C1.87326 13.2388 1.87326 11.9992 1.87326 10.7564C1.87326 9.60367 1.87326 8.45098 1.87326 7.2983C1.87326 6.3196 1.87326 5.34401 1.87326 4.36531C1.87326 3.66313 1.87326 2.96095 1.87326 2.25877C1.87326 1.92943 1.86704 1.59699 1.87326 1.26765C1.87326 1.23968 1.87326 1.21172 1.87637 1.18376C1.86394 1.26765 1.85461 1.34843 1.84217 1.43232C1.84528 1.40435 1.85461 1.3795 1.86705 1.35154C1.83595 1.4261 1.80486 1.50067 1.77376 1.57524C1.82351 1.49135 1.78931 1.51931 1.66804 1.66534C1.52501 1.78651 1.49391 1.82069 1.57787 1.77098C1.50324 1.80205 1.42861 1.83312 1.35399 1.86419C1.37886 1.85176 1.40685 1.84555 1.43483 1.83933C1.35088 1.85176 1.27003 1.86108 1.18608 1.87351C1.39752 1.85797 1.61518 1.8704 1.82973 1.8704C2.32102 1.8704 2.81231 1.8704 3.30672 1.8704C4.41989 1.8704 5.53307 1.8704 6.64625 1.8704C6.91055 1.8704 7.17797 1.85487 7.44227 1.87351C7.35831 1.86108 7.27747 1.85176 7.19351 1.83933C7.2215 1.84244 7.24637 1.85176 7.27436 1.86419C7.19973 1.83312 7.12511 1.80205 7.05048 1.77098C7.13443 1.82069 7.10645 1.78651 6.96031 1.66534C6.83904 1.52242 6.80483 1.49135 6.85458 1.57524C6.82349 1.50067 6.7924 1.4261 6.7613 1.35154C6.77374 1.37639 6.77996 1.40435 6.78618 1.43232C6.77374 1.34843 6.76441 1.26765 6.75197 1.18376C6.77063 1.423 6.75508 1.66534 6.75508 1.90147C6.75508 2.52287 6.75508 3.14116 6.75508 3.76255C6.75508 4.68222 6.75508 5.60188 6.75508 6.52155C6.75508 7.64317 6.75508 8.7679 6.75508 9.88952C6.75508 11.1199 6.75508 12.3502 6.75508 13.5806C6.75508 14.8234 6.75508 16.0631 6.75508 17.3059C6.75508 18.4586 6.75508 19.6113 6.75508 20.7639C6.75508 21.7426 6.75508 22.7182 6.75508 23.6969C6.75508 24.3991 6.75508 25.1013 6.75508 25.8035C6.75508 26.1328 6.7613 26.4653 6.75508 26.7946C6.75508 26.8226 6.75508 26.8505 6.75197 26.8785C6.76441 26.7946 6.77374 26.7138 6.78618 26.6299C6.78307 26.6579 6.77374 26.6827 6.7613 26.7107C6.7924 26.6361 6.82349 26.5616 6.85458 26.487C6.80483 26.5709 6.83904 26.5429 6.96031 26.3969C7.10334 26.2757 7.13443 26.2415 7.05048 26.2913C7.12511 26.2602 7.19973 26.2291 7.27436 26.1981C7.24948 26.2105 7.2215 26.2167 7.19351 26.2229C7.27747 26.2105 7.35831 26.2012 7.44227 26.1887C7.42672 26.1918 7.41428 26.1918 7.39874 26.1918C7.14998 26.2105 6.91988 26.2819 6.73953 26.4653C6.57784 26.6268 6.45658 26.8909 6.4659 27.1239C6.48767 27.5993 6.87635 28.0933 7.39874 28.056C7.7812 28.0281 8.1108 27.9007 8.35022 27.59C8.52435 27.3663 8.61142 27.1177 8.62074 26.835C8.62074 26.8288 8.62074 26.8194 8.62074 26.8132C8.62074 26.7635 8.62074 26.7107 8.62074 26.661C8.62074 26.4311 8.62074 26.2012 8.62074 25.9681C8.62074 25.0702 8.62074 24.1723 8.62074 23.2713C8.62074 21.957 8.62074 20.6459 8.62074 19.3316C8.62074 17.7968 8.62074 16.2619 8.62074 14.7271C8.62074 13.1643 8.62074 11.6015 8.62074 10.0355C8.62074 8.6374 8.62074 7.23926 8.62074 5.84112C8.62074 4.80028 8.62074 3.75634 8.62074 2.7155C8.62074 2.23081 8.62696 1.74612 8.62074 1.26143C8.61453 0.826457 8.42796 0.444298 8.05794 0.198847C7.79674 0.0248559 7.50757 0 7.20906 0C6.65558 0 6.10521 0 5.55173 0C4.19601 0 2.84341 0 1.48769 0C1.34155 0 1.20473 -4.65661e-08 1.05859 0.0186418C0.436703 0.10253 0.0169292 0.630717 0.00138197 1.2459C-0.00172747 1.39193 0.00138197 1.53795 0.00138197 1.68398C0.00138197 2.45141 0.00138197 3.21572 0.00138197 3.98315C0.00138197 5.21662 0.00138197 6.45009 0.00138197 7.68356C0.00138197 9.18113 0.00138197 10.6818 0.00138197 12.1794C0.00138197 13.7546 0.00138197 15.3267 0.00138197 16.902C0.00138197 18.3591 0.00138197 19.8132 0.00138197 21.2704C0.00138197 22.4169 0.00138197 23.5633 0.00138197 24.7098C0.00138197 25.3467 0.00138197 25.9806 0.00138197 26.6175C0.00138197 26.6734 0.00138197 26.7325 0.00138197 26.7884C0.00760085 27.2265 0.206605 27.6428 0.595285 27.8727C1.02128 28.1244 1.63073 28.0467 2.10647 28.0467C3.54925 28.0467 4.99514 28.0467 6.43792 28.0467C6.75508 28.0467 7.07224 28.0467 7.38941 28.0467C7.87759 28.0467 8.344 27.6179 8.32224 27.1146C8.3098 26.6206 7.92112 26.1918 7.39874 26.1918Z" fill="#B3B3C3"/>
<path d="M7.68795 19.2726C6.92924 19.2726 6.17054 19.2726 5.41495 19.2726C4.20226 19.2726 2.98647 19.2726 1.77379 19.2726C1.49705 19.2726 1.22031 19.2726 0.943574 19.2726C0.439845 19.2726 0.0107422 19.6983 0.0107422 20.2047C0.0107422 21.1337 0.0107422 22.0596 0.0107422 22.9886C0.0107422 23.1222 0.0107422 23.2527 0.0107422 23.3863C0.0107422 23.8896 0.436735 24.3183 0.943574 24.3183C1.70228 24.3183 2.46098 24.3183 3.21657 24.3183C4.42925 24.3183 5.64504 24.3183 6.85772 24.3183C7.13446 24.3183 7.41121 24.3183 7.68795 24.3183C8.19167 24.3183 8.62078 23.8927 8.62078 23.3863C8.62078 22.4573 8.62078 21.5314 8.62078 20.6024C8.62078 20.4688 8.62078 20.3383 8.62078 20.2047C8.62078 19.7169 8.19167 19.2509 7.68795 19.2726C7.18111 19.2944 6.75511 19.6827 6.75511 20.2047C6.75511 21.1337 6.75511 22.0596 6.75511 22.9886C6.75511 23.1222 6.75511 23.2527 6.75511 23.3863C7.06606 23.0756 7.377 22.7649 7.68795 22.4542C6.92924 22.4542 6.17054 22.4542 5.41495 22.4542C4.20226 22.4542 2.98647 22.4542 1.77379 22.4542C1.49705 22.4542 1.22031 22.4542 0.943574 22.4542C1.25452 22.7649 1.56546 23.0756 1.87641 23.3863C1.87641 22.4573 1.87641 21.5314 1.87641 20.6024C1.87641 20.4688 1.87641 20.3383 1.87641 20.2047C1.56546 20.5154 1.25452 20.8261 0.943574 21.1368C1.70228 21.1368 2.46098 21.1368 3.21657 21.1368C4.42925 21.1368 5.64504 21.1368 6.85772 21.1368C7.13446 21.1368 7.41121 21.1368 7.68795 21.1368C8.17613 21.1368 8.64254 20.708 8.62078 20.2047C8.59901 19.7014 8.21033 19.2726 7.68795 19.2726Z" fill="#B3B3C3"/>
<path d="M7.68795 3.52954C6.92924 3.52954 6.17054 3.52954 5.41495 3.52954C4.20227 3.52954 2.98648 3.52954 1.77379 3.52954C1.49705 3.52954 1.22031 3.52954 0.943574 3.52954C0.455393 3.52954 -0.0110232 3.9583 0.0107429 4.46164C0.0325089 4.96807 0.421189 5.39373 0.943574 5.39373C1.70228 5.39373 2.46098 5.39373 3.21657 5.39373C4.42925 5.39373 5.64505 5.39373 6.85773 5.39373C7.13447 5.39373 7.41121 5.39373 7.68795 5.39373C8.17613 5.39373 8.64254 4.96497 8.62078 4.46164C8.59901 3.9583 8.21033 3.52954 7.68795 3.52954Z" fill="#B3B3C3"/>
</svg>
