<svg width="28" height="22" viewBox="0 0 28 22" fill="none" xmlns="http://www.w3.org/2000/svg">
<path d="M14 7.00002C13.0111 7.00002 12.0444 7.29327 11.2221 7.84267C10.3999 8.39208 9.75904 9.17297 9.3806 10.0866C9.00216 11.0002 8.90315 12.0056 9.09607 12.9755C9.289 13.9454 9.7652 14.8363 10.4645 15.5356C11.1637 16.2348 12.0546 16.711 13.0245 16.9039C13.9945 17.0969 14.9998 16.9979 15.9134 16.6194C16.827 16.241 17.6079 15.6001 18.1573 14.7779C18.7068 13.9556 19 12.9889 19 12C19 10.6739 18.4732 9.40217 17.5355 8.46449C16.5979 7.52681 15.3261 7.00002 14 7.00002ZM14 15C13.4067 15 12.8266 14.8241 12.3333 14.4944C11.8399 14.1648 11.4554 13.6963 11.2284 13.1481C11.0013 12.5999 10.9419 11.9967 11.0576 11.4148C11.1734 10.8328 11.4591 10.2983 11.8787 9.8787C12.2982 9.45914 12.8328 9.17342 13.4147 9.05767C13.9967 8.94191 14.5999 9.00132 15.1481 9.22838C15.6962 9.45545 16.1648 9.83996 16.4944 10.3333C16.8241 10.8267 17 11.4067 17 12C17 12.7957 16.6839 13.5587 16.1213 14.1213C15.5587 14.684 14.7956 15 14 15ZM25 3.00002H19.72L19.4 2.00002C19.1926 1.41325 18.8077 0.905525 18.2989 0.547183C17.7901 0.18884 17.1824 -0.0023769 16.56 2.23036e-05H11.44C10.8115 0.00119801 10.1993 0.199705 9.68977 0.567528C9.1802 0.93535 8.79901 1.45391 8.6 2.05002L8.28 3.05002H3C2.20435 3.05002 1.44129 3.36609 0.87868 3.9287C0.316071 4.49131 0 5.25437 0 6.05002V19C0 19.7957 0.316071 20.5587 0.87868 21.1213C1.44129 21.684 2.20435 22 3 22H25C25.7956 22 26.5587 21.684 27.1213 21.1213C27.6839 20.5587 28 19.7957 28 19V6.00002C28 5.20437 27.6839 4.44131 27.1213 3.8787C26.5587 3.31609 25.7956 3.00002 25 3.00002ZM26 19C26 19.2652 25.8946 19.5196 25.7071 19.7071C25.5196 19.8947 25.2652 20 25 20H3C2.73478 20 2.48043 19.8947 2.29289 19.7071C2.10536 19.5196 2 19.2652 2 19V6.00002C2 5.73481 2.10536 5.48045 2.29289 5.29292C2.48043 5.10538 2.73478 5.00002 3 5.00002H9C9.21807 5.0114 9.43386 4.9511 9.61443 4.82831C9.795 4.70552 9.93042 4.527 10 4.32002L10.54 2.68002C10.6042 2.48928 10.7244 2.32233 10.885 2.20101C11.0455 2.07969 11.239 2.00964 11.44 2.00002H16.56C16.7781 1.98864 16.9939 2.04895 17.1744 2.17174C17.355 2.29452 17.4904 2.47304 17.56 2.68002L18.1 4.32002C18.1642 4.51077 18.2844 4.67771 18.445 4.79903C18.6055 4.92035 18.799 4.9904 19 5.00002H25C25.2652 5.00002 25.5196 5.10538 25.7071 5.29292C25.8946 5.48045 26 5.73481 26 6.00002V19Z" fill="#B7B7B7"/>
</svg>
