<svg width="18" height="18" viewBox="0 0 18 18" fill="none" xmlns="http://www.w3.org/2000/svg">
<path d="M16.704 6.01488C16.6187 5.22703 16.2405 4.49999 15.6445 3.97782C15.0484 3.45566 14.2779 3.17648 13.4857 3.19561H12.5717C12.4149 2.30053 11.9475 1.48941 11.2517 0.904918C10.5559 0.320427 9.67628 0 8.76758 0C7.85887 0 6.97926 0.320427 6.28348 0.904918C5.58769 1.48941 5.12029 2.30053 4.96349 3.19561H4.03661C3.24439 3.17648 2.4739 3.45566 1.87782 3.97782C1.28174 4.49999 0.903574 5.22703 0.818266 6.01488L0.0136801 14.6143C-0.0266528 15.0361 0.022441 15.4616 0.157755 15.8631C0.293069 16.2646 0.51156 16.6331 0.798956 16.9444C1.10731 17.2783 1.48164 17.5445 1.89824 17.7262C2.31485 17.9079 2.76464 18.0012 3.21915 18H14.316C14.7705 18.0012 15.2203 17.9079 15.6369 17.7262C16.0535 17.5445 16.4278 17.2783 16.7362 16.9444C17.0236 16.6331 17.2421 16.2646 17.3774 15.8631C17.5127 15.4616 17.5618 15.0361 17.5215 14.6143L16.704 6.01488ZM8.76758 1.2646C9.33694 1.26645 9.88963 1.45697 10.3392 1.80637C10.7887 2.15576 11.1098 2.64432 11.2521 3.19561H6.28301C6.42535 2.64432 6.74641 2.15576 7.19597 1.80637C7.64552 1.45697 8.19821 1.26645 8.76758 1.2646ZM15.7836 16.069C15.5975 16.2728 15.3707 16.4354 15.118 16.5463C14.8652 16.6571 14.592 16.7138 14.316 16.7127H3.21915C2.94314 16.7138 2.66996 16.6571 2.41719 16.5463C2.16443 16.4354 1.93769 16.2728 1.75159 16.069C1.58545 15.8906 1.45886 15.6791 1.38011 15.4484C1.30136 15.2177 1.27221 14.9729 1.29458 14.7302L2.11848 6.13717C2.17162 5.67077 2.39855 5.24151 2.75403 4.93493C3.10952 4.62836 3.56746 4.46698 4.03661 4.48294H4.90556V5.77028C4.90556 5.94099 4.97338 6.10471 5.09409 6.22542C5.2148 6.34614 5.37852 6.41395 5.54923 6.41395C5.71994 6.41395 5.88366 6.34614 6.00437 6.22542C6.12509 6.10471 6.1929 5.94099 6.1929 5.77028V4.48294H11.3423V5.77028C11.3423 5.94099 11.4101 6.10471 11.5308 6.22542C11.6515 6.34614 11.8152 6.41395 11.9859 6.41395C12.1566 6.41395 12.3204 6.34614 12.4411 6.22542C12.5618 6.10471 12.6296 5.94099 12.6296 5.77028V4.48294H13.4985C13.9699 4.46366 14.431 4.62354 14.7893 4.93043C15.1475 5.23732 15.3763 5.66847 15.4295 6.13717L16.2534 14.7366C16.2732 14.9792 16.2416 15.2233 16.1606 15.4529C16.0796 15.6825 15.9512 15.8924 15.7836 16.069Z" fill="white"/>
</svg>
