<svg width="16" height="16" viewBox="0 0 16 16" fill="none" xmlns="http://www.w3.org/2000/svg">
<path d="M1.74583 6.86288H5.72576C6.02734 6.86288 6.31658 6.74308 6.52983 6.52983C6.74308 6.31658 6.86288 6.02734 6.86288 5.72576V1.74583C6.86288 1.44424 6.74308 1.15501 6.52983 0.94176C6.31658 0.728508 6.02734 0.608704 5.72576 0.608704H1.74583C1.44424 0.608704 1.15501 0.728508 0.94176 0.94176C0.728508 1.15501 0.608704 1.44424 0.608704 1.74583V5.72576C0.608704 6.02734 0.728508 6.31658 0.94176 6.52983C1.15501 6.74308 1.44424 6.86288 1.74583 6.86288ZM2.31439 2.31439H5.1572V5.1572H2.31439V2.31439Z" fill="white"/>
<path d="M1.74583 15.3913H5.72576C6.02734 15.3913 6.31658 15.2715 6.52983 15.0583C6.74308 14.845 6.86288 14.5558 6.86288 14.2542V10.2743C6.86288 9.97267 6.74308 9.68344 6.52983 9.47019C6.31658 9.25693 6.02734 9.13713 5.72576 9.13713H1.74583C1.44424 9.13713 1.15501 9.25693 0.94176 9.47019C0.728508 9.68344 0.608704 9.97267 0.608704 10.2743V14.2542C0.608704 14.5558 0.728508 14.845 0.94176 15.0583C1.15501 15.2715 1.44424 15.3913 1.74583 15.3913ZM2.31439 10.8428H5.1572V13.6856H2.31439V10.8428Z" fill="white"/>
<path d="M10.2743 6.86288H14.2542C14.5558 6.86288 14.845 6.74308 15.0583 6.52983C15.2715 6.31658 15.3913 6.02734 15.3913 5.72576V1.74583C15.3913 1.44424 15.2715 1.15501 15.0583 0.94176C14.845 0.728508 14.5558 0.608704 14.2542 0.608704H10.2743C9.97267 0.608704 9.68344 0.728508 9.47019 0.94176C9.25693 1.15501 9.13713 1.44424 9.13713 1.74583V5.72576C9.13713 6.02734 9.25693 6.31658 9.47019 6.52983C9.68344 6.74308 9.97267 6.86288 10.2743 6.86288ZM10.8428 2.31439H13.6856V5.1572H10.8428V2.31439Z" fill="white"/>
<path d="M13.1171 11.4114H11.4114V13.1171H13.1171V11.4114Z" fill="white"/>
<path d="M14.8228 10.1321C14.8228 10.019 14.7778 9.91055 14.6979 9.83058C14.6179 9.75061 14.5094 9.70569 14.3963 9.70569H13.1171V11.4114H14.8228V10.1321Z" fill="white"/>
<path d="M10.1321 9.70569C10.019 9.70569 9.91055 9.75061 9.83058 9.83058C9.75061 9.91055 9.70569 10.019 9.70569 10.1321V11.4114H11.4114V9.70569H10.1321Z" fill="white"/>
<path d="M14.3963 14.8228C14.5094 14.8228 14.6179 14.7778 14.6979 14.6979C14.7778 14.6179 14.8228 14.5094 14.8228 14.3963V13.1171H13.1171V14.8228H14.3963Z" fill="white"/>
<path d="M9.70569 14.3963C9.70569 14.5094 9.75061 14.6179 9.83058 14.6979C9.91055 14.7778 10.019 14.8228 10.1321 14.8228H11.4114V13.1171H9.70569V14.3963Z" fill="white"/>
</svg>
