<svg width="29" height="31" viewBox="0 0 29 31" fill="none" xmlns="http://www.w3.org/2000/svg">
<path d="M29 21.3125C29 23.9834 26.9674 26.1562 24.4688 26.1562H20.7305V28.5781H22.9961C23.6218 28.5781 24.1289 29.1202 24.1289 29.7891C24.1289 30.4579 23.6218 31 22.9961 31H16.1992C15.5735 31 15.0664 30.4579 15.0664 29.7891C15.0664 29.1202 15.5735 28.5781 16.1992 28.5781H18.4648V26.1562H16.1992C15.5735 26.1562 15.0664 25.6142 15.0664 24.9453C15.0664 24.2765 15.5735 23.7344 16.1992 23.7344H24.4688C25.7179 23.7344 26.7344 22.6478 26.7344 21.3125C26.7344 20.6436 27.2415 20.1016 27.8672 20.1016C28.4929 20.1016 29 20.6436 29 21.3125ZM24.4688 5.57031H16.1992C15.5735 5.57031 15.0664 6.1124 15.0664 6.78125C15.0664 7.4501 15.5735 7.99219 16.1992 7.99219H24.4688C25.7179 7.99219 26.7344 9.07872 26.7344 10.4141V15.2578C26.7344 15.9267 27.2415 16.4688 27.8672 16.4688C28.4929 16.4688 29 15.9267 29 15.2578V10.4141C29 7.74314 26.9674 5.57031 24.4688 5.57031ZM12.8008 3.63281V27.3672C12.8008 29.3704 11.2764 31 9.40234 31H3.39844C1.52443 31 0 29.3704 0 27.3672V3.63281C0 1.62956 1.52443 0 3.39844 0H9.40234C11.2764 0 12.8008 1.62956 12.8008 3.63281ZM10.5352 3.63281C10.5352 2.96514 10.0269 2.42188 9.40234 2.42188H3.39844C2.77384 2.42188 2.26562 2.96514 2.26562 3.63281V27.3672C2.26562 28.0349 2.77384 28.5781 3.39844 28.5781H9.40234C10.0269 28.5781 10.5352 28.0349 10.5352 27.3672V3.63281ZM7.70312 15.8633H5.09766C4.47195 15.8633 3.96484 16.4054 3.96484 17.0742C3.96484 17.7431 4.47195 18.2852 5.09766 18.2852H7.70312C8.32883 18.2852 8.83594 17.7431 8.83594 17.0742C8.83594 16.4054 8.32883 15.8633 7.70312 15.8633ZM7.70312 4.84375H5.09766C4.47195 4.84375 3.96484 5.38583 3.96484 6.05469C3.96484 6.72354 4.47195 7.26562 5.09766 7.26562H7.70312C8.32883 7.26562 8.83594 6.72354 8.83594 6.05469C8.83594 5.38583 8.32883 4.84375 7.70312 4.84375ZM7.70312 20.1016H5.09766C4.47195 20.1016 3.96484 20.6436 3.96484 21.3125C3.96484 21.9814 4.47195 22.5234 5.09766 22.5234H7.70312C8.32883 22.5234 8.83594 21.9814 8.83594 21.3125C8.83594 20.6436 8.32883 20.1016 7.70312 20.1016ZM6.51367 24.3398C5.88797 24.3398 5.38086 24.8819 5.38086 25.5508C5.38086 26.2196 5.88797 26.7617 6.51367 26.7617C7.13937 26.7617 7.64648 26.2196 7.64648 25.5508C7.64648 24.8819 7.13937 24.3398 6.51367 24.3398Z" fill="#B3B3C3"/>
</svg>
