<svg width="19" height="17" viewBox="0 0 19 17" fill="none" xmlns="http://www.w3.org/2000/svg">
<path d="M9.5 17C9.22951 17 8.96873 16.9015 8.7655 16.7224C7.99794 16.0475 7.25793 15.4132 6.60503 14.8536L6.6017 14.8507C4.68752 13.2102 3.03456 11.7935 1.88446 10.3979C0.598824 8.83778 0 7.35852 0 5.74252C0 4.17244 0.535332 2.72395 1.50728 1.66367C2.49082 0.590857 3.84039 0 5.3078 0C6.40456 0 7.40897 0.348712 8.29308 1.03637C8.73926 1.38348 9.14369 1.80829 9.5 2.3038C9.85645 1.80829 10.2607 1.38348 10.7071 1.03637C11.5912 0.348712 12.5956 0 13.6923 0C15.1596 0 16.5093 0.590857 17.4929 1.66367C18.4648 2.72395 19 4.17244 19 5.74252C19 7.35852 18.4013 8.83778 17.1157 10.3978C15.9656 11.7935 14.3128 13.2101 12.3989 14.8504C11.7448 15.4108 11.0037 16.0461 10.2344 16.7227C10.0313 16.9015 9.77035 17 9.5 17ZM5.3078 1.11932C4.15495 1.11932 3.09588 1.58203 2.32542 2.42232C1.54352 3.2753 1.11285 4.45439 1.11285 5.74252C1.11285 7.10165 1.61513 8.31719 2.74131 9.68375C3.8298 11.0047 5.44884 12.3923 7.32345 13.9989L7.32693 14.0018C7.98228 14.5635 8.7252 15.2003 9.49841 15.8802C10.2763 15.199 11.0203 14.5612 11.677 13.9986C13.5514 12.392 15.1703 11.0047 16.2588 9.68375C17.3849 8.31719 17.8872 7.10165 17.8872 5.74252C17.8872 4.45439 17.4565 3.2753 16.6746 2.42232C15.9043 1.58203 14.8451 1.11932 13.6923 1.11932C12.8478 1.11932 12.0724 1.38931 11.3878 1.92171C10.7777 2.39637 10.3526 2.99642 10.1035 3.41627C9.97532 3.63217 9.74976 3.76105 9.5 3.76105C9.25024 3.76105 9.02468 3.63217 8.89654 3.41627C8.6475 2.99642 8.22248 2.39637 7.61221 1.92171C6.92757 1.38931 6.15218 1.11932 5.3078 1.11932Z" fill="white"/>
</svg>
