<svg width="11" height="13" viewBox="0 0 11 13" fill="none" xmlns="http://www.w3.org/2000/svg">
<path d="M3.9875 12.806C4.17164 12.9225 4.38182 12.9889 4.59804 12.9987C4.81427 13.0086 5.02936 12.9616 5.22288 12.8623L6.91519 11.9956C7.12554 11.8875 7.30242 11.7217 7.42607 11.5166C7.54971 11.3115 7.61526 11.0752 7.61538 10.8342V7.04005L10.6277 3.95231C10.8658 3.70873 10.9997 3.37826 11 3.03357V1.3001C11 0.955294 10.8663 0.624608 10.6283 0.380791C10.3902 0.136975 10.0674 0 9.73077 0H1.26923C0.93261 0 0.609776 0.136975 0.371749 0.380791C0.133722 0.624608 0 0.955294 0 1.3001V3.03357C0.000296242 3.37826 0.134213 3.70873 0.372308 3.95231L3.38462 7.04005V11.7009C3.38485 11.9225 3.44036 12.1403 3.54588 12.3337C3.65139 12.5271 3.80341 12.6897 3.9875 12.806ZM1.26923 3.03357V1.3001H9.73077V3.03357L6.34615 6.50051V10.8342L4.65385 11.7009V6.50051L1.26923 3.03357Z" fill="#010035"/>
</svg>
