<svg width="32" height="30" viewBox="0 0 32 30" fill="none" xmlns="http://www.w3.org/2000/svg">
<path d="M15.1951 29.6484C15.2988 29.7595 15.4235 29.848 15.5617 29.9084C15.6998 29.9688 15.8486 30 15.9989 30C16.3019 29.9956 16.5908 29.8692 16.8028 29.6484L29.1289 17.5C30.9794 15.5698 32.0108 12.9737 31.9999 10.2734C32.0005 7.56367 30.9713 4.95925 29.1289 3.00781C27.4689 1.32468 25.2294 0.371281 22.8893 0.351562H22.851C20.3381 0.383444 17.9148 1.30903 15.9989 2.96875C13.817 1.01563 11.7499 0 9.83589 0C8.53724 0.00527173 7.25257 0.273892 6.05655 0.790248C4.86052 1.3066 3.777 2.0604 2.86897 3.00781C1.022 4.95928 -0.00710992 7.56836 3.69773e-05 10.2814C0.00718387 12.9944 1.05002 15.5978 2.90724 17.5391L15.1951 29.6484ZM4.515 4.64844C5.2059 3.92083 6.03276 3.34198 6.94668 2.94613C7.86061 2.55027 8.84305 2.34544 9.83589 2.34375C11.3671 2.34375 13.2045 3.39844 15.1951 5.39062C15.2988 5.50172 15.4235 5.59016 15.5617 5.65059C15.6998 5.71103 15.8486 5.74219 15.9989 5.74219C16.1493 5.74219 16.2981 5.71103 16.4362 5.65059C16.5744 5.59016 16.6991 5.50172 16.8028 5.39062C18.4002 3.72593 20.5688 2.75952 22.851 2.69531H22.8893C24.6136 2.69962 26.2657 3.40209 27.4829 4.64844C28.9028 6.15482 29.696 8.16376 29.696 10.2539C29.696 12.344 28.9028 14.353 27.4829 15.8594L15.9989 27.1875L4.62984 15.9766H7.99846C8.19073 15.9778 8.38001 15.928 8.54777 15.8322C8.71553 15.7363 8.85601 15.5976 8.95546 15.4297L10.5249 13.0078L13.817 19.4531C13.9213 19.6314 14.0663 19.7813 14.2395 19.8901C14.4128 19.9989 14.6093 20.0634 14.8123 20.0781H14.8506C15.0466 20.0754 15.2384 20.0197 15.4065 19.9168C15.5745 19.8139 15.7129 19.6674 15.8075 19.4922L19.6355 13.125L21.7792 15.2344C21.9939 15.4491 22.2825 15.5694 22.5831 15.5694C22.8837 15.5694 23.1723 15.4491 23.387 15.2344C23.4969 15.1252 23.5843 14.9946 23.644 14.8503C23.7037 14.7061 23.7344 14.5511 23.7344 14.3945C23.7344 14.238 23.7037 14.083 23.644 13.9387C23.5843 13.7945 23.4969 13.6639 23.387 13.5547L20.2097 10.4297C20.0796 10.3136 19.9276 10.2259 19.763 10.1722C19.5984 10.1184 19.4247 10.0997 19.2527 10.1172C19.0811 10.1378 18.9162 10.1977 18.7704 10.2924C18.6246 10.3871 18.5016 10.5141 18.4106 10.6641L14.9271 16.5234L11.6733 10.1562C11.5872 9.97102 11.4519 9.81421 11.2827 9.7037C11.1135 9.59319 10.9172 9.53344 10.7163 9.53125C10.5151 9.51184 10.3124 9.54888 10.1303 9.63837C9.94815 9.72786 9.79341 9.86641 9.68277 10.0391L7.38598 13.6328H3.02208C2.36751 12.1535 2.15993 10.5086 2.42585 8.9083C2.69177 7.30799 3.41912 5.82489 4.515 4.64844Z" fill="#010035" fill-opacity="0.3"/>
</svg>
