<svg width="12" height="16" viewBox="0 0 12 16" fill="none" xmlns="http://www.w3.org/2000/svg">
<path d="M6.00081 0C2.69201 0 0 2.69119 0 5.99919C0 7.59719 0.621669 9.10023 1.75057 10.234L5.70053 15.1189C5.79954 15.2414 5.94887 15.3129 6.10713 15.3129C6.10875 15.3129 6.11119 15.3129 6.11281 15.3129C6.27269 15.3112 6.42283 15.2366 6.52022 15.11L10.4994 9.9605C11.4668 8.86325 12 7.4576 12 5.99919C12.0008 2.69119 9.30962 0 6.00081 0ZM9.70648 9.2804C9.69836 9.28933 9.69106 9.29825 9.68375 9.30799L6.0982 13.9478L2.54673 9.55553C2.53537 9.54092 2.52239 9.52712 2.50859 9.51332C1.56554 8.57514 1.04531 7.32693 1.04531 6C1.04531 3.26823 3.26823 1.04612 6 1.04612C8.73177 1.04612 10.9547 3.26823 10.9547 6C10.9555 7.20763 10.5116 8.37306 9.70648 9.2804Z" fill="#FF6E4E"/>
<path d="M6.00081 3.81686C4.96199 3.81686 4.11633 4.66253 4.11633 5.70135C4.11633 6.74017 4.96199 7.58502 6.00081 7.58502C7.03963 7.58502 7.88448 6.74017 7.88448 5.70135C7.8853 4.66253 7.03963 3.81686 6.00081 3.81686ZM6.00081 6.53971C5.53821 6.53971 5.16245 6.16314 5.16245 5.70135C5.16245 5.23875 5.53902 4.86218 6.00081 4.86218C6.46341 4.86218 6.83917 5.23875 6.83917 5.70135C6.83917 6.16395 6.46341 6.53971 6.00081 6.53971Z" fill="#FF6E4E"/>
</svg>
