<svg id="Capa_1" data-name="Capa 1" xmlns="http://www.w3.org/2000/svg" viewBox="0 0 128 90"><circle cx="45" cy="45" r="45" fill="#ff6e4e"/><path d="M40.49,56.83H33.64V54.45h6.41V51.67H33.64V49.42h6.81v-2.8H30.54v13h10Zm6-6.57a4.8,4.8,0,1,0,0,9.6,4.59,4.59,0,0,0,3.9-2l-2.26-1.61a2.12,2.12,0,0,1-1.72.88,1.9,1.9,0,0,1-1.86-2.09A1.92,1.92,0,0,1,46.45,53a2,2,0,0,1,1.68.88l2.27-1.59A4.59,4.59,0,0,0,46.51,50.26Zm9.27,0a4.8,4.8,0,1,0,4.95,4.8A4.74,4.74,0,0,0,55.78,50.26Zm0,2.71a2.09,2.09,0,1,1-2,2.09A2,2,0,0,1,55.78,53Zm17.47-2.71a3.13,3.13,0,0,0-2.89,1.53,3.09,3.09,0,0,0-2.77-1.53,2.91,2.91,0,0,0-2.71,1.4V50.51H62.09v9.11H65v-4.9c0-1.18.66-1.73,1.47-1.73s1.44.61,1.44,1.68v4.95h2.91v-4.9c0-1.18.67-1.73,1.47-1.73s1.45.61,1.45,1.68v4.95h2.91v-6A3.15,3.15,0,0,0,73.25,50.26Zm16.33,0a3.13,3.13,0,0,0-2.89,1.53,3.09,3.09,0,0,0-2.77-1.53,2.93,2.93,0,0,0-2.72,1.4V50.51H78.42v9.11h2.91v-4.9c0-1.18.66-1.73,1.47-1.73s1.44.61,1.44,1.68v4.95h2.91v-4.9c0-1.18.67-1.73,1.47-1.73s1.45.61,1.45,1.68v4.95H93v-6A3.15,3.15,0,0,0,89.58,50.26Zm9.36,0a4.8,4.8,0,0,0,.13,9.6,5.57,5.57,0,0,0,4-1.49l-1.88-1.75a3,3,0,0,1-2,.8A1.8,1.8,0,0,1,97.27,56h6.17a5.84,5.84,0,0,0,0-.9A4.46,4.46,0,0,0,98.94,50.26Zm0,2.47a1.63,1.63,0,0,1,1.64,1.4H97.27A1.62,1.62,0,0,1,99,52.73Zm11.16-2.47a2.69,2.69,0,0,0-2.48,1.3V50.51h-2.79v9.11h2.91V54.7a1.47,1.47,0,0,1,1.66-1.64,4.9,4.9,0,0,1,1.46.24l.27-2.9A4.11,4.11,0,0,0,110.11,50.26Zm6.33,0a4.8,4.8,0,1,0,0,9.6,4.59,4.59,0,0,0,3.9-2l-2.26-1.61a2.12,2.12,0,0,1-1.72.88,1.9,1.9,0,0,1-1.86-2.09A1.92,1.92,0,0,1,116.38,53a2,2,0,0,1,1.68.88l2.27-1.59A4.59,4.59,0,0,0,116.44,50.26Zm9,0a4.8,4.8,0,0,0,.13,9.6,5.55,5.55,0,0,0,4-1.49l-1.87-1.75a3,3,0,0,1-2,.8,1.81,1.81,0,0,1-2-1.46h6.17a5.71,5.71,0,0,0,.06-.9A4.47,4.47,0,0,0,125.44,50.26Zm0,2.47a1.62,1.62,0,0,1,1.64,1.4h-3.31A1.61,1.61,0,0,1,125.45,52.73ZM36.84,66.81a6.74,6.74,0,1,0,0,13.48,6.6,6.6,0,0,0,5.66-2.88L40,75.61a3.65,3.65,0,0,1-3.14,1.7,3.77,3.77,0,1,1,3.09-5.82l2.72-1.56A6.49,6.49,0,0,0,36.84,66.81Zm11.32,3.88a4.8,4.8,0,1,0,4.94,4.8A4.74,4.74,0,0,0,48.16,70.69Zm0,2.71a2.09,2.09,0,1,1-2,2.09A2,2,0,0,1,48.16,73.4ZM60,70.69a2.9,2.9,0,0,0-2.71,1.39V70.94H54.46V80h2.91v-4.9c0-1.18.67-1.72,1.48-1.72s1.43.6,1.43,1.68V80h2.91v-6A3.14,3.14,0,0,0,60,70.69Zm9.42,0a4.8,4.8,0,1,0,3.9,7.62L71,76.69a2.12,2.12,0,0,1-1.72.88,1.89,1.89,0,0,1-1.86-2.08,1.92,1.92,0,0,1,1.88-2.09,2,2,0,0,1,1.68.87l2.27-1.59A4.58,4.58,0,0,0,69.38,70.69Zm9,0a4.8,4.8,0,0,0,.13,9.6,5.51,5.51,0,0,0,4-1.5l-1.87-1.74a3,3,0,0,1-2,.79,1.81,1.81,0,0,1-2-1.45h6.17a5.89,5.89,0,0,0,.06-.9A4.47,4.47,0,0,0,78.38,70.69Zm0,2.47A1.61,1.61,0,0,1,80,74.55H76.72A1.61,1.61,0,0,1,78.39,73.16ZM89.7,70.69a3.13,3.13,0,0,0-2.61,1.23v-1h-2.8V83.76h2.89V79.18a3.13,3.13,0,0,0,2.52,1.11c2.43,0,4.24-2.12,4.24-4.81S92.13,70.69,89.7,70.69ZM89,73.4a2.09,2.09,0,1,1-1.94,2.09A1.95,1.95,0,0,1,89,73.4Zm13.2-2.46H99.09V68.28H96.18v2.66h-1.7v2.57h1.7v3c0,2.29,1.1,3.75,3.55,3.75a5.19,5.19,0,0,0,3.23-1L102,77a3.35,3.35,0,0,1-1.57.56c-.74,0-1.29-.35-1.29-1.4V73.51h3.11Z" transform="translate(-2 -21)" fill="#fff"/></svg>