<svg width="28" height="28" viewBox="0 0 28 28" fill="none" xmlns="http://www.w3.org/2000/svg">
<path d="M14 9.0602C11.2744 9.0602 9.06018 11.2744 9.06018 14C9.06018 16.7256 11.2744 18.9398 14 18.9398C16.7256 18.9398 18.9398 16.7256 18.9398 14C18.9398 11.2744 16.7256 9.0602 14 9.0602ZM14 16.9639C12.3669 16.9639 11.0361 15.633 11.0361 14C11.0361 12.367 12.3669 11.0361 14 11.0361C15.633 11.0361 16.9639 12.367 16.9639 14C16.9639 15.633 15.633 16.9639 14 16.9639Z" fill="#B7B7B7"/>
<path d="M27.012 10.2806C27.5583 10.2806 28 9.83894 28 9.29265C28 8.74637 27.5583 8.30469 27.012 8.30469H24.6932V6.60191C24.6932 4.77709 23.2287 3.30677 21.3981 3.30677H19.6953V0.987962C19.6953 0.441677 19.2536 0 18.7073 0C18.1611 0 17.7194 0.441677 17.7194 0.987962V3.30677H10.2806V0.987962C10.2806 0.441677 9.83894 0 9.29265 0C8.74637 0 8.30469 0.441677 8.30469 0.987962V3.30677H6.60191C4.77127 3.30677 3.30677 4.77127 3.30677 6.60191V8.30469H0.987962C0.441677 8.30469 0 8.74637 0 9.29265C0 9.83894 0.441677 10.2806 0.987962 10.2806H3.30677V17.7194H0.987962C0.441677 17.7194 0 18.1611 0 18.7073C0 19.2536 0.441677 19.6953 0.987962 19.6953H3.30677V21.3981C3.30677 23.2229 4.77127 24.6932 6.60191 24.6932H8.30469V27.012C8.30469 27.5583 8.74637 28 9.29265 28C9.83894 28 10.2806 27.5583 10.2806 27.012V24.6932H17.7194V27.012C17.7194 27.5583 18.1611 28 18.7073 28C19.2536 28 19.6953 27.5583 19.6953 27.012V24.6932H21.3981C23.2229 24.6932 24.6932 23.2287 24.6932 21.3981V19.6953H27.012C27.5583 19.6953 28 19.2536 28 18.7073C28 18.1611 27.5583 17.7194 27.012 17.7194H24.6932V10.2806H27.012ZM22.7754 21.4388C22.7754 22.1768 22.1768 22.7754 21.4388 22.7754H6.61934C5.88128 22.7754 5.28269 22.1768 5.28269 21.4388V6.61934C5.28269 5.88128 5.88128 5.28269 6.61934 5.28269H21.4388C22.1768 5.28269 22.7754 5.88128 22.7754 6.61934V21.4388Z" fill="#B7B7B7"/>
</svg>
