<svg width="19" height="22" viewBox="0 0 19 22" fill="none" xmlns="http://www.w3.org/2000/svg">
<path d="M17.2857 0H5.23608C5.16316 0.00210347 5.09048 0.00937644 5.01859 0.0217642C4.88813 0.000522292 4.75439 0.0131126 4.63018 0.0583308C4.50598 0.103549 4.39545 0.179882 4.30917 0.280029L4.2031 0.406371C4.16012 0.443221 4.11565 0.4741 4.07401 0.516371L2.36751 2.59152L0.184171 5.19074C0.112275 5.2778 0.0603103 5.37954 0.0319276 5.48883C0.00354485 5.59811 -0.000567681 5.71228 0.0198786 5.82332C0.00897307 5.88898 0.00233295 5.95528 0 6.02179V20.4286C0.000478291 20.8452 0.166193 21.2446 0.460789 21.5392C0.755385 21.8338 1.15481 21.9995 1.57143 22H17.2857C17.7023 21.9995 18.1018 21.8338 18.3964 21.5392C18.691 21.2446 18.8567 20.8452 18.8571 20.4286V1.57143C18.8567 1.15481 18.691 0.755385 18.3964 0.460789C18.1018 0.166193 17.7023 0.000478291 17.2857 0ZM17.2857 20.4286H1.57143L1.62242 5.96577L3.32891 3.89062L5.27701 1.57143L17.2857 1.57064V20.4286Z" fill="#B7B7B7"/>
<path d="M14.9285 7.07142C15.1369 7.07142 15.3368 6.98864 15.4841 6.84129C15.6315 6.69394 15.7143 6.49409 15.7143 6.28571V3.92857C15.7143 3.72018 15.6315 3.52033 15.4841 3.37298C15.3368 3.22563 15.1369 3.14285 14.9285 3.14285C14.7202 3.14285 14.5203 3.22563 14.373 3.37298C14.2256 3.52033 14.1428 3.72018 14.1428 3.92857V6.28571C14.1428 6.49409 14.2256 6.69394 14.373 6.84129C14.5203 6.98864 14.7202 7.07142 14.9285 7.07142Z" fill="#B7B7B7"/>
<path d="M11.7857 7.07142C11.9941 7.07142 12.1939 6.98864 12.3413 6.84129C12.4886 6.69394 12.5714 6.49409 12.5714 6.28571V3.92857C12.5714 3.72018 12.4886 3.52033 12.3413 3.37298C12.1939 3.22563 11.9941 3.14285 11.7857 3.14285C11.5773 3.14285 11.3775 3.22563 11.2301 3.37298C11.0828 3.52033 11 3.72018 11 3.92857V6.28571C11 6.49409 11.0828 6.69394 11.2301 6.84129C11.3775 6.98864 11.5773 7.07142 11.7857 7.07142Z" fill="#B7B7B7"/>
<path d="M8.64289 7.07142C8.85128 7.07142 9.05113 6.98864 9.19848 6.84129C9.34583 6.69394 9.42861 6.49409 9.42861 6.28571V3.92857C9.42861 3.72018 9.34583 3.52033 9.19848 3.37298C9.05113 3.22563 8.85128 3.14285 8.64289 3.14285C8.43451 3.14285 8.23466 3.22563 8.08731 3.37298C7.93996 3.52033 7.85718 3.72018 7.85718 3.92857V6.28571C7.85718 6.49409 7.93996 6.69394 8.08731 6.84129C8.23466 6.98864 8.43451 7.07142 8.64289 7.07142Z" fill="#B7B7B7"/>
<path d="M4.71436 3.92857V6.28571C4.71436 6.49409 4.79714 6.69394 4.94449 6.84129C5.09184 6.98864 5.29169 7.07142 5.50007 7.07142C5.70845 7.07142 5.9083 6.98864 6.05565 6.84129C6.203 6.69394 6.28578 6.49409 6.28578 6.28571V3.92857C6.28578 3.72018 6.203 3.52033 6.05565 3.37298C5.9083 3.22563 5.70845 3.14285 5.50007 3.14285C5.29169 3.14285 5.09184 3.22563 4.94449 3.37298C4.79714 3.52033 4.71436 3.72018 4.71436 3.92857Z" fill="#B7B7B7"/>
</svg>
