<svg width="16" height="16" viewBox="0 0 16 16" fill="none" xmlns="http://www.w3.org/2000/svg">
<path d="M6.75863 0C3.03191 0 0 3.03191 0 6.75863C0 10.4854 3.03191 13.5173 6.75863 13.5173C10.4854 13.5173 13.5173 10.4854 13.5173 6.75863C13.5173 3.03191 10.4853 0 6.75863 0ZM6.75863 12.335C3.68375 12.335 1.18228 9.83351 1.18228 6.75863C1.18228 3.68375 3.68375 1.18228 6.75863 1.18228C9.83332 1.18228 12.335 3.68375 12.335 6.75863C12.335 9.83351 9.83351 12.335 6.75863 12.335Z" fill="#FF6E4E"/>
<path d="M15.8268 14.9909L11.5312 10.6954C11.3003 10.4644 10.9263 10.4644 10.6954 10.6954C10.4644 10.9261 10.4644 11.3005 10.6954 11.5312L14.991 15.8268C15.1064 15.9423 15.2575 16 15.4089 16C15.5602 16 15.7114 15.9423 15.8268 15.8268C16.0577 15.5961 16.0577 15.2217 15.8268 14.9909Z" fill="#FF6E4E"/>
</svg>
