<svg width="15" height="16" viewBox="0 0 15 16" fill="none" xmlns="http://www.w3.org/2000/svg">
<path d="M14.125 2.59375H10.3438V1.875C10.3438 0.841125 9.50262 0 8.46875 0H6.28125C5.24738 0 4.40625 0.841125 4.40625 1.875V2.59375H0.625C0.279813 2.59375 0 2.87356 0 3.21875C0 3.56394 0.279813 3.84375 0.625 3.84375H1.27225L2.03394 13.7183C2.03416 13.7212 2.03441 13.7241 2.03466 13.727C2.09141 14.3497 2.37697 14.9247 2.83872 15.3463C3.30047 15.7678 3.89909 16 4.52431 16H10.2257C11.5278 16 12.5981 15.0302 12.7153 13.7443C12.7467 13.4005 12.4934 13.0964 12.1497 13.0651C11.8056 13.0338 11.5018 13.287 11.4705 13.6307C11.4123 14.2688 10.8772 14.75 10.2257 14.75H4.52431C3.87503 14.75 3.34072 14.2634 3.27984 13.6174L2.52597 3.84375H12.224L11.6902 10.7644C11.6637 11.1086 11.9212 11.4091 12.2653 11.4357C12.2817 11.4369 12.2979 11.4375 12.3141 11.4375C12.6374 11.4375 12.9113 11.1883 12.9365 10.8606L13.4777 3.84375H14.125C14.4702 3.84375 14.75 3.56394 14.75 3.21875C14.75 2.87356 14.4702 2.59375 14.125 2.59375ZM9.09375 2.59375H5.65625V1.875C5.65625 1.53038 5.93663 1.25 6.28125 1.25H8.46875C8.81338 1.25 9.09375 1.53038 9.09375 1.875V2.59375Z" fill="#36364D"/>
<path d="M4.53523 5.09434C4.19039 5.10941 3.92304 5.40116 3.93811 5.74603L4.25061 12.9002C4.26526 13.2358 4.54192 13.4979 4.87454 13.4979C4.88373 13.4979 4.89301 13.4978 4.90229 13.4973C5.24714 13.4823 5.51448 13.1905 5.49942 12.8456L5.18692 5.69144C5.17186 5.34663 4.87954 5.07884 4.53523 5.09434Z" fill="#36364D"/>
<path d="M9.56311 5.69147L9.25061 12.8457C9.23554 13.1905 9.50289 13.4823 9.84773 13.4973C9.85701 13.4978 9.86626 13.498 9.87548 13.498C10.2081 13.498 10.4848 13.2358 10.4994 12.9002L10.8119 5.74606C10.827 5.40122 10.5596 5.10944 10.2148 5.09438C9.87051 5.07897 9.57817 5.34663 9.56311 5.69147Z" fill="#36364D"/>
<path d="M6.75 5.71875V12.8729C6.75 13.2181 7.02981 13.4979 7.375 13.4979C7.72019 13.4979 8 13.2181 8 12.8729V5.71875C8 5.37356 7.72019 5.09375 7.375 5.09375C7.02981 5.09375 6.75 5.37356 6.75 5.71875Z" fill="#36364D"/>
</svg>
