<svg width="18" height="18" viewBox="0 0 18 18" fill="none" xmlns="http://www.w3.org/2000/svg">
<path d="M8.50598 0C11.2303 0 13.4643 2.27634 13.4643 5.05237C13.4643 6.88454 12.4835 8.49464 11.0669 9.38297C14.2816 10.3823 16.6791 13.2694 17.006 16.8227C17.115 17.711 15.7528 17.8776 15.6438 16.9338C15.2624 13.2694 12.2111 10.3823 8.50598 10.3823C4.80085 10.3823 1.74957 13.2694 1.36816 16.9338C1.31367 17.8776 -0.102998 17.711 0.00597662 16.8227C0.387387 13.2694 2.78482 10.3823 5.99957 9.38297C4.52841 8.49464 3.54764 6.88454 3.54764 5.05237C3.54764 2.27634 5.78162 0 8.50598 0ZM8.50598 1.38801C6.54444 1.38801 4.96431 3.05363 4.96431 5.05237C4.96431 7.0511 6.54444 8.6612 8.50598 8.6612C10.4675 8.6612 12.1021 7.0511 12.1021 5.05237C12.1021 3.05363 10.4675 1.38801 8.50598 1.38801Z" fill="white"/>
</svg>
