<svg width="30" height="30" viewBox="0 0 30 30" fill="none" xmlns="http://www.w3.org/2000/svg">
<path d="M10 21.25L15 26.25L20 21.25" stroke="white" stroke-width="2" stroke-linecap="round" stroke-linejoin="round"/>
<path d="M15 15V26.25" stroke="white" stroke-width="2" stroke-linecap="round" stroke-linejoin="round"/>
<path d="M26.1 22.6125C27.1867 21.8483 28.0017 20.7577 28.4266 19.4989C28.8515 18.2402 28.8642 16.8788 28.463 15.6123C28.0617 14.3458 27.2673 13.2401 26.1951 12.4557C25.1228 11.6713 23.8285 11.249 22.5 11.25H20.925C20.549 9.78485 19.8456 8.42407 18.8676 7.27011C17.8897 6.11615 16.6627 5.19908 15.279 4.58795C13.8953 3.97682 12.391 3.68754 10.8794 3.7419C9.36774 3.79627 7.88812 4.19285 6.55192 4.90179C5.21572 5.61074 4.05776 6.61357 3.16521 7.83479C2.27267 9.05602 1.66879 10.4638 1.39905 11.9522C1.12931 13.4406 1.20074 14.9708 1.60795 16.4275C2.01516 17.8843 2.74755 19.2297 3.74998 20.3625" stroke="white" stroke-width="2" stroke-linecap="round" stroke-linejoin="round"/>
</svg>
