<svg width="20" height="20" viewBox="0 0 20 20" fill="none" xmlns="http://www.w3.org/2000/svg">
<path d="M16.6667 4.16667V15.8333H3.33333V4.16667H16.6667ZM16.6667 2.5H3.33333C2.40833 2.5 1.66666 3.24167 1.66666 4.16667V15.8333C1.66666 16.7583 2.40833 17.5 3.33333 17.5H16.6667C17.5917 17.5 18.3333 16.7583 18.3333 15.8333V4.16667C18.3333 3.24167 17.5917 2.5 16.6667 2.5ZM15 13.3333C15 12.8731 14.6269 12.5 14.1667 12.5H5.83333C5.37309 12.5 5 12.8731 5 13.3333V13.3333C5 13.7936 5.37309 14.1667 5.83333 14.1667H14.1667C14.6269 14.1667 15 13.7936 15 13.3333V13.3333ZM8.33333 6.66667C8.33333 6.20643 7.96023 5.83333 7.5 5.83333H5.83333C5.37309 5.83333 5 6.20643 5 6.66667V10C5 10.4602 5.37309 10.8333 5.83333 10.8333H7.5C7.96024 10.8333 8.33333 10.4602 8.33333 10V6.66667ZM10 6.66667C10 7.1269 10.3731 7.5 10.8333 7.5H14.1667C14.6269 7.5 15 7.1269 15 6.66667V6.66667C15 6.20643 14.6269 5.83333 14.1667 5.83333H10.8333C10.3731 5.83333 10 6.20643 10 6.66667V6.66667ZM15 10C15 9.53976 14.6269 9.16667 14.1667 9.16667H10.8333C10.3731 9.16667 10 9.53976 10 10V10C10 10.4602 10.3731 10.8333 10.8333 10.8333H14.1667C14.6269 10.8333 15 10.4602 15 10V10Z" fill="#EF7E37"/>
</svg>
