<svg width="20" height="20" viewBox="0 0 20 20" fill="none" xmlns="http://www.w3.org/2000/svg">
<path d="M17.5 9.532L10.7038 16.2203C9.87125 17.0397 8.74202 17.5 7.56458 17.5C6.38713 17.5 5.2579 17.0397 4.42532 16.2203C3.59274 15.4009 3.125 14.2896 3.125 13.1309C3.125 11.9721 3.59274 10.8608 4.42532 10.0414L11.2215 3.35312C11.7765 2.80688 12.5294 2.5 13.3143 2.5C14.0993 2.5 14.8521 2.80688 15.4072 3.35312C15.9622 3.89937 16.274 4.64024 16.274 5.41275C16.274 6.18526 15.9622 6.92613 15.4072 7.47237L8.6036 14.1607C8.32607 14.4338 7.94966 14.5873 7.55718 14.5873C7.1647 14.5873 6.78829 14.4338 6.51076 14.1607C6.23324 13.8876 6.07732 13.5171 6.07732 13.1309C6.07732 12.7446 6.23324 12.3742 6.51076 12.1011L12.7893 5.92947" stroke="#17AFB8" stroke-width="1.66667" stroke-linecap="round" stroke-linejoin="round"/>
</svg>
