<svg width="20" height="20" viewBox="0 0 20 20" fill="none" xmlns="http://www.w3.org/2000/svg">
<path d="M15.8333 2.5H4.16667C3.24619 2.5 2.5 3.24619 2.5 4.16667V15.8333C2.5 16.7538 3.24619 17.5 4.16667 17.5H15.8333C16.7538 17.5 17.5 16.7538 17.5 15.8333V4.16667C17.5 3.24619 16.7538 2.5 15.8333 2.5Z" stroke="#33AADA" stroke-width="1.66667" stroke-linecap="round" stroke-linejoin="round"/>
<path d="M7.08334 8.33334C7.7737 8.33334 8.33334 7.7737 8.33334 7.08334C8.33334 6.39299 7.7737 5.83334 7.08334 5.83334C6.39299 5.83334 5.83334 6.39299 5.83334 7.08334C5.83334 7.7737 6.39299 8.33334 7.08334 8.33334Z" stroke="#33AADA" stroke-width="1.66667" stroke-linecap="round" stroke-linejoin="round"/>
<path d="M17.5 12.5L13.3333 8.33334L4.16666 17.5" stroke="#33AADA" stroke-width="1.66667" stroke-linecap="round" stroke-linejoin="round"/>
</svg>
