<svg width="20" height="20" viewBox="0 0 20 20" fill="none" xmlns="http://www.w3.org/2000/svg">
<path d="M3.33332 17.5H4.16666V6.66666H3.33332C2.8913 6.66666 2.46737 6.84225 2.15481 7.15481C1.84225 7.46737 1.66666 7.8913 1.66666 8.33332V15.8333C1.66666 16.2754 1.84225 16.6993 2.15481 17.0118C2.46737 17.3244 2.8913 17.5 3.33332 17.5ZM16.6667 6.66666H10.8333L11.7683 3.85999C11.8518 3.6095 11.8745 3.34278 11.8346 3.08179C11.7948 2.82079 11.6935 2.573 11.5391 2.35882C11.3848 2.14464 11.1817 1.97019 10.9467 1.84985C10.7117 1.72951 10.4515 1.66672 10.1875 1.66666H9.99999L5.83332 6.19832V17.5H15L18.26 10.3367L18.3333 9.99999V8.33332C18.3333 7.8913 18.1577 7.46737 17.8452 7.15481C17.5326 6.84225 17.1087 6.66666 16.6667 6.66666V6.66666Z" fill="#2D9CDB"/>
</svg>
