<svg width="25" height="25" viewBox="0 0 25 25" fill="none" xmlns="http://www.w3.org/2000/svg">
<path d="M5.20832 18.75V22.6729L6.78645 21.726L11.7469 18.75H16.6667C17.8156 18.75 18.75 17.8156 18.75 16.6667V8.33333C18.75 7.18437 17.8156 6.25 16.6667 6.25H4.16665C3.0177 6.25 2.08332 7.18437 2.08332 8.33333V16.6667C2.08332 17.8156 3.0177 18.75 4.16665 18.75H5.20832ZM4.16665 8.33333H16.6667V16.6667H11.1698L7.29165 18.9937V16.6667H4.16665V8.33333Z" fill="#828282"/>
<path d="M20.8333 2.08331H8.33333C7.18438 2.08331 6.25 3.01769 6.25 4.16665H18.75C19.899 4.16665 20.8333 5.10102 20.8333 6.24998V14.5833C21.9823 14.5833 22.9167 13.6489 22.9167 12.5V4.16665C22.9167 3.01769 21.9823 2.08331 20.8333 2.08331Z" fill="#828282"/>
</svg>
