<svg width="20" height="20" viewBox="0 0 20 20" fill="none" xmlns="http://www.w3.org/2000/svg">
<path d="M18.0892 9.41084L11.4225 2.74417C11.306 2.62766 11.1575 2.54833 10.9959 2.51619C10.8342 2.48405 10.6667 2.50055 10.5145 2.56361C10.3622 2.62667 10.2321 2.73345 10.1405 2.87046C10.0489 3.00747 10 3.16855 10 3.33334V6.28751C7.72358 6.49817 5.60769 7.55072 4.06641 9.2392C2.52513 10.9277 1.6694 13.1305 1.66667 15.4167V16.6667C1.6668 16.8397 1.72076 17.0083 1.82107 17.1492C1.92137 17.2902 2.06305 17.3964 2.22644 17.4532C2.38984 17.51 2.56686 17.5145 2.73295 17.4662C2.89903 17.4178 3.04596 17.319 3.15334 17.1833C3.96975 16.2125 4.97147 15.414 6.09996 14.8347C7.22845 14.2554 8.46108 13.9067 9.72584 13.8092C9.7675 13.8042 9.87167 13.7958 10 13.7875V16.6667C10 16.8315 10.0489 16.9925 10.1405 17.1296C10.2321 17.2666 10.3622 17.3733 10.5145 17.4364C10.6667 17.4995 10.8342 17.516 10.9959 17.4838C11.1575 17.4517 11.306 17.3723 11.4225 17.2558L18.0892 10.5892C18.2454 10.4329 18.3332 10.221 18.3332 10C18.3332 9.77904 18.2454 9.56711 18.0892 9.41084V9.41084ZM11.6667 14.655V12.9167C11.6667 12.6957 11.5789 12.4837 11.4226 12.3274C11.2663 12.1711 11.0544 12.0833 10.8333 12.0833C10.6208 12.0833 9.75334 12.125 9.53167 12.1542C7.28572 12.3611 5.14785 13.2144 3.37667 14.6108C3.57771 12.7729 4.44962 11.0736 5.82547 9.83847C7.20131 8.60332 8.98441 7.91904 10.8333 7.91667C11.0544 7.91667 11.2663 7.82887 11.4226 7.67259C11.5789 7.51631 11.6667 7.30435 11.6667 7.08334V5.34501L16.3217 10L11.6667 14.655Z" fill="#828282"/>
</svg>
