<svg id="Capa_1" data-name="Capa 1" xmlns="http://www.w3.org/2000/svg" viewBox="0 0 126.13 43"><path d="M47.73,10a2.56,2.56,0,0,0-1.82.77,2.6,2.6,0,0,0-.76,1.84v7a2.57,2.57,0,0,0,.36,1.32,2.6,2.6,0,0,0,2.27,1.29,2.6,2.6,0,0,0,1.3-.39l5.59-3.48a2.49,2.49,0,0,0,.9-1,2.63,2.63,0,0,0-.9-3.5l-5.59-3.48A2.58,2.58,0,0,0,47.73,10Zm0,9.58v-7l5.59,3.49Z" fill="#fff"/><path d="M60.85,11.42a1.29,1.29,0,0,0,.47-1.75,1.27,1.27,0,0,0-1.75-.47,1.28,1.28,0,0,0,1.28,2.22Z" fill="#fff"/><path d="M57.05,6.68a1.28,1.28,0,1,0-1.75.47A1.29,1.29,0,0,0,57.05,6.68Z" fill="#fff"/><path d="M60.5,16.12A10.69,10.69,0,1,1,49.81,5.43h1.28V2.87H49.81A13.25,13.25,0,1,0,63.07,16.12V14.84H60.5Z" fill="#fff"/><path d="M6.08,28.92V17.54H17.89V12.75H6.08V5H19V0H0V28.92Z" fill="#fff"/><path d="M26.37,28.92h5.88V0H26.37Z" fill="#fff"/><path d="M69.64,2.49v5h-3v4.41h3V23.13c0,4.19,2,5.87,7,5.87a13.54,13.54,0,0,0,2.79-.24V24.45a9.49,9.49,0,0,1-1.43.1c-1.73,0-2.53-.78-2.53-2.42V11.85h4V7.44h-4V2.49Z" fill="#fff"/><path d="M96.2,11.3a4.48,4.48,0,0,1,4.53,4.63H91.57A4.66,4.66,0,0,1,96.2,11.3Zm4.61,11.05a4.31,4.31,0,0,1-4.35,2.7c-3,0-4.95-2.1-4.95-5.17v-.36h14.87V17.74c0-6.54-4-10.76-10.24-10.76s-10.4,4.44-10.4,11.3,4,11.1,10.62,11.1c5.33,0,9.19-2.82,9.84-7Z" fill="#fff"/><path d="M113.54,28.92h5.87v-12c0-3,1.69-4.79,4.59-4.79a6,6,0,0,1,2.13.34V7.32a6,6,0,0,0-1.67-.22c-2.53,0-4.36,1.48-5.13,4.2h-.12V7.44h-5.67Z" fill="#fff"/><path d="M80.87,35.44H82.6c1,0,1.64.55,1.64,1.41s-.6,1.41-1.62,1.41H80.87Zm0,4.17H82.5l1.81,3.25h2.3l-2-3.53a2.6,2.6,0,0,0,1.76-2.52c0-1.75-1.28-2.83-3.52-2.83h-4v8.88h2Z" fill="#fff"/><path d="M91.63,41.67c-.66,0-1.11-.31-1.11-.8s.42-.77,1.15-.82L93.2,40v.48A1.41,1.41,0,0,1,91.63,41.67ZM91,43a2.55,2.55,0,0,0,2.2-1.11h0v1h1.9V38.33c0-1.33-1.21-2.21-3.06-2.21S89,37,88.89,38.28h1.8c.09-.48.56-.81,1.29-.81s1.22.35,1.22,1v.43l-1.82.1c-1.8.1-2.81.8-2.81,2A2.16,2.16,0,0,0,91,43Z" fill="#fff"/><path d="M100.46,43a2.41,2.41,0,0,0,2.25-1.23h0v1.13h1.94V34h-2V37.4h0a2.35,2.35,0,0,0-2.2-1.24c-1.82,0-3,1.3-3,3.39S98.66,43,100.46,43Zm.67-5.36c1,0,1.6.76,1.6,2s-.62,2-1.6,2-1.6-.75-1.6-2S100.14,37.6,101.13,37.6Z" fill="#fff"/><path d="M107.41,42.86h2V36.27h-2Zm1-7.32a.94.94,0,1,0-1.05-.93A1,1,0,0,0,108.4,35.54Z" fill="#fff"/><path d="M115.39,43a3.44,3.44,0,1,0-3.58-3.44A3.25,3.25,0,0,0,115.39,43Zm0-1.37c-1,0-1.58-.75-1.58-2.07s.62-2.06,1.58-2.06,1.58.75,1.58,2.06S116.35,41.63,115.39,41.63Z" fill="#fff"/></svg>