<svg id="Capa_1" data-name="Capa 1" xmlns="http://www.w3.org/2000/svg" viewBox="0 0 58 58"><path d="M24.52,16a5.4,5.4,0,0,0-3.9,1.69A5.93,5.93,0,0,0,19,21.79V37.22a5.91,5.91,0,0,0,.76,2.92,5.62,5.62,0,0,0,2.07,2.12,5.23,5.23,0,0,0,2.8.74,5.32,5.32,0,0,0,2.78-.86l12-7.71a5.6,5.6,0,0,0,1.93-2.11,6,6,0,0,0,0-5.64,5.68,5.68,0,0,0-1.93-2.11l-12-7.71A5.34,5.34,0,0,0,24.52,16Zm0,21.22V21.79l12,7.71Z" transform="translate(0)" fill="#ff296d"/><path d="M53.19,18.82a2.82,2.82,0,1,0-3.85-1A2.81,2.81,0,0,0,53.19,18.82Z" transform="translate(0)" fill="#ff296d"/><path d="M44.82,8.4a2.82,2.82,0,1,0-3.85,1A2.83,2.83,0,0,0,44.82,8.4Z" transform="translate(0)" fill="#ff296d"/><path d="M52.39,29A23.39,23.39,0,1,1,29,5.61h2.81V0H29A29,29,0,1,0,58,29V26.19H52.39Z" transform="translate(0)" fill="#ff296d"/></svg>