<svg xmlns="http://www.w3.org/2000/svg" width="21.354" height="21.354" viewBox="0 0 21.354 21.354">
  <g id="noun_Plus_201304" transform="translate(-2 -2)">
    <g id="Grupo_42" data-name="Grupo 42" transform="translate(2 2)">
      <g id="Grupo_41" data-name="Grupo 41">
        <path id="Trazado_4" data-name="Trazado 4" d="M10,14a1,1,0,0,0,1-1V11h2a1,1,0,0,0,0-2H11V7A1,1,0,0,0,9,7V9H7a1,1,0,0,0,0,2H9v2A1,1,0,0,0,10,14Z" transform="translate(0.677 0.677)" fill="#fff"/>
        <path id="Trazado_5" data-name="Trazado 5" d="M12.677,2a10.677,10.677,0,1,0,5.489,19.825,1.335,1.335,0,0,0-1.376-2.288,8.035,8.035,0,1,1,2.745-2.745,1.335,1.335,0,0,0,2.289,1.375A10.664,10.664,0,0,0,12.677,2Z" transform="translate(-2 -2)" fill="#fff"/>
      </g>
    </g>
  </g>
</svg>
