<svg xmlns="http://www.w3.org/2000/svg" width="133.541" height="37.883" viewBox="0 0 133.541 37.883">
  <path id="Instagram_logo" d="M30.871,48.453a12.565,12.565,0,0,0-6.687,8.433c-1.2,5.141,3.8,7.314,4.21,6.6.483-.837-.9-1.121-1.18-3.788-.367-3.445,1.235-7.294,3.25-8.983.375-.314.357.123.357.931,0,1.445-.08,14.413-.08,17.119a24.006,24.006,0,0,1-.423,5.961c-.275,1.158-.718,1.941-.382,2.242.375.337,1.974-.465,2.9-1.757A9.637,9.637,0,0,0,34.4,69.78c.084-2.437.081-6.3.084-8.51,0-2.023.034-7.947-.035-11.508-.017-.873-2.439-1.79-3.583-1.311m97.058,17.14a11.189,11.189,0,0,1-1.033,4.442c-1.013,2.032-3.114,2.663-4.006-.258a16.507,16.507,0,0,1-.159-6.474c.356-2.264,1.349-3.973,2.994-3.819,1.623.152,2.382,2.243,2.2,6.109ZM100.574,77.4c-.022,3.163-.52,5.937-1.588,6.743-1.514,1.142-3.55.285-3.128-2.023.373-2.043,2.136-4.129,4.72-6.678,0,0,.005.581,0,1.958Zm-.414-11.831a12.519,12.519,0,0,1-1.033,4.46C98.115,72.066,96,72.7,95.122,69.776a14.669,14.669,0,0,1-.159-6.216c.385-2.115,1.318-4.077,2.994-4.077,1.63,0,2.433,1.788,2.2,6.091Zm-15.847-.027a11.313,11.313,0,0,1-1.033,4.487c-1.04,2.018-3.1,2.658-4.006-.258a15.635,15.635,0,0,1-.159-6.519c.4-2.3,1.415-3.928,2.994-3.774,1.622.158,2.41,2.243,2.2,6.064Zm72.622,2.145c-.4,0-.577.409-.727,1.1-.519,2.392-1.065,2.932-1.769,2.932-.786,0-1.493-1.184-1.674-3.555a79.159,79.159,0,0,1,.063-8.711c.037-.7-.156-1.4-2.038-2.079-.81-.294-1.987-.727-2.573.688a35.207,35.207,0,0,0-2.456,8.458c-.008.067-.09.08-.1-.076a65.687,65.687,0,0,1-.341-6.849,2.052,2.052,0,0,0-1.017-1.959c-.551-.348-2.223-.963-2.825-.231a15.436,15.436,0,0,0-1.754,4.117c-.51,1.551-.866,2.6-.866,2.6s.007-4.186.013-5.774a.814.814,0,0,0-.532-.835,11.149,11.149,0,0,0-2.123-.432c-.575,0-.716.322-.716.79,0,.061-.091,5.511-.091,9.322,0,.166,0,.346,0,.538-.318,1.751-1.35,4.129-2.473,4.129s-1.654-.994-1.654-5.537c0-2.65.08-3.8.119-5.72.023-1.1.067-1.952.064-2.144-.008-.59-1.029-.887-1.5-1a4.444,4.444,0,0,0-1.215-.135.759.759,0,0,0-.782.74c0,.222,0,.643,0,.643a4.387,4.387,0,0,0-2.17-1.76,4.175,4.175,0,0,0-4.814,1.816,11.043,11.043,0,0,0-1.958,5.6,16.606,16.606,0,0,0,.2,5.084c-.4,1.713-1.132,2.415-1.938,2.415-1.169,0-2.017-1.909-1.919-5.21a29.934,29.934,0,0,1,.974-5.9,1.91,1.91,0,0,0-.375-1.9,2.36,2.36,0,0,0-2.344-.382c-.826.194-2.007.4-3.087.562a6.252,6.252,0,0,0,.119-.719c.281-2.4-2.332-2.21-3.166-1.441a2.958,2.958,0,0,0-.965,1.972,2.325,2.325,0,0,0,1.055,2.271,23.479,23.479,0,0,1-2.47,6.144,26.518,26.518,0,0,1-1.541,2.419q0-.421,0-.84c-.013-3.974.04-7.1.064-8.228.023-1.1.067-1.929.065-2.122-.006-.432-.258-.595-.782-.8a5.553,5.553,0,0,0-1.58-.353c-.717-.056-1.15.325-1.138.775,0,.085,0,.607,0,.607a4.387,4.387,0,0,0-2.17-1.76,4.176,4.176,0,0,0-4.814,1.815,11.976,11.976,0,0,0-1.958,5.577,17.1,17.1,0,0,0,.1,4.784c-.27,1.337-1.048,2.734-1.927,2.734-1.124,0-1.763-.994-1.763-5.537,0-2.65.08-3.8.119-5.719.023-1.1.067-1.952.064-2.144-.008-.59-1.029-.887-1.5-1a4.369,4.369,0,0,0-1.255-.133.807.807,0,0,0-.74.712v.669a4.387,4.387,0,0,0-2.17-1.76,4.19,4.19,0,0,0-4.814,1.815,10.594,10.594,0,0,0-1.958,5.551,18.7,18.7,0,0,0-.147,2.426c-.351,2.144-1.9,4.616-3.166,4.616-.741,0-1.447-1.438-1.447-4.5,0-4.082.253-9.894.3-10.454,0,0,1.6-.027,1.911-.031.8-.009,1.521.01,2.585-.044.533-.027,1.047-1.941.5-2.178a19.046,19.046,0,0,0-2.712-.216C72.636,53.921,71,53.8,71,53.8s.147-3.858.181-4.265c.029-.34-.41-.515-.662-.621a9.079,9.079,0,0,0-1.811-.517c-.9-.185-1.305,0-1.385.754-.12,1.15-.182,4.518-.182,4.518-.659,0-2.909-.129-3.568-.129-.612,0-1.273,2.633-.427,2.666.974.038,2.671.07,3.8.1,0,0-.05,5.907-.05,7.731,0,.194,0,.381,0,.562a8.918,8.918,0,0,1-2.8,4.971c.468-2.135-.488-3.739-2.212-5.1-.635-.5-1.889-1.447-3.291-2.485a8.469,8.469,0,0,0,1.533-2.411c.51-1.141.532-2.447-.72-2.735a3.745,3.745,0,0,0-4.286,2.667,3.093,3.093,0,0,0,.589,3.16c.056.071.118.143.181.216-.467.9-1.109,2.113-1.653,3.054-1.509,2.611-2.649,4.676-3.511,4.676-.689,0-.679-2.1-.679-4.06,0-1.692.125-4.237.225-6.871a1.918,1.918,0,0,0-1.133-1.817,5.09,5.09,0,0,0-1.939-.81c-.821,0-3.189.112-5.427,6.585-.282.816-.836,2.3-.836,2.3l.048-7.784a.542.542,0,0,0-.32-.48,5.524,5.524,0,0,0-2.28-.624q-.64,0-.64.594l-.078,12.179a17.9,17.9,0,0,0,.116,2.477A2.6,2.6,0,0,0,38.2,73.4a1.209,1.209,0,0,0,.742.474c.324.067,2.1.295,2.192-.384a24.942,24.942,0,0,1,1.047-4.972c1.451-5.106,3.343-7.6,4.232-8.482.156-.155.333-.164.325.089-.038,1.119-.171,3.916-.261,6.293-.241,6.359.916,7.538,2.569,7.538,1.265,0,3.048-1.257,4.959-4.438,1.192-1.982,2.348-3.926,3.18-5.327.579.536,1.229,1.113,1.879,1.73,1.51,1.433,2.005,2.794,1.676,4.086-.252.987-1.2,2-2.885,1.016-.491-.289-.7-.511-1.2-.837a.849.849,0,0,0-.914-.044,3.252,3.252,0,0,0-1.2,1.831c-.2.729.53,1.115,1.287,1.452a9.986,9.986,0,0,0,2.946.583c3.481.116,6.27-1.681,8.211-6.317.348,4,1.827,6.27,4.4,6.27,1.718,0,3.44-2.221,4.194-4.405a7.744,7.744,0,0,0,.95,2.32c1.98,3.137,5.821,2.462,7.751-.2a4.963,4.963,0,0,0,.687-1.119,3.631,3.631,0,0,0,3.467,3.394c1.3,0,2.64-.614,3.58-2.73a6.465,6.465,0,0,0,.362.657c1.98,3.137,5.821,2.462,7.751-.2.091-.125.17-.238.239-.34l.057,1.652-1.776,1.629c-2.974,2.728-5.235,4.8-5.4,7.209-.214,3.074,2.279,4.216,4.165,4.366a5.317,5.317,0,0,0,4.772-2.5c.927-1.363,1.534-4.3,1.49-7.193-.018-1.16-.047-2.635-.07-4.216a33.778,33.778,0,0,0,3.307-4.544,34.385,34.385,0,0,0,3.1-6.63s1.1.009,2.274-.067c.376-.024.483.052.414.327-.084.333-1.483,5.731-.206,9.328a4.507,4.507,0,0,0,4.014,3.254,3.982,3.982,0,0,0,3.378-2.567,5.411,5.411,0,0,0,.269.489c1.98,3.137,5.808,2.458,7.751-.2a7.94,7.94,0,0,0,.687-1.119,3.769,3.769,0,0,0,3.6,3.408c1.208,0,2.354-.5,3.284-2.7a9.963,9.963,0,0,0,.2,2.011c.059.153.4.345.652.437a4.992,4.992,0,0,0,2.649.132c.289-.058.514-.29.545-.889a35.3,35.3,0,0,1,.508-6.173,18.159,18.159,0,0,1,1.9-5.2c.2-.354.421-.413.43-.038.017.759.054,2.986.364,5.979a13.613,13.613,0,0,0,.765,3.914,2.154,2.154,0,0,0,2.16,1.233c.426,0,1.318-.118,1.238-.867a23.913,23.913,0,0,1,.818-5.866A28.57,28.57,0,0,1,149.38,61.2c.114-.258.167-.055.165-.015a42.535,42.535,0,0,0,.383,8.84c.806,3.535,3.136,3.931,3.948,3.931,1.734,0,3.152-1.319,3.629-4.789.115-.835-.055-1.48-.566-1.48" transform="translate(-23.998 -48.32)" fill="#fff"/>
</svg>
