<svg xmlns="http://www.w3.org/2000/svg" width="30.664" height="30.664" viewBox="0 0 30.664 30.664">
  <g id="noun_insta_3323421" transform="translate(-8.5 -8.5)">
    <g id="Grupo_39" data-name="Grupo 39" transform="translate(8.5 8.5)">
      <path id="Trazado_2" data-name="Trazado 2" d="M33.345,15.846a1.683,1.683,0,0,1,.026.254,1.3,1.3,0,0,1-.385.926,1.125,1.125,0,0,1-.2.163,1.421,1.421,0,0,1-.228.118,1,1,0,0,1-.241.071,1.088,1.088,0,0,1-.254.026,1.444,1.444,0,0,1-.5-.1,1.364,1.364,0,0,1-.222-.118,1.435,1.435,0,0,1-.2-.163,1.319,1.319,0,0,1-.378-.926,1.121,1.121,0,0,1,.026-.254,1.029,1.029,0,0,1,.072-.241,1.424,1.424,0,0,1,.117-.228,1.566,1.566,0,0,1,.163-.2,1.487,1.487,0,0,1,.2-.163,1.36,1.36,0,0,1,.222-.117,1.655,1.655,0,0,1,.247-.079,1.31,1.31,0,0,1,1.174.359,1.181,1.181,0,0,1,.163.2,1.514,1.514,0,0,1,.124.228,1.473,1.473,0,0,1,.072.241ZM30.97,23.832a7.138,7.138,0,1,1-7.138-7.138A7.138,7.138,0,0,1,30.97,23.832Zm-6.159-4.854A.99.99,0,0,0,23.832,18a5.807,5.807,0,0,0-5.219,3.243.979.979,0,0,0,.235,1.174,1.1,1.1,0,0,0,.2.137.938.938,0,0,0,.437.1.97.97,0,0,0,.874-.542,3.854,3.854,0,0,1,3.471-2.16A.979.979,0,0,0,24.811,18.978Zm14.353.287V28.4A10.778,10.778,0,0,1,28.4,39.164H19.265A10.778,10.778,0,0,1,8.5,28.4V19.265A10.778,10.778,0,0,1,19.265,8.5H28.4A10.778,10.778,0,0,1,39.164,19.265Zm-1.957,0A8.818,8.818,0,0,0,28.4,10.457H19.265a8.818,8.818,0,0,0-8.808,8.808V28.4a8.818,8.818,0,0,0,8.808,8.808H28.4A8.818,8.818,0,0,0,37.207,28.4Z" transform="translate(-8.5 -8.5)" fill="#fff"/>
    </g>
  </g>
</svg>
