<svg xmlns="http://www.w3.org/2000/svg" width="34.754" height="24.905" viewBox="0 0 34.754 24.905">
  <path id="plane" d="M4.142,15.18a.608.608,0,0,0-.3.8L5.21,18.909a.606.606,0,0,0,.8.3l10.325-4.823L15.4,24.163a.608.608,0,0,0,.2.51,2.651,2.651,0,0,0,1.6.607,1.953,1.953,0,0,0,.48-.06,3.087,3.087,0,0,0,1.932-2.241l4.063-12.032,8.048-3.754c2.369-1.105,3.59-3.346,2.77-5.1A3.075,3.075,0,0,0,32.123.439,5.63,5.63,0,0,0,28.807.95L19.52,5.3,9.535,1.4a3.082,3.082,0,0,0-2.952.043A2.477,2.477,0,0,0,5.678,3.4a.608.608,0,0,0,.261.48l6.724,4.622-3.85,1.822L2.356,8.687a.608.608,0,0,0-.674.292l-1.609,2.9a.607.607,0,0,0,.316.856l4.78,1.974ZM6.923,3.1a1.039,1.039,0,0,1,.365-.656c.346-.249.978-.213,1.822.1L18,6.015l-4.057,1.9ZM1.457,11.87,2.514,9.993l6.213,1.543a.608.608,0,0,0,.4-.036l20.2-9.433a4.439,4.439,0,0,1,2.593-.413,1.9,1.9,0,0,1,1.482.96c.51,1.093-.492,2.691-2.187,3.48l-7,3.28.425-1.258a.617.617,0,1,0-1.172-.389l-5,14.874c-.3.845-.668,1.349-1.081,1.458a1.028,1.028,0,0,1-.741-.139l1.215-12.755a.61.61,0,0,0-1.215-.115L16.459,13,6.036,17.858,5.18,16.036l1.712-.8a.607.607,0,0,0,0-1.112Zm0,0" transform="translate(0.001 -0.376)" fill="#fff"/>
</svg>
