<svg id="noun_Search_2475045" xmlns="http://www.w3.org/2000/svg" width="18.413" height="19.503" viewBox="0 0 18.413 19.503">
  <g id="Grupo_43" data-name="Grupo 43" transform="translate(0 0)">
    <path id="Trazado_6" data-name="Trazado 6" d="M70.555,70.435A.935.935,0,0,0,69.176,71.7l2.912,3.176a.935.935,0,0,0,1.379-1.262Z" transform="translate(-55.299 -55.673)" fill="#fff"/>
    <path id="Trazado_7" data-name="Trazado 7" d="M26.553,18.552a.935.935,0,0,0-1.8-.5,6.247,6.247,0,1,1-.83-5.141.935.935,0,1,0,1.554-1.04,8.114,8.114,0,1,0,1.077,6.679Z" transform="translate(-10.599 -8.263)" fill="#fff"/>
    <path id="Trazado_8" data-name="Trazado 8" d="M73.17,32.829a.934.934,0,1,0-1.82.423,2.433,2.433,0,0,1,.063.388l.014.147a.935.935,0,0,0,.928.834c.033,0,.068,0,.1,0a.935.935,0,0,0,.83-1.031l-.014-.133A3.959,3.959,0,0,0,73.17,32.829Z" transform="translate(-57.134 -26.534)" fill="#fff"/>
  </g>
</svg>
