<svg id="Grupo_62" data-name="Grupo 62" xmlns="http://www.w3.org/2000/svg" width="30.274" height="34.674" viewBox="0 0 30.274 34.674">
  <path id="Trazado_53" data-name="Trazado 53" d="M106.557,49.974c-.009-.776-.035-1.281-.07-1.978l-.009-.157a11.364,11.364,0,0,0-.7-3.677,7.764,7.764,0,0,0-4.453-4.462,11.308,11.308,0,0,0-3.677-.706c-1.194-.052-1.76-.07-3.39-.087l1.908-2.065a1.364,1.364,0,0,0,.366-1,1.409,1.409,0,0,0-2.449-.871l-2.649,2.876-2.632-2.867a1.433,1.433,0,0,0-2-.1,1.382,1.382,0,0,0-.462.967,1.364,1.364,0,0,0,.366,1l1.9,2.057c-1.595.009-2.2.026-3.39.078a11.889,11.889,0,0,0-3.677.706,7.83,7.83,0,0,0-4.453,4.462,11.355,11.355,0,0,0-.706,3.677c-.07,1.595-.087,2.126-.087,6.2s.017,4.61.087,6.213a11.216,11.216,0,0,0,.706,3.677,7.83,7.83,0,0,0,4.453,4.462,11.27,11.27,0,0,0,3.686.706c1.595.07,2.074.087,6.213.087s4.619-.017,6.213-.087a11.17,11.17,0,0,0,3.677-.706,7.481,7.481,0,0,0,2.7-1.76,7.381,7.381,0,0,0,1.752-2.7,11.092,11.092,0,0,0,.7-3.677c.078-1.551.087-2.022.087-6.213,0-1.961,0-3.181-.017-4.061m-2.876,4.07c0,2.1,0,3.172-.017,3.965-.017.81-.035,1.325-.07,2.1v.009a8.43,8.43,0,0,1-.514,2.771,4.488,4.488,0,0,1-1.107,1.7,4.7,4.7,0,0,1-1.7,1.107,7.919,7.919,0,0,1-2.762.514c-1.551.07-2.022.087-6.074.087s-4.523-.017-6.074-.087a7.967,7.967,0,0,1-2.762-.514,4.907,4.907,0,0,1-2.806-2.806,8.416,8.416,0,0,1-.505-2.771c-.07-1.534-.087-1.943-.087-6.074s.017-4.54.087-6.074a8.246,8.246,0,0,1,.505-2.762,4.488,4.488,0,0,1,1.107-1.7A4.6,4.6,0,0,1,82.6,42.4a8.524,8.524,0,0,1,2.762-.514c1.569-.07,2.039-.087,6.074-.087s4.514.017,6.074.087a7.967,7.967,0,0,1,2.762.514,4.6,4.6,0,0,1,1.7,1.107,4.488,4.488,0,0,1,1.107,1.7,8.1,8.1,0,0,1,.514,2.762c.078,1.56.087,2.039.087,6.074" transform="translate(-76.3 -34.506)" fill="#fff"/>
  <path id="Trazado_54" data-name="Trazado 54" d="M153.408,225.734v-2.126a.181.181,0,0,0-.235-.174l-5.882,1.691a1.361,1.361,0,0,1-1.734-1.211,1.378,1.378,0,0,1,1.02-1.412l8.165-2.353a1.092,1.092,0,0,1,1.394,1.046v2.126a.181.181,0,0,0,.235.174l5.656-1.63a1.361,1.361,0,0,1,1.734,1.211,1.378,1.378,0,0,1-1.02,1.412L154.8,226.78a1.089,1.089,0,0,1-1.394-1.046" transform="translate(-139.517 -203.931)" fill="#fff"/>
</svg>
