<svg width="13" height="13" viewBox="0 0 13 13" fill="none" xmlns="http://www.w3.org/2000/svg">
<path d="M3.02384 5.99887H1.28508C1.18295 5.99887 1.085 6.03944 1.01279 6.11166C0.940571 6.18387 0.9 6.28182 0.9 6.38395L0.9 7.23918L0.9 7.23925C0.900608 8.12186 1.23267 8.97204 1.83042 9.62141C2.41111 10.2523 3.20139 10.6489 4.05238 10.7384C4.13513 11.1105 4.33806 11.4459 4.6309 11.6921C4.94332 11.9547 5.33818 12.0991 5.74635 12.1H5.74656H7.6851L7.68531 12.1C8.09348 12.0991 8.48834 11.9547 8.80076 11.6921C9.0936 11.4459 9.29653 11.1105 9.37928 10.7384C10.2303 10.6489 11.0206 10.2523 11.6012 9.62141C12.199 8.97204 12.5311 8.12186 12.5317 7.23925V7.23918V6.38395C12.5317 6.28182 12.4911 6.18387 12.4189 6.11166C12.3467 6.03944 12.2487 5.99887 12.1466 5.99887H3.79399V2.37068C3.82036 2.16944 3.91866 1.98445 4.07084 1.84995C4.22451 1.71412 4.42253 1.63916 4.62763 1.63916C4.83272 1.63916 5.03074 1.71412 5.18442 1.84995C5.3366 1.98445 5.43489 2.16944 5.46126 2.37068V2.99151V3.09151H5.56126H6.13142H6.23142V2.99151V2.36434H6.23189L6.23095 2.35464C6.19212 1.95634 6.00644 1.58675 5.71005 1.31785C5.41367 1.04895 5.02781 0.9 4.62763 0.9C4.22744 0.9 3.84158 1.04895 3.5452 1.31785C3.24882 1.58675 3.06313 1.95634 3.02431 2.35464L3.02384 2.35459V2.36434V5.99887ZM7.6851 11.3298H5.74656C5.53689 11.3298 5.33287 11.2618 5.16513 11.136C5.034 11.0377 4.93057 10.9082 4.86362 10.7601H8.56804C8.50109 10.9082 8.39766 11.0377 8.26653 11.136C8.09879 11.2618 7.89477 11.3298 7.6851 11.3298ZM11.7615 7.23918C11.7615 7.96874 11.4717 8.66841 10.9558 9.18429C10.4399 9.70016 9.74027 9.98997 9.01071 9.98997H4.42095C3.69139 9.98997 2.99172 9.70016 2.47584 9.18429C1.95997 8.66841 1.67016 7.96874 1.67016 7.23918V6.76903H11.7615V7.23918Z" fill="#8A9BAB" stroke="#8A9BAB" stroke-width="0.2"/>
</svg>
