<svg width="12" height="10" viewBox="0 0 12 10" fill="none" xmlns="http://www.w3.org/2000/svg">
<path d="M10.8454 4.29872V0.473588C10.8454 0.218579 10.6183 0 10.3533 0H1.79811C1.43849 0 1.15457 0.273224 1.15457 0.619308V4.29872C0.454259 4.73588 0 5.50091 0 6.37523V9.6357C0 9.83607 0.170347 10 0.378549 10C0.586751 10 0.757098 9.83607 0.757098 9.6357V8.96175H11.2429V9.6357C11.2429 9.83607 11.4132 10 11.6215 10C11.8297 10 12 9.83607 12 9.6357V6.37523C12 5.51913 11.5457 4.7541 10.8454 4.29872ZM1.91167 0.746812H10.0883V3.98907C9.88013 3.93443 9.653 3.898 9.42587 3.898H8.11987V2.82331C8.11987 2.24044 7.62776 1.78506 7.04101 1.78506H4.95899C4.35331 1.78506 3.88013 2.25865 3.88013 2.82331V3.898H2.57413C2.347 3.898 2.1388 3.93443 1.91167 3.98907V0.746812ZM7.36278 2.82331V3.898H4.63722V2.82331C4.63722 2.65938 4.76972 2.51366 4.95899 2.51366H7.04101C7.21136 2.51366 7.36278 2.65938 7.36278 2.82331ZM2.55521 4.62659H9.42587C10.3155 4.62659 11.0536 5.2459 11.205 6.06557H0.776025C0.927445 5.2459 1.66562 4.62659 2.55521 4.62659ZM11.2429 8.23315H0.73817V6.81239H11.2429V8.23315Z" fill="#143656" fill-opacity="0.5"/>
</svg>
