<svg width="19" height="19" viewBox="0 0 19 19" fill="none" xmlns="http://www.w3.org/2000/svg">
<path fill-rule="evenodd" clip-rule="evenodd" d="M18.2083 14.25H0.791667C0.581704 14.25 0.380303 14.1666 0.231837 14.0181C0.0833707 13.8697 0 13.6683 0 13.4583C0 13.2484 0.0833707 13.047 0.231837 12.8985C0.380303 12.7501 0.581704 12.6667 0.791667 12.6667H2.375V6.33333C2.375 4.65363 3.04226 3.04272 4.22999 1.85499C5.41772 0.667261 7.02863 0 8.70833 0H10.2917C11.9714 0 13.5823 0.667261 14.77 1.85499C15.9577 3.04272 16.625 4.65363 16.625 6.33333V12.6667H18.2083C18.4183 12.6667 18.6197 12.7501 18.7682 12.8985C18.9166 13.047 19 13.2484 19 13.4583C19 13.6683 18.9166 13.8697 18.7682 14.0181C18.6197 14.1666 18.4183 14.25 18.2083 14.25ZM15.0417 7.125C15.0417 5.65526 14.4578 4.24572 13.4185 3.20645C12.3793 2.16719 10.9697 1.58333 9.5 1.58333C8.03026 1.58333 6.62075 2.16719 5.58148 3.20645C4.54222 4.24572 3.95833 5.65526 3.95833 7.125V12.6667H15.0417V7.125ZM8.70833 16.625C8.70833 16.835 8.7917 17.0363 8.94017 17.1848C9.08864 17.3333 9.29004 17.4167 9.5 17.4167C9.70996 17.4167 9.91136 17.3333 10.0598 17.1848C10.2083 17.0363 10.2917 16.835 10.2917 16.625V15.8333H11.875V16.625C11.875 17.2549 11.6248 17.859 11.1794 18.3044C10.734 18.7498 10.1299 19 9.5 19C8.87011 19 8.26601 18.7498 7.82061 18.3044C7.37521 17.859 7.125 17.2549 7.125 16.625V15.8333H8.70833V16.625Z" fill="#143656"/>
</svg>
