<svg id="Capa_1" data-name="Capa 1" xmlns="http://www.w3.org/2000/svg" viewBox="0 0 27 22.23"><path d="M5.54,0H21.46A5.54,5.54,0,0,1,27,5.54v8.55a5.45,5.45,0,0,1-3.92,5.24L20.41,22a.8.8,0,0,1-1.12,0l-2.45-2.45H5.54A5.55,5.55,0,0,1,0,14V5.54A5.54,5.54,0,0,1,5.54,0Zm-4,14a4,4,0,0,0,4,4H17.16a.77.77,0,0,1,.56.23l2.13,2.12,2.26-2.26a.85.85,0,0,1,.37-.21,3.87,3.87,0,0,0,2.94-3.76V5.54a4,4,0,0,0-4-4H5.54a4,4,0,0,0-4,4Z" fill="#b8c2cb"/><path d="M4.86,6.1H22.14a1.36,1.36,0,0,1,0,2.72H4.86a1.36,1.36,0,0,1,0-2.72Z" fill="#b8c2cb"/><path d="M4.86,10.18H22.14a1.36,1.36,0,1,1,0,2.72H4.86a1.36,1.36,0,1,1,0-2.72Z" fill="#b8c2cb"/></svg>