<svg id="Capa_1" data-name="Capa 1" xmlns="http://www.w3.org/2000/svg" viewBox="0 0 30.08 29.99"><path d="M30,8.41l-4.15-8A.82.82,0,0,0,25.09,0H5a.81.81,0,0,0-.74.45L.1,8.41A.83.83,0,0,0,.84,9.63h1.3V29.16A.84.84,0,0,0,3,30H27.09a.83.83,0,0,0,.84-.83V9.63h1.31A.83.83,0,0,0,30,8.41ZM17.6,28.32H12.48V23.19L15,20.64l2.56,2.55Zm8.66,0h-7V22.84a.85.85,0,0,0-.25-.59l-3.39-3.38a.85.85,0,0,0-1.18,0l-3.39,3.38a.83.83,0,0,0-.25.59v5.48h-7V9.63h6a.89.89,0,0,0,.6-.24L15,4.77l4.63,4.62a.85.85,0,0,0,.59.24h6V28.32ZM20.61,8l-5-5a.85.85,0,0,0-1.18,0l-5,5H2.22L3,6.51H5.43a.83.83,0,1,0,0-1.66H3.84l.35-.68H7.91a.83.83,0,0,0,0-1.66H5.06l.44-.84H24.58L27.86,8Z" transform="translate(0)" fill="#b8c2cb"/><path d="M8,16H6.38a.84.84,0,0,0,0,1.67H8a.83.83,0,0,0,.83-.83A.84.84,0,0,0,8,16Z" transform="translate(0)" fill="#b8c2cb"/><path d="M8,11.34H6.38a.83.83,0,0,0-.83.83.84.84,0,0,0,.83.84H8a.84.84,0,0,0,0-1.67Z" transform="translate(0)" fill="#b8c2cb"/><path d="M12.6,16H11a.83.83,0,1,0,0,1.66H12.6a.83.83,0,1,0,0-1.66Z" transform="translate(0)" fill="#b8c2cb"/><path d="M12.6,11.28H11a.83.83,0,1,0,0,1.66H12.6a.83.83,0,1,0,0-1.66Z" transform="translate(0)" fill="#b8c2cb"/><path d="M24,16H22.4a.84.84,0,1,0,0,1.67H24a.83.83,0,0,0,.83-.83A.84.84,0,0,0,24,16Z" transform="translate(0)" fill="#b8c2cb"/><path d="M24,11.34H22.4a.84.84,0,0,0-.84.83.85.85,0,0,0,.84.84H24a.84.84,0,0,0,0-1.67Z" transform="translate(0)" fill="#b8c2cb"/><path d="M19.41,16H17.78a.83.83,0,1,0,0,1.66h1.63a.83.83,0,1,0,0-1.66Z" transform="translate(0)" fill="#b8c2cb"/><path d="M19.41,11.28H17.78a.83.83,0,1,0,0,1.66h1.63a.83.83,0,1,0,0-1.66Z" transform="translate(0)" fill="#b8c2cb"/><path d="M7.89,25.32H6.26a.83.83,0,1,0,0,1.66H7.89a.83.83,0,1,0,0-1.66Z" transform="translate(0)" fill="#b8c2cb"/><path d="M7.89,20.64H6.26a.84.84,0,1,0,0,1.67H7.89a.83.83,0,0,0,.83-.83A.84.84,0,0,0,7.89,20.64Z" transform="translate(0)" fill="#b8c2cb"/><path d="M24,25.32H22.4a.83.83,0,1,0,0,1.66H24a.83.83,0,0,0,0-1.66Z" transform="translate(0)" fill="#b8c2cb"/><path d="M24,20.64H22.4a.84.84,0,1,0,0,1.67H24a.83.83,0,0,0,.83-.83A.84.84,0,0,0,24,20.64Z" transform="translate(0)" fill="#b8c2cb"/></svg>