<svg id="Capa_1" data-name="Capa 1" xmlns="http://www.w3.org/2000/svg" viewBox="0 0 76.27 78.16"><path d="M197.4,190.85l-10.8-10.56v-12a3,3,0,0,0-6.08,0v6.09L169,163a3,3,0,0,0-4.26,0l-28.44,27.81a4.56,4.56,0,0,0,3.19,7.82H144V215.4a7.61,7.61,0,0,0,7.6,7.6h10.65a3,3,0,0,0,0-6.08H151.62a1.53,1.53,0,0,1-1.52-1.52V195.63a3,3,0,0,0-3-3h-3.87l23.64-23.13,26.31,25.73a3,3,0,1,0,4.26-4.34Z" transform="translate(-134.89 -162.17)" fill="#fff"/><path d="M210.15,234.37l-8.8-8.86a17.28,17.28,0,1,0-14.43,7.84,17.13,17.13,0,0,0,9.54-2.91l8.79,8.87a3.45,3.45,0,0,0,4.9,0A3.5,3.5,0,0,0,210.15,234.37Zm-23.23-8a10.48,10.48,0,1,1,10.39-10.47A10.44,10.44,0,0,1,186.92,226.37Z" transform="translate(-134.89 -162.17)" fill="#143756"/></svg>