<svg id="Capa_1" data-name="Capa 1" xmlns="http://www.w3.org/2000/svg" viewBox="0 0 93.77 102.34"><path d="M59.62,107H24.69c-8.48,0-12.47-4-12.5-12.6-.06-15.14,0-30.28,0-45.42A13.34,13.34,0,0,1,17,38.05C28.47,28.19,39.8,18.16,51.2,8.22,56.49,3.61,61.49,3.47,66.73,8q17.74,15.3,35.34,30.76a11.06,11.06,0,0,1,3.86,8.8V96c0,6.68-4.21,10.91-10.88,11C83.23,107.06,71.42,107,59.62,107Z" transform="translate(-12.16 -4.68)" fill="#00d9e1"/><path d="M84.91,51c0,1.84-1.15,3-2.31,4.25L58.15,80.75c-2.57,2.68-5.3,3.48-8.16.59C45.91,77.22,42,73,37.93,68.78c-2.31-2.4-2.81-5-.23-7.38s4.87-.93,6.88,1.19c2.18,2.28,4.56,4.39,6.52,6.84s3.19,2.4,5.34.07C63.08,62.3,70,55.35,76.78,48.33c1.45-1.5,3-2.58,5.29-1.56A4.32,4.32,0,0,1,84.91,51Z" transform="translate(-12.16 -4.68)" fill="#fdfefe"/></svg>