<svg id="Capa_1" data-name="Capa 1" xmlns="http://www.w3.org/2000/svg" viewBox="0 0 41 36"><path d="M7.13,36H33.87a1.79,1.79,0,0,0,1.78-1.8V17.28l2.41,2.09a1.77,1.77,0,0,0,2.51-.2,1.82,1.82,0,0,0-.19-2.54L21.66.43a1.79,1.79,0,0,0-2.32,0L.62,16.63a1.82,1.82,0,0,0-.19,2.54,1.77,1.77,0,0,0,2.51.2l2.41-2.09V34.2A1.79,1.79,0,0,0,7.13,36ZM8.91,14.2l11.59-10,11.59,10V32.4H22.28V25.2a1.78,1.78,0,1,0-3.56,0v7.2H8.91Z" transform="translate(0 0)" fill="#fff"/><path d="M20.5,20.5A2.5,2.5,0,1,0,18,18,2.5,2.5,0,0,0,20.5,20.5Z" transform="translate(0 0)" fill="#fff"/></svg>