<svg width="38" height="28" viewBox="0 0 38 28" fill="none" xmlns="http://www.w3.org/2000/svg">
<path d="M35.8765 8.6776C35.8756 8.67676 35.8752 8.67591 35.8748 8.67549C35.8744 8.67507 35.8731 8.67422 35.8727 8.6738L28.8891 1.69017C28.3959 1.19743 27.5126 0.662474 26.7175 0.629962L21.2514 0.00548915L21.1678 0C20.7511 0.00211113 20.3483 0.0709342 19.9687 0.197602C17.6414 -0.0460225 14.858 1.14972 12.6464 3.36135C12.2217 3.78611 11.8281 4.23873 11.4764 4.70741C11.1965 5.08065 11.2721 5.61013 11.6445 5.89006C11.7965 6.00449 11.9742 6.05895 12.1507 6.05895C12.4074 6.05895 12.6608 5.94284 12.8271 5.72159C13.1311 5.31626 13.4719 4.92401 13.8405 4.5554C15.0708 3.32504 16.5187 2.45483 17.8858 2.07144C17.6688 2.5456 17.554 3.06579 17.5616 3.60624L18.1919 9.15641C18.216 9.74668 18.5171 10.3851 18.8721 10.8766C18.5453 11.1544 18.2042 11.4065 17.8533 11.6374C17.5717 11.1274 17.2191 10.6524 16.7956 10.2289C15.6138 9.04663 14.0419 8.39513 12.3694 8.39471C12.369 8.39471 12.3686 8.39471 12.3682 8.39471C12.0393 8.39471 11.7162 8.42722 11.3975 8.47662C11.5013 8.1304 11.631 7.77953 11.7935 7.43034C11.9903 7.0077 11.807 6.50567 11.384 6.30849C10.9634 6.11215 10.4593 6.29455 10.2621 6.71805C9.89139 7.51479 9.65241 8.30478 9.53503 9.0745C8.95404 9.37005 8.41486 9.7547 7.9407 10.2289C6.38437 11.7852 5.77341 13.9977 6.28219 16.1105L5.55343 16.8397C5.41367 16.9794 5.32754 17.1635 5.30938 17.3598L5.16329 18.963L3.52083 19.1628C3.12858 19.21 2.82204 19.5233 2.78236 19.9169L2.62318 21.5061L0.883602 21.7105C0.471087 21.7586 0.155261 22.0998 0.138372 22.514L0.00072629 25.8462C-0.0174295 26.2874 0.306841 26.6678 0.745112 26.7198L4.13433 27.1217C4.16726 27.1255 4.20062 27.1276 4.23355 27.1276C4.45606 27.1276 4.6714 27.0394 4.83058 26.8802L10.9588 20.752C11.4321 20.8626 11.9101 20.918 12.3846 20.918C14.0136 20.918 15.6003 20.2783 16.7952 19.0834C17.9783 17.9007 18.6294 16.3283 18.6294 14.6551C18.6294 14.1754 18.5694 13.7055 18.4651 13.2491C19.0111 12.9138 19.535 12.5338 20.0307 12.1069L27.3766 19.4528C27.996 20.0727 28.8131 20.4227 29.6773 20.4383C29.698 20.4387 29.7187 20.4391 29.739 20.4391C30.5919 20.4391 31.3861 20.1128 31.9827 19.5157L37.0764 14.422C37.6874 13.811 38.0155 12.9919 37.9994 12.1162C37.9834 11.2519 37.6334 10.4349 37.014 9.8155L35.8765 8.6776ZM15.6012 17.8893C14.3826 19.1066 12.608 19.5343 10.9685 19.0044C10.9533 18.9994 10.9377 18.9985 10.9225 18.9947C10.8925 18.9871 10.8629 18.9799 10.833 18.9757C10.808 18.9719 10.7831 18.9698 10.7582 18.9685C10.7287 18.9668 10.6991 18.9664 10.6695 18.9677C10.6446 18.969 10.6206 18.9715 10.5961 18.9749C10.5661 18.9791 10.537 18.9842 10.5078 18.9913C10.4846 18.9972 10.4622 19.004 10.4394 19.0116C10.4107 19.0213 10.3824 19.0323 10.3546 19.0454C10.3322 19.0559 10.3111 19.0673 10.2895 19.0796C10.2646 19.0939 10.2401 19.1091 10.2165 19.1264C10.1933 19.1429 10.1717 19.1615 10.1502 19.1805C10.138 19.1915 10.124 19.1999 10.1122 19.2117L3.92659 25.3969L1.72088 25.1356L1.79646 23.3044L3.49465 23.1047C3.88859 23.0586 4.19682 22.7445 4.2365 22.3501L4.39568 20.7579L6.04406 20.5578C6.43926 20.5101 6.74706 20.1926 6.78338 19.7961L6.96367 17.8175L7.82501 16.9558C7.83641 16.9444 7.84485 16.9304 7.85541 16.9186C7.8761 16.8954 7.89594 16.8722 7.9141 16.8468C7.9293 16.8253 7.94281 16.8029 7.9559 16.7806C7.96983 16.7565 7.98334 16.732 7.99474 16.7067C8.00614 16.6818 8.01543 16.6568 8.02388 16.6315C8.03274 16.6053 8.04077 16.5796 8.0471 16.5526C8.05301 16.5268 8.05766 16.501 8.06103 16.4744C8.06483 16.447 8.06779 16.4195 8.06906 16.3917C8.07032 16.3642 8.06906 16.3372 8.06737 16.3098C8.06568 16.2836 8.06399 16.2574 8.05977 16.2312C8.05512 16.2 8.04752 16.17 8.03908 16.1392C8.03486 16.124 8.03401 16.1088 8.02894 16.094C7.48216 14.4414 7.90608 12.652 9.13433 11.4229C9.56543 10.9918 10.0675 10.6574 10.6142 10.4307C10.6185 10.429 10.6227 10.4277 10.6265 10.426C11.1716 10.2018 11.7602 10.0836 12.3673 10.0836H12.3682C13.5897 10.084 14.7377 10.5595 15.6007 11.4229C15.906 11.7282 16.1598 12.0706 16.3641 12.4375C16.161 12.5224 15.9588 12.5963 15.7578 12.6609C15.6273 12.359 15.4411 12.0753 15.1946 11.8287C14.1479 10.782 12.4459 10.782 11.3996 11.8287C10.3529 12.875 10.3529 14.5778 11.3996 15.6237C11.9227 16.1468 12.6097 16.4081 13.2971 16.4081C13.9845 16.4081 14.6714 16.1468 15.1946 15.6237C15.5492 15.2694 15.7806 14.8392 15.8946 14.3848C16.2261 14.2953 16.5596 14.1775 16.8936 14.0433C16.9206 14.2451 16.9392 14.4486 16.9392 14.6555C16.9405 15.877 16.465 17.0254 15.6012 17.8893ZM13.585 12.9421C13.1206 12.8889 12.7064 13.2317 12.6587 13.6953C12.6109 14.1589 12.9483 14.574 13.4119 14.6217C13.504 14.6314 13.6002 14.631 13.694 14.6361C13.33 14.7936 12.8913 14.726 12.5945 14.4292C12.2069 14.0411 12.2069 13.4103 12.5945 13.0223C12.7883 12.8285 13.0433 12.7318 13.2979 12.7318C13.5225 12.7318 13.7442 12.8116 13.927 12.9619C13.8109 12.9598 13.6965 12.9535 13.585 12.9421ZM35.8828 13.2279L30.7891 18.3221C30.1946 18.9166 29.1994 18.8879 28.5707 18.2592L28.0277 17.7162L32.9086 12.8353C33.2384 12.5059 33.2384 11.971 32.9086 11.6412C32.5789 11.3115 32.0443 11.3115 31.7146 11.6412L26.8337 16.5222L21.2358 10.9238C22.0084 10.0566 22.6405 9.11165 23.0965 8.14137C23.789 8.1304 24.4379 7.85764 24.9277 7.36743C25.4285 6.86667 25.7042 6.20124 25.7042 5.49317C25.7042 4.78509 25.4285 4.11967 24.9277 3.61933C23.895 2.58656 22.2136 2.58572 21.18 3.61933C20.1468 4.65252 20.1468 6.33382 21.1796 7.36701C21.18 7.36701 21.18 7.36701 21.18 7.36701C21.2717 7.45863 21.3709 7.54012 21.4726 7.61655C21.1188 8.32378 20.6535 9.01454 20.0953 9.66181C19.9657 9.43508 19.8804 9.2113 19.8787 9.08421L19.2496 3.54417C19.2526 3.04637 19.4451 2.58234 19.7943 2.23273C20.1435 1.88398 20.6079 1.69144 21.1049 1.68891L26.5609 2.31296L26.6445 2.31845C26.8662 2.32182 27.3847 2.57516 27.695 2.8855L34.0829 9.27336L33.1573 10.1993C32.8276 10.5291 32.8276 11.064 33.1573 11.3934C33.3224 11.5585 33.5382 11.6408 33.7544 11.6408C33.9706 11.6408 34.1867 11.5585 34.3514 11.3934L35.2773 10.4678L35.8203 11.0108C36.129 11.3195 36.3034 11.7235 36.311 12.1483C36.319 12.5604 36.1665 12.9442 35.8828 13.2279ZM22.3745 4.81338C22.562 4.62634 22.8077 4.5326 23.0539 4.5326C23.3 4.5326 23.5466 4.62634 23.7337 4.81381C23.9156 4.99536 24.0153 5.23645 24.0153 5.49275C24.0153 5.72033 23.933 5.93313 23.7886 6.10582C23.8042 6.02982 23.8215 5.95297 23.835 5.87739C23.9144 5.41759 23.607 4.98059 23.1476 4.90078C22.6853 4.82352 22.2508 5.12921 22.171 5.58817C22.1617 5.64179 22.144 5.6971 22.133 5.75115C22.0431 5.42815 22.1208 5.06756 22.3745 4.81338Z" fill="#B8C2CB"/>
</svg>
