<svg width="13" height="16" viewBox="0 0 13 16" fill="none" xmlns="http://www.w3.org/2000/svg">
<path d="M6.7127 15.15H6.68185H6.32176H6.29309L6.26644 15.1394L6.19587 15.1114L6.19187 15.1098L6.19189 15.1098C5.96029 15.0101 5.76344 14.846 5.62648 14.6373L4.27486 12.7827L6.7127 15.15ZM6.7127 15.15L6.74105 15.1378M6.7127 15.15L6.74105 15.1378M6.74105 15.1378L6.80212 15.1116C6.8023 15.1115 6.80248 15.1114 6.80266 15.1114C7.05079 15.0065 7.25979 14.8287 7.39997 14.602C8.62286 12.924 9.84623 11.246 11.0701 9.56798C11.9122 8.45563 12.2837 7.07091 12.1069 5.69936C12.0351 5.01479 11.8248 4.35094 11.4883 3.74597C11.1515 3.1406 10.6951 2.60622 10.1455 2.17344C8.36089 0.75045 6.29058 0.468519 4.17643 1.359L4.17643 1.359L4.17568 1.35932C3.0941 1.82187 2.19133 2.60748 1.59884 3.60308C1.00659 4.59829 0.755364 5.75134 0.88201 6.89513C0.963814 7.80339 1.28927 8.67458 1.82548 9.42176L1.82602 9.42251M6.74105 15.1378L1.82602 9.42251M1.82602 9.42251C2.64035 10.5425 3.45659 11.6626 4.27476 12.7826L1.82602 9.42251ZM6.49008 8.53792C7.08256 8.53873 7.65216 8.3119 8.07452 7.90561C8.49702 7.49918 8.7379 6.94598 8.74324 6.36633L8.74323 6.36415C8.74016 5.78951 8.50664 5.23953 8.09367 4.83086C7.68083 4.42231 7.12122 4.18706 6.53399 4.17383L6.53399 4.17381L6.53192 4.17379C5.93784 4.1686 5.36506 4.39246 4.93926 4.79759C4.51332 5.20286 4.2692 5.75663 4.26184 6.33785H4.26182L4.26182 6.34022C4.26363 6.91512 4.49585 7.46587 4.90785 7.87584C5.31972 8.28568 5.8788 8.5227 6.46624 8.53787L6.46624 8.53792H6.47012H6.49008ZM6.49008 8.53792L6.49028 8.38792V8.53792H6.49008ZM6.51454 13.9919L6.51442 13.9918L6.51076 13.9973C6.50767 14.002 6.50452 14.0066 6.50133 14.0112C6.05307 13.3938 5.60386 12.7774 5.1537 12.1619L5.15355 12.1617C4.33187 11.0421 3.51596 9.92255 2.7058 8.80297C2.28107 8.20762 2.02408 7.51508 1.95992 6.79405L1.95996 6.79405L1.95957 6.79058C1.85619 5.87173 2.05656 4.94451 2.53208 4.14322C3.00757 3.34199 3.7337 2.70799 4.60588 2.33388C6.35735 1.59649 7.98419 1.81847 9.46333 2.9977L9.46365 2.99795C9.90323 3.34646 10.2673 3.77577 10.5352 4.26105C10.8031 4.74631 10.9695 5.27806 11.0251 5.82572L11.0251 5.82572L11.0256 5.82983C11.1687 6.93484 10.8702 8.05158 10.1905 8.9498L10.1905 8.94978L10.189 8.95192C8.96367 10.6319 7.73887 12.3119 6.51454 13.9919ZM6.50445 5.23397L6.55506 5.23406C6.84583 5.25003 7.1199 5.37068 7.32352 5.57213C7.53589 5.78224 7.65493 6.06359 7.65678 6.35629C7.65532 6.50408 7.62391 6.65026 7.56423 6.78651C7.50441 6.92309 7.41728 7.04714 7.30765 7.15139C7.19802 7.25565 7.06804 7.33805 6.92508 7.39365C6.78243 7.44914 6.6298 7.47679 6.47595 7.47496C6.17066 7.46659 5.88155 7.34296 5.66972 7.13151C5.45795 6.92014 5.34004 6.63777 5.33963 6.34457C5.34101 6.1988 5.37204 6.05462 5.43105 5.92029C5.49016 5.78574 5.57624 5.66362 5.68453 5.5611L5.68453 5.5611L5.68541 5.56026C5.90265 5.35123 6.197 5.23348 6.50445 5.23397Z" fill="#13497B" stroke="#13497B" stroke-width="0.3"/>
</svg>
