<svg id="Capa_1" data-name="Capa 1" xmlns="http://www.w3.org/2000/svg" viewBox="0 0 31 32"><path d="M29.51,16.41a.91.91,0,0,1,0-.82l1.2-2.45A2.75,2.75,0,0,0,29.5,9.46L27.08,8.18a1,1,0,0,1-.5-.67l-.47-2.68a2.8,2.8,0,0,0-3.17-2.28l-2.71.38a.93.93,0,0,1-.8-.25l-2-1.89a2.83,2.83,0,0,0-3.92,0l-2,1.89a.93.93,0,0,1-.8.25L8.06,2.55A2.8,2.8,0,0,0,4.89,4.83L4.42,7.51a1,1,0,0,1-.5.67L1.5,9.46A2.75,2.75,0,0,0,.29,13.14l1.2,2.45a.91.91,0,0,1,0,.82L.29,18.86A2.77,2.77,0,0,0,1.5,22.55l2.42,1.27a1,1,0,0,1,.5.67l.47,2.68a2.79,2.79,0,0,0,2.76,2.3l.41,0,2.71-.38a.93.93,0,0,1,.8.25l2,1.89a2.83,2.83,0,0,0,3.92,0l2-1.89a.93.93,0,0,1,.8-.25l2.71.38a2.8,2.8,0,0,0,3.17-2.28l.47-2.68a1,1,0,0,1,.5-.67l2.42-1.27a2.77,2.77,0,0,0,1.21-3.69Zm-.88,4.5L26.2,22.19a2.76,2.76,0,0,0-1.45,2l-.47,2.68a1,1,0,0,1-1.08.77l-2.71-.38a2.84,2.84,0,0,0-2.36.75l-2,1.89a.94.94,0,0,1-1.32,0l-2-1.89a2.87,2.87,0,0,0-2-.78l-.4,0-2.71.38a1,1,0,0,1-1.08-.77l-.47-2.68a2.76,2.76,0,0,0-1.45-2L2.37,20.91A.94.94,0,0,1,2,19.67l1.21-2.45a2.75,2.75,0,0,0,0-2.44L2,12.33a.94.94,0,0,1,.41-1.24L4.8,9.81a2.76,2.76,0,0,0,1.45-2l.47-2.68A1,1,0,0,1,7.8,4.38l2.71.38A2.84,2.84,0,0,0,12.87,4l2-1.89a.94.94,0,0,1,1.32,0l2,1.89a2.84,2.84,0,0,0,2.36.75l2.71-.38a1,1,0,0,1,1.08.77l.47,2.68a2.76,2.76,0,0,0,1.45,2l2.43,1.28A.94.94,0,0,1,29,12.33l-1.21,2.44a2.78,2.78,0,0,0,0,2.45L29,19.67A.94.94,0,0,1,28.63,20.91Z" transform="translate(0 0)" fill="#b8c2cb"/><path d="M22,8.83a.94.94,0,0,0-1.32,0L8.38,21a.91.91,0,0,0,0,1.31.93.93,0,0,0,1.31,0L22,10.14A.93.93,0,0,0,22,8.83Z" transform="translate(0 0)" fill="#b8c2cb"/><path d="M11.49,7.82a3.39,3.39,0,1,0,3.42,3.38A3.4,3.4,0,0,0,11.49,7.82Zm0,4.92a1.54,1.54,0,1,1,1.56-1.54A1.55,1.55,0,0,1,11.49,12.74Z" transform="translate(0 0)" fill="#b8c2cb"/><path d="M20.07,15.23a3.39,3.39,0,1,0,3.42,3.39A3.4,3.4,0,0,0,20.07,15.23Zm0,4.92a1.54,1.54,0,1,1,1.56-1.53A1.55,1.55,0,0,1,20.07,20.15Z" transform="translate(0 0)" fill="#b8c2cb"/></svg>