<svg id="Capa_1" data-name="Capa 1" xmlns="http://www.w3.org/2000/svg" viewBox="0 0 12.5 9.76"><path d="M12.73,7.41h-.52a5.67,5.67,0,0,0-1.14-3.08A5.56,5.56,0,0,0,8.4,2.42a1.64,1.64,0,0,0,.19-.78A1.6,1.6,0,0,0,8.37.87,1.7,1.7,0,0,0,7.8.31,1.61,1.61,0,0,0,7,.11a1.65,1.65,0,0,0-.78.2,1.7,1.7,0,0,0-.57.56,1.72,1.72,0,0,0-.22.77,1.64,1.64,0,0,0,.19.78A5.59,5.59,0,0,0,3,4.33,5.5,5.5,0,0,0,1.82,7.41H1.27a.52.52,0,0,0-.37.16.51.51,0,0,0-.15.37A.49.49,0,0,0,.9,8.3a.52.52,0,0,0,.37.16H12.73a.52.52,0,0,0,.37-.16.49.49,0,0,0,.15-.36.51.51,0,0,0-.15-.37A.52.52,0,0,0,12.73,7.41ZM6.48,1.69a.48.48,0,0,1,.09-.29.5.5,0,0,1,.23-.2.51.51,0,0,1,.3,0,.47.47,0,0,1,.27.14.51.51,0,0,1,.14.26.54.54,0,0,1,0,.31.6.6,0,0,1-.19.23.51.51,0,0,1-.66-.07A.49.49,0,0,1,6.48,1.69ZM7,3.25a4.44,4.44,0,0,1,4.17,4.16H2.86A4.39,4.39,0,0,1,7,3.25Z" transform="translate(-0.75 -0.11)" fill="#8a9bab"/><path d="M12.32,8.83H2A.66.66,0,0,0,1.56,9a.49.49,0,0,0,0,.74A.61.61,0,0,0,2,9.87H12.32a.57.57,0,0,0,.4-.15.49.49,0,0,0,0-.74A.62.62,0,0,0,12.32,8.83Z" transform="translate(-0.75 -0.11)" fill="#8a9bab"/></svg>