<svg id="Capa_1" data-name="Capa 1" xmlns="http://www.w3.org/2000/svg" viewBox="0 0 24 25.5"><path d="M12.49.75h0a11.77,11.77,0,0,0-7.24,21,14.4,14.4,0,0,0,4.8,3,13.21,13.21,0,0,0,4.89.94,14.69,14.69,0,0,0,3.32-.37h0a1.66,1.66,0,0,0,1-.71,1.21,1.21,0,0,0,.11-1.15,4.12,4.12,0,0,1-.2-.65l0-.14c0-.14-.06-.28-.1-.43A11.77,11.77,0,0,0,12.49.75Zm5.34,20h0l-.52.35-.1.07a.81.81,0,0,0-.37.94l.42,1.52a14.79,14.79,0,0,1-2.31.19A11.08,11.08,0,0,1,10.8,23h0a12.7,12.7,0,0,1-4.15-2.64l0-.05h0l0,0-.06,0a9.79,9.79,0,1,1,12-15.46h0a9.74,9.74,0,0,1,1.7,13.73h0A8.87,8.87,0,0,1,17.83,20.71Z" transform="translate(-0.5 -0.5)" fill="#b8c2cb" stroke="#b8c2cb" stroke-width="0.5"/><path d="M18.05,11.67a1.71,1.71,0,1,0,1.7,1.72v0A1.7,1.7,0,0,0,18.05,11.67Z" transform="translate(-0.5 -0.5)" fill="#b8c2cb" stroke="#b8c2cb" stroke-width="0.6"/><path d="M7,11.92a1.71,1.71,0,1,0,1.7,1.72v0A1.69,1.69,0,0,0,7,11.92Z" transform="translate(-0.5 -0.5)" fill="#b8c2cb" stroke="#b8c2cb" stroke-width="0.6"/><path d="M12.66,11.92a1.71,1.71,0,1,0,1.69,1.72v0A1.69,1.69,0,0,0,12.66,11.92Z" transform="translate(-0.5 -0.5)" fill="#b8c2cb" stroke="#b8c2cb" stroke-width="0.6"/></svg>