<svg id="Capa_1" data-name="Capa 1" xmlns="http://www.w3.org/2000/svg" viewBox="0 0 22 22"><path d="M21.88,21.31,16.54,16a9.56,9.56,0,1,0-.57.57l5.34,5.34a.4.4,0,0,0,.29.12.41.41,0,0,0,.28-.69ZM.81,9.53a8.72,8.72,0,1,1,8.72,8.72A8.73,8.73,0,0,1,.81,9.53Z" fill="#7192b0"/><path d="M9.84,4.71a.42.42,0,0,0-.62,0L4.66,9.39a.47.47,0,0,0,0,.64.42.42,0,0,0,.31.13A.43.43,0,0,0,5.28,10l.58-.6V13a.45.45,0,0,0,.44.45h6.45a.44.44,0,0,0,.44-.45V9.43l.59.6a.44.44,0,0,0,.62,0,.47.47,0,0,0,0-.64Zm2.47,7.86H6.74v-4L9.53,5.67l2.78,2.85v4.05Z" fill="#7192b0"/></svg>