<svg id="Capa_1" data-name="Capa 1" xmlns="http://www.w3.org/2000/svg" viewBox="0 0 19 19"><path d="M8.9,19h1.2a1.75,1.75,0,0,0,1.75-1.75v-.4a7.7,7.7,0,0,0,1.19-.5l.28.29a1.76,1.76,0,0,0,2.48,0l.84-.84a1.76,1.76,0,0,0,0-2.48L16.35,13a7.7,7.7,0,0,0,.5-1.19h.4A1.75,1.75,0,0,0,19,10.1V8.9a1.75,1.75,0,0,0-1.75-1.75h-.4A7.7,7.7,0,0,0,16.35,6l.29-.28a1.76,1.76,0,0,0,0-2.48l-.84-.84a1.76,1.76,0,0,0-2.48,0L13,2.65a7.7,7.7,0,0,0-1.19-.5v-.4A1.75,1.75,0,0,0,10.1,0H8.9A1.75,1.75,0,0,0,7.15,1.75v.4A7.7,7.7,0,0,0,6,2.65l-.28-.29a1.76,1.76,0,0,0-2.48,0l-.84.84a1.76,1.76,0,0,0,0,2.48L2.65,6a7.7,7.7,0,0,0-.5,1.19h-.4A1.75,1.75,0,0,0,0,8.9v1.2a1.75,1.75,0,0,0,1.75,1.75h.4A7.7,7.7,0,0,0,2.65,13l-.29.28a1.76,1.76,0,0,0,0,2.48l.84.84a1.76,1.76,0,0,0,2.48,0L6,16.35a7.7,7.7,0,0,0,1.19.5v.4A1.75,1.75,0,0,0,8.9,19Zm3.95-3.82a6.19,6.19,0,0,1-1.7.71.56.56,0,0,0-.42.54v.82a.64.64,0,0,1-.63.64H8.9a.64.64,0,0,1-.63-.64v-.82a.56.56,0,0,0-.42-.54,6.19,6.19,0,0,1-1.7-.71.56.56,0,0,0-.68.09l-.58.58a.63.63,0,0,1-.9,0L3.15,15a.63.63,0,0,1,0-.9l.58-.58a.56.56,0,0,0,.09-.68,6.19,6.19,0,0,1-.71-1.7.56.56,0,0,0-.54-.42H1.75a.64.64,0,0,1-.64-.63V8.9a.64.64,0,0,1,.64-.63h.82a.56.56,0,0,0,.54-.42,6.19,6.19,0,0,1,.71-1.7.56.56,0,0,0-.09-.68l-.58-.58a.63.63,0,0,1,0-.9L4,3.15a.63.63,0,0,1,.9,0l.58.58a.56.56,0,0,0,.68.09,6.19,6.19,0,0,1,1.7-.71.56.56,0,0,0,.42-.54V1.75a.64.64,0,0,1,.63-.64h1.2a.64.64,0,0,1,.63.64v.82a.56.56,0,0,0,.42.54,6.19,6.19,0,0,1,1.7.71.56.56,0,0,0,.68-.09l.58-.58a.63.63,0,0,1,.9,0l.84.84a.63.63,0,0,1,0,.9l-.58.58a.56.56,0,0,0-.09.68,6.19,6.19,0,0,1,.71,1.7.56.56,0,0,0,.54.42h.82a.64.64,0,0,1,.64.63v1.2a.64.64,0,0,1-.64.63h-.82a.56.56,0,0,0-.54.42,6.19,6.19,0,0,1-.71,1.7.56.56,0,0,0,.09.68l.58.58a.63.63,0,0,1,0,.9l-.84.84a.63.63,0,0,1-.9,0l-.58-.58A.57.57,0,0,0,12.85,15.18Z" fill="#143656"/><path d="M9.5,13.63A4.13,4.13,0,1,0,5.37,9.5,4.13,4.13,0,0,0,9.5,13.63Zm0-7.15a3,3,0,1,1-3,3A3,3,0,0,1,9.5,6.48Z" fill="#143656"/></svg>