<svg width="23" height="25" viewBox="0 0 23 25" fill="none" xmlns="http://www.w3.org/2000/svg">
<path d="M18.3124 15.5663C16.8634 15.5663 15.5662 16.2313 14.7055 17.2737L9.10662 14.0757C9.28073 13.5827 9.37643 13.0527 9.37643 12.5004C9.37643 11.9482 9.28073 11.4181 9.10662 10.9252L14.7051 7.72638C15.5657 8.76912 16.8631 9.43435 18.3122 9.43435C20.897 9.43435 22.9999 7.31796 22.9999 4.71646C23.0001 2.11573 20.8972 0 18.3124 0C15.7273 0 13.6242 2.11573 13.6242 4.71635C13.6242 5.26869 13.7198 5.7988 13.894 6.29184L8.29523 9.49079C7.43463 8.44861 6.13754 7.78382 4.68887 7.78382C2.10345 7.78382 0 9.89954 0 12.5003C0 15.1009 2.10345 17.2166 4.68887 17.2166C6.13754 17.2166 7.43452 16.5518 8.29512 15.5098L13.894 18.7079C13.7198 19.201 13.6241 19.7312 13.6241 20.2837C13.6241 22.8843 15.7272 25 18.3123 25C20.8971 25 23 22.8842 23 20.2837C23.0001 17.6826 20.8972 15.5663 18.3124 15.5663ZM18.3124 1.65042C19.9926 1.65042 21.3596 3.02577 21.3596 4.71635C21.3596 6.40781 19.9926 7.78382 18.3124 7.78382C16.6319 7.78382 15.2647 6.40781 15.2647 4.71635C15.2647 3.02577 16.6319 1.65042 18.3124 1.65042ZM4.68898 15.5663C3.00813 15.5663 1.64061 14.1909 1.64061 12.5004C1.64061 10.8097 3.00813 9.43435 4.68898 9.43435C6.36918 9.43435 7.73604 10.8097 7.73604 12.5004C7.73604 14.1909 6.36907 15.5663 4.68898 15.5663ZM18.3124 23.3497C16.6319 23.3497 15.2647 21.9742 15.2647 20.2838C15.2647 18.5926 16.6319 17.2167 18.3124 17.2167C19.9926 17.2167 21.3596 18.5926 21.3596 20.2838C21.3596 21.9742 19.9926 23.3497 18.3124 23.3497Z" fill="#B8C2CB"/>
</svg>
