<svg id="Capa_1" data-name="Capa 1" xmlns="http://www.w3.org/2000/svg" viewBox="0 0 508.36 249.54"><path d="M0,120.1c1.21-.18,1-1.12,1-1.89,0-2.36.18-4.74,0-7.08-.58-6.5,1.13-12.84,1.21-19.31,0-4,1.29-8,1.84-12a6.58,6.58,0,0,1,1-1.91c2.14-5.84,4-11.77,6.38-17.54,1.07-2.64,2.5-5.11,3.76-7.67.81-2,2.23-3.66,3.31-5.52a2.63,2.63,0,0,1,2.51-1.52c2.81,1.29,5.9.24,8.75,1.07,1.26,1.25-.23,1.71-.7,2.47-2.38,2.62-4.53,5.45-7.54,7.43-4.78,6-6.86,13.21-8.76,20.47A105.45,105.45,0,0,0,9.93,93.36C9.35,98.42,8.6,103.5,8.5,108.61c-.16,5.71-.74,11.45-1.22,17.17-.59,1.1-2.36.44-2.75,1.84a5.74,5.74,0,0,0-.3,5,4.79,4.79,0,0,1,.43,1.9,80.69,80.69,0,0,0,1,13.8c.11,1.52-.39,3.13.59,4.54.93,4,2.86,7.57,4.12,11.42a9.49,9.49,0,0,1,.19,2.38c.19,1.91-.49,3.9.57,5.73,1.49,5.22,2.19,10.66,4.33,15.69,2,4.65,4,9.23,8.12,12.57,2,1.6,4.12,3.28,4.76,6a4.4,4.4,0,0,1-4.15,2.8,24.53,24.53,0,0,1-4.37-.06,2,2,0,0,1-1.69-1.53c-.8-1.86-2.3-3.32-3-5.25-3.61-7.15-7-14.41-9-22.19-.2-.71-.3-1.62-1.22-1.95S4,177.66,4,177c-.08-2.55-.6-5.14-.72-7.58-.22-4.6-1.13-9.1-1.44-13.67s-.76-9.16-.76-13.76a10.71,10.71,0,0,1,.25-3.14c.43-1.37-.27-2-1.24-2.55Z" transform="translate(-0.04)" fill="#e5e6e6"/><path d="M313.62,1V0h6.88a44.5,44.5,0,0,1,5.33,4.94,59.49,59.49,0,0,1,6.26,8.69A40.72,40.72,0,0,0,338.67,23c.63,1.76-1.31,1.37-1.83,2.16a3,3,0,0,1-.7.29c-3-.35-6-1.06-9.13-1a3,3,0,0,1-.71-.25c-.91-.81-2.09-.53-3.15-.77a3.72,3.72,0,0,1-2.32-3.36q-2.43-8.28-5.21-16.46A6.38,6.38,0,0,0,313.62,1Z" transform="translate(-0.04)" fill="#dddede"/><path d="M317.57,232.32c-.09-1.18-.15-2.2-1.83-1.2a5.31,5.31,0,0,1-2.41.17c-14,0-27.93.09-41.9,0-2.1,0-3.93,1.15-5.88,1-4-.4-7.95.38-11.9,0-7-.58-13.91.57-20.86.07a1.18,1.18,0,0,0-1.45.85H250.5V234H225.13c0-.21,0-.3.05-.35.75-.82,2.87.35,2.65-1.25-.16-1.14-2-.34-3.05-.51-.84-.13-1.66-.82-2.58-.2-.07,1,1.23.34,1.31,1.4-13.8,1.31-27.58-1.28-41.4-.74a7,7,0,0,0-3.35-.47c-5.69,0-11.44.44-17-.21-5.22-.61-10.48.16-15.57-.71s-10.48-1.47-15.62-2.72c-3.09-.75-6.3-.9-9.3-2.07s-3.16-1.88-.67-4a25,25,0,0,1,10.66.25,15.07,15.07,0,0,0,4.13.36c10.5.08,21,.75,31.47,1.3,7.73.41,15.45.51,23.17.62,14.2.18,28.41.14,42.61.13h26a5.81,5.81,0,0,0,3.54-.67,15.9,15.9,0,0,1,5.83-.37c10.61.45,21.16-1,31.74-1.3,6.39-.2,12.84-.38,19.26-.72,3-.16,5.88-1.48,8.94-.78,1.35.59,3.41.7,3.24,2.67s-2.17,2.17-3.73,2.46-3.24,1.07-5,1.16c-1,.06-1.46,1-1.89,1.71-.63,1.12-1.09,2.34-1.81,3.41A.87.87,0,0,1,317.57,232.32Z" transform="translate(-0.04)" fill="#cbcbcb"/><path d="M336.77,25.11c-.25-1.5,2-.66,1.9-2,8.41,0,16.86.41,25.24-.17,4.82-.33,9.62-.85,14.47-.76a2.29,2.29,0,0,0,1.62.42c5-.6,10.09.07,15.12-.56a34.79,34.79,0,0,1,8.77.05c4.13.54,8.3,0,12.43.5a2,2,0,0,0,1.38-.41h2.39c3.71,1.18,7.46,1.91,11.35,1h.92c1.7,2,3.83,1.5,6,1h1.37A2.28,2.28,0,0,0,442,25.41a17.09,17.09,0,0,1,4.52,1.05c.5.18,1.23.26,1.11,1a1.34,1.34,0,0,1-1.25,1,12.12,12.12,0,0,1-5.32-.32c-2.46-.66-5-1-7.39.27-2.15.14-4.43,1.17-6.3-.83.1-1.36,1.19-.94,1.9-1.08-1.09.06-2.38-.3-3.1,1.06a1.67,1.67,0,0,1-.84.73c-4.36-.9-8.77-.5-13.16-.62a3.14,3.14,0,0,1-1.22-.13c-4.45-2.1-8.91-.86-13.36,0a21.15,21.15,0,0,1-4.9.18,7.93,7.93,0,0,0-6.45,2.37A4.36,4.36,0,0,1,385,31a1.23,1.23,0,0,1-1.66-1.8c.61-1,1.82-1.37,2.68-2.52a17.3,17.3,0,0,0-7.84,1.42c-1,.47-1.9,1.27-1.58,2.47a2.39,2.39,0,0,0,2.84,1.81c1.8-.57,3.11.25,4.68.53,2.7.48,5.44,1,8.19,1.34,4.52.53,9.07.74,13.55,1.61,2.88.57,5.82.67,8.73,1.06,4.61.62,9.17,1.49,13.76,2.21a52.2,52.2,0,0,1,10,3.11c.6.23,1.4.53,1.3,1.25s-1,.79-1.61.84a42,42,0,0,1-10.49-.72c-6.89-1.14-13.7-2.63-20.69-3.28-6.23-.58-12.4-1.58-18.67-2-3.22-.22-6.45-.68-9.7-.83a4.09,4.09,0,0,0-4.6,3.08,17.92,17.92,0,0,1-1.28,3.69c-1.89.85-2.91.1-3.31-1.79a12,12,0,0,0,2.7-4.25c.56-1.16.16-1.81-1.06-1.67-3.87.44-7.48-1.53-11.24-1,.66,1.1,3.2,0,3.07,2.33a4.71,4.71,0,0,1-3.25,1.27,1.68,1.68,0,0,1-.75-.41c-2-1.58-4.33-1.78-6.67-1.75-9.62.11-19.23.86-28.79,1.77-8.43.81-16.88,1.59-25.31,2.42-5.8.57-11.68,1.13-17.55.35a4.68,4.68,0,0,1-2.11-.53,1,1,0,0,1-.19-1.26,3.22,3.22,0,0,1,2.16-.63c5.07.43,10-.85,15-1.24,6.53-.51,13-1.64,19.59-1.84,1.77-.06,3.43-1.08,5.27-.84a15.43,15.43,0,0,1,2.15,0c2.15-.17,4.39.55,6.44-.63,3.13-.69,6.41-.07,9.49-1.27.87-.35,1.85-.51,2.76-.81,1.49-.36,3,0,5-.37a34.24,34.24,0,0,1-5.62-2.47C338.8,28.43,338,26.56,336.77,25.11Z" transform="translate(-0.04)" fill="#bdbfc1"/><path d="M466.24,220.5c-.93,0-1.34,1.37-2.44,1-1.61.35-3.41.29-4.43,2h-1.46c-1.51.57-3.46.15-4.43,1.94a23,23,0,0,0-6.47,1.68,8.45,8.45,0,0,1-2.83.28c-1.2-.61-1.69.56-2.48,1h-.95c-1.81-1.14-3.1.06-4.45,1h-3.9c-1.22-.68-2-.27-2.49,1h-7.32a4.66,4.66,0,0,0-5.43,1h-2.42a8.47,8.47,0,0,0-5.91,0c-11.77,0-23.55.4-35.28-.21-3.68-.19-7.74.11-11.35-1.6a6,6,0,0,0-1.94-.11c-7.57-.66-15,1.06-22.58,1a1.52,1.52,0,0,1-.3-1.78c2.31-1.1,3.09-3.63,4.89-5.21.52-.44.78-1.11,1.33-1.53,2.06-.12,4-.37,4.7-2.85,1.17-1.42,2.81-1,4.32-1.1,2.16-.12,4.4.5,6.47-.61a8.64,8.64,0,0,1,3.88-.32c3.17.36,6.09-1.12,9.2-1.08,1,0,1.22-.63.84-1.51-.52-1.18-1.29-2.3-1-3.71.21-.76.61-1.26,1.5-1.08a3.54,3.54,0,0,1,1.67,2.3c1.06,3,1.2,3.06,4.41,3.07A138.79,138.79,0,0,0,398,213.33c2.67-.36,5.35-.76,8-1,6.18-.48,12.24-1.77,18.41-2.37,4.1-.4,8.32-.56,12.32-1.86a2.47,2.47,0,0,1,.47-.11c1-.13,2.22-.49,2.56.67s-1,1.5-1.86,1.78A118,118,0,0,1,421,214.52c-8.52,1.47-17.12,2.29-25.66,3.67-3.27.52-6.58.87-9.87,1.35-.15,1.11,1.29,2.29.12,3s-2.21-.55-3.12-1.28c-1.83-1.47-5.87-1.32-7.56.35-1.22,1.21-.48,3.27,1.6,3.94a20.86,20.86,0,0,0,7,1.25,23.8,23.8,0,0,1,5.71.5c-.6-.66-1.14-.94-1.43-1.43a1.17,1.17,0,0,1-.06-1.37A1.05,1.05,0,0,1,389,224c5.12,1.68,10.38.54,15.57.79,3.59.17,7.19,0,10.79,0a26.92,26.92,0,0,0,8-.75,6.57,6.57,0,0,1,4.11.12,4.82,4.82,0,0,0,4.21.48c3.49-1.21,7.27-.41,10.69-1.77,2.37.46,4.45-.57,6.58-1.3a4,4,0,0,1,2.36-.4,3.52,3.52,0,0,0,3.48.15,49.86,49.86,0,0,1,5.41-1.53c6.72-2.11,11.48-6.66,15.39-12.27a55,55,0,0,1,4.55-5.75c.46-.5,1.12-1.23,1.85-.59s.26,1.37-.12,2a58.65,58.65,0,0,1-12.54,15.12C468.37,219.12,466.85,219.2,466.24,220.5Z" transform="translate(-0.04)" fill="#cecece"/><path d="M120.27,222.5c.09.88-.73,1.19-1.24,1.87,2.71,1.51,5.73,1.74,8.58,2.53,5.63,1.57,11.61,1.21,17.18,3.23,1.45.53,3.24.24,4.86.16,5.35-.26,10.63.59,15.93.93,4.44.28,8.92.07,13.38.06,1.15,0,2.3,0,3.15,1H158.55a15.83,15.83,0,0,0-8.31,0H129.08c-5.43-1.77-11.07-2.45-16.71-3.21-3.56-.48-7.08-1.18-10.66-1.58a44.28,44.28,0,0,0-4.88-.34c-1.64,0-3.15-.26-3.86-2.42-1.28,2.34-3.08,2.32-5.14,2.1-4.62-.49-9.29-.22-14-.48-6.19-.36-12.37-1-18.57-1.21a4.11,4.11,0,0,1-1.2-.23c-1.36-1-3-.66-4.48-.8a19.14,19.14,0,0,1-4.38-1.22,3.46,3.46,0,0,0-2.67-.69,41.18,41.18,0,0,1-16.42-6,5.92,5.92,0,0,0-1.65-1,3.35,3.35,0,0,1-.63-.37c-1.45-1.49-3.56-2.38-4.2-4.63-.13-.46-.42-.89-.07-1.37,1.3,0,2.61-.13,3.9,0,2.08.17,3.35-1,4.5-2.44,1.06-.8,1.85-.46,2.49.56.21,1,.93,1.16,1.82,1.17h5.36a5.49,5.49,0,0,1,4.9,2.07c1.82,2.07,4.67,2.12,7.16,2.74,3.78.95,7.74.95,11.54,1.87,1.55.38,2.83-.59,4.27-.72a5.72,5.72,0,0,1,1.17,0,3.53,3.53,0,0,1,1.1.3c.93.77,2.06.61,3.15.63,2.18.22,4.26,1,6.44,1.25a4.09,4.09,0,0,0,2.82.69c2.28-.13,4.36.74,6.5,1.26a4.64,4.64,0,0,0,3.18.71,4.87,4.87,0,0,1,1.85.32,4.59,4.59,0,0,0,3.17.65,6.82,6.82,0,0,1,2.69.32,4.94,4.94,0,0,0,3.36.64c1.55.08,3.12-.2,4.64.34,1.79,1.11,3.78.52,5.68.62,1.53.09,3.07,0,4.61,0S119,221.41,120.27,222.5Z" transform="translate(-0.04)" fill="#d4d5d4"/><path d="M54.86,224.55c7.16.08,14.27.87,21.4,1.3,3.18.19,6.38,0,9.57.1a12.34,12.34,0,0,1,2.91.22c1.8.47,3.12.44,3.12-1.92a1,1,0,0,1,.85-1c.72-.07,1.05.5,1,1.1-.08,2,1.18,2.12,2.73,2.14,4.81,0,9.51.94,14.24,1.63,3.18.47,6.33,1.33,9.6,1.31s6,1.4,8.78,2.87a52.23,52.23,0,0,0-5.87.06c-11.75,1.32-23.53.8-35.3,1-6.82.1-13.57-1-20.36-1.3a50.53,50.53,0,0,1-13.3-2.34,44.18,44.18,0,0,0-10.14-2.47c-1.62-.12-4,.05-5.28-1.77,1.58-1.18,3.41-.62,5.13-.71,1.36-.07,2.73.08,4.09,0a10.78,10.78,0,0,1,4.29.54,1.87,1.87,0,0,0,2.52-.76Z" transform="translate(-0.04)" fill="#cbcbcb"/><path d="M433.87,28c2.29-1.85,4.84-1.13,7.21-.46a10.73,10.73,0,0,0,6.1,0C445,27,443,25.66,440.57,26c-1.7.23-1.74-.69-.88-1.85,2.86.15,5.55,1.12,8.32,1.62A44.47,44.47,0,0,1,455.75,28a56,56,0,0,1,9.47,4.28c1.75,1,3.69,1.66,5.43,2.87A27.52,27.52,0,0,1,478,42.93c2.43,3.73,4.74,7.54,7.09,11.31,2.77,4.44,5.15,9.12,7.68,13.7,1.53,2.78,3.4,5.41,4.66,8.35.33.76.54,1.56-.31,2.18a1.29,1.29,0,0,1-1.44-.65c-1.85-2.6-4.21-4.82-5.81-7.61-.53-3.06-3.1-4.82-4.66-7.21-2.71-4.15-6.59-7.32-9.54-11.3-2.31-3.12-5.4-5.62-8.19-8.36a63.35,63.35,0,0,0-7.64-6.72,19.57,19.57,0,0,0-6.75-3.26,45.41,45.41,0,0,0-14.71-3.73,5.11,5.11,0,0,1-1.9-.3C435.65,28.78,434.58,28.7,433.87,28Z" transform="translate(-0.04)" fill="#d7d8d6"/><path d="M337.67,228.5v1.87a3,3,0,0,1-.27,1.64c-5.49,6.12-10,13.31-17.84,17-2.28,1-4.63.3-6.95.51a.89.89,0,0,1,0-1.13c3.61-5.45,5.84-11.59,8.81-17.37a6.53,6.53,0,0,1,2.32-3.06c3.94-2,8.12-1.14,12.23-1A1.91,1.91,0,0,1,337.67,228.5Z" transform="translate(-0.04)" fill="#e0e0e1"/><path d="M466.24,220.5a1.71,1.71,0,0,1,1.42-2c2.54-1,4-3.46,6-5.21,3.72-3.28,5.68-7.71,8.83-12-1.93.85-4.74,4.08-6.42,6.62-4.21,6.36-9.72,11-17.27,13a24.6,24.6,0,0,0-4.9,1.44,1.57,1.57,0,0,1-2.17-.45c-.05-.08-.09-.16-.13-.24,1.92-1.64,4.36-2.35,6.51-3.58,2.31-1.49,4.37-3.37,6.59-4.92,4.21-2.92,7.13-6.93,10.5-10.59,2.91-3.16,5.56-6.5,8.14-9.93,1.75-2.32,4.14-4.11,5.58-6.72a8.5,8.5,0,0,0,1-2.19c.56-.92.75-2.3,2.37-1.88,1.63,4.36-1.87,7.23-3.32,10.6a71.66,71.66,0,0,1-6.68,12.1,97.38,97.38,0,0,1-5.82,8.16,51.41,51.41,0,0,1-8.77,7.56A1.92,1.92,0,0,1,466.24,220.5Z" transform="translate(-0.04)" fill="#dedede"/><path d="M507.5,119.5c1.31.2.8,1.22.81,1.93v8.07c0,1.91.44,3.93-1.39,5.38-.51.41-.39,1.07-.35,1.61.38,6-1.15,11.76-1.2,17.67,0,.68.25,1.56-.86,1.7-1.06-1-.3-2.29-.46-2.94-.7,3.35-1.61,7.07-4,10.24-.5.64-1,1.1-1.77.3a6.45,6.45,0,0,1,0-4.54,95.25,95.25,0,0,0,3.7-18c.33-2.61.65-5.28,1.21-7.88.79-1,2.1-1.24,3.05-2,1.16-2.64.26-5.41.54-8.11C506.92,121.79,506.5,120.5,507.5,119.5Z" transform="translate(-0.04)" fill="#a09ca0"/><path d="M48.69,225.5H38.83c-1.49-1.12-3.43.17-4.92-.94-3.81-1.1-7.89-1.43-11.21-3.95-.21-.17-.63-.06-.95-.09-1.25-1.85-3.17-3.17-4.06-5.35a3.73,3.73,0,0,1-.14-3.45c1.2-.79,2.19-.27,3,.61a11.7,11.7,0,0,0,3.56,2.38h0C30,219.5,37,221.54,44.22,222.93c1.37.26,2.6.89,3.93,1.26a.84.84,0,0,1,.68,1A.79.79,0,0,1,48.69,225.5Z" transform="translate(-0.04)" fill="#fa103e"/><path d="M506.43,109.36l.1,9a1,1,0,0,1-.1,1.41.92.92,0,0,1-.3.18,2.67,2.67,0,0,1-2.65-.17,19,19,0,0,1-1.47-6.6c-.52-6.45-2.44-12.58-3.78-18.84a9.93,9.93,0,0,1,0-5.3c1-1.06,1.53-.23,2,.56a22.69,22.69,0,0,1,2.8,7.23,13.82,13.82,0,0,0,1,4c-.18.53.32.39,0,.35-.06,0,0-.08,0-.24.06-.5.19-1,.76-1.13,1.46.18,1.08,1.34,1.16,2.22C506.24,104.5,505.5,107,506.43,109.36Z" transform="translate(-0.04)" fill="#88878b"/><path d="M4.85,178.5c.25-.71.34-1.3,1.12-.21,1.12,1.56,1.18,3.46,1.7,5.15,2.07,6.64,5.11,12.82,8,19.07-.68,1.28-.07,2.47.26,3.68.5,1.87.91,3.73-.2,5.54-2.11-1.16-2.16-3.54-2.82-5.38-1.15-3.17-2.65-6.22-3.45-9.55-.72-3-2.09-5.73-2.71-8.77S4.79,181.79,4.85,178.5Z" transform="translate(-0.04)" fill="#f3c5c5"/><path d="M504.55,100c-.05,1.19-.11,2.39-.17,3.59a23.24,23.24,0,0,1-1.71-5.15c-.36-3.4-1.94-6.3-3.28-9.31-.08-.19-.55-.21-.84-.3-1.55.21-1.54-1-1.46-1.88.28-3.2-1.54-5.28-3.55-7.35-2.39-2.46-4-5.46-5.79-8.35-.92-1.5-2.4-2.66-2.8-4.48.24-1.63,1.07-1.57,2.11-.71a10.9,10.9,0,0,1,3.23,4.05l6.82,8.34c-.1,1,.62,1.65,1.11,2.39a31.27,31.27,0,0,1,6,13.25c.18,1.61-.34,3.29.57,4.81A1.14,1.14,0,0,1,504.55,100Z" transform="translate(-0.04)" fill="#3e424a"/><path d="M498.63,163.69c2.34-1.87,2.86-4.71,4-7.25A26.38,26.38,0,0,0,504,150.3c.88,1.84.18,3.78.61,5.6a4.17,4.17,0,0,1-.07.93c-1.15,1.47.2,3.44-1,4.9h0c-.93.76,0,2.2-1.08,2.9l-1,1.87c-.57,1.09-1.37,2.05-1.86,3.18l-2.06,4.71c-1,1.46-1.55,3.28-3.37,4.07-.67,1.11-1.34,2.22-2,3.33-1.15.13-1.31,1.29-2,1.92-.65,1.15-1.43,2-2.9,1.23-.59-.84-.14-1.53.35-2.2,2.69-3.64,4.67-7.76,7.73-11.16A9.08,9.08,0,0,0,498,165,1.59,1.59,0,0,1,498.63,163.69Z" transform="translate(-0.04)" fill="#454e56"/><path d="M417.7,22.15c-.31,1.31-1.39.91-2.2.91-4.89,0-9.77-.27-14.65-.37-6.66-.14-13.34.58-20,.36-.87,0-2.06.54-2.45-.9,10.37-2,20.85-.57,31.26-1.11C412.5,20.89,415,22.09,417.7,22.15Z" transform="translate(-0.04)" fill="#d7d8d6"/><path d="M323.5,228.44c-3,6-5.92,11.92-8.92,17.87a33.12,33.12,0,0,1-2,3.14c-2.24-1-2.25-1.72-.57-5,1.89-3.75,3.65-7.57,5.45-11.36a2.24,2.24,0,0,0,.07-.73h.84a13,13,0,0,0,1.84-2.74C320.94,228.34,321.91,227.25,323.5,228.44Z" transform="translate(-0.04)" fill="#56595b"/><path d="M503.57,94.15A33.11,33.11,0,0,0,498.43,82a1.34,1.34,0,0,1-.21-1.15c1.92.05,2.1,1.71,2.74,2.94,2.17,4.14,4.08,8.24,4.83,13.06.66,4.22.44,8.35.64,12.51-1.15-.31-.81-1.27-.84-2-.07-1.87-.08-3.75-.13-5.63,0-.7.17-1.54-.91-1.69l-.06-1C503.42,97.56,504.69,95.63,503.57,94.15Z" transform="translate(-0.04)" fill="#b2c0c2"/><path d="M15.77,211.7c-.1-2.07.3-4.15-.78-6.19-.37-.69-1.11-2.41.72-3,.52,1.85,2.11,3.09,2.81,4.84a15.56,15.56,0,0,1-1.37,4.15,1.2,1.2,0,0,1-.46.49Z" transform="translate(-0.04)" fill="#e46c6f"/><path d="M431.44,23.13c-.06.15-.06.38-.17.44-2.14,1.28-9.32.36-11.17-1.42C424,21.35,427.61,23.38,431.44,23.13Z" transform="translate(-0.04)" fill="#d7d8d6"/><path d="M17.5,211.75c.06,2.34,1.27,4.15,2.64,5.91.65.85,1.73,1.49,1.59,2.79-3.33-1.32-4.29-4.54-5.76-7.32-.11-.21.44-.78.68-1.18a1.71,1.71,0,0,0,0-.32.59.59,0,0,1,.82.08Z" transform="translate(-0.04)" fill="#f4bac4"/><path d="M438.32,24.13c-1,.9-5.15,1.31-5.9.57-.51-.5.05-1.06-.06-1.59C434.5,22.5,436.29,24.06,438.32,24.13Z" transform="translate(-0.04)" fill="#d7d8d6"/><path d="M417.16,231.29c0-1,.23-2,1.37-1.84,1.36.15,3.07-1,4.06.87C420.7,230.19,419.14,231.92,417.16,231.29Z" transform="translate(-0.04)" fill="#dedede"/><path d="M150.24,232.26c1.74-1.36,7-1.35,8.31,0Z" transform="translate(-0.04)" fill="#cbcbcb"/><path d="M494.24,178.5c1.16-1.33,1.65-3.2,3.37-4.07C497.5,177.32,496.64,178.31,494.24,178.5Z" transform="translate(-0.04)" fill="#acc9d1"/><path d="M408.83,231.3c1.72-1.36,4.52-1.36,5.91,0Z" transform="translate(-0.04)" fill="#dedede"/><path d="M436.3,229.35a2.61,2.61,0,0,1,3.24-1.76,2.53,2.53,0,0,1,1.21.76C439.08,227.87,437.93,229.68,436.3,229.35Z" transform="translate(-0.04)" fill="#dedede"/><path d="M503.5,161.73c.15-1.67-.92-3.58,1-4.9C504.22,158.5,505.39,160.4,503.5,161.73Z" transform="translate(-0.04)" fill="#8cb7be"/><path d="M33.93,224.5c1.66.19,3.53-.71,4.92.94C37.2,225.14,35.26,226.42,33.93,224.5Z" transform="translate(-0.04)" fill="#cbcbcb"/><path d="M429.91,230.32c-.19-.64-.93-1.47.16-1.8.79-.23,2-.64,2.33.84C431.62,229.81,431,230.58,429.91,230.32Z" transform="translate(-0.04)" fill="#dedede"/><path d="M459.37,223.5c.73-2.32,2.46-2.41,4.43-2C462.71,223,460.6,222.26,459.37,223.5Z" transform="translate(-0.04)" fill="#dedede"/><path d="M453.5,225.41c.67-2.49,2.63-2,4.43-1.94C456.82,225,454.71,224.2,453.5,225.41Z" transform="translate(-0.04)" fill="#dedede"/><path d="M499.67,169.68a2.92,2.92,0,0,1,1.83-3.18A2.76,2.76,0,0,1,499.67,169.68Z" transform="translate(-0.04)" fill="#8abdc8"/><path d="M441.7,228.36c.93-2.12,1.36-2.29,2.48-1A2.26,2.26,0,0,1,441.7,228.36Z" transform="translate(-0.04)" fill="#dedede"/><path d="M502.5,164.64c.47-.93-.57-2.41,1.08-2.9C503.5,162.81,504.2,164.18,502.5,164.64Z" transform="translate(-0.04)" fill="#8cb7be"/><path d="M293.5,22.14h22.68c.87,0,2.06.48,2.32-1a.86.86,0,0,1,1.2.09.9.9,0,0,1,.2.61c.11,3.74,3.08,3.87,5.6,4.46a7.87,7.87,0,0,1,3.31,1.41c2,1.65,1.85,3-.5,4.12-.36.17-.72.35-1.11.49a3.65,3.65,0,0,1-2.62-.15,3.37,3.37,0,0,0-2.1-.52c-11.91.64-23.77-.7-35.63-1.21-11-.46-22-.64-33-.79a5.06,5.06,0,0,1-1.68-.28,5.43,5.43,0,0,0-3.3-.68h-57a5.53,5.53,0,0,0-3.31.65,7.88,7.88,0,0,1-2.89.41c-1.63,0-3.27.09-4.9,0-11.44-.68-22.8,1.21-34.22,1-5.59,1.9-11.59,0-17.2,1.81a.49.49,0,0,1-.24,0c-5.73-.45-11.33,1.46-17,1-2.68-.2-5.12,1-7.73,1C98.46,34.46,92.77,36,87,37.09c-4.24.81-8.49,1.54-12.72,2.42a60,60,0,0,0-8.07,1.82c7.44.12,14.87.11,22.3.13a9.71,9.71,0,0,1,4.11.47c1.2.77,2.54.54,3.83.53,21.89-.26,43.79,0,65.68,0h31.13a5.85,5.85,0,0,0,3.55-.67c3.21-.88,6.49-.31,9.72-.34,13.76-.13,27.52-.09,41.28,0,4.23.12,8.47,0,12.7,0,1.68.14,3.44-.44,5,.59-.24,1.82-1.76,1.59-2.95,1.78a48.18,48.18,0,0,1-9.53.25c-8.66-.37-17.35-.43-26,0-5.11.23-10.24.57-15.36.93-5.28.37-10.55.88-15.86.89-7.6,0-15.21-.11-22.81,0-12.41.23-24.86.51-37.21,1.27-10.44.64-20.88.36-31.31,1.19-8.52.67-17.11.92-25.66,1.47a78.22,78.22,0,0,0-8.45,1.49,2.32,2.32,0,0,0-2,1.58,1.48,1.48,0,0,1-1.64,1.3,1.54,1.54,0,0,1-.62-.22c-2.76-1.23-5.42-.4-8.15.15-3.84.78-7.78.85-11.64,1.5a3.65,3.65,0,0,1-2.6-.5c-1.24-1.66-.48-3.63-.83-5.42-.24-1.34-1.34-.85-2.14-1s-2.06.07-2.16-1.37c.79-1.33,2.07-.4,2.8-.75a14.74,14.74,0,0,0-1.88,0c-1,0-2-.08-2.41-1.22a2.33,2.33,0,0,1,1.29-2.91,56.72,56.72,0,0,1,5-3.07c1.22-.54,1.69-1.17.6-2.34-.92-1-.76-2.47-1.51-3.55,0-.84.59-1.11,1.26-1.23,3-.54,5.91-1.46,8.9-2a51.79,51.79,0,0,1-7.26.28c-2.88.15-5.62,1.42-8.56,1-1-.14-2.11.09-3-.71.09-.41.22-1,.66-.9,2.57.37,5-.64,7.31-1.23,2.77-.7,5.65-.45,8.4-1.56,1.88-.76,4.21-.4,6.31-1.14s4.57-1.1,6.83-1.81a39.91,39.91,0,0,1,6.88-1C74.13,22.74,78,21.68,82,22c8.93.69,17.78-1.64,26.73-.9a116.32,116.32,0,0,1,13.8,1.69c1.09.23,1.82-.79,3-.75,3.75.13,7.51,0,11.27,0,6.51,0,13,.18,19.51-.11,2.52-.12,5-1.06,7.62-.85,1.9.16,3.83-.33,5.69.77a3.79,3.79,0,0,0,3.11.05c2.58-1.3,5.27-.75,7.9-.77,13.4-.07,26.8,0,40.2-.05a8.64,8.64,0,0,0,7.32.69,14,14,0,0,1,7.28,0,9.8,9.8,0,0,0,6.26-.19,2,2,0,0,1,.94-.23c8,.42,16.1-.39,24.07.31s16.13.77,24.21.84A3.85,3.85,0,0,0,293.5,22.14Z" transform="translate(-0.04)" fill="#bebfc0"/><path d="M293.5,22.14a1.07,1.07,0,0,1-1.17.94h-.05c-7.59,0-15.29.73-22.76-.25-6.54-.86-13-.29-19.46-.7a2.55,2.55,0,0,0-2.3.52,1.69,1.69,0,0,1-1.83.39c-4.24-1.74-8.68,1-13-.81-2.81-1.2-5.79,1.19-8.85.89-1.51-.14-2.72-.37-3.22-2a11.69,11.69,0,0,1,6.53-2c6.52.14,13.05,0,19.58.1,1.05,0,2.59-.88,3,1.37.07.4,2.72.5,4.19.51,7.42,0,14.89-.47,22.26.2C282.11,21.81,287.82,22,293.5,22.14Z" transform="translate(-0.04)" fill="#d8d9da"/><path d="M327.35,31.79a.7.7,0,0,1,.6-.8H328c.58-.11,1.44.23,1.66-.61.29-1-.71-1.58-1.27-2.13-1.6-1.59-3.93-1.52-5.92-1.94-2.31-.49-3.18-1.49-3.08-3.68,0-.66-.08-1.3-.88-1.51,0-.6-.07-1.19-.1-1.79-.26-1.34.24-1.71,1.34-.92a22.88,22.88,0,0,1,1.66,1.75c.28,1.24.55,2.49,2,2.92.76.93,2.15.06,2.91,1h0c3.48.26,6.8,2.13,10.42,1h0c2.25.33,2.25,2.87,3.82,3.88.51,1.24,2.2,2.17,1,3.85-4,1.9-8.31,2.11-12.64,2.07a2.59,2.59,0,0,1-2.5.13C325.23,33.5,326.39,32.69,327.35,31.79Z" transform="translate(-0.04)" fill="#2f2f2f"/><path d="M33.87,31c4,.43,7.94-.86,11.94-.87.58,1.1.34,1.92-.91,2.23A111.24,111.24,0,0,0,29.15,37.8c-3.11,1.27-5,3.43-7,5.81a2.25,2.25,0,0,1-1.65,1.13,3.75,3.75,0,0,1-3-.55,2.84,2.84,0,0,1,.26-3.4h0c.61-1,1.29-2,1.87-3,3.15-3.53,7.26-5.19,11.79-5.91C32.37,31.71,33,31.12,33.87,31Z" transform="translate(-0.04)" fill="#f7082c"/><path d="M17.8,40.79l-.24,3.36a47.54,47.54,0,0,0-1.85,8.74c-1.86,4-3.85,8-5.51,12.08C8.89,68.18,8,71.56,6.88,74.83,6.49,76,6.31,77.31,5,77.91c-.61-1.94.58-3.65,1.06-5.31,1-3.39,1.24-6.92,2.45-10.31s1.84-7,3.39-10.28C13.5,48.5,14.5,44.72,16.7,41.5,17,41,17.23,40.72,17.8,40.79Z" transform="translate(-0.04)" fill="#efbcc1"/><path d="M321.44,20.15c-.9,0-1.83.07-1.94-1.21,0-.36-.31-.64-.63-.44s-.29.54-.43.82c-1.64-.69-1.4-2.6-1.6-3.65-.8-4.07-2.8-7.75-3.46-11.85A6.13,6.13,0,0,1,313.62,1c.76,0,1.63-.31,2,.81,1.94,5.88,3.92,11.74,5.87,17.62A1.94,1.94,0,0,1,321.44,20.15Z" transform="translate(-0.04)" fill="#4e5252"/><path d="M19.66,37.77a2.76,2.76,0,0,1-1.87,3C17.38,39.15,18.28,38.32,19.66,37.77Z" transform="translate(-0.04)" fill="#efbcc1"/><path d="M30,207.34a1.49,1.49,0,0,0-1.83-1l-.12,0c-2.86-3.89-7.26-6.34-9.65-10.73a60.31,60.31,0,0,1-5.58-13.47c-.84-3.17-1.44-6.38-2-9.6a7.3,7.3,0,0,1-.23-4.77c.75-1,1.43.26,2.3.07.72-6.44,1.69-12.86.86-19.41A115.54,115.54,0,0,1,13,131.59a4.74,4.74,0,0,0-.7-3.28,1.6,1.6,0,0,0-1.94-.64c-.76.33-.69,1.07-.49,1.7.49,1.55.75,3.16,1.26,4.72a3.28,3.28,0,0,1-1.38,4.22c-2,1.25-1.25,3.17-.76,4.84a5.16,5.16,0,0,1-.36,4.45c-.44.7-.89,1.46-1.93.92-.89-1.4-.41-3-.53-4.45s.29-2.89-.57-4.2c.28-3.34.45-6.69,1-10a5,5,0,0,0,0-2.83,1.64,1.64,0,0,1,.17-1.17,3.57,3.57,0,0,0,.1-.73c-.33-7.8.81-15.54,1.26-23.3a140.29,140.29,0,0,1,2.89-21c1.72-8.09,3.84-16.17,8.69-23.14.5-.72.68-1.82,1.84-2,.3.87.25,1.26-.48,4.22.69.39,1.29,0,1.8-.35,2.27-1.42,4.76-1.48,7.33-1.51,2.09,0,3.5.58,3.92,2.77.11,1-.67,1.61-1.26,2.26-4.52,5-7.15,11.07-9,17.43-.53,1.82-1.81,3.28-2,5.19-.76,1-.61,2.14-.58,3.28-1,5-.52,10.12-1.94,15,.12,2.43-.07,4.85,0,7.28.14,8.74.07,17.48.05,26.22-.26,4.5.11,9-.06,13.5,1.33,6.56,1.57,13.28,2.93,19.83a2.39,2.39,0,0,0,1,2.51c1.93,4.71,3.14,9.69,6.21,14,3.32,4.62,7,8.7,12.17,11.28a4.36,4.36,0,0,1,2.49,2.22c.11,2.3,1.09,4.72-.87,6.75-1.82.66-3.69.25-5.54.34C35.18,207.78,32.5,208.71,30,207.34Z" transform="translate(-0.04)" fill="#343434"/><path d="M6.94,148.5c1.56-1.42,2.64-2.85,1.33-5.13-.84-1.44-.3-3.19-.31-4.8,0-.59.46-.84,1-.84a1.84,1.84,0,0,0,1.74-2.89c-.92-1.62-.49-3.48-1.48-5-.61-1-.83-2.28.48-3a2.71,2.71,0,0,1,3.45.9,2.75,2.75,0,0,1,.63,2.06c-.5,8.72,1.06,17.37.94,26.06-.06,4.13-.61,8.24-.93,12.36,0,.59-.08,1.17-.84,1.27s-1-.31-1.12-1a1,1,0,0,0-1-.92,1.13,1.13,0,0,1-.48-.84c-.21-.85.5-1.92-.59-2.57-1.4-2-1.91-4.42-2.77-6.65-.55-1.41-1.41-2.92-1.13-4.6-.79-1.21-.37-2.55-.4-3.84a1.45,1.45,0,0,1,.35-.7A.9.9,0,0,1,6.94,148.5Z" transform="translate(-0.04)" fill="#202020"/><path d="M33.94,60.82c-1.39.08-.38-2.24-2.12-2-2.54.35-5.24-.6-7.64,1a1.9,1.9,0,0,1-.65.33c-1.1.23-2.08,1.92-3.23.7s.35-2,1-2.87a3,3,0,0,0,.33-2.12l6.87-6.81c3.2-1.45,6.44-2.24,9.88-.73C40,49,42,48,43.6,49.05a15.66,15.66,0,0,1,0,5.79C40.24,56.62,37.38,59.18,33.94,60.82Z" transform="translate(-0.04)" fill="#262626"/><path d="M20.89,44.15c.56.07.83-.15.74-.73a34.3,34.3,0,0,1,11.87-7.5c2.94-1.11,5.85-2.66,9.2-2.09.16,0,.43,0,.47.07.86,1.59,1.4,3.36,2.72,4.69a4.61,4.61,0,0,1-.91.74c-2.16.82-3.83,2.45-5.87,3.44-1,.49-1.93,1.18-1.59,2.41s1.57.84,2.5.92c1.28.11,2.59-.23,4.53.48-2.3.77-4.12.24-5.82.56a15.41,15.41,0,0,1-8.67,0c-1.7,0-3.41-.06-5.11,0a6.34,6.34,0,0,1-4.34-1C20.14,45.35,20,44.67,20.89,44.15Z" transform="translate(-0.04)" fill="#d4d4d5"/><path d="M6.77,126.86a1.49,1.49,0,0,1,1.28,1.69,1.47,1.47,0,0,1-.36.79A5.11,5.11,0,0,0,7,133.5c.35,2.26-.88,4.19-.93,6.33a17.91,17.91,0,0,1-.11,8.7h0a.57.57,0,0,1-.79.14.62.62,0,0,1-.14-.14c-1.38-5.45-.6-11.12-1.76-16.6A5.69,5.69,0,0,1,4,127,2.32,2.32,0,0,1,6.77,126.86Z" transform="translate(-0.04)" fill="#202020"/><path d="M20.89,44.15c-.1.65-.19,1.29-.29,1.93-2.36,1.75-3.4,4.44-4.89,6.81-1.05,0-1-.77-.75-1.36.74-1.9,1.49-3.74,1.06-5.9-.09-.47.62-1.4,1.54-1.48Z" transform="translate(-0.04)" fill="#b74853"/><path d="M30.05,47.11h8.67c.72,1.36,2,.53,3,.81.73.19,2-.5,1.87,1.1-2.8-.06-5.6.21-8.34-.85-1.28-.5-2.61,0-3.9.7-.78.39-1.9.12-2.86.15C28.44,47.93,30.5,48.5,30.05,47.11Z" transform="translate(-0.04)" fill="#343434"/><path d="M17.5,211.75l-.81-.12a8.18,8.18,0,0,1,1.81-4.31c.35.5,0,1.55,1.09,1.5.84,1.76,1.68,3.49,3.57,4.44.45.23,1.3.48.94,1.38a3.25,3.25,0,0,1-3.33-1.35C19.93,212.29,19,211.44,17.5,211.75Z" transform="translate(-0.04)" fill="#9a484e"/><path d="M10.78,166.76l.09.86v4.94c-1.9-1.73-.64-3.95-1-5.93C10.22,166.37,10.5,166.35,10.78,166.76Z" transform="translate(-0.04)" fill="#7f8e90"/><path d="M5,148.5H6V153C4.3,151.71,5.15,150,5,148.5Z" transform="translate(-0.04)" fill="#747d7c"/><path d="M10.78,166.76l-.91-.13-.07-2.42C12.5,164.16,10.32,166,10.78,166.76Z" transform="translate(-0.04)" fill="#343434"/><path d="M6.77,126.86,4,127c.45-1.62,1.84-.83,2.82-1.09Z" transform="translate(-0.04)" fill="#818684"/><path d="M336.78,25.1c-.69,1.89-2.25.89-3.29.78-2.43-.26-4.93-.49-7.13-1.8C329.92,23.5,333.33,24.5,336.78,25.1Z" transform="translate(-0.04)" fill="#bdbfc1"/><path d="M326.37,24.08c-1-.19-2.36.53-2.91-1C324.5,23.36,325.9,22.3,326.37,24.08Z" transform="translate(-0.04)" fill="#bdbfc1"/><path d="M120.27,222.5l-4.23-.1c-2-.85-4.14-.25-6.21-.42a23.5,23.5,0,0,1-2.65-.12c-1.85-1.47-4.1-.54-6.12-1-.87-.58-.85-1.26.07-1.64,1.43-.59.66-1.12.08-1.71-.92-.93-1.88-1.81-2.76-2.78-.57-.63-1.46-1.22-.68-2.28a2.64,2.64,0,0,1,3.62.9c0,.08.09.16.13.24a11.09,11.09,0,0,0,2,2.16,4.18,4.18,0,0,0,3.49,1.17,6.29,6.29,0,0,1,2.58.36c1.42,1,3,.49,4.55.58a14.12,14.12,0,0,1,4.58.31c1.63,1.08,3.46.61,5.22.63,2,.08,4.09-.26,6.09.34,2.16,1.24,4.51.51,6.78.65,4.06,0,8.14-.48,12.15.75,1.62.5,3.41.16,5.13.16,4.73,0,9.52-.47,14.18.1,11,1.34,22,.58,32.95,1,2.14.3,3.65,2.52,6.1,1.95,5.68-1.32,11.41.11,17.1-.24a11.25,11.25,0,0,0,1.92-.28c2,.78,4.29.11,6.3,1a.76.76,0,0,1,0,1.07l0,0c-20.67.29-41.36.42-62-.31-7.56-.27-15.17,0-22.68-.9-5.36-.62-10.75-.25-16-1A84.57,84.57,0,0,0,120.27,222.5Z" transform="translate(-0.04)" fill="#252525"/><path d="M232.69,224.5c-2.13-.42-4.53.88-6.43-1-1.36-.66-.46-1.1.19-1.41a6.26,6.26,0,0,1,2.65-.27h26a5.85,5.85,0,0,0,3.55-.65,10.34,10.34,0,0,1,4.35-.39c10.69.58,21.29-1.13,32-1.25a93.49,93.49,0,0,0,13.58-.89c3.6-.59,7.29-.31,10.81-1.33a12.8,12.8,0,0,1,5.61-.19c1.56,1.15,3.33,2.14,3.44,4.41-6.71.55-13.45.71-20.17,1.14-8,.52-16.11.32-24.09,1.13-7.31.74-14.6.45-21.9.73a4,4,0,0,1-2.37.42H235A3.4,3.4,0,0,1,232.69,224.5Z" transform="translate(-0.04)" fill="#1c1a1a"/><path d="M328.35,221.5l-3-3.81a1.75,1.75,0,0,1,1.47-.73,4.52,4.52,0,0,1,2.09.31c2.45,1.25,5.1.31,7.63.67a3.72,3.72,0,0,1,1.22.31,4.73,4.73,0,0,0,2.31.67c2.72.43,3.43,1.79,2.47,4.54-.78,1.27-1.55,2.54-2.35,3.8a2.19,2.19,0,0,1-2.56,1.19,4.83,4.83,0,0,0-3.13-1c-3.69.1-7.43-.38-11,.91a2.51,2.51,0,0,0-3,1.79c-.42,1-.91,1.88-2.11,2.06-.05-2.14,1.59-3.59,2.3-5.42.31-.82,1.45-.44,2.19-.66,2.12-.62,4.49-.12,6.46-1.48.66-.46,1.61-.68,1.46-1.67s-1.11-.38-1.61-.7A5.63,5.63,0,0,1,328.35,221.5Z" transform="translate(-0.04)" fill="#323232"/><path d="M232.69,224.5h29.5c-.2.71-.76.74-1.35.74l-28.2.13Z" transform="translate(-0.04)" fill="#444"/><path d="M33.94,60.82c2.94-2.44,5.8-5,9.65-6a88.09,88.09,0,0,0,18.5-2.42c1.89-.48,3.58.74,5.55,1.32-.73-2.8,1.12-2.89,3.09-3.29,8.48-1.72,17.07-2,25.68-2.44,11.36-.54,22.78-.32,34.08-1.2,8.9-.69,17.8.15,26.6-.81,14.43-1.58,28.88-.24,43.28-1,5.6-.3,11.25-.78,16.85-1.09s11.05-1,16.64-.76c7.07.32,14.18-.22,21.24.2,2.56.15,5-.44,7.49-.21a4.48,4.48,0,0,0,3-.9,2.32,2.32,0,0,1,2.17-.7,3.78,3.78,0,0,0,3-1.21c2.53-.31,5.07-.79,7.54.36a133.68,133.68,0,0,0,24-.81c4.82-.55,9.77-.48,14.56-1.23,6.36-1,12.79-.8,19.15-1.72,4.09-.6,8.29-.43,12.43-.62a37.59,37.59,0,0,1,9.05.44,2,2,0,0,1,1.78,1.92c-2.2,1.45-4.94,1.52-7.22,1.55-5.87.07-11.6,1.63-17.47,1.2-1.45,0-2.9.05-4.35,0a2.82,2.82,0,0,0-2.32,1,5.74,5.74,0,0,1-2.92.43c-2.18.18-4.46-.55-6.54.68-3.87.2-7.58,1.73-11.52,1.29-2.07.14-4.23-.52-6.18.69-6.93.8-13.81,2-20.79,2.26-2.12.11-4.32-.52-6.31.72-4.46.38-8.9,1-13.33,1.48-6,.69-12.14.07-18,1-6.06,1-12.08.24-18.06.82C212,53,199.59,52,187.34,53c-7.35.56-14.72-.05-22,.88-6,.78-12.11.17-18,1-5.07.73-10.2,0-15.1,1-5.5,1-11.13,0-16.51,1.64a3.08,3.08,0,0,1-1.21.11c-6.15-.56-12.21.73-18.28,1.24-4.49.38-9.07.62-13.58,1.39-3.81.65-7.74,1-11.63,1.31-1.58.12-2.47.66-2.48,2.31.19,17-1.36,33.88-1,50.86.3,12.89.26,25.8,0,38.69-.24,12,1.57,23.92,1,35.91a26.45,26.45,0,0,1,0,3.21c0,1.46.06,2.93,0,4.39-.12,2.89-1,4.11-3.9,5.18-5.11,1.51-9.93-.77-14.89-1.26-2-.21-4-.28-6-.36-8.47-3.82-14.31-10.25-18-18.63-1.15-2.63-2.51-5.28-2.72-8.26-.5-.66-.75-1.48-1.31-2.1-1.39-6.05-1.64-12.26-2.82-18.34a13.57,13.57,0,0,1-.11-1.69A4,4,0,0,1,21.3,149c2.43-.53,3-2.29,3-4.39V110.87c0-3.77-.21-4.1-3.82-5.44a3,3,0,0,1-1.68-1.64l1.88-15.05c.8-.88.1-2.17.84-3.07a84.27,84.27,0,0,1,5.79-15.6C29,66.61,31.69,63.88,33.94,60.82Z" transform="translate(-0.04)" fill="#dedede"/><path d="M372.5,44.29c-.24-2.57,1.25-4.59,2.11-6.82.32-.82,1.05-.72,1.66-.67,3.77.34,7.65-.81,11.34.88a4.66,4.66,0,0,0,2.43.08c4.74-.59,9.34.82,14,1.22,4.83.41,9.68,1.24,14.52,1.86,2.43.31,4.83,1.14,7.29,1.62a63.8,63.8,0,0,0,13.08,1.18c.12,0,.24-.13.59-.33a78.69,78.69,0,0,0-11-3.57c-5.62-1.14-11.31-2-17-2.71-3.49-.46-7-1.09-10.59-1.26A70,70,0,0,1,387.79,34a2,2,0,0,0-1.2-.11c-2.42,1.24-4.55-2.77-7.21-.43-.2.17-3.73-.63-3.89-2.9-.15-2,1.34-2.93,3.1-3.59,2.48-.92,5.13-.79,7.66-1.4a1,1,0,0,1,1.25.47c.25.59-.26.86-.66,1.13-1,.69-2,1.35-3,2.08-.48.35-.83.91-.24,1.43s.91.08,1.22-.35c2.45-3.3,5.92-3.37,9.62-3.42s7.35-.76,11-1.17c1.58-.18,3.23-.78,4.49.87.2.26.73.28,1.11.36a4.57,4.57,0,0,0,.74,0c4.59.2,9.25-.63,13.76.93,1.79-.1,3.13,1,4.65,1.69,2.07.9,3.93,2.31,6.23,2.7,2.29.78,4.68,1.27,6.77,2.56.74.45,1.7.69,1.73,1.81,1,2.45,3.2,3.55,5.41,4.49a18.19,18.19,0,0,1,4.33,2.25c1.51,1.18,2.11,2.56.7,4.16-.95,1.08-.71,1.82.29,2.63.71.57,1,1.56,1.6,2.13a16.47,16.47,0,0,1,5.18,9c.31,1.44,1,2.84,1,4.41s-.81,2.21-1.92,3.14c-2.34,2-5,2.47-7.85,2.73-1,.09-2.78.14-2.55,1.59.18,1.15,1.8.7,2.82.67a19,19,0,0,1,7.48.91,19.42,19.42,0,0,0,5,1.08,9,9,0,0,1,3.92,1.32c.49.3,1,.67.91,1.33s-.69.86-1.26,1a8.62,8.62,0,0,1-3.87.4c-4.76-1.15-9.6-.7-14.41-.77a9.13,9.13,0,0,1-5-1,5,5,0,0,0-2.63-.46h-8.58a5.2,5.2,0,0,0-3.06.69,5.74,5.74,0,0,1-3.29.78,36.26,36.26,0,0,1-4.17,0,12.09,12.09,0,0,0-8.65,2.57,10.13,10.13,0,0,1-13.39-2.09c-.49-.64-1-1.09-1.82-.88-1.06,0-1.39-1-2-1.57-1-2.31-2.83-4.2-3.25-6.78-.13-.79.22-1.76-.87-2.18-2.35-2.17-3.66-5.12-5.63-7.59a41.19,41.19,0,0,0-4.92-5.39c-3.52-3.11-6.95-6.36-11-8.87A2.13,2.13,0,0,1,372.5,44.29Z" transform="translate(-0.04)" fill="#d7d8d6"/><path d="M372.5,44.29c4,3.23,8.17,6.29,12,9.74a63.38,63.38,0,0,1,8.28,9.64c1,1.32,1.36,3,2.8,4,.93.57.21,1.86,1.08,2.46.44,2.48,2.55,4.2,3,6.66,0,1.38-.82.94-1.37.53-1.48-1.13-3.5-1.74-3.83-4-.53.42-.61,1-1,1.24-.2.15-.51.35-.47.54.68,3,.09,6.21.79,9.22a17.63,17.63,0,0,1,.65,5.55c-.19,2.34,1.05,4.45,1,6.75,0,1.25.41,3.25-1.06,3.37-1.74.15-1.15-1.91-1.38-3.08a6.41,6.41,0,0,0-.61-2.14c1.79,7.16.94,14.45,1.12,21.68a8.83,8.83,0,0,0,.48,2.88,7,7,0,0,1,.47,2.89c-.73,10,.52,20.11-.05,30.16-.19,3.32-.91,6.58-1.36,9.88a1.61,1.61,0,0,1-2.19.63l-.21-.14c-.78-1.17-.59-2.51-.59-3.8V133.54c0-7.8-.71-15.59-1.25-23.34-.73-10.47-2-21-4.86-31.2a1.05,1.05,0,0,0-.27-.39,2.06,2.06,0,0,1-.33-2.69c.85-1.26.4-2.07-.39-3.21-2.63-3.81-4.68-8-7.78-11.51s-5.8-7.62-8.79-11.36c-2.09-2.62-4.43-5-6.58-7.49-1-1.14-2-2.42.12-3.52.92-.44,1.69-1.33,2.88-1a13.69,13.69,0,0,1,6.8,4.4C369.94,43.69,371.12,44.09,372.5,44.29Z" transform="translate(-0.04)" fill="#0b0b0b"/><path d="M320.5,35.77c-3.74.61-7.52.8-11.28,1.17q-10.07,1-20.13,2.09c-3,.33-5.9.64-8.87.68-.2-.14-.41-.37-.64-.34-4.39.51-8.78-.88-13.16-.1-2.31.42-4.56-.15-6.84-.23a146.56,146.56,0,0,0-20.31.72c-4.17.43-8.34.59-12.22-1.5a4.31,4.31,0,0,0-3.34-.26,6.66,6.66,0,0,1-2.17.35,1.73,1.73,0,0,1-1.71-.72c-.36-.66.09-1.27.51-1.75a38.5,38.5,0,0,1,4.38-4.28,3.67,3.67,0,0,1,1.33-.37c5.54-.27,11.09-.09,16.64-.11,7.67,0,15.37-.48,23,.1,9.84.75,19.7.36,29.49,1.09,5.2.39,10.39.47,15.57.83,2.74.19,5.41,1.07,8.2,1.06C319.78,34.2,320.93,34.35,320.5,35.77Z" transform="translate(-0.04)" fill="#5c5c5c"/><path d="M224.8,31.89c-1,2.22-3.42,3.34-4.61,5.43a1.24,1.24,0,0,0,1.6.4c2.82-1.37,5.26-.46,7.81.85a9,9,0,0,0,4.29.69c8.12-.22,16.19-1.35,24.34-1,6.78.28,13.57.35,20.36.51.73,0,1.53-.09,1.66,1l-1.87.07c-1.84.85-3.78.3-5.67.43-1,.07-2.1-.11-2.88.81-3,.86-6,.24-9,.39s-6.29,0-9.44,0a7.63,7.63,0,0,0-3.52.7L197,42.33a3.82,3.82,0,0,1-1.87.44c-17.17-.12-34.34,0-51.52-.07-.87,0-1.81.21-2.69-.57.35-1.07,1.34-1.23,2.23-1.43A36.2,36.2,0,0,1,150,40c12.17-.38,24.34.23,36.51,0h6.38a4.18,4.18,0,0,0,4-2.27c1.14-1.87,1.77-4.07,3.45-5.6,2.49-2.49,5.51-3,8.93-2.88,4.46.22,9,0,13.42.08C224.91,29.33,225.12,29.66,224.8,31.89Z" transform="translate(-0.04)" fill="#393939"/><path d="M359.79,38.82c-1.14,1.32-.5,2.48.52,3.35a50.85,50.85,0,0,1,8.08,9.25c4.61,6.5,10,12.44,14.12,19.32,1.6,2.64,2.27,4.56.83,7.16.36.5.27.95-.28,1.17a1.18,1.18,0,0,1-1.43-.65c-.74-1.17-1.05-2.59-1.91-3.67a58.49,58.49,0,0,1-5.84-9c-.6-1.11-1.32-1.64-2.52-.82-1.44,0-1.56-1.28-2-2.14A118.24,118.24,0,0,0,361.19,49c-3.79-4.48-8.7-4.88-14-3.72a21.55,21.55,0,0,1-8.2.17c-.32-3.11-3.22-2.41-5-3.37a1.06,1.06,0,0,1,.25-1.36l24.95-2.13Z" transform="translate(-0.04)" fill="#404141"/><path d="M320.5,35.77c-.13-.72-.64-.85-1.26-.87-6.07-.19-12.12-.82-18.15-1.3-8.77-.71-17.56-.11-26.27-.92-15.86-1.48-31.72-.37-47.58-.83a10,10,0,0,1-1.46-.07c-.42-1.66.67-2.15,1.94-2.42a14.45,14.45,0,0,1,2.94-.12c13.82-.14,27.65-.07,41.45.36,7.73.25,15.52.25,23.2,1,8.9.87,17.78.63,26.66.82a6,6,0,0,1,3.12.41h2.23c-.06,1.07-1.35,1.71-1,2.92-1.06,1.28-2.78,0-3.92,1Z" transform="translate(-0.04)" fill="#161716"/><path d="M369.5,42.24c-2.15-.22-2.9-2.77-5.08-3a1.8,1.8,0,0,1-1.72-1.39c-1.25-1.71-3.46-1.38-5.08-2.94,2.3,0,4.79-.56,6.86.15,2.35.8,4.59.66,6.9.76,1.67.07,3,.14,1.42,2.27a5,5,0,0,0-1.15,2.57C371.55,42.28,370.5,42.15,369.5,42.24Z" transform="translate(-0.04)" fill="#dedede"/><path d="M436.34,32.83c-3.92-.89-7.26-3-10.72-4.92l-.09-.75a1.23,1.23,0,0,1,1.7-.36.91.91,0,0,1,.24.2c.54,1.55,1.88.78,2.85.91a26.29,26.29,0,0,0,3.55,0c.81.35,2.09-.54,2.46,1a1.77,1.77,0,0,0,.33.34c.85.58,1.93,1.09,1.78,2.31S436.92,32.18,436.34,32.83Z" transform="translate(-0.04)" fill="#787173"/><path d="M341.58,32.84c.37-1.46-1.33-2.4-1-3.85,2,1.55,5,1.32,7.07,3.59C345.38,33.25,343.5,32.73,341.58,32.84Z" transform="translate(-0.04)" fill="#79797c"/><path d="M269.9,40.59c1.38-1.56,3.21-.68,4.83-.85a31.57,31.57,0,0,1,3.64,0,7,7,0,0,1-.13.9l-7.7.14a.45.45,0,0,1-.61-.13Z" transform="translate(-0.04)" fill="#5c5c5c"/><path d="M322.42,35.74c1-1.59,2.68-.44,3.92-1l2.6.2C326.94,36.5,324.61,35.59,322.42,35.74Z" transform="translate(-0.04)" fill="#5c5c5c"/><path d="M427.5,27l-1.94.16c1.76-2.45,4-.51,6-1.21l.1,1.05Z" transform="translate(-0.04)" fill="#d7d8d6"/><path d="M416.17,25.73c1.52-1,3.07-.58,4.62-.4C419.32,26.5,417.69,25.72,416.17,25.73Z" transform="translate(-0.04)" fill="#d7d8d6"/><path d="M400.92,78.5c1-2,1.75-1.38,2.4.22,1.1,2.74,3,3.75,6.07,3.79,3.67,0,6.75-.72,9.39-3.29a3.43,3.43,0,0,1,2.52-.76h5.89c2,0,4,.39,5.79-1.17.45-.4,1.41-.28,2.13-.28h8.34c1.69,0,3.42-.3,4.8,1.18.31.32,1.08.25,1.64.28,5.6.24,11.24-.56,16.81.88,1.26.32,2.79-.37,4.26-.61a2.11,2.11,0,0,0-1.93-1.5c-5-.69-9.78-3.09-15-2.71a5.65,5.65,0,0,1-2.65.06c-.82-.3-1.56-.69-1.68-1.58s.8-1.1,1.45-1.35c.92-.34,2-1,2.77-.85,3.33.75,5.4-1.8,8.05-2.78,1-.39,1.46-4.63.38-5.58-1.54-1.34-1.52-3-1.47-4.68,0-1.26-.14-2.27-1.74-2.38a1.87,1.87,0,0,1-1.76-1.15,7.78,7.78,0,0,0-3.6-4.72c-.81-.46-.41-.93.22-1.46,2.55-2.16,2.48-2.7-.4-4.6a5.44,5.44,0,0,0-2.12-1.16c-3-.32-4.64-2.85-7-4.17-1-.54-.81-1.14.32-1.36,3.7,0,6.58,2.16,9.59,3.8,2.85,1.56,5.44,3.58,8.36,5a14.77,14.77,0,0,1,3.78,3.08c6.94,3.82,11.91,9.89,17.49,15.26.83.8.74,1.94,1.38,2.77,2.62,3.83,5.31,7.6,7.8,11.51.69,1.08,1.76,1.66,2.47,2.65,1.46,2,2.72,4.11,2.08,6.79a.88.88,0,0,0,.52,1.14.85.85,0,0,0,.31.06c-.13,5.09,1.47,9.84,2.84,14.66a24.29,24.29,0,0,1,1,5.61c.13,3.57,1.53,6.94,1.23,10.51a3.25,3.25,0,0,1,.72,2.28c.06,2.86.05,5.72,0,8.57a3.11,3.11,0,0,1-.68,2.29c.47,4.14-.66,8.19-1.29,12.16-.78,4.91-1.35,10-3.52,14.68-.53,1.14-.14,2.72-.18,4.09C499.36,168,497,171,494.37,174c-2,2.23-3.34,5-4.89,7.56-.68,1.12-2,1.78-2.21,3.22-1.49,3.78-4.94,6-7.36,9a15.7,15.7,0,0,1-3.17,3.94,9.15,9.15,0,0,0-5.5,3.57c-1.31,1.61-3.52,1.94-4.86,3.49-6.4,5.54-13.73,9.44-21.52,12.69-4.79,2-9.79,3.57-14.33,6.2-.85.49-1.72,1.34-2.91.81-11.53,1.51-23.12.79-34.69.93-1.26,0-2.62.32-3.64-.88a.7.7,0,0,0-1-.16l-.1.09c-.5.55,0,.84.34,1.18a2,2,0,0,0,1.2.76c.58.06,1.55-.13,1.29.92-.21.84-1.12.62-1.69.52-4.16-.75-8.47-.16-12.56-1.47-1.82-.59-3.27-1.43-3.24-3.69,0-1.23.35-2,1.65-2.3a45.22,45.22,0,0,0,4.85-1.62c.95-.36,1.37.3,1.85.8a14.2,14.2,0,0,0,3.83,2.93,4.26,4.26,0,0,0-2.36-3.5c19-3.24,38.1-3.82,56.91-10.13-2.77-1.16-4.51.49-6.44.54-4,.09-7.85,1.15-11.83,1.39a96.85,96.85,0,0,0-10.32,1.52c-3.19.54-6.43.63-9.63,1.28-5.22,1-10.61.9-15.88,1.87-3,.55-6.2.14-9.3.15-1.87,0-1.77-1.86-2.12-2.81s-.83-2-1.2-3.08c-.54-.82.21-1.09.62-1.57,2.58-3,5.89-5.12,8.87-7.63a57.69,57.69,0,0,0,10.92-13A97.73,97.73,0,0,0,405.44,162a85.38,85.38,0,0,0,2.7-11.61c.91-1.27.51-2.72.56-4.11-.38-3.32.56-6.45,1.44-9.58a2.82,2.82,0,0,0,1-2.35v-14.2a2.68,2.68,0,0,0-1-2.36c-.78-3-1.85-5.93-1.47-9.1-.08-1.52.41-3.1-.5-4.52a3.17,3.17,0,0,1-.34-1.08c-.23-1.27.28-2.66-.61-3.83a3,3,0,0,1-.3-.69,91.3,91.3,0,0,0-5-16.16C401.32,81.14,400.5,79.94,400.92,78.5Z" transform="translate(-0.04)" fill="#dedede"/><path d="M410.32,136.78c-.09,3.26-1.28,6.41-1.05,9.7-.94,1.22,0,2.84-.85,4.07-.6,6.21-2.45,12.11-4.52,17.94-4.07,11.46-9.84,21.95-18.35,30.73-2.84,2.93-6.27,5.3-9.4,8-.94.8-1.77,1.71-2.66,2.57-.54.05-1.22-.07-1,.86-2.7,1.64-5,3.94-8.26,4.67a5.84,5.84,0,0,1-3.61-.93,2.31,2.31,0,0,1-.94-.56c-.5-1.21.45-1.81,1.12-2.45,3.38-3.21,5.84-7.13,8.6-10.83,1.44-1.94,3.1-3.71,4.59-5.62a40.61,40.61,0,0,0,4.1-5.4c2-3.78,5.37-6,8.94-7.92a6.41,6.41,0,0,0,2.4-2.28c.92-2.44,3.15-3.88,4.59-5.93a70.77,70.77,0,0,0,4.71-8.36,81,81,0,0,1-5.47,8.9c-1.28,1.77-3.33,2.92-4.07,5.11a6.06,6.06,0,0,1-.6,1c-.66.94-1.49,1.68-2.63,1s-.81-1.69-.41-2.63c.25-.59.55-1.17.78-1.77,1.64-3.58,4-6.76,5.62-10.37-.44-1.9,1.35-2.84,1.87-4.33.12-6.12.08-12.25.42-18.34.27-4.95.94-9.92.48-14.85a46.78,46.78,0,0,1,.31-11.88c1.16-6.93.43-13.82.8-20.71.24-1.33-.47-3.18.81-3.89,1.6-.89,3.66-.67,5.48-.41s3,2.56,2.85,4.6c-.06.9-.48,1.72-.51,2.65.32,0,.23-.3.27-.46.21-1,0-2.5,1.39-2.48,1.15,0,.56,1.47.85,2.24a2.25,2.25,0,0,0,.38.63l.09,0c.92,1.19-.11,2.82.89,4l.06.91c1,1.35-.11,3.13.89,4.5-.19,3.14,1,6.12,1.06,9.24a3.56,3.56,0,0,1,.71,2.52v14.12A3.52,3.52,0,0,1,410.32,136.78Z" transform="translate(-0.04)" fill="#0b0b0b"/><path d="M359.27,217.62c-.46,1-1.36,1-2.27,1h-6.31c-.93,0-1.81,0-2.23,1a2,2,0,0,1-2.51,0c0-1.82-.93-2.23-2.71-2.37-10.95-.86-22-.83-32.87-2.33a12.45,12.45,0,0,0-4.13.15,12,12,0,0,1-5.76-.39c-2.91-.86-6-.22-9-.34h-6.19a7.47,7.47,0,0,1-3.08-.33c-2.62-1.3-5.42-.41-8.13-.63-3,.08-6,.32-9-.71a10.49,10.49,0,0,0-3.4-.2c-9.06,0-18.11.09-27.16-.06-14,.16-27.93.06-41.9,0h-11c-26.38.1-52.75,0-79.13,0-1.79,0-3.56-.54-5.35-.16-2.2.13-4.4.07-6.6,0-.88,0-2.07.07-2.24-1-.19-1.26,1.07-1.43,2-1.72.46-.15,1-.18,2.06-.5a20.4,20.4,0,0,0-4.11-.61c-10.34-.54-20.7-.54-31-.5a13.07,13.07,0,0,1-2.93-.16c-.46-.11-1-.18-1.14-.76s.43-1,1-1.23A35.73,35.73,0,0,1,58,204.5c3.19-.94,6.22-2.31,9.41-3.25a44.27,44.27,0,0,0,9.92,1.39c7.43.29,14.84,1,22.24,1.67,6.19.55,12.39,1.07,18.59,1.15,11.19.14,22.35,1.3,33.56,1.18a79.68,79.68,0,0,1,9.77.57c1.17.14,2.88.3,2.81,1.76-.06,1.19-1.69.95-2.7,1-6.7.5-13.4.2-20.1.2-4.81,0-9.61.48-14.6.2,25.13,0,50.09-.92,75-.07a2.45,2.45,0,0,1-1.51-.14c-.37-.19-.73-.38-.77-.86s.4-.84.86-1a5.71,5.71,0,0,1,2.17-.3h18.89a5.21,5.21,0,0,1,3.88,1.2c.27.26.54.66,1,.36,3.48-2.18,7.29-.76,10.95-1,6.9-.41,13.7,1.69,20.7.51,4.81-.82,9.77.23,14.67.49,6.61.34,13.21.84,19.8,1.39,6.26.51,12.53,1.05,18.8,1.58,6.59.55,13.18,1.11,19.8,1.31,7.76.24,15.5.73,23.24,1.16.14,0,.4.08.42.17.31,2.44,1.87,1.54,3.22,1.19A1.41,1.41,0,0,1,359.27,217.62Z" transform="translate(-0.04)" fill="#d4d5d4"/><path d="M427.55,224.5c6.3-3.71,13.28-5.89,19.91-8.86a87.79,87.79,0,0,0,13.18-7.14c1.89-1.27,3.78-2.72,5.65-4.12a1.4,1.4,0,0,1,2-.19l.19.19c.67.68.2,1.39-.11,2a15,15,0,0,1-3,3.55c-2.78,2.84-5.52,5.76-8.95,7.87-3.78,1.48-7.43,3.31-11.41,4.27a5.7,5.7,0,0,0-2.33,1.26c-4.27,1.21-8.71,1.25-13,2C428.93,225.5,427.73,226,427.55,224.5Z" transform="translate(-0.04)" fill="#7d7c7e"/><path d="M359.27,217.62l-1-1c.86-1,2.33-.39,3.24-1.24.81-.48,1.91.06,2.63-.74a29.85,29.85,0,0,0,6.33-3.44,4.06,4.06,0,0,1,2-.63c-.08,1.63.9,2.86,1.62,4.18.55,1,.49,1.79-.86,1.81C368.57,216.69,364,218.25,359.27,217.62Z" transform="translate(-0.04)" fill="#dedede"/><path d="M442.69,223.44c.17-1.33.87-1.81,2.27-2a20.38,20.38,0,0,0,4.69-1.51,34.3,34.3,0,0,1,6.69-2.36c.94-.29,2.16-1.16,2,.93-2.26,1-4.23,2.69-6.78,3.09a6.83,6.83,0,0,0-4.4,1.24C445.55,223.8,444.15,223.23,442.69,223.44Z" transform="translate(-0.04)" fill="#b19790"/><path d="M346,219.5l2.43.14c-.22,2.22-1.9,3.08-4.85,2.47a2.08,2.08,0,0,1-.19-2.59A2,2,0,0,1,346,219.5Z" transform="translate(-0.04)" fill="#9e9c9d"/><path d="M343.56,219.62c0,.83,0,1.65.05,2.48s0,1.43-1,1.39c-.14-3.4-.13-3.42-3.72-4-.6-.1-1.1-.2-1.21-.9C340.31,217.32,342.05,217.62,343.56,219.62Z" transform="translate(-0.04)" fill="#999"/><path d="M401.12,228.15H393v-.49h8.13Z" transform="translate(-0.04)" fill="#dedede"/><path d="M415.26,226.59c2.46,0,5-.52,7.36.49C420.14,227.23,417.64,227.91,415.26,226.59Z" transform="translate(-0.04)" fill="#dedede"/><path d="M67.29,201.5c-2.83,2.15-6.34,2.63-9.54,3.87-1.4.55-2.85,1-4.4,1.48.51.78,1.21.49,1.77.49,4.65,0,9.3.15,13.94,0,6.76-.23,13.48.74,20.24.55a24.32,24.32,0,0,1,3.6.48c.51.07,1,.24,1.11.77.08.69-.64.52-1,.73-1.35.77-3.16-.09-4.66,1.61,3,.61,5.8.05,8.52.37a.9.9,0,0,1-.34,1.21c-3.75.91-7.56.29-11.33.41-5.77-.07-11.54,0-17.31,0-1,0-2-.15-2.07,1.28-4.73,2-9.27-.47-13.9-.7-2.45-.12-4.87-1.07-7.28-1.73a4.1,4.1,0,0,1-3.14-2.42c-.67-1.61-2.38-1-3.69-1.15a1,1,0,0,1,.1-1.37l5.35-.11c.72.65,1.66,1.18,2.37.38,1.38-1.53,2.84-1.27,4.64-.37-.48-1.79.56-2.12,1.67-2.49,3.33-1.1,6.76-1.77,10.15-2.58a6.35,6.35,0,0,0,2.28-.77c2.19-.52,3.46-1.78,3.44-4.13,0-1.6,0-3.2.06-4.8a14,14,0,0,1,4.9,1,1.09,1.09,0,0,1,.09,1.1c-2.19.65-3.13,2.24-3.44,4.4C69.21,200.18,68.89,201.4,67.29,201.5Z" transform="translate(-0.04)" fill="#cbcbcb"/><path d="M85,212.72l11.67-.07a.79.79,0,0,1,1.11.14l0,.07c1.42,2.44,4,3.85,5.57,6.14-.51,1.27-2.38-.17-2.68,1.39-.08.12-.15.24-.23.35a2.69,2.69,0,0,1-2.74-.14L95,220.5c-1-.66-2.23-.11-3.18-.8L90,219.5c-.88-.79-2.18-.1-3.07-.87-2.28,0-4.35-1.36-6.68-1.11-.78-.61-1.86-.21-2.64-.81l-6.8-1.11c-.85-.83-2.14-.12-3-.87l-.93-.19c-.38-1.79,1-1.31,1.83-1.32,4.49-.08,9,0,13.46-.05C83.08,213.19,84.09,213.41,85,212.72Z" transform="translate(-0.04)" fill="#424142"/><path d="M48.69,225.5c-.95-1.56-2.85-1.55-4.15-1.76A58,58,0,0,1,27,217.5c-1.22-.63-2.59-1.29-2.89-2.9,2.69.32,4.45,2.54,6.93,3.39,3.82,1.31,7.44,3.26,11.58,3.55.72.69,1.86.18,2.58.9l4.35,1c1.34,1,3.12-.05,4.47.93l.84.11c.36,2-1.09,2.15-2.17,1.61C51.35,225.5,50,225.74,48.69,225.5Z" transform="translate(-0.04)" fill="#804245"/><path d="M85,212.72c-.27,1.35-1.37.92-2.17.93-4.58,0-9.15,0-13.72,0-.8,0-1.89-.46-2.23.86l-1,.11c-.1-1-1.27-.82-2.24-1.95Z" transform="translate(-0.04)" fill="#676666"/><path d="M37.87,207.38c0,.46-.07.92-.1,1.37-2.1,0-4.2,0-6.29.1-1.12,0-1.71-.3-1.52-1.51Z" transform="translate(-0.04)" fill="#939595"/><path d="M107.08,221.5c2.28.07,4.57.11,6.86.21.76,0,1.69-.25,2.1.78l-8.75.07c-.72,0-1.53.15-1.75-.86C106,221.06,106.5,221.15,107.08,221.5Z" transform="translate(-0.04)" fill="#cbcbcb"/><path d="M107.08,221.5l-1.54.2-4.73-.19c-.51-.18-.42-.49-.19-.83a.49.49,0,0,1,0-.24c1.54.07,3.09.12,4.63.2C106,220.63,106.83,220.5,107.08,221.5Z" transform="translate(-0.04)" fill="#6c7070"/><path d="M54,224.44c-1.49-.31-3.26.73-4.47-.93C51.06,223.72,52.82,222.75,54,224.44Z" transform="translate(-0.04)" fill="#cbcbcb"/><path d="M86.9,218.65c1.07.13,2.34-.45,3.07.87C88.93,219.29,87.5,220.34,86.9,218.65Z" transform="translate(-0.04)" fill="#cbcbcb"/><path d="M91.81,219.66c1.06.27,2.42-.68,3.18.8C93.91,220.28,92.5,221.33,91.81,219.66Z" transform="translate(-0.04)" fill="#cbcbcb"/><path d="M100.62,220.63c.06.28.12.55.19.83-1.06-.22-2.47.85-3.11-.86Z" transform="translate(-0.04)" fill="#cbcbcb"/><path d="M67.76,214.75c1.06.1,2.31-.44,3,.87C69.76,215.38,68.37,216.4,67.76,214.75Z" transform="translate(-0.04)" fill="#cbcbcb"/><path d="M77.58,216.73c.94.07,2.07-.5,2.64.81C79.29,217.42,78.08,218.24,77.58,216.73Z" transform="translate(-0.04)" fill="#cbcbcb"/><path d="M45.2,222.5c-.93-.12-2.09.44-2.58-.9C43.5,221.71,44.78,220.91,45.2,222.5Z" transform="translate(-0.04)" fill="#cbcbcb"/><path d="M485.37,66.69a93.72,93.72,0,0,0-8.09-8.7c-3.22-3.24-6.44-6.48-10.76-8.32-.14-.06-.16-.44-.23-.67a1.63,1.63,0,0,0-.56-2.13,62.59,62.59,0,0,1-6-6.4,17.35,17.35,0,0,0-4.67-3.86,4.14,4.14,0,0,1-2-2,1.76,1.76,0,0,1,.48-1.71c2.38.09,4.19,1.52,6,2.75,4.75,3.22,8.73,7.36,12.61,11.52,5.05,5.42,10.07,10.91,14.56,16.77,1.37,1.78,4.19,3.16,3.6,6.22-1.31-1.27-2.66-2.5-3.91-3.82C485.57,65.5,485.55,66.15,485.37,66.69Z" transform="translate(-0.04)" fill="#9ea3a8"/><path d="M453.5,34.82c4.42,2.3,7.48,6.11,10.75,9.69a21.09,21.09,0,0,0,2.55,2.54c1.53,1.19.71,1.59-.52,2-6.82-4.7-13.59-9.51-21.52-12.26-1.32-1.65-3.4-2-5.18-2.69a34.34,34.34,0,0,0-3.25-1.22c1.36-1.47,1.36-1.47,0-3.93l1.94.09c3.73.69,7.12,2.42,10.74,3.46A12.76,12.76,0,0,1,453.5,34.82Z" transform="translate(-0.04)" fill="#565355"/><path d="M453.5,34.82c-2.37.15-4-1.79-6.27-2.17-2.92-.48-5.4-2.64-8.49-2.9-.18,0-.32-.5-.48-.76a40.36,40.36,0,0,1,15.24,3.87Z" transform="translate(-0.04)" fill="#787173"/><path d="M458.34,218.5c-.18-1.35-1.28-.73-2-.93,1.16-2.25,3.85-2.73,5.36-4.7,1.63-2.13,3.79-3.85,5.63-5.84a3,3,0,0,0,.88-2.1c-.16-.88-1.25-.37-1.92-.53,1.36-2.1,4.09-2.51,5.53-4.57a5,5,0,0,1,4.59-2.37c.39.18.42.5.31.86a8.81,8.81,0,0,0-1.1,1.49c.58-.28.46-1,.88-1.27a17.44,17.44,0,0,1,2.19-2.51,2.19,2.19,0,0,0,.81-2.53,21.08,21.08,0,0,1,4.58-4.8c1.31-1.15,1.12-3.42,3.15-3.9,1.3.42,2-.89,3-1.08-.25,2.54-1.93,4.29-3.51,6-4.72,5.16-9.17,10.59-13.56,16S463.5,214.55,458.34,218.5Z" transform="translate(-0.04)" fill="#adb6bb"/><path d="M503.62,132.76V119.62h2.45c1,4,.22,8.15.43,12.22C505.5,132.23,504.79,133.15,503.62,132.76Z" transform="translate(-0.04)" fill="#49424a"/><path d="M503.57,94.15c2,1.32.63,3.26.92,4.89C502.67,97.7,503.94,95.77,503.57,94.15Z" transform="translate(-0.04)" fill="#88878b"/><path d="M200.83,32.31c-1.25,2.13-2.58,4.22-3.72,6.41a3.24,3.24,0,0,1-3.25,2c-10.12-.06-20.25.2-30.37-.12a161.36,161.36,0,0,0-19.17.6,5.22,5.22,0,0,0-2.81,1.06H197c-.53,1.08-1.55.71-2.39.72l-91,.06c-3.1,0-6.21,0-9.32-.06-.75,0-1.7.33-2.09-.76,1.65-1.37,3.6-.67,5.43-.79a3.5,3.5,0,0,0,3.19-1.5,9.23,9.23,0,0,1,6.73-3.58c3.49-.31,7-.88,10.38-1.43,5.64-.91,11.37-.42,17-1.62,3.12-.67,6.4.16,9.53-.3,8.28-1.22,16.68-.11,24.87-1.13,9.4-1.17,18.75-.35,28.1-.73C198.62,31.12,200.09,30.76,200.83,32.31Z" transform="translate(-0.04)" fill="#555"/><path d="M200.83,32.31c-.58-.64-1.36-.46-2.07-.45-8.26,0-16.58-.59-24.75.28-7.57.81-15.16-.13-22.6,1-5.28.78-10.59,0-15.72.94-4.06.76-8.1.3-12.06.92-5.08.78-10.15,1.45-15.26,2-2.7.28-5.64,1-7.14,3.77-.87,1.58-2.06,1.54-3.46,1.39-.84-.85-.23-1.54.34-2.1,2-2,3.9-4.16,6-6.13,4.38-1.1,8.9-.69,13.32-1.17,8.3-.91,16.64-1.26,24.93-2.07,5.45-.54,10.91-.2,16.29-.9,9.91-1.29,19.84-.56,29.76-.83a5,5,0,0,1,2.87-.42H249.5a5,5,0,0,1,2.86.42c9.47.09,19-.27,28.41.42,6.51.48,13,.12,19.49.83,7.72.84,15.44.69,23.16.94.68,0,1.32,0,1.67.74-9,0-18.07.82-26.95-.18-7.33-.81-14.62.08-21.84-.81-15.68-1.93-31.4-.32-47.09-.9-1.49-.05-3.05-.17-3.43,1.85l-1,.11h-.23c-.16-2.55-2.07-1.9-3.57-1.9-4.15,0-8.33.25-12.46-.1C205.5,29.58,203.15,30.71,200.83,32.31Z" transform="translate(-0.04)" fill="#1e1f1e"/><path d="M104.08,33.86c-.93,2.55-3.22,4-4.89,5.89-.6.69-1.69,1.11-1.42,2.34l-5.57.16H66.28c-.75,0-2,.32-2.13-.59-.22-1.3,1.14-.72,1.79-.91,4.83-1.43,9.82-2.1,14.72-3.16,5.92-1.28,11.91-2.19,17.83-3.48A30.71,30.71,0,0,1,104.08,33.86Z" transform="translate(-0.04)" fill="#393839"/><path d="M252.39,28.89c-12.51,0-25,.08-37.52.08-8.83,0-17.66,0-26.49-.08.41-1.09,1.36-.72,2.11-.72h59.79C251,28.18,252,27.81,252.39,28.89Z" transform="translate(-0.04)" fill="#393939"/><path d="M42.69,33.83a51.09,51.09,0,0,0-16.26,6.25c-1.68,1-2.34,3.44-4.8,3.34a14.92,14.92,0,0,1,7.87-6.57c5-1.9,9.79-4.15,15.07-5,1.22-.2,1-1.05,1.24-1.76,3-.17,5.91-.41,8.91.48a51.52,51.52,0,0,1-5.63,1.28c-2,.24-3.79,1.34-5.86,1.28C43.05,33.11,42.87,33.58,42.69,33.83Z" transform="translate(-0.04)" fill="#7f3b43"/><path d="M247.86,42.13a3.24,3.24,0,0,1,2.9-1.41h9.91a.87.87,0,0,1,0,1.24.52.52,0,0,1-.11.1Z" transform="translate(-0.04)" fill="#5c5c5c"/><path d="M260.55,42.09l.12-1.34,9.23-.16.64.23c0,1.23-.83,1.37-1.82,1.35s-2.1,0-3.15.06Z" transform="translate(-0.04)" fill="#939393"/><path d="M44.75,53.7V50.51c0-.6-.34-1.62.44-1.66s1.44.64,2,1.14.15,1.06-.29,1.44C46.23,52.05,46.09,53.19,44.75,53.7Z" transform="translate(-0.04)" fill="#dedede"/><path d="M18.83,103.84c.88-.06,1.14.91,2,1.08,3.58.65,4.06,1.34,4.06,4.92V145c0,2.4-.22,4.49-3.43,4.71-.94.06-1.81,1.11-2.72,1.71l-.09-13.72c1.3,0,1.4.88,1.44,1.8.07,1.38,0,2.77.08,4.15-.48-10.31-.27-20.64-.24-31,0-1.07-.11-1.56-1.24-1.42Z" transform="translate(-0.04)" fill="#8e2f38"/><path d="M64.33,201.44c-2.63,1.81-5.77,2.12-8.74,2.94-1.74.48-3.47,1-5.11,1.48,0,1.07,1.13.73,1.24,1.37a1.29,1.29,0,0,1-1.39.56c-1.63-.24-3.32-1.72-4.67.8a1.47,1.47,0,0,1-2.44-1.32c1-2.21.55-4.52.48-6.8a5.57,5.57,0,0,1,4.86-.56c3.43.9,7,1,10.48,2C60.75,202.35,62.58,201.77,64.33,201.44Z" transform="translate(-0.04)" fill="#d4d5d4"/><path d="M18.74,111.3c1.44-.12.45-1.78,1.67-2.35v37.26c-1.09-1.71-.62-3.61-.76-5.43-.08-1.09.41-2.36-.95-3Q18.72,124.51,18.74,111.3Z" transform="translate(-0.04)" fill="#c2273a"/><path d="M5.92,148.5c0-2.9.07-5.8.11-8.7,1.27.18.85,1.21.87,1.91.07,2.26,0,4.52,0,6.79Z" transform="translate(-0.04)" fill="#747d7c"/><path d="M21.55,85.72c-.08,1.08.58,2.36-.84,3.07C20.81,87.72,20,86.39,21.55,85.72Z" transform="translate(-0.04)" fill="#8f7e7b"/><path d="M21.72,171.5c1.6,0,1.46,1,1.31,2.1C21.41,173.61,21.58,172.5,21.72,171.5Z" transform="translate(-0.04)" fill="#978982"/><path d="M97.78,212.86l-1.16-.21c.07-.29.15-.57.23-.85l81.6-.2c1.05,0,2.11.08,3.17.13,2.18,1.22,4.63,1.08,6.93,1a62.32,62.32,0,0,1,6.83.31,3.91,3.91,0,0,1,3.55,4.24,3.73,3.73,0,0,1-.47,1.55c-7.42-1-14.84-.12-22.26.08-13.17.34-26.32-.36-39.47-.63a177.83,177.83,0,0,1-18-1.52,88.23,88.23,0,0,0-10.28-.37c-1.8,0-3.6.31-5.37-.19-.64-.58-1.57-1.06-1.84-1.78C100.5,212.6,99.23,212.64,97.78,212.86Z" transform="translate(-0.04)" fill="#5c5c5c"/><path d="M198.82,218.57c-.35-3.79-1.34-4.4-5.13-5-3.2-.48-6.37.14-9.54-.35a2.93,2.93,0,0,1-2.53-1.51h53c.56,2-1,2.41-2.26,3A17.51,17.51,0,0,1,221,216a19.84,19.84,0,0,0,4.62,4.57,17.31,17.31,0,0,0,5.08.26c6.89,0,13.77.08,20.66,0,2.47.25,5.07-.77,7.38.83-.46,1.36-1.63.84-2.5.84-9.38.06-18.76.05-28.13.13-.6,0-2-.93-1.83.92-.59,1.5-1.76.55-2.7.66a20.9,20.9,0,0,1-9-.53,3.27,3.27,0,0,0-1.91,0c-3.88,1.36-7.6,1.71-11-1.2A5.61,5.61,0,0,1,198.82,218.57Z" transform="translate(-0.04)" fill="#444"/><path d="M198.82,218.57a20.14,20.14,0,0,1,2.83,3.84c-8.88,0-17.83.67-26.63-.2-8.54-.84-17.06.08-25.5-.9-4.35-.5-8.69-.57-13-.85-1.25-.73-2.63-.29-4-.4a4.57,4.57,0,0,1-2.52-.43l-6.3-.13c-1.55-.94-3.44.11-5-.85l-4.8-.13c-1.4-1-3.15.09-4.55-.83-2.11-.54-4.72,1-6.34-1.53,2.15-1.1,4.55-.65,6.74-.61,3.87.08,7.79.45,11.65.71,5.48.38,10.92,1.33,16.41,1.32,12.89,0,25.77.88,38.66.52,5.78-.16,11.55-.71,17.35-.52A12.43,12.43,0,0,1,198.82,218.57Z" transform="translate(-0.04)" fill="#6d6d6d"/><path d="M130,219.63l4.79,0c.72,0,1.49-.1,1.69.89h-4.76C131,220.5,130.26,220.5,130,219.63Z" transform="translate(-0.04)" fill="#5c5c5c"/><path d="M118.72,218.65c1.68.21,3.57-.86,5,.85C122.05,219.2,120.13,220.4,118.72,218.65Z" transform="translate(-0.04)" fill="#5c5c5c"/><path d="M109.37,217.69c1.52.26,3.3-.94,4.55.83C112.39,218.29,110.64,219.32,109.37,217.69Z" transform="translate(-0.04)" fill="#5c5c5c"/><path d="M258.72,221.61l-7.47-.14a5.18,5.18,0,0,0-2.85-.43H231.11a5.24,5.24,0,0,1-2.85-.33c-.61-1.55.62-1.74,1.52-1.75,3.5-.06,6.94-.91,10.49-.34,3.32.53,6.66-.33,10-.43,8.07-.22,16.11-.91,24.17-1.32,5.63-.29,11.22-.94,16.82-1.41a3.59,3.59,0,0,0,2.14-1c2.78-.19,5.6-.92,8.27.6a2.37,2.37,0,0,0,1.44.12c4.33-.64,8.52.51,12.76.92,1.17.68,2.53,1,3.72,1.59a1,1,0,0,1-1,.83c-3.75-.32-7.35,1-11,1-8.84.11-17.66.8-26.45,1.37C273.6,221.37,266.16,221.16,258.72,221.61Z" transform="translate(-0.04)" fill="#6f6f6f"/><path d="M319.59,217.66c-1.06-.17-2.43.56-3-1a3,3,0,0,1,2.24-.76c2.28-.14,4.54.31,6.82.28.83,0,1.73.18,1.27,1.43l-1.49.11Z" transform="translate(-0.04)" fill="#999"/><path d="M326.88,217.61c-.13-1-.92-1-1.64-1h-8.69c-4.85,0-9.61-1-14.44-1.31-2.84-.18-5.71-.67-8.6-.67a1.58,1.58,0,0,1-1.91.18.87.87,0,0,1-.16-1.12c3.61.18,7.29-.75,10.84.84a5.33,5.33,0,0,0,2.91,0c6-1.05,11.78.63,17.67.89,2.49.11,5,.37,7.49.24a62,62,0,0,1,10,.59,31.51,31.51,0,0,0,3.63.28c3.43,0,3.45,0,2.08,2.87l-2.47.13c-1.79-1.35-3.85-1.18-5.91-1l-.94-.05c-1.4-.87-2.95-.31-4.43-.46-1.17-.12-2.4.28-3.49-.44Z" transform="translate(-0.04)" fill="#cecece"/><path d="M328.79,217.66h6.5c.68,0,1.3.08,1.42.93-2.22,0-4.44-.07-6.67-.09C329.44,218.5,328.94,218.34,328.79,217.66Z" transform="translate(-0.04)" fill="#999"/><path d="M72.62,193.69c-1.64-.24-3.5.45-4.79-1.18v-2.66c.37-.78,1-.65,1.7-.54a3.16,3.16,0,0,1,.72.34c2.38.72,4.82.17,7.23.33,2.91,1,6,.5,9,1,5.46.92,11.06.32,16.47,1.68a2.21,2.21,0,0,0,.72.11c6.14-.5,12.16,1,18.27,1.15,6.91.19,13.85.52,20.7,1.17,5.47.52,10.92.2,16.33.74,12.78,1.29,25.65.08,38.37,1.17,11.53,1,23-.12,34.46.9,7.09.63,14.2.23,21.22,1,4.07.47,8.2.14,12.14.91,4.81.93,9.61.45,14.37,1,2.27.26,3.23-.56,3.95-2.56,1.33-3.69,2.07-7.55,3.57-11.17a4.54,4.54,0,0,0,.92-3.35c.12-1.82,1.08-3.43,1.28-5.22a4.65,4.65,0,0,0,.67-3.23,6.87,6.87,0,0,1,.33-2.74,4.87,4.87,0,0,0,.59-3.5c-.09-3.11.88-6.09,1.23-9.16.3-2.65.39-5.34.77-8,1.94-13.55.39-27.16.9-40.72a13.92,13.92,0,0,0-.61-4.58c-.65-2.21-.38-4.52-.27-6.79a2.78,2.78,0,0,1,.39-1.22c2.24-1,3.8-.47,5,1.65.71,1.22.59,2.7,1.53,3.89.37-3.11.85-6.22-.31-9.3-.52-1.38-1.16-2.75-.19-4.19.8-.26,1.26.26,1.59.82,2.12,3.54,5.38,5.88,8.77,8,3.91,2.48,6.06,5.66,5.68,10.54-.23,3.07-.25,6.18-.53,9.27-.17,1.93.37,3.33,2.63,3.63,2,.25,2.69,1.62,2.71,3.49s-.77,3-2.67,3.15c-1.64.17-2,1.26-2.21,2.71a101.76,101.76,0,0,0-.5,12.22c0,2.44-.7,3.21-2.46,3.07s-2.35-1.29-2.22-3.55c.21-3.77,2-7.2,2.16-11a14.22,14.22,0,0,0,0-3.57c.06,4.05-1.61,7.26-2,10.77s-.62,6.78-1.28,10.15c-.42,2.11-1,3.71-2.92,4.73-4.57,2.49-5.93,6.64-6,11.47-1.6,9.52-3.38,19-6.41,28.22-.38,1.16-.65,2.36-1.07,3.5a1.12,1.12,0,0,0,.4,1.53.66.66,0,0,0,.19.09c2.22,1.89,5,2.28,7.72,2.63,2.09.27,4.19.68,6.24.79,3.82.21,7.52,1.16,11.34,1.35,4.19.2,8.34,1.07,12.58,1a6.69,6.69,0,0,1,3.6,1.4c.09,2.8-1,4.12-3.59,4.25h-2.42c-8.65.4-17.1-1.35-25.63-2.29-1.69-1.87-3.92-.89-5.93-1.13a129.58,129.58,0,0,1-15.22-1.6,70.83,70.83,0,0,0-9.4-1.08c-7.58,0-15.12-.89-22.63-1.41-9.2-.64-18.37-.54-27.55-.79a6,6,0,0,1-1.92-.34,4.59,4.59,0,0,0-2.55-.68c-6,0-12.08-.07-18.12.06-5.44.07-10.88,0-16.32,0a7.62,7.62,0,0,1-2.64-.35,5.23,5.23,0,0,0-2.76-.72c-4.84,0-9.68-.05-14.52.06-2.92-.08-5.86.34-8.76-.33a5.38,5.38,0,0,0-3.28-.71c-3,0-6.05-.05-9.07,0-2.11,0-4.23.26-6.3-.33-2-1.21-4.15-.55-6.24-.69a32.1,32.1,0,0,0-3.67,0,18.55,18.55,0,0,1-5.31-.34c-2.72-1.36-5.64-.43-8.45-.67a14.89,14.89,0,0,1-4.8-.31c-2.55-1.34-5.28-.44-7.92-.68a10.54,10.54,0,0,1-3.83-.31c-2.16-1.29-4.56-.42-6.82-.73a4,4,0,0,1-1.18-.3c-1.55-1.08-3.31-.51-5-.64H79.17a4.47,4.47,0,0,1-1.62-.34C76.11,193.71,74.09,194.8,72.62,193.69Z" transform="translate(-0.04)" fill="#353535"/><path d="M299.4,90.69a9.38,9.38,0,0,0,.83,4.24c1.34,3.26.53,6.74.54,10.13,0,1.11-1,.89-1.56.25a4.13,4.13,0,0,1-.82-2.49c-.31-3.16-1.49-4.18-4.75-4.3-.9-.59-.77-1.53-.78-2.39a4.47,4.47,0,0,0-.68-2.52c-.28-2.55-1.62-4.93-1.32-7.58,0-1.4.32-2.85-.61-4.12a5,5,0,0,1-.34-2,5,5,0,0,0-.87-3.4c-1.78-6.11-3-12.38-5-18.42-2.39-7.25-1.23-6.81-8.91-6.18-4.74.38-9.63.19-14.29,1.54a3.55,3.55,0,0,1-1.21.17c-8.26-.4-16.47.75-24.66,1.26-10.86.66-21.76-.1-32.52,1-9,.91-18-.09-26.89.89-7.67.84-15.37.15-23,1.06-5.39.64-10.86-.1-16.07.95C130.67,60,124.7,58.64,119,60.47a.53.53,0,0,1-.25,0c-5.41-.44-10.69.9-16.07,1.15A129.64,129.64,0,0,0,85,63.32a2.67,2.67,0,0,1-.48.08,47.21,47.21,0,0,0-12,1.28C71,64.1,69.16,65,67.86,63.6c-.24-2.17.65-2.77,2.88-2.92,7.19-.5,14.34-1.5,21.53-2.1,6.29-.53,12.55-1.49,18.87-1.72,5.61-.2,11.19-.87,16.77-1.29,3.72-.29,7.47-.29,11.17-.73,7.13-.84,14.34-.47,21.45-1.22,6.84-.72,13.7-.19,20.49-.86,10.75-1.07,21.55-.19,32.27-1.09,8.15-.68,16.32-.08,24.41-.92,5.77-.6,11.57-.32,17.29-1,6.29-.71,12.58-1.23,18.87-1.78,1.88-1.08,4.11.21,6-.86,7.05-.16,13.93-2,21-2.1,1.89-1,4.11.23,6-.85,3.95.18,7.74-1.25,11.68-1.1,1.26-.75,2.64-.31,4-.42.86-.07,1.76.14,2.53-.43l2.84-.13a7,7,0,0,1,6.34,0c1,0,1.93,0,2.89.08,2.22.19,2.55.82,1.59,2.85a21.79,21.79,0,0,1-8.23,1.77c-5.21,0-10.31,1.14-15.47,1.65-3.33.32-6.56,1.13-9.9,1.33-3.07.19-6.07,1.1-9.19,1.13a3.55,3.55,0,0,0-3,2c5.43-.22,10.47-1.94,15.69-1.63a4.45,4.45,0,0,1,.73,0c1.67.37,4.34-1,4.76,1.61.55,3.54.72,5.9-2.71,7.55-1.75.84-3.27,2.11-5.35,2.14a1.68,1.68,0,0,0-1.3.61c-3.05,3.94-6.36,7.86-6.35,13.13a52.7,52.7,0,0,0,1.34,10.39C299.91,88.1,300.44,89.43,299.4,90.69Z" transform="translate(-0.04)" fill="#2b2b2b"/><path d="M67.84,63.6c1.39.8,3-.55,4.38.53,0,1.42-1.32,1.07-2.08,1.45-1.06.77-.64,1.92-.64,2.92-.06,2-.08,4,0,6q.1,54.48,0,109c0,2.09.75,4.15.17,6.24l-1.81.11c.49-11.61-1.25-23.14-1.13-34.76.21-19,.14-38,0-57C66.69,86.58,68.38,75.13,67.84,63.6Z" transform="translate(-0.04)" fill="#c6c6c5"/><path d="M334.16,42.13h-6.34c0-1,.52-1.37,1.49-1.34h5Z" transform="translate(-0.04)" fill="#878f8f"/><path d="M325,42.25c-2,1.73-4.32.65-6.49.85C320.5,41.34,322.8,42.4,325,42.25Z" transform="translate(-0.04)" fill="#878f8f"/><path d="M279.83,47.15c-1.79,1.74-4,.68-6,.86C275.62,46.21,277.83,47.38,279.83,47.15Z" transform="translate(-0.04)" fill="#8c9194"/><path d="M306.81,44.2c-1.8,1.68-4,.66-6,.85C302.61,43.36,304.8,44.38,306.81,44.2Z" transform="translate(-0.04)" fill="#808789"/><path d="M407.34,99c-1.66-.24-.53-1.83-1.32-2.6-1,.79-.47,1.92-.62,2.87-.1.67.21,1.7-.95,1.54s-1.09-1.07-.9-1.92A11.09,11.09,0,0,1,404,97.8c1.26-3.33-.69-5.77-4.15-5.21a1,1,0,0,1-.48,0c-3.11-1-3,1-2.87,3a.85.85,0,0,1-1.17-.26.82.82,0,0,1-.13-.37,7.86,7.86,0,0,1-.39-2.64c.42-5.88-.86-11.62-1.45-17.41a1.32,1.32,0,0,1,.23-.92c.07-.71-.17-1.45.24-2.12.85-.21,1.05.54,1.08,1,.15,2.67,2.93,2.77,4.15,4.37l.52-.46c1.34-.16.52,1.39,1.31,1.67a125.88,125.88,0,0,1,6.28,17.91A11.37,11.37,0,0,1,407.34,99Z" transform="translate(-0.04)" fill="#1c1c1c"/><path d="M396.59,70.14c-1.4-.36-.93-1.54-1.08-2.45C396.88,68.06,396.64,69.14,396.59,70.14Z" transform="translate(-0.04)" fill="#4f7784"/><path d="M371.5,64.73c.4-1.87,1.53-1.76,2.16-.4,2.21,4.77,6.11,8.49,8.16,13.34.32.77.7,2.18,1.49.23.54.1,1.22,0,1.37.75.69,3.5.93,7.17,2.17,10.46,1.31,3.49-.08,7.27,1.71,10.58a1.6,1.6,0,0,1,.08.72c0,6.54.65,13.08,1.21,19.54,1.24,14.27.45,28.52.87,42.77,2,1.92,1.9,2.63-.64,3.65-1.95.79-2.39,2.77-3.53,4.19-2.93,3.66-5.72,7.42-8.64,11.09-.57.71-1.28,2.14-2.7.93.48-4.57,2.59-8.66,3.81-13,1.38-4.94,2.34-10,3.83-14.87,1.86-6.07,2.24-12.3,2.88-18.43.69-6.72,1.13-13.66-.52-20.43a15.3,15.3,0,0,1-.17-3.17,41.39,41.39,0,0,0-2-11.2c-.86-2.71-1.23-5.56-1.91-8.33a142.34,142.34,0,0,0-9.33-25.21C371.36,66.91,370.63,65.89,371.5,64.73Z" transform="translate(-0.04)" fill="#3d3d3d"/><path d="M393.62,74c1,1.29.8,2.82,1.07,4.3a92.81,92.81,0,0,1,.95,16.06c0,.64.21,1.1.89,1.24,0,4.9.46,9.85-.08,14.69s-.72,10-1.34,15c-.22,1.83.47,4.1.41,6.17-.32,10.38-1.37,20.74-.95,31.14-.79.55-1.53.91-1.91-.42,1.22-10.1.92-20.24.9-30.38a6,6,0,0,0-.58-3.29,3.72,3.72,0,0,1,.1-3.49,5.58,5.58,0,0,0,0-5.51,4.35,4.35,0,0,1-.4-2.36c0-4.07-.29-8.17,0-12.22.28-3.71-1.41-7.14-1-10.8.08-.74-.2-1.58.51-2.42a19.08,19.08,0,0,1,1.84,8,6.8,6.8,0,0,0,.34-5.09c-.79-1.94-.38-3.87-.78-5.73-.94-4.3-.38-8.79-1.76-13C391.25,74.2,392.22,73.85,393.62,74Z" transform="translate(-0.04)" fill="#444"/><path d="M392.66,162.23c.51.73,1.24.43,1.91.42-1,1.18-2.56,2.09-1.95,4-2.24,1.23-3.26,3.58-4.77,5.42s-3,4.06-4.73,5.88c-1.36,1.42-1.42,3.46-2.54,5a5.91,5.91,0,0,0-1.59,2.93c-.49,2.38-1.42,4.35-4.18,5.25-2.33.77-3.14,3.42-4.39,5.35-1.8,2.8-4.74,4.69-6,7.89a1.42,1.42,0,0,1-1.91.65.88.88,0,0,1-.21-.12,1.84,1.84,0,0,1-.87-2.44l0-.06c1.14-2.54,3.13-4.5,4.77-6.69a39,39,0,0,0,5.6-9.31,5.78,5.78,0,0,1,2.15-2.84,5.14,5.14,0,0,1,1.54-.71c1.74-.69,2.71-2.21,3.61-3.67,2.66-4.29,6.64-7.62,8.88-12.22.26-.52.94-1.2,1.41-1.2,3.07.06,2.31-1.42,1.35-3A3.25,3.25,0,0,0,392.66,162.23Z" transform="translate(-0.04)" fill="#101010"/><path d="M375.5,182.86c-.08.61-.34,1-1,.86-.85-1-.5-2-.17-3,.92-2.87,1.89-5.72,2.78-8.6.29-.94.72-2.1-.31-2.67s-1.81.42-2.33,1.25c-1.36,2.18-2.85,3.1-5.68,2.13-1.69-.58-4.09.55-5.22,2-1.93,2.51-4.59,3.86-7.08,5.53a4.63,4.63,0,0,0-2,2.08c-1.15,2.93-3.39,4.94-5.76,6.85a20.41,20.41,0,0,0-4.07,4.18,11.21,11.21,0,0,0-2.48,7.2c.09,2.09-1,3-3.21,3.24-2,.21-4.08,0-6.12.15a19.75,19.75,0,0,1-5.09-.29c-2.49-.66-2.83-2.45-3.17-4.78-.76-5.22-.43-10.54-1.64-15.7a4.91,4.91,0,0,1-.17-1.21c.08-7.89-1.69-15.7-1-23.61a10.56,10.56,0,0,0-.62-4.82,3.34,3.34,0,0,1-.27-1.92c.72-3.18.72-6.46,1.22-9.65.83-5.2,1.94-10.36,2.68-15.58a3.22,3.22,0,0,1,1-2.41,16.37,16.37,0,0,0,3.2-9.94,3.14,3.14,0,0,0-1.39-2.51c-4.82-3.35-5.32-8.52-5.59-13.63-.28-5.27-.82-10.54-.63-15.85.1-2.69.41-5.36.71-8a9.7,9.7,0,0,1,7.5-8.92,9.37,9.37,0,0,0,3.72-1.78c1.45-1.26,2.18-2.69.92-4.47a3.21,3.21,0,0,1,0-3.84c1.79-3.11,1.12-4.24-2.45-4.45-1.06-.06-2.13,0-3.18-.08-.76-.1-1.72,0-1.83-1.18.55-1.23,1.7-1.16,2.72-1.17,9.91-.07,19.82,0,29.74,0a4,4,0,0,1,2.51.76c.88,0,.83.78,1.17,1.3a91.11,91.11,0,0,1,8,14.17c.07.16.44.18.66.26.47,3.06,2.18,5.63,3.37,8.39a139,139,0,0,1,5.6,15.15c1.2,4,1.7,8.29,3,12.23,1.63,4.88,1.54,9.89,2.48,14.76,1.33,6.91,1,13.81.47,20.56-.3,3.76.39,7.92-1.57,11.56a2.61,2.61,0,0,0-.07,1.21c.23,3.57-1.67,6.67-2.2,10.06-.45,2.86-1.45,5.55-2.12,8.33-.87,3.59-2.22,7-3.43,10.46C376.43,179.24,376.63,181.24,375.5,182.86Z" transform="translate(-0.04)" fill="#5b5b5b"/><path d="M361.65,49c-10.78,0-21.56,0-32.34.07-.87,0-2.05-.51-2.48.89a1.53,1.53,0,0,1-.66.49,7.75,7.75,0,0,1-2.09.23c-2.51.11-5-.14-7.49.83-1.39.56-2.91-.1-4.37,0-1.2.06-2.46-.31-3.58.43a56.26,56.26,0,0,0-13.79,1.84,6.46,6.46,0,0,1-1.7.11c-.53,0-1.21.27-1.46-.5s.2-1.21.79-1.58a7.76,7.76,0,0,1,3.84-1.72c2.24-.1,4.48-.54,6.66-.74,3.46-.32,6.85-1,10.29-1.41,6.63-.73,13.24-1.67,19.92-2.11,1.75-.11,3.63-.53,5.45-.76,4.87.69,9.59-1.33,14.41-.83C356.5,44.59,360,45.25,361.65,49Z" transform="translate(-0.04)" fill="#949494"/><path d="M410.32,136.78V117.63c1.25-.09,1.44.65,1.44,1.69v15.77C411.77,136.14,411.5,136.85,410.32,136.78Z" transform="translate(-0.04)" fill="#a2b7bd"/><path d="M479.5,193.5c1.19.16,1.33,1,.72,1.7-1.1,1.2-1.92,2.74-3.57,3.37l-.12-.12-.09-1Z" transform="translate(-0.04)" fill="#807f81"/><path d="M409.27,108.39c-1.66-1.24-.75-3-.89-4.5C410.05,105.12,409.13,106.86,409.27,108.39Z" transform="translate(-0.04)" fill="#667679"/><path d="M408.42,150.55c.09-1.4-.68-3,.85-4.07C409.17,147.88,410.08,149.5,408.42,150.55Z" transform="translate(-0.04)" fill="#6c868d"/><path d="M408.32,103c-1.66-1-.78-2.63-.89-4C409.09,100,408.18,101.61,408.32,103Z" transform="translate(-0.04)" fill="#667679"/><path d="M361.78,202.5c0,.9-.17,1.89,1,2.15s1.46-.86,1.74-1.61a5.26,5.26,0,0,1,1.09-1.87,58.3,58.3,0,0,0,6.48-8.37c.8-1.2,1.56-3.44,4-2.45.26-1.78,2.59-2.48,2.32-4.56a2.59,2.59,0,0,1,2-3c1.36-1.88,3-3.53,4.34-5.47.46-.69,1-1.55,2.15-.87a3.38,3.38,0,0,1-.76,2.22,1.26,1.26,0,0,0-.17,1.77,1.31,1.31,0,0,0,.36.3c.79.39,1.3-.14,1.57-1,.16-.5.92-.67,1-1.33,1-.4,1.29-.06.89.92-.3,2.67-2.88,3.4-4.56,4.11a11.34,11.34,0,0,0-5,4.27c-4,5.83-8.85,10.91-12.81,16.69-2.27,3.31-5.25,5.94-7.52,9.2-1.13,1.14-2.58.58-3.9.76a15.26,15.26,0,0,1-4.86-.31c-2.12-1.25-4.45-.5-6.69-.67-4.68-.06-9.26-1.37-14-1.06-.81,0-1.89-.18-1.62-1.54a2.13,2.13,0,0,1,.71-.08c2.94.68,4.37-1,5.28-3.41a14,14,0,0,1,9.77-.26,25,25,0,0,0,6.93,1,33.92,33.92,0,0,1,5.61.2c.15,0,.29.14.45.17.79.15.88,2,2,1a1.91,1.91,0,0,0,.48-2.66,1.83,1.83,0,0,0-.48-.48,1.52,1.52,0,0,1,0-1.07,8.94,8.94,0,0,0,.69-2C360.5,202.5,360.86,201.85,361.78,202.5Z" transform="translate(-0.04)" fill="#4d4c4c"/><path d="M402.27,108.5c.1,3.63,1.74,6.36,1.2,9.42a1.11,1.11,0,0,0,0,.72c3.5,6.3.36,12.9.59,19.33a35,35,0,0,1-.79,10c-.93,3.48-.3,7.25-2.37,10.52a2.69,2.69,0,0,1-.32-3c1.53-3.29.42-6.74.9-10.06,1.09-7.49.86-15,.93-22.54,0-4-1.57-7.77-1-11.77A3.89,3.89,0,0,1,402.27,108.5Z" transform="translate(-0.04)" fill="#3f3f3f"/><path d="M386.84,176.5c-2.06.54-2.22,2.82-3.63,4-1,.78-1.51,2.05-2.86,2.37.36-3.5,2.93-5.69,4.89-8.25,1.74-2.28,3.53-4.52,5.15-6.88a2,2,0,0,1,2.23-1c-1.6,3.24-4.05,6-5.14,9.52C387.44,176.35,387.06,176.38,386.84,176.5Z" transform="translate(-0.04)" fill="#3d3d3d"/><path d="M389.68,179.36a.8.8,0,0,0-.66-.92h-.24c1.25-2.45,3.41-4.18,5-6.38a74.25,74.25,0,0,0,5.16-9C400.06,165.5,394.5,175.33,389.68,179.36Z" transform="translate(-0.04)" fill="#393939"/><path d="M355.83,213.74l4-.11.87.17a4,4,0,0,1,1.08,2c-.8,1.64-2.31.48-3.43.85-1.38,1.14-2.94,1.12-4.71.77.16-1.09,1.61-.84,1.75-1.78.46-.59,1.11-.46,1.73-.47C356.36,215,355.27,215.07,355.83,213.74Z" transform="translate(-0.04)" fill="#cecece"/><path d="M361.74,215.81c-1.14-.25-1.1-1.13-1.08-2,1.15.42,2.19,1.22,3.52.88C364,216.31,362.5,215.38,361.74,215.81Z" transform="translate(-0.04)" fill="#727677"/><path d="M355.83,213.74c.61,2,2.72.11,4,1.91h-4.46c-9.38.1-18.72-.83-28.08-1.09-8.76-.25-17.5-1.25-26.24-1.94s-17.46-1.63-26.24-2c-4.61-.17-9.21-.86-13.86-.94-3.9-.06-7.72.82-11.61.8-.32,0-.7.21-1,.1-2.91-1.32-5.9-1.07-9-1.1-3.31,0-6.67-.14-10-.18-.65,0-2.6-1.18-2,1.21-.84.15-2,.65-2.26-.46a1.52,1.52,0,0,0-1.74-1.28H200.57c-.12,0-.24.17-.45.33.6,1.46,2.07.83,3.65,1.41H125.26c13.17-1.53,26-.16,39.48-1.38a6.43,6.43,0,0,0-4-1.36c-4.5.22-8.93-.68-13.43-.57-10.52.28-21-1-31.51-1.07a262.7,262.7,0,0,1-27.46-2c-6.53-.77-13.17-.28-19.63-1.82-.65-.16-1.34-.08-1.4-1,1.69-1,1.41-2.78,1.83-4.25.54-1.94,1.46-3.09,3.64-2.69a6.44,6.44,0,0,1,4.88,0l1.42.12c1.37.76,2.86.32,4.3.44s3.11-.36,4.58.41l.93.13c1.35.74,2.82.34,4.23.44.94.06,1.92-.15,2.78.43l3.78.11c1.44.83,3,.3,4.5.43,1.2.11,2.43-.21,3.56.42l4.7.14c1.44.81,3,.29,4.51.42,1.35.13,2.75-.26,4,.42l5.2.13c1.62.8,3.34.3,5,.44s3.4-.34,5,.41l6.17.13c1.94.85,4,.27,6,.44s4.36-.39,6.48.41l8.7.21a5.18,5.18,0,0,0,2.85.44h11.93a5,5,0,0,1,2.61.41l18.92.13a5.29,5.29,0,0,0,2.86.44h15.11a5.5,5.5,0,0,1,2.86.41c8,.09,16-.21,24,.42,4.53.36,9.09.18,13.57.8,5.09.7,10.21.51,15.27,1,5.69.6,11.34,1.51,17.05,2,2.29.21,4.62.59,6.94.76.75.86,1.77.67,2.72.72a4.66,4.66,0,0,1,2.8.61c7.84.2,15.54,2,23.39,2.11h2.44c.21.88.92.8,1.55.78,4.8-.15,9.5.81,14.25,1.19,1.27.76,2.66.31,4,.41a5.39,5.39,0,0,1,2.57.42Z" transform="translate(-0.04)" fill="#dddddc"/><path d="M291.63,214.62l1.88.06c-.68,2.56-3.11,1.75-4.5,1.8-6.1.23-12.2.78-18.24,1.32-9.07.8-18.21.33-27.23,1.72a7.37,7.37,0,0,1-3.17,0c-3.76-1.14-7.45.55-11.17.11-.57-.07-.86.36-1,.88a2.9,2.9,0,0,1-3.43.07c-1.84-.85-2.84-2.61-4.29-3.87a.72.72,0,0,1-.3-.85.74.74,0,0,1,.94-.49l.06,0c1.65.66,3.4.07,5.09.5,2,.5,7.57-2.4,8.35-4.15,10.2,0,20.41-.15,30.59.31,3,.13,6.11.37,9.15.73,1.42.85,3,.3,4.47.45,1.17.11,2.41-.25,3.52.42l2.81.11c1.16.79,2.47.34,3.71.45C289.8,214.26,290.78,214,291.63,214.62Z" transform="translate(-0.04)" fill="#5c5c5c"/><path d="M282.35,213.62l-6.31,0c-.72,0-1.52.1-1.68-.92l6.44.06C281.5,212.81,282.08,212.88,282.35,213.62Z" transform="translate(-0.04)" fill="#6f6f6f"/><path d="M291.63,214.62l-4.82,0c-.73,0-1.5.07-1.65-.94h6.28C291.5,214,291.57,214.33,291.63,214.62Z" transform="translate(-0.04)" fill="#6f6f6f"/><path d="M77.64,194.5H72.76c-.05-.28-.1-.56-.14-.83C74.31,193.84,76.19,192.85,77.64,194.5Z" transform="translate(-0.04)" fill="#878989"/><path d="M476.62,198.56a2.71,2.71,0,0,1-1.37,2.57c-.07.05-.51-.17-.52-.29-.15-1.33.72-1.94,1.77-2.4Z" transform="translate(-0.04)" fill="#807f81"/><path d="M224.78,220.55l3.43-.07c6.75,0,13.5,0,20.25.07,1,0,2.19-.37,2.79.92l-24.4.12C226.05,221.59,224.93,221.94,224.78,220.55Z" transform="translate(-0.04)" fill="#8d8d8d"/><path d="M69.74,64.82c.82-.26,1.86.27,2.48-.69a37.21,37.21,0,0,1,8.51-1.42c9-.54,17.92-1.55,26.9-2.2,7.91-.57,15.84-1.2,23.73-1.94,5.77-.55,11.59-.18,17.28-1,6.67-.94,13.37-.19,20-.93,9.84-1.1,19.74-.16,29.54-1,8.48-.78,17-.19,25.39-.81,7.56-.57,15.15-.45,22.67-1.15,4.78-.44,9.59-.32,14.34-.91,6.26-.79,12.53-1.44,18.83-1.89,2.3-.16,3.5.69,4,2.63,1.39,5.12,3.39,10.07,4.35,15.32.51,2.74,1.23,5.43,1.85,8.15.81.87.11,2.16.85,3,0,.62.08,1.23.13,1.85,1,1.18-.07,2.81.9,4-.14,2.66,1.28,5.1,1.07,7.77,1.1,1.88-.19,4.11.86,6,1.62,15.4,1.5,30.84.86,46.26a104.36,104.36,0,0,1-2.56,20.53,20.24,20.24,0,0,0-.22,3.11c-.78.89-.1,2.17-.82,3.07-.06.93-.13,1.86-.19,2.78-.74.89,0,2.18-.85,3.05.24,1.89-1,3.51-1,5.33-.86.84-.1,2.16-.91,3-1,4.74-2.74,9.27-4.17,13.89a2.16,2.16,0,0,1-2.57,1.27,18.88,18.88,0,0,0-5.08-.42c-6.6,0-13.15-.88-19.7-1.42-5.93-.48-11.87-.2-17.76-.83-12.2-1.33-24.46-.18-36.64-1.07-11.24-.82-22.51,0-33.71-1-7.4-.62-14.84-.12-22.18-1-5.2-.61-10.4-.35-15.57-.84-9.13-.87-18.28-1.34-27.42-2.06-7.34-.58-14.65-1.61-22-1.9a23,23,0,0,1-3.76-.77c-1.21-.92-2.62-.37-3.93-.51s-2.4.27-3.5-.44h0c-1-1.49-.91-3.18-.91-4.87V73.92c1.57-2.31.75-4.93.9-7.41C69.72,66,69.18,65.4,69.74,64.82Z" transform="translate(-0.04)" fill="#e1e1e1"/><path d="M308.64,51.93c.17-.5.47-.9,1-.84,5,.45,9.77-1.52,14.74-1.05,1,1.23.5,2.61.32,4,1.51-1,.55-2.91,1.66-4a1,1,0,0,1,.43,0c1.88,0,3.76,0,5.63.07,3.42.19,4.56,2.29,2.56,5.07-1.06,1.48-1.53,2.43,0,3.89,1.13,1.11.89,2.55-.1,3.78a8.46,8.46,0,0,1-4.65,2.94c-4.77,1.21-7.41,4.32-7.75,9.07A117.71,117.71,0,0,0,322,87c.2,6.32.83,12.61,1.51,18.89.2,1.94,2,2.88,3.2,3.8,4.18,3.15,3.27,6.94,1.67,10.69-.59,1.37-.29,3.26-1.95,4.15a3.28,3.28,0,0,1-.48-3c1.09-1.88,2-3.76.21-5.75a6.36,6.36,0,0,1-.46-1.67c-1.66-2.44-4.33-3.6-6.67-5.14-.91-.6-2.23-.65-2.83,1.41,1.75-2.06,3.06-1.43,4.65-.29,3.08,2.22,5.07,4.78,4.12,8.8a1.66,1.66,0,0,1-.84,1.12c-2.3.69-4.67,0-7.5.25,2.36,1.44,4.61,1.53,6.73,2.06a1.34,1.34,0,0,1,.51.57,12.51,12.51,0,0,1,.29,3.61c0,3.09-1,6-1.38,9.09s-1.23,6-1.56,9c-.36,3.45-1.19,4.28-4.65,4.15-.52,0-1,0-1.31.43-1.11,1.54-2.93,2.33-4.07,3.83a28.35,28.35,0,0,1-6.83,5.35c-2.09,1.11-2.58,3.16-2.86,5.32-.17,1.29-.1,2.87-2.06,3,.19-5,1.42-9.49,6.33-12,1.83-.95,2.22-2.45,2.67-4.45a81.37,81.37,0,0,0,1.24-10.08c.33-3.63,2.26-6.88,2.05-10.56a1.75,1.75,0,0,1,1-1.83c.82.51.51,1.34.46,2-.26,3.36-.08,6.71-1.68,9.95-.82,1.69-.55,4-.86,6-.19,1.22,1.06,1.39,2.1,1.44,1.26.05,1.46-.66,1.46-1.71a130.61,130.61,0,0,1,.42-13.42c.21-2,.69-3.16,2.86-3,1.61.11,2.16-.68,2.13-2.21s-.13-3.21-2.16-3.12c-2.79.11-3.41-1.44-3.24-3.68.26-3.57.4-7.14.54-10.72a8.56,8.56,0,0,0-4.19-8.2c-4.3-2.77-8.37-5.82-11.09-10.3-.54-4-1-8-1.62-12a15.58,15.58,0,0,1,1.19-8c1.11-3,3.59-4.83,4.63-7.69.45-1.24,2-1.22,3.22-1.24,2.63,0,4.38-2,6.13-3.41,1.57-1.27.27-3.81.51-5.77.08-.67-.85-.57-1.4-.59A22.68,22.68,0,0,0,308.64,51.93Z" transform="translate(-0.04)" fill="#424242"/><path d="M299.4,166.65a2.56,2.56,0,0,0,1.42-2.39c-.08-3.59,1.48-6.11,4.77-7.41,2.12-.84,3.08-3,5.09-3.93.79,2.53.09,5.13.39,7.73.48,4.18,1.18,8.36,1.43,12.59.23,3.94.85,7.89,1.45,11.81.52,3.45.94,6.92,1.36,10.39a29.59,29.59,0,0,0,.49,3.38c.6,2.49.13,3.1-2.37,3.28h-1.22c-5.13.14-10.13-.94-15.17-1.65-1.5-.21-3-.63-4.51,0-1.24-.15-1.18-1.16-.88-1.84,1.58-3.56,2.27-7.4,3.53-11.06a82.11,82.11,0,0,0,2.09-8.9c.78-3.58,1-7.28,2.11-10.8A4,4,0,0,0,299.4,166.65Z" transform="translate(-0.04)" fill="#4b4b4b"/><path d="M292.5,200.5c1.53-2,3.47-.73,5.23-.59.38,0,.81.55,1.31.51,4.42-.42,8.63,1.5,13,1.11,1.75,1,3.59.12,5.39.22.95.05,1.91,0,2.86.08a3.6,3.6,0,0,1,1.21.31c1.95,1.14,4.3.31,6.29,1.26l5.38.06c2,.89,4.21.56,6.28.4,5.88-.43,11.76-.14,17.64-.16,1.11,0,2.87-.43,2.7,1.77l-.1.91a7.18,7.18,0,0,1-2.06,2.36c-3.92,0-8.17.94-11.66-.28-3.89-1.37-7.56-.69-11.31-1.1-6.7-1-13.46-1.47-20.19-2.15-4.94-.5-9.86-1.39-14.81-2C297.26,202.9,294.5,202.61,292.5,200.5Z" transform="translate(-0.04)" fill="#9c9c9c"/><path d="M220.61,202.34l-18.75.08c-.85,0-1.63-.06-2.08-.93l19.17.13C219.62,201.63,220.25,201.65,220.61,202.34Z" transform="translate(-0.04)" fill="#d4d5d4"/><path d="M180.86,201.36l-15.32.08c-.85,0-1.63-.06-2.07-.93l15.74.13C179.88,200.64,180.5,200.66,180.86,201.36Z" transform="translate(-0.04)" fill="#d4d5d4"/><path d="M154.84,200.38l-10.42.08c-.84,0-1.62-.07-2-.93l10.82.13C153.86,199.66,154.5,199.7,154.84,200.38Z" transform="translate(-0.04)" fill="#d4d5d4"/><path d="M136.2,199.4l-8,.08c-.85,0-1.62-.07-2.06-.93l8.42.1C135.25,198.65,135.88,198.68,136.2,199.4Z" transform="translate(-0.04)" fill="#d4d5d4"/><path d="M121,198.42l-6.85.08c-.72,0-1.53.11-1.7-.92,2.32,0,4.63.07,7,.09C120,197.68,120.66,197.71,121,198.42Z" transform="translate(-0.04)" fill="#d4d5d4"/><path d="M302.91,208.71h-4c-1,0-1.48-.37-1.5-1.36h4C302.38,207.34,302.91,207.7,302.91,208.71Z" transform="translate(-0.04)" fill="#929799"/><path d="M107.72,197.44l-6.36.08c-.73,0-1.53.11-1.7-.93,2.15,0,4.3.09,6.44.1C106.77,196.7,107.38,196.78,107.72,197.44Z" transform="translate(-0.04)" fill="#d4d5d4"/><path d="M69.66,189.73l5.81,0c.75,0,1.51,0,1.62,1-2.08,0-4.17-.08-6.25-.1C70.24,190.57,69.71,190.5,69.66,189.73Z" transform="translate(-0.04)" fill="#c6c6c5"/><path d="M95.88,196.5c-1.66,0-3.33,0-5,.07a1.92,1.92,0,0,1-2-.94C91.21,195.87,93.71,194.88,95.88,196.5Z" transform="translate(-0.04)" fill="#d4d5d4"/><path d="M293.43,99.59c-1.66-1.8-.65-4-.86-6,1.78,1.33.51,3.33,1.07,4.92Z" transform="translate(-0.04)" fill="#807978"/><path d="M87.94,195.5H83.05a.55.55,0,0,1-.24-.73.64.64,0,0,1,.1-.13C84.61,194.82,86.5,193.83,87.94,195.5Z" transform="translate(-0.04)" fill="#868686"/><path d="M82.91,194.67a5.14,5.14,0,0,0,.14.86c-1.36-.18-3,.69-4-.9Z" transform="translate(-0.04)" fill="#d4d5d4"/><path d="M290.66,172.61c.06-1.08-.71-2.38.82-3.07C291.39,170.61,292.18,171.92,290.66,172.61Z" transform="translate(-0.04)" fill="#9b938f"/><path d="M287.67,186.78c.12-1.06-.65-2.38.91-3C288.5,184.84,289.2,186.15,287.67,186.78Z" transform="translate(-0.04)" fill="#948f8a"/><path d="M289.62,178.44c.13-1.06-.71-2.39.85-3.05C290.42,176.5,291.11,177.76,289.62,178.44Z" transform="translate(-0.04)" fill="#958b89"/><path d="M291.5,85.83c-1.67-1-.76-2.62-.9-4C292.2,82.88,291.39,84.5,291.5,85.83Z" transform="translate(-0.04)" fill="#948e8e"/><path d="M290.5,80c-1.56-.67-.72-2-.85-3C291.11,77.62,290.42,78.91,290.5,80Z" transform="translate(-0.04)" fill="#8f8885"/><path d="M69.74,64.82c1.64,2.43-.11,5.19.76,7.75.27.8-1.07,1-1.72,1.46V66.6C68.78,65.87,68.5,64.89,69.74,64.82Z" transform="translate(-0.04)" fill="#dedede"/><path d="M359.86,205.43c-.25-1.48-1.42-1.08-2.32-1.08H336.05c-1,0-2.18.28-2.81-.94,1.88,0,3.76,0,5.63-.06,1.48-.07,2.87-.52,2.71-2.39-.47-5.68,3-9.06,6.91-12.28,2.25-1.88,4.49-3.74,5.44-6.72.7-2.18,3.11-2.43,4.67-3.64s3.31-1.95,4.2-3.9c.7-1.53,2.77-.87,3.81-1.8,1.33-1.18,2.18-1.09,3.51,0,1.09.92,2.15-.16,2.92-1a9.58,9.58,0,0,0,1.11-1.88,2.63,2.63,0,0,1,3.16-1.24c1.12.39.92,2,.7,2.82-.91,3.29-2.1,6.5-3.27,9.7a9.38,9.38,0,0,0-.28,2.64c-1.52,1-2,2.64-2.6,4.13-1.69,4.42-4.92,7.79-7.61,11.51-.76,1-1.16,2.47-2.47,3.11-1.07,0-1,.8-1,1.53S360.72,205.3,359.86,205.43Z" transform="translate(-0.04)" fill="#737373"/><path d="M327.86,203.36H323.1c-.72,0-1.47.06-1.67-.91a4.34,4.34,0,0,0,.91-4.75,17.7,17.7,0,0,1-.64-4.58c-.56-6-.65-12.13-1.78-18.12a8.92,8.92,0,0,1-.14-2.68c.6-5.65-1.18-11.14-1-16.76,0-.7,0-1.58-1-1.65-1.18-.08-1.32.84-1.31,1.66,0,3.24-.5,6.52.59,9.7a2.92,2.92,0,0,1,.23,1.2c-.39,4.83,1,9.51,1.24,14.31.19,3.84.82,7.72,1.36,11.58.46,3.31,1.27,6.64.7,10h-6.47c-.77,0-1.67.19-1.93-.91.49,0,1-.06,1.46-.06,1.82.13,2.45-.48,1.62-2.28-1.17-2.56-.78-5.43-1.17-8.13q-.77-5.23-1.49-10.52c-.65-4.57-.89-9.16-1.43-13.72s-2-9.2-.42-13.86c.59-2.45,3.92-2.58,4.41-5.18.06-.28.88-.15,1.36,0,2.57.92,3.9.3,4-2.29.13-4.89,2-9.48,2.19-14.38,0-1.47,1-3,.86-4.63a3.74,3.74,0,0,0,0-3.92h0c-1.74-1.3-.53-2.11.5-2.94a1,1,0,0,0,.49-1c.86-1.25.45-2.61.36-3.94s.53-1.49,1.58-.95l.06,1.91a5.84,5.84,0,0,1,0,5.45v3.41c-.42.06-1,.25-.89.67.48,2.89-.59,5.62-1.22,8.28-.67,2.86-.24,5.9-1.6,8.62a5.41,5.41,0,0,0-.21,1.92c-.17,2.14.45,4.36-.88,6.39a2.79,2.79,0,0,0-.06,2.16c1.93,5.47.1,11.18,1.05,16.63.8,4.59.18,9.27,1.09,13.69.66,3.18.13,6.35.87,9.35a40,40,0,0,1,.89,9.07C325.5,202.87,327.32,202.35,327.86,203.36Z" transform="translate(-0.04)" fill="#696969"/><path d="M326.4,50c-.06,1.72.48,3.63-1.43,4.78-.38.23-.8.7-1.27.22s-.1-.74.18-1c1.05-1.2.36-2.63.54-4Z" transform="translate(-0.04)" fill="#5b5b5b"/><path d="M357.7,208.7c0-1.37,1.08-1.83,2.06-2.36.56.29,2-.28,1.62.6-.62,1.29-.41,3.41-2.39,3.75C357.42,211,357.88,209.5,357.7,208.7Z" transform="translate(-0.04)" fill="#151515"/><path d="M351.1,213.61l-4.86.08c-.72,0-1.52.12-1.7-.91C346.73,213,349.09,212,351.1,213.61Z" transform="translate(-0.04)" fill="#cecece"/><path d="M326.37,113.74c-1-.06-1.34.19-1.14,1.38s.95,2.7-.8,3.51c1.12-4.35-1.91-6.55-4.69-8.77-2-1.59-2.73.4-3.76,2-.44-1.36-.78-2.47.07-3.37a2.33,2.33,0,0,1,3.15,0C321.68,110.07,324.5,111.21,326.37,113.74Z" transform="translate(-0.04)" fill="#5b5b5b"/><path d="M323.94,119.61c-.24,1-1.56,1.75-.5,2.94-2.41.52-4.5-1-6.82-1.08a.94.94,0,0,1-.93-1,.75.75,0,0,1,0-.26,1.46,1.46,0,0,1,1.78-1.05l.15.05C319.74,119.89,321.85,119.44,323.94,119.61Z" transform="translate(-0.04)" fill="#5b5b5b"/><path d="M326.42,121.1v-5.45C328.36,117.44,328.36,119,326.42,121.1Z" transform="translate(-0.04)" fill="#5b5b5b"/><path d="M323.44,122.55c1.62,1.3,1.54,2.61,0,3.92C323.5,125.16,323.5,123.86,323.44,122.55Z" transform="translate(-0.04)" fill="#5b5b5b"/><path d="M320.5,202.41c-1.41-3.59-.31-7.6-1.85-11.17a1,1,0,0,1-.08-.48c.48-4.64-.67-9.22-1.3-13.7s-.19-8.74-1.45-13.08c-.9-3.09-.25-6.64-.2-10,0-1.39,1.22-1,2.05-1.07s2,0,1.81,1.32c-.58,4.56,1.3,8.94,1,13.46-.41,6,1,11.89,1.28,17.86.13,3.21.48,6.55.75,9.83.13,1.65,1.12,3.1,1,4.9-.1,1.53-.44,2.32-2.07,2.16Z" transform="translate(-0.04)" fill="#4f4e4f"/></svg>