<svg xmlns="http://www.w3.org/2000/svg" xmlns:xlink="http://www.w3.org/1999/xlink" width="240.387" height="187.177" viewBox="0 0 240.387 187.177">
  <defs>
    <linearGradient id="linear-gradient" x1="0.5" y1="1" x2="0.5" gradientUnits="objectBoundingBox">
      <stop offset="0" stop-color="gray" stop-opacity="0.251"/>
      <stop offset="0.54" stop-color="gray" stop-opacity="0.122"/>
      <stop offset="1" stop-color="gray" stop-opacity="0.102"/>
    </linearGradient>
  </defs>
  <g id="undraw_workout_gcgu" transform="matrix(1, 0.017, -0.017, 1, 2.854, -0.329)">
    <path id="Trazado_327" data-name="Trazado 327" d="M382.707,99.9a58.147,58.147,0,0,0-9.46-15.073L242,83.538,350.061,68.36a61.375,61.375,0,0,0-21.926-4.35,61.452,61.452,0,0,0-73.4-2.484,61.185,61.185,0,0,0-28.089-6.769c-29.161,0-53.462,20.2-58.912,46.98Z" transform="translate(-148.87 -50.56)" fill="#6cc57c" opacity="0.1"/>
    <path id="Trazado_328" data-name="Trazado 328" d="M324.772,289.759a56.73,56.73,0,0,0-4.09-21.2L93.218,292.435A56.941,56.941,0,0,0,87.879,305.9l70.438,10.5L86.27,324.062c2.168,30.32,28.161,54.262,59.913,54.262a60.786,60.786,0,0,0,41.267-15.962,61.03,61.03,0,0,0,95.906-17.1,59.215,59.215,0,0,0,39.484-40.808l-89.067-13.826h91C324.767,290.337,324.772,290.049,324.772,289.759Z" transform="translate(-86.32 -217.954)" fill="#6cc57c" opacity="0.1"/>
    <ellipse id="Elipse_4" data-name="Elipse 4" cx="52.696" cy="8.638" rx="52.696" ry="8.638" transform="translate(13.816 168.178)" fill="#6cc57c"/>
    <path id="Trazado_329" data-name="Trazado 329" d="M353.936,246.215a8.082,8.082,0,0,1-4.8-.562s-2.075-2.4-3.826-2.728-2.428,2.519-3.468,3.25c-.72.513-5.91.146-9.053-.128l-.541-.049c-.053-.039-.107-.081-.165-.118,0,0-3.018-.929-3.647-1.75s-4.833-2.342-6.138-2.254-5.16.3-5.16.3-1.511-1.72-2.194-1.541a16.665,16.665,0,0,1-3.055-.014s-.652-1.676-1.3-4.079a4.26,4.26,0,0,0-2.307-2.426c.891-3.018-.7-11.626-5.627-13.309-1.075-.367-1.625-1.585-2.54-2.254a4.029,4.029,0,0,1-1.5-4.545,94.076,94.076,0,0,1,3.231-9.163l1.715-3.426a4.791,4.791,0,0,1-.543.68c.232-.3.464-.59.664-.836a14.422,14.422,0,0,0,5.492,1.514,17.97,17.97,0,0,0,4.622,1.446c1.72-.06,6.108,2.136,6.108,2.136s10.555,3.018,12.749,3.262,3.262-2.609,3.262-2.609,1.14-5.625-.884-7.115-3.2,5.339-3.2,5.339l-13.81-4.977-.852-.448a7.741,7.741,0,0,0,1.548-2.41,2.459,2.459,0,0,1,.917-1.4,1.294,1.294,0,0,1,.436-.128,2.937,2.937,0,0,1,.378,0c2.4.146,4.455,2.031,6.855,2.041h.265a2.308,2.308,0,0,0,1.284-.395,2.015,2.015,0,0,0,.738-1.425,2.461,2.461,0,0,1-.116.218,2.861,2.861,0,0,0,0-1.033,8.381,8.381,0,0,0-.954-2.282,1.161,1.161,0,0,1-.176-.571.787.787,0,0,1,.3-.541.639.639,0,0,0,.014.065,3.033,3.033,0,0,1,.6-.439,5.121,5.121,0,0,0,2.238-3.41c-.058.172-.128.341-.2.508a5.04,5.04,0,0,0-.244-3.566,2.018,2.018,0,0,0-.617-.81c-.866-.608-2.029.039-3.085.109a5.375,5.375,0,0,1-2.667-.775,18.313,18.313,0,0,1-4.044-2.554,53.47,53.47,0,0,1-3.58-4.107,7.281,7.281,0,0,0-4.606-2.677c-3.3-.255-6.419,3.018-9.559,1.95-1.532-.518-2.54-1.934-3.605-3.15s-2.53-2.384-4.127-2.122c-1.11.186-2.071,1.047-3.194,1.014a6.165,6.165,0,0,1-1.69-.464c-1.349-.453-3.2-.232-3.677,1.11a1.978,1.978,0,0,0,.174,1.664,2.493,2.493,0,0,0-.19.313,1.072,1.072,0,0,0-.114.7,7.173,7.173,0,0,0,2.832,12.238c.044.169.088.339.13.511.45,1.9.685,4.032.019,5.471-.042.088-.086.174-.135.258l-.058.026.026.026h0l-.026-.026h0l-.084-.086h0l-.506-.529c-.028-.553-.339-2.034-2.5-4.782-2.848-3.619-3.382-9.608-3.382-9.608s-.71-3.083,0-3.972,1.9-10.678,1.9-10.678l1.964-5.511s9.548-9.727,5.571-10.911c-2.7-.806-5.92,3.345-7.707,6.089a10.858,10.858,0,0,0-1.662,4.466l-5.4,14.766a11.587,11.587,0,0,0,0,4.863c.534,3.083,1.72,8.54,1.72,8.54l3.018,7.649a18.952,18.952,0,0,1,1.014,4.738,11.181,11.181,0,0,0-1,1.841l-.295.464-.021.188c-.2.42-.334.722-.334.722s-1.681,4.961-.276,8a13.7,13.7,0,0,1,1.46,4.455l1.047,4.508.436,3.946,3.765,9.311,3.468,4.952s-.325,3.647-1.038,4.151-.385,3.113-.385,3.113l-.446,6.848a10.725,10.725,0,0,0-1.481,5.367c-.088,3.32-.594,4.271-.594,4.271s-.232,2.786.416,4.062-1.038,2.609-1.038,2.609l1.446,4.965-.564,6.286s.262.072.7.181l-.088.45-2.359,11.909a31.793,31.793,0,0,0-1.333,4.032l-4.123,7.445s-3.44,3.41-1.808,3.735,6.377-2.609,6.377-2.609,3.914-4.211,5.455-4.594,3.25-1.486,2.758-3.085-1.625-4.032-.534-6.614c.7-1.625,2.177-6.036,3.194-9.114.056-.169.109-.332.163-.49a4.127,4.127,0,0,0,.794-.151,6.051,6.051,0,0,1,3.8-.232l4.448-18,.977-9.03,6.228,5.2a7.486,7.486,0,0,0,4.364,1.725,42.545,42.545,0,0,1,9.053,1.356l1.161-4.833s3.32.121,4.032-1.007a14.01,14.01,0,0,1,.81-1.161l.538-.084,14.692-2.273c2.728,0,6.465-1.841,6.465-1.841l2.284-.443s3.408-.682,3.714-1.247S356.311,245.626,353.936,246.215Z" transform="translate(-232.926 -125.043)" fill="url(#linear-gradient)"/>
    <path id="Trazado_330" data-name="Trazado 330" d="M320.216,254.81c.464-1.309,2.28-1.53,3.6-1.086a6.25,6.25,0,0,0,1.653.464c1.1.033,2.041-.812,3.127-.991,1.562-.26,2.995.882,4.037,2.073s2.031,2.577,3.531,3.085c3.071,1.035,6.122-2.159,9.353-1.911a7.148,7.148,0,0,1,4.5,2.621,52.621,52.621,0,0,0,3.5,4.018,17.553,17.553,0,0,0,3.958,2.507,5.224,5.224,0,0,0,2.609.757c1.035-.067,2.173-.7,3.018-.107a1.971,1.971,0,0,1,.6.794,5.1,5.1,0,0,1-1.834,6.317c-.355.22-.787.464-.808.889a1.119,1.119,0,0,0,.172.559,8.045,8.045,0,0,1,.929,2.233,2.252,2.252,0,0,1-.7,2.2,2.364,2.364,0,0,1-1.432.392c-2.349-.012-4.364-1.857-6.709-2a1.7,1.7,0,0,0-.88.135,2.374,2.374,0,0,0-.9,1.374,8.836,8.836,0,0,1-6.662,5.119,13.2,13.2,0,0,1-8.461-1.595,2,2,0,0,1-.513-.353,2.193,2.193,0,0,1-.443-.9c-.789-2.5-1.857-5.107-4.044-6.549-1.418-.929-3.343-1.451-3.986-3.018-.4-.991-.151-2.117-.253-3.185a4.9,4.9,0,0,0-3.234-4.081,2.518,2.518,0,0,1-1.077-.508,2.007,2.007,0,0,1-.418-.987c-.346-1.572-.576-3.231-1.058-4.766C321.033,257.108,319.722,256.187,320.216,254.81Z" transform="translate(-265.874 -206.128)" fill="#663d5b"/>
    <g id="Grupo_547" data-name="Grupo 547" transform="translate(54.315 48.499)" opacity="0.1">
      <path id="Trazado_331" data-name="Trazado 331" d="M362.017,283.36a2.372,2.372,0,0,1-1.432.383c-2.347,0-4.362-1.857-6.706-2a1.691,1.691,0,0,0-.88.132,2.363,2.363,0,0,0-.9,1.374,8.837,8.837,0,0,1-6.665,5.121,13.194,13.194,0,0,1-8.459-1.595,2.017,2.017,0,0,1-.513-.353,2.206,2.206,0,0,1-.443-.9c-.789-2.5-1.857-5.107-4.044-6.551-1.421-.94-3.345-1.448-3.986-3.018-.406-.994-.153-2.12-.253-3.185a4.891,4.891,0,0,0-3.236-4.081,2.544,2.544,0,0,1-1.077-.508,1.99,1.99,0,0,1-.415-.989c-.348-1.569-.576-3.231-1.059-4.764-.325-1.026-1.349-1.857-1.3-2.953a1.54,1.54,0,0,0-.079.179c-.5,1.377.817,2.3,1.191,3.482.483,1.532.71,3.194,1.059,4.763a1.989,1.989,0,0,0,.416.989,2.543,2.543,0,0,0,1.077.508,4.891,4.891,0,0,1,3.236,4.083c.1,1.065-.153,2.191.253,3.185.641,1.576,2.565,2.089,3.986,3.018,2.182,1.446,3.25,4.053,4.044,6.551a2.209,2.209,0,0,0,.443.9,2.016,2.016,0,0,0,.513.353,13.139,13.139,0,0,0,8.459,1.595,8.828,8.828,0,0,0,6.665-5.121,2.407,2.407,0,0,1,.9-1.374,1.691,1.691,0,0,1,.88-.132c2.345.142,4.36,1.987,6.706,2a2.372,2.372,0,0,0,1.432-.39,1.969,1.969,0,0,0,.724-1.393A1.724,1.724,0,0,1,362.017,283.36Z" transform="translate(-320.463 -259.48)"/>
      <path id="Trazado_332" data-name="Trazado 332" d="M498.529,328.315c-.355.232-.789.464-.81.889a.708.708,0,0,0,.039.251,2.923,2.923,0,0,1,.585-.429,5,5,0,0,0,2.189-3.336A4.891,4.891,0,0,1,498.529,328.315Z" transform="translate(-456.571 -310.32)"/>
    </g>
    <path id="Trazado_333" data-name="Trazado 333" d="M299.832,714.163c-1.075,2.526.03,4.9.522,6.472s-1.189,2.639-2.7,3.018-5.339,4.5-5.339,4.5-4.643,2.872-6.24,2.553,1.769-3.656,1.769-3.656l4.035-7.285a31.3,31.3,0,0,1,1.3-3.946l2.307-11.653.306-1.548,8.181-.495s-.429,1.328-1.021,3.122C301.963,708.26,300.505,712.587,299.832,714.163Z" transform="translate(-239.414 -550.867)" fill="#cc818c"/>
    <path id="Trazado_334" data-name="Trazado 334" d="M533.745,561.875c-.29.552-3.626,1.219-3.626,1.219l-2.236.434s-3.656,1.8-6.326,1.8l-14.379,2.226-1.929.3V559.7s.97.1,2.345.232c3.071.269,8.153.627,8.856.125,1.017-.724,1.683-3.51,3.394-3.19s3.744,2.67,3.744,2.67a7.917,7.917,0,0,0,4.7.55C530.611,559.5,534.035,561.323,533.745,561.875Z" transform="translate(-408.038 -439.313)" fill="#cc818c"/>
    <path id="Trazado_335" data-name="Trazado 335" d="M507.687,576.377s-.207.232-.508.629l-1.929.3V569.15s.97.1,2.345.232C509.9,571.2,507.687,576.377,507.687,576.377Z" transform="translate(-408.038 -448.765)" opacity="0.1"/>
    <path id="Trazado_336" data-name="Trazado 336" d="M396.13,533.933l7.723,6.444a7.332,7.332,0,0,0,4.271,1.688,41.718,41.718,0,0,1,8.868,1.328l1.133-4.731s3.25.116,3.946-.987a16,16,0,0,1,1.363-1.857s2.352-5.483-.318-7.166c0,0-2.96-.9-3.57-1.713s-4.729-2.291-6.005-2.205-5.049.29-5.049.29-1.481-1.683-2.147-1.509a16.669,16.669,0,0,1-2.99,0s-.638-1.641-1.277-3.993-4.439-3.192-4.439-3.192Z" transform="translate(-324.249 -408.207)" fill="#565987"/>
    <path id="Trazado_337" data-name="Trazado 337" d="M396.13,533.933l7.723,6.444a7.332,7.332,0,0,0,4.271,1.688,41.718,41.718,0,0,1,8.868,1.328l1.133-4.731s3.25.116,3.946-.987a16,16,0,0,1,1.363-1.857s2.352-5.483-.318-7.166c0,0-2.96-.9-3.57-1.713s-4.729-2.291-6.005-2.205-5.049.29-5.049.29-1.481-1.683-2.147-1.509a16.669,16.669,0,0,1-2.99,0s-.638-1.641-1.277-3.993-4.439-3.192-4.439-3.192Z" transform="translate(-324.249 -408.207)" opacity="0.1"/>
    <path id="Trazado_338" data-name="Trazado 338" d="M318.285,312.35l-.854.16h-.053l-.125.023-1.462.272-.45.534-.019.019-1.446,1.713-1.219,1.2-.012.014-1.031,1-1.743,1.734-.293.722-.636,1.6-.165.406-1.741,1.857-1.112,2.379-2.6,1.509-2.8-1.451-1.277-1.857.29-2.66.058-.532.852-1.367.773-1.244,1.509-2.147,2.9-1.973.52-.137.583-.153a2.136,2.136,0,0,0,.123-.2,2.365,2.365,0,0,0,.132-.253c.652-1.407.423-3.5-.019-5.353a26.927,26.927,0,0,0-1.339-4.062l7.661-1.1s-.074,1.486-.074,3.8h0c0,.58,0,1.209.016,1.883.037,2.089,1.978,2.995,3.443,3.38a9.647,9.647,0,0,0,1.147.232C318.109,312.341,318.285,312.35,318.285,312.35Z" transform="translate(-249.859 -244.399)" fill="#cc818c"/>
    <path id="Trazado_339" data-name="Trazado 339" d="M292.2,199.664s.348-1.393-2.437-4.933-3.308-9.4-3.308-9.4-.7-3.018,0-3.888S288.312,171,288.312,171l1.915-5.4s9.344-9.518,5.455-10.678c-2.642-.789-5.8,3.275-7.542,5.959a10.621,10.621,0,0,0-1.625,4.371h0L281.232,179.7a11.338,11.338,0,0,0,0,4.759c.522,3.018,1.683,8.357,1.683,8.357l2.96,7.493s1.558,4.666.75,5.235l1.8-2.667Z" transform="translate(-235.846 -130.617)" fill="#cc818c"/>
    <path id="Trazado_340" data-name="Trazado 340" d="M383.981,358.186s-1.045,2.786-3.192,2.554-12.478-3.192-12.478-3.192-4.295-2.147-5.978-2.089-9.4-3.54-9.4-3.54-.543.715-1.149,1.467a8.984,8.984,0,0,1-1.579,1.725c-.348.058-5.745.813-5.745.813L340.8,354.24l-.348-1.516-.165-.7.81-.9,1.066-1.186,2-2.28.012-.014,2.667-2.9.019-.019,1.709-.7.33-.135h.053a3.209,3.209,0,0,1,2.041.487,5.849,5.849,0,0,0,2.384.738,7.457,7.457,0,0,1,4.487,1.922l8.589,4.52,13.522,4.875s1.161-6.674,3.134-5.223S383.981,358.186,383.981,358.186Z" transform="translate(-281.372 -275.784)" fill="#cc818c"/>
    <path id="Trazado_341" data-name="Trazado 341" d="M320.27,350.726a8.981,8.981,0,0,1-1.579,1.725c-.348.058-5.745.813-5.745.813l-3.656-1.683-.348-1.516-.165.406-1.741,1.857-1.112,2.379-2.6,1.509-2.8-1.451-1.277-1.857.29-2.66c.146-.316.546-1.175.91-1.9a5.8,5.8,0,0,1,.645-1.128,6.224,6.224,0,0,0,.476-1.8c1.054-3.039,4.585-3.505,4.585-3.505l.564.529.246.255c-.1-.016.019-.232-.109-.2-.2.058-.295.367-.557.536a28.493,28.493,0,0,0-4.541,4.123c-.214.248-.434.492-.659.729a4.155,4.155,0,0,0-1.04,3.136c-.318,1.393,2.5,2.437,2.5,2.437.785-1.3,6.094-4.9,6.094-4.9l3.575-4a10.616,10.616,0,0,1,4.452-3.758c.532-.26.88-.39.88-.39l1.337.571a1.783,1.783,0,0,0-1.07.046,3.662,3.662,0,0,0-.573.232c-.07.035-.139.072-.2.111a6.393,6.393,0,0,0-1.026.741l-3,3.28a3.946,3.946,0,0,0,2.83,6.614h.03A4.665,4.665,0,0,0,320.27,350.726Z" transform="translate(-249.859 -273.125)" opacity="0.1"/>
    <path id="Trazado_342" data-name="Trazado 342" d="M336.547,702.15s-.43,1.328-1.021,3.122a29.007,29.007,0,0,1-7.466-1.079l.306-1.548Z" transform="translate(-271.981 -550.891)" opacity="0.1"/>
    <path id="Trazado_343" data-name="Trazado 343" d="M304.262,343.5l-.743-.761a6.5,6.5,0,0,0-4.346,3.231,13.413,13.413,0,0,1-1.017,2.3,29.189,29.189,0,0,0-1.613,3.155s-1.644,4.854-.272,7.835a13.6,13.6,0,0,1,1.432,4.353l1.026,4.411.425,3.867L302.842,381l3.394,4.835s-.318,3.568-1.014,4.062-.378,3.046-.378,3.046l-.434,6.7a10.468,10.468,0,0,0-1.451,5.251c-.086,3.25-.58,4.179-.58,4.179s-.232,2.728.406,3.977-1.017,2.554-1.017,2.554l1.423,4.845-.553,6.152s6.558,1.829,9,1.075a5.949,5.949,0,0,1,3.714-.232l4.353-17.622,1.509-13.84s.088-9.808,1.393-12.8c1.119-2.553-.348-11.651-5.388-13.369-1.052-.357-1.586-1.551-2.484-2.205a3.939,3.939,0,0,1-1.472-4.448,89.634,89.634,0,0,1,3.164-8.965l1.676-3.338a5,5,0,0,1-5.158,2.194h-.03a3.946,3.946,0,0,1-2.83-6.614l3-3.282s1.655-1.525,2.874-1.14l-1.335-.571s-3.758,1.393-5.339,4.148l-3.575,4s-5.3,3.582-6.089,4.9c0,0-2.814-1.045-2.5-2.437a4.171,4.171,0,0,1,1.04-3.139c.232-.232.446-.478.659-.727C299.968,346.859,303.132,343.312,304.262,343.5Z" transform="translate(-247.153 -273.923)" fill="#565987"/>
    <path id="Trazado_344" data-name="Trazado 344" d="M332.914,453.28s-.843,6.124-.2,7.37Z" transform="translate(-275.368 -359.793)" opacity="0.1"/>
    <path id="Trazado_345" data-name="Trazado 345" d="M336.75,463.53l.9,3.512A4.817,4.817,0,0,0,336.75,463.53Z" transform="translate(-278.654 -367.663)" opacity="0.1"/>
    <path id="Trazado_346" data-name="Trazado 346" d="M313.75,460s1.8,8.937,3.772,11.637" transform="translate(-260.993 -364.953)" opacity="0.1"/>
    <path id="Trazado_347" data-name="Trazado 347" d="M354.267,506.176s-3.076,2.9-4.267,2.69c0,0,4.731.2,6.21-2.291A2.541,2.541,0,0,0,354.267,506.176Z" transform="translate(-288.828 -400.355)" opacity="0.1"/>
    <path id="Trazado_348" data-name="Trazado 348" d="M371.109,505.41a49.712,49.712,0,0,1-4.729,3.134S370.644,507.325,371.109,505.41Z" transform="translate(-301.406 -399.822)" opacity="0.1"/>
    <path id="Trazado_349" data-name="Trazado 349" d="M319.46,413.53s-1.973,2.526-2.96,2.236A2.965,2.965,0,0,0,319.46,413.53Z" transform="translate(-263.105 -329.271)" opacity="0.1"/>
    <path id="Trazado_350" data-name="Trazado 350" d="M338.88,408.987s4.295-5.831,6.326-5.6C345.206,403.388,340.331,407.624,338.88,408.987Z" transform="translate(-280.289 -321.477)" opacity="0.1"/>
    <path id="Trazado_351" data-name="Trazado 351" d="M356.366,418.39s-2.728,1.367-2.437,1.767S356.366,418.39,356.366,418.39Z" transform="translate(-291.828 -333.002)" opacity="0.1"/>
    <path id="Trazado_352" data-name="Trazado 352" d="M340.082,611.28s-9.111,5.311-9.952,5.571a3.549,3.549,0,0,0,3.046.61C334.654,616.881,340.082,611.28,340.082,611.28Z" transform="translate(-273.571 -481.115)" opacity="0.1"/>
    <path id="Trazado_353" data-name="Trazado 353" d="M328.5,658.721s-3.656-.378-3.512.813S328.5,658.721,328.5,658.721Z" transform="translate(-269.618 -517.499)" opacity="0.1"/>
    <path id="Trazado_354" data-name="Trazado 354" d="M334.41,303s-.074,1.486-.074,3.8h0a7.029,7.029,0,0,1-6.247,1.36,26.928,26.928,0,0,0-1.339-4.062Z" transform="translate(-270.975 -244.399)" opacity="0.1"/>
    <circle id="Elipse_5" data-name="Elipse 5" cx="7.022" cy="7.022" r="7.022" transform="translate(51.886 49.499)" fill="#cc818c"/>
    <path id="Trazado_355" data-name="Trazado 355" d="M326.51,273.14c.2,2.872.8,6.156,3.294,7.6,1.8,1.042,4.072.768,6.066.174s3.946-1.481,6.022-1.581a43.263,43.263,0,0,1,4.761.416,5.783,5.783,0,0,0,4.466-1.267c1.625-1.592,1.328-4.487-.211-6.161a8.081,8.081,0,0,0-6.226-2.219c-2.786.077-5.9.929-8.1-.761-1.479-1.138-2.038-3.111-3.282-4.5-2.078-2.321-11.266-5.673-13.211-1.89-.912,1.771,3.234,3.036,4.195,4.318A9.2,9.2,0,0,1,326.51,273.14Z" transform="translate(-265.761 -212.333)" opacity="0.1"/>
    <path id="Trazado_356" data-name="Trazado 356" d="M327.44,272.076c.2,2.874.8,6.159,3.294,7.6,1.8,1.042,4.072.768,6.066.176s3.946-1.481,6.024-1.581a42.791,42.791,0,0,1,4.761.416,5.766,5.766,0,0,0,4.464-1.267c1.625-1.595,1.328-4.487-.211-6.161a8.078,8.078,0,0,0-6.224-2.219c-2.786.074-5.9.929-8.1-.764-1.479-1.137-2.038-3.108-3.282-4.5-2.078-2.321-11.266-5.671-13.211-1.887-.912,1.769,3.234,3.034,4.2,4.318A9.2,9.2,0,0,1,327.44,272.076Z" transform="translate(-266.475 -211.517)" fill="#663d5b"/>
    <path id="Trazado_357" data-name="Trazado 357" d="M312.73,381.482a6.486,6.486,0,0,1,2.76-4.582" transform="translate(-260.21 -301.144)" opacity="0.1"/>
    <path id="Trazado_358" data-name="Trazado 358" d="M421.98,550.168a2.286,2.286,0,0,1-.165.662,21.1,21.1,0,0,1-1.1,2.663,1.811,1.811,0,0,0,1.393-1.1,5.338,5.338,0,0,0,.374-1.813,3.282,3.282,0,0,0,.016-.585c-.016-.181-.132-.873-.432-.75C421.83,549.344,421.985,549.985,421.98,550.168Z" transform="translate(-343.131 -433.467)" opacity="0.1"/>
    <path id="Trazado_359" data-name="Trazado 359" d="M352.467,280.756A5.774,5.774,0,0,1,348,282.024a42.378,42.378,0,0,0-4.761-.413c-2.089.1-4.025.987-6.022,1.581s-4.264.868-6.068-.174c-2.491-1.444-3.094-4.729-3.292-7.6a9.214,9.214,0,0,0-2.226-5.873c-.917-1.223-4.724-2.43-4.288-4.074a2.586,2.586,0,0,0-.325.483c-.912,1.769,3.234,3.034,4.2,4.318a9.2,9.2,0,0,1,2.224,5.871c.2,2.874.8,6.159,3.294,7.6,1.8,1.042,4.072.768,6.066.176s3.946-1.481,6.024-1.581a42.8,42.8,0,0,1,4.761.416,5.766,5.766,0,0,0,4.464-1.268,3.462,3.462,0,0,0,.754-1.119A3.345,3.345,0,0,1,352.467,280.756Z" transform="translate(-266.475 -215.581)" opacity="0.1"/>
    <path id="Trazado_360" data-name="Trazado 360" d="M221.422,371.69l-.852,1.857,2.709-.541Z" transform="translate(-169.405 -285.406)" fill="#cc818c"/>
    <path id="Trazado_361" data-name="Trazado 361" d="M221.422,371.69l-.7,1.857h-.151Z" transform="translate(-169.405 -285.406)" opacity="0.1"/>
    <ellipse id="Elipse_6" data-name="Elipse 6" cx="9.518" cy="1.307" rx="9.518" ry="1.307" transform="translate(109.536 167.962)" fill="#6cc57c" opacity="0.1"/>
    <ellipse id="Elipse_7" data-name="Elipse 7" cx="9.518" cy="1.307" rx="9.518" ry="1.307" transform="translate(145.993 171.657)" fill="#6cc57c" opacity="0.1"/>
    <ellipse id="Elipse_8" data-name="Elipse 8" cx="9.518" cy="1.307" rx="9.518" ry="1.307" transform="translate(188.937 166.655)" fill="#6cc57c" opacity="0.1"/>
    <ellipse id="Elipse_9" data-name="Elipse 9" cx="6.765" cy="0.929" rx="6.765" ry="0.929" transform="translate(134.154 182.561)" fill="#6cc57c" opacity="0.1"/>
    <ellipse id="Elipse_10" data-name="Elipse 10" cx="6.765" cy="0.929" rx="6.765" ry="0.929" transform="translate(171.993 181.632)" fill="#6cc57c" opacity="0.1"/>
    <path id="Trazado_362" data-name="Trazado 362" d="M739.555,555.344s-13.348-43.758,2.089-61.285c11.547-13.111,24.656-11.542,30.526-9.922a10.843,10.843,0,0,1,7,5.82c2.052,4.429,1.683,11.607-12.8,20-24.259,14.044-25.767,33.312-25.767,33.312Z" transform="translate(-583.837 -382.672)" fill="#6cc57c"/>
    <path id="Trazado_363" data-name="Trazado 363" d="M783.543,514.39s-39.348,12.3-30.526,65" transform="translate(-597.299 -406.717)" fill="none" stroke="#565987" stroke-miterlimit="10" stroke-width="1"/>
    <path id="Trazado_364" data-name="Trazado 364" d="M789.78,533.39s5.416,3.651,3.7,9.137" transform="translate(-626.518 -421.306)" fill="none" stroke="#565987" stroke-miterlimit="10" stroke-width="1"/>
    <path id="Trazado_365" data-name="Trazado 365" d="M847.485,540.54s-3.313-3.371-7.345-1.511" transform="translate(-665.187 -425.207)" fill="none" stroke="#565987" stroke-miterlimit="10" stroke-width="1"/>
    <path id="Trazado_366" data-name="Trazado 366" d="M780.562,616.7s-5.817-2.953-7.322.745" transform="translate(-613.818 -484.417)" fill="none" stroke="#565987" stroke-miterlimit="10" stroke-width="1"/>
    <path id="Trazado_367" data-name="Trazado 367" d="M742.78,646.818s4.367-.348,4.445,1.741" transform="translate(-590.428 -508.387)" fill="none" stroke="#565987" stroke-miterlimit="10" stroke-width="1"/>
    <path id="Trazado_368" data-name="Trazado 368" d="M755,692.959s15.632-31.8,19.927-31.107c2.04.33,2.981,2.338,3.406,4.353a12.793,12.793,0,0,1-.863,7.744C775.252,679.036,769.293,688.7,755,692.959Z" transform="translate(-599.812 -519.939)" fill="#6cc57c"/>
    <path id="Trazado_369" data-name="Trazado 369" d="M775.528,687.89s-16.408,23.794-19.579,24.839" transform="translate(-600.541 -539.941)" fill="none" stroke="#565987" stroke-miterlimit="10" stroke-width="1"/>
    <line id="Línea_1" data-name="Línea 1" x1="3.83" transform="translate(172.666 151.663)" fill="none" stroke="#565987" stroke-miterlimit="10" stroke-width="1"/>
    <line id="Línea_2" data-name="Línea 2" x1="6.003" y2="0.258" transform="translate(165.906 160.369)" fill="none" stroke="#565987" stroke-miterlimit="10" stroke-width="1"/>
    <line id="Línea_3" data-name="Línea 3" x2="0.652" y2="3.127" transform="translate(168.255 153.404)" fill="none" stroke="#565987" stroke-miterlimit="10" stroke-width="1"/>
    <line id="Línea_4" data-name="Línea 4" x2="0.116" y2="2.841" transform="translate(161.872 162.922)" fill="none" stroke="#565987" stroke-miterlimit="10" stroke-width="1"/>
    <path id="Trazado_370" data-name="Trazado 370" d="M678.968,692.959s-15.632-31.8-19.927-31.107c-2.041.33-2.981,2.338-3.405,4.353a12.79,12.79,0,0,0,.84,7.744C658.693,679.036,664.652,688.7,678.968,692.959Z" transform="translate(-523.315 -519.939)" fill="#6cc57c"/>
    <path id="Trazado_371" data-name="Trazado 371" d="M671.61,687.89s16.408,23.794,19.579,24.839" transform="translate(-535.78 -539.941)" fill="none" stroke="#565987" stroke-miterlimit="10" stroke-width="1"/>
    <line id="Línea_5" data-name="Línea 5" x2="3.83" transform="translate(134.319 151.663)" fill="none" stroke="#565987" stroke-miterlimit="10" stroke-width="1"/>
    <line id="Línea_6" data-name="Línea 6" x2="6.003" y2="0.258" transform="translate(138.908 160.369)" fill="none" stroke="#565987" stroke-miterlimit="10" stroke-width="1"/>
    <line id="Línea_7" data-name="Línea 7" x1="0.65" y2="3.127" transform="translate(141.91 153.404)" fill="none" stroke="#565987" stroke-miterlimit="10" stroke-width="1"/>
    <line id="Línea_8" data-name="Línea 8" x1="0.116" y2="2.841" transform="translate(148.828 162.922)" fill="none" stroke="#565987" stroke-miterlimit="10" stroke-width="1"/>
    <path id="Trazado_372" data-name="Trazado 372" d="M844.02,813.651a2.7,2.7,0,0,0,.891-1.342,1.2,1.2,0,0,0-.622-1.367,1.747,1.747,0,0,0-1.644.576,2.194,2.194,0,0,1-1.6.771,2.431,2.431,0,0,0,.75-2.277.927.927,0,0,0-.209-.464c-.316-.339-.892-.193-1.272.074-1.207.85-1.544,2.488-1.548,3.965a7.313,7.313,0,0,1-.023-1.625,1.674,1.674,0,0,0-.613-1.444,1.858,1.858,0,0,0-.928-.232,1.942,1.942,0,0,0-1.518.432,1.493,1.493,0,0,0,.06,1.857,6.07,6.07,0,0,0,1.569,1.258,3.441,3.441,0,0,1,1.124,1.07,1.027,1.027,0,0,1,.083.19h3.4A9.458,9.458,0,0,0,844.02,813.651Z" transform="translate(-661.537 -633.205)" fill="#6cc57c"/>
    <path id="Trazado_373" data-name="Trazado 373" d="M587.424,758.455a2.7,2.7,0,0,0,.889-1.344,1.2,1.2,0,0,0-.622-1.367,1.745,1.745,0,0,0-1.644.578,2.2,2.2,0,0,1-1.6.771,2.437,2.437,0,0,0,.745-2.284.947.947,0,0,0-.209-.464c-.318-.339-.891-.2-1.272.072-1.207.85-1.544,2.489-1.551,3.965a7.453,7.453,0,0,1-.021-1.625,1.674,1.674,0,0,0-.615-1.446,1.837,1.837,0,0,0-.928-.218,1.927,1.927,0,0,0-1.516.429,1.5,1.5,0,0,0,.058,1.857,6.006,6.006,0,0,0,1.572,1.258,3.484,3.484,0,0,1,1.121,1.07.957.957,0,0,1,.083.193h3.4A9.542,9.542,0,0,0,587.424,758.455Z" transform="translate(-464.503 -590.816)" fill="#6cc57c"/>
    <path id="Trazado_374" data-name="Trazado 374" d="M672.938,813.651a2.7,2.7,0,0,0,.891-1.342,1.2,1.2,0,0,0-.622-1.367,1.747,1.747,0,0,0-1.644.576,2.195,2.195,0,0,1-1.6.771,2.431,2.431,0,0,0,.752-2.277.929.929,0,0,0-.209-.464c-.316-.339-.891-.193-1.272.074-1.207.85-1.544,2.488-1.548,3.965a7.316,7.316,0,0,1-.023-1.625,1.674,1.674,0,0,0-.613-1.444,1.858,1.858,0,0,0-.929-.232,1.942,1.942,0,0,0-1.518.432,1.493,1.493,0,0,0,.06,1.857,6.068,6.068,0,0,0,1.569,1.258,3.443,3.443,0,0,1,1.124,1.07,1.016,1.016,0,0,1,.083.19h3.4A9.458,9.458,0,0,0,672.938,813.651Z" transform="translate(-530.171 -633.205)" fill="#6cc57c"/>
    <path id="Trazado_375" data-name="Trazado 375" d="M932.387,716.35s1.277,1.667-.587,4.179-3.4,4.643-2.786,6.212c0,0,2.814-4.675,5.107-4.74S934.915,719.161,932.387,716.35Z" transform="translate(-733.325 -561.794)" fill="#6cc57c"/>
    <path id="Trazado_376" data-name="Trazado 376" d="M932.636,716.35a2.007,2.007,0,0,1,.26.522c2.236,2.623,3.424,5.072,1.277,5.135-2,.056-4.4,3.633-4.972,4.536a2.079,2.079,0,0,0,.067.2s2.814-4.675,5.107-4.74S935.164,719.161,932.636,716.35Z" transform="translate(-733.573 -561.794)" opacity="0.1"/>
    <path id="Trazado_377" data-name="Trazado 377" d="M953.29,724.269c0,.587-.065,1.063-.146,1.063s-.144-.483-.144-1.063.081-.309.162-.309S953.29,723.688,953.29,724.269Z" transform="translate(-751.848 -567.589)" fill="#ffd037"/>
    <path id="Trazado_378" data-name="Trazado 378" d="M954.434,727.192c-.515.281-.966.45-1,.381s.346-.358.861-.638.313-.077.35,0S954.954,726.912,954.434,727.192Z" transform="translate(-752.178 -569.812)" fill="#ffd037"/>
    <path id="Trazado_379" data-name="Trazado 379" d="M905.526,716.35s-1.277,1.667.587,4.179,3.4,4.643,2.786,6.212c0,0-2.811-4.675-5.107-4.74S903.014,719.161,905.526,716.35Z" transform="translate(-713.195 -561.794)" fill="#6cc57c"/>
    <path id="Trazado_380" data-name="Trazado 380" d="M905.509,716.35a2.049,2.049,0,0,0-.262.522c-2.233,2.623-3.422,5.072-1.277,5.135,2,.056,4.411,3.633,4.975,4.536a1.625,1.625,0,0,1-.07.2s-2.811-4.675-5.107-4.74S903,719.161,905.509,716.35Z" transform="translate(-713.179 -561.794)" opacity="0.1"/>
    <path id="Trazado_381" data-name="Trazado 381" d="M904.81,724.26c0,.587.067,1.063.148,1.063s.146-.476.146-1.063-.081-.309-.163-.309S904.81,723.68,904.81,724.26Z" transform="translate(-714.845 -567.581)" fill="#ffd037"/>
    <path id="Trazado_382" data-name="Trazado 382" d="M900.271,727.192c.515.281.963.45,1,.381s-.346-.358-.861-.638-.313-.077-.353,0S899.755,726.912,900.271,727.192Z" transform="translate(-711.118 -569.812)" fill="#ffd037"/>
    <path id="Trazado_383" data-name="Trazado 383" d="M906.56,753.828s3.566-.109,4.643-.875,5.485-1.678,5.752-.45,5.358,6.1,1.332,6.135-9.353-.627-10.425-1.281S906.56,753.828,906.56,753.828Z" transform="translate(-716.189 -589.093)" fill="#a8a8a8"/>
    <path id="Trazado_384" data-name="Trazado 384" d="M918.357,764.567c-4.025.032-9.355-.627-10.428-1.281-.815-.5-1.142-2.282-1.249-3.106h-.121s.232,2.876,1.3,3.529,6.4,1.314,10.425,1.281c1.161,0,1.562-.422,1.541-1.035C919.662,764.328,919.221,764.56,918.357,764.567Z" transform="translate(-716.189 -595.449)" opacity="0.2"/>
  </g>
</svg>
