<svg xmlns="http://www.w3.org/2000/svg" width="18.382" height="16.663" viewBox="0 0 18.382 16.663">
  <g id="Grupo_16118" data-name="Grupo 16118" transform="translate(-139.43 -13.54)">
    <path id="Trazado_1233" data-name="Trazado 1233" d="M141.714,24.134l4.546,3.985,2.8.436,3.612-2.117,3.238-4.359v-4.8l-3.238-2.3-4.048.747-3.8-1.121-3.114,1.121-1.183,3.238.5,3.114Z" transform="translate(0.197 0.191)" fill="#f02756" stroke="#f02756" stroke-width="1"/>
    <g id="noun_Favorite_1481179" transform="translate(139.43 13.54)">
      <g id="Group" transform="translate(0 0)">
        <path id="Compound_Path" data-name="Compound Path" d="M31.909,21.706h0a5.4,5.4,0,0,0-5.288-4.68,7.134,7.134,0,0,0-3.77,1.214A7.109,7.109,0,0,0,19.057,17a5.344,5.344,0,0,0-5.262,4.706c-.759,3.921,1.569,9.108,8.475,11.84a1.569,1.569,0,0,0,1.189,0C30.34,30.763,32.643,25.577,31.909,21.706Zm-9.057,9.917c-5.692-2.328-7.666-6.451-7.084-9.538a3.367,3.367,0,0,1,3.289-3.061,5.529,5.529,0,0,1,3.188,1.24,1.012,1.012,0,0,0,1.214,0,5.525,5.525,0,0,1,3.162-1.24A3.4,3.4,0,0,1,29.91,22.06C30.492,25.146,28.544,29.245,22.852,31.623Z" transform="translate(-13.657 -17)" fill="#f02756"/>
      </g>
    </g>
  </g>
</svg>
