<svg xmlns="http://www.w3.org/2000/svg" width="24.312" height="24.312" viewBox="0 0 24.312 24.312">
  <path id="symbol" d="M23.739,9.387l-1.869-.406a10.169,10.169,0,0,0-.6-1.45L22.3,5.922a.727.727,0,0,0-.1-.906L19.3,2.1a.727.727,0,0,0-.906-.1L16.78,3.042a10.169,10.169,0,0,0-1.45-.6L14.924.572A.726.726,0,0,0,14.214,0H10.1a.726.726,0,0,0-.71.572L8.981,2.44a10.169,10.169,0,0,0-1.45.6L5.922,2.007a.727.727,0,0,0-.906.1L2.1,5.016a.727.727,0,0,0-.1.906L3.042,7.531a10.169,10.169,0,0,0-.6,1.45L.572,9.387A.727.727,0,0,0,0,10.1v4.117a.727.727,0,0,0,.572.71l1.869.406a10.169,10.169,0,0,0,.6,1.45L2.007,18.389a.727.727,0,0,0,.1.906l2.911,2.911a.727.727,0,0,0,.906.1l1.609-1.034a10.169,10.169,0,0,0,1.45.6l.406,1.869a.726.726,0,0,0,.71.572h4.117a.726.726,0,0,0,.71-.572l.406-1.869a10.168,10.168,0,0,0,1.45-.6L18.389,22.3a.726.726,0,0,0,.906-.1L22.207,19.3a.727.727,0,0,0,.1-.906L21.269,16.78a10.169,10.169,0,0,0,.6-1.45l1.869-.406a.727.727,0,0,0,.572-.71V10.1A.727.727,0,0,0,23.739,9.387Zm-7.225,2.768A4.359,4.359,0,1,1,12.156,7.8,4.364,4.364,0,0,1,16.514,12.156Zm0,0" transform="translate(0 0)" fill="#e1e1e1"/>
</svg>
