<svg xmlns="http://www.w3.org/2000/svg" width="18.276" height="24.759" viewBox="0 0 18.276 24.759">
  <g id="sports-and-competition" transform="translate(0)">
    <path id="Trazado_20" data-name="Trazado 20" d="M102.633,107.973a4.387,4.387,0,1,0,4.387,4.387A4.392,4.392,0,0,0,102.633,107.973Zm0,0" transform="translate(-93.495 -102.752)" fill="#e1e1e1"/>
    <path id="Trazado_21" data-name="Trazado 21" d="M18.277,12.578l-1.33-2.969,1.33-2.969-2.821-1.62-.669-3.184-3.235.348L9.139,0,6.726,2.183,3.491,1.835,2.822,5.019,0,6.639l1.33,2.969L0,12.578,2.822,14.2l.362,1.725-3.012,6.4,3.143.041,2.035,2.4,2.96-6.291.827.748.827-.748,2.961,6.291,2.035-2.4,3.143-.041-3.012-6.4.362-1.725ZM9.139,15.446a5.838,5.838,0,1,1,5.838-5.838A5.844,5.844,0,0,1,9.139,15.446Zm0,0" transform="translate(0 0)" fill="#e1e1e1"/>
  </g>
</svg>
