<svg id="interface_2_" data-name="interface (2)" xmlns="http://www.w3.org/2000/svg" width="23.49" height="23.49" viewBox="0 0 23.49 23.49">
  <g id="Grupo_20" data-name="Grupo 20">
    <path id="Trazado_19" data-name="Trazado 19" d="M11.745,0A11.745,11.745,0,1,0,23.49,11.745,11.758,11.758,0,0,0,11.745,0Zm0,3.426A5.628,5.628,0,1,1,6.117,9.053,5.634,5.634,0,0,1,11.745,3.426Zm0,18.107A9.768,9.768,0,0,1,3.924,17.6a18.428,18.428,0,0,1,7.821-1.945A18.43,18.43,0,0,1,19.566,17.6,9.768,9.768,0,0,1,11.745,21.532Z" fill="#e1e1e1"/>
  </g>
</svg>
