<svg id="bell" xmlns="http://www.w3.org/2000/svg" width="14.465" height="17.483" viewBox="0 0 14.465 17.483">
  <g id="Grupo_16110" data-name="Grupo 16110">
    <path id="Trazado_1946" data-name="Trazado 1946" d="M58.626,13.007a.683.683,0,0,0-1.343.252.683.683,0,0,1-.671.81H46.246a.683.683,0,0,1-.671-.81,7.047,7.047,0,0,1,.958-2.371,5.4,5.4,0,0,0,.929-2.9V6.966a3.976,3.976,0,0,1,3.9-3.961h.129a3.97,3.97,0,0,1,3.89,3.961V7.99a4.832,4.832,0,0,0,.686,2.442.683.683,0,1,0,1.2-.65,3.477,3.477,0,0,1-.522-1.792V6.966a5.334,5.334,0,0,0-4.644-5.285v-1a.683.683,0,1,0-1.366,0v1A5.352,5.352,0,0,0,46.1,6.966V7.99a4.118,4.118,0,0,1-.748,2.219,8.3,8.3,0,0,0-1.115,2.8,2.049,2.049,0,0,0,2.014,2.427h3.141a2.049,2.049,0,1,0,4.1,0h3.128a2.049,2.049,0,0,0,2.014-2.427Zm-7.19,3.11a.684.684,0,0,1-.683-.683h1.366A.684.684,0,0,1,51.436,16.117Z" transform="translate(-44.197)" fill="#374eee"/>
  </g>
</svg>
