<svg xmlns="http://www.w3.org/2000/svg" width="20.662" height="20.662" viewBox="0 0 20.662 20.662">
  <g id="Grupo_16112" data-name="Grupo 16112" transform="translate(0.25 0.25)">
    <g id="verified_2_" data-name="verified (2)">
      <path id="Trazado_1950" data-name="Trazado 1950" d="M16.461,10.921a5.461,5.461,0,1,1,5.461-5.461A5.467,5.467,0,0,1,16.461,10.921Zm0-10.081a4.621,4.621,0,1,0,4.621,4.621A4.625,4.625,0,0,0,16.461.84Z" transform="translate(-1.759)" fill="#cacde8" stroke="#cacde8" stroke-width="0.5"/>
      <path id="Trazado_1951" data-name="Trazado 1951" d="M16.1,8.2a.425.425,0,0,1-.3-.123L14.123,6.4a.42.42,0,0,1,.594-.594l1.363,1.363,2.645-3.023a.42.42,0,0,1,.633.554l-2.94,3.36a.419.419,0,0,1-.3.143Z" transform="translate(-2.239 -0.64)" fill="#cacde8" stroke="#cacde8" stroke-width="0.5"/>
      <path id="Trazado_1955" data-name="Trazado 1955" d="M14.7,20.162H2.1a2.1,2.1,0,0,1-2.1-2.1V2.1A2.1,2.1,0,0,1,2.1,0H7.981a.42.42,0,1,1,0,.84H2.1A1.262,1.262,0,0,0,.84,2.1V18.062a1.262,1.262,0,0,0,1.26,1.26H14.7a1.262,1.262,0,0,0,1.26-1.26V13.021a.42.42,0,0,1,.84,0v5.041A2.1,2.1,0,0,1,14.7,20.162Z" fill="#cacde8" stroke="#cacde8" stroke-width="0.5"/>
    </g>
    <line id="Línea_6" data-name="Línea 6" x2="8.401" transform="translate(3.781 13.021)" fill="none" stroke="#cacde8" stroke-linecap="round" stroke-width="1.3"/>
    <line id="Línea_7" data-name="Línea 7" x2="8.401" transform="translate(3.781 16.382)" fill="none" stroke="#cacde8" stroke-linecap="round" stroke-width="1.3"/>
  </g>
</svg>
