<svg xmlns="http://www.w3.org/2000/svg" width="23.162" height="23.163" viewBox="0 0 23.162 23.163">
  <path id="home_4_" data-name="home (4)" d="M12.034,22.257a.9.9,0,0,1-.9.9H.9a.9.9,0,0,1-.9-.9V9.8a.9.9,0,0,1,.326-.7L11,.209a.9.9,0,0,1,1.159,0l10.676,8.9a.9.9,0,1,1-1.159,1.39l-10.1-8.414L1.81,10.225V21.352h9.319a.9.9,0,0,1,.9.9Zm9.7-2.448a13.487,13.487,0,0,1-4.406,3.257.905.905,0,0,1-.809,0,13.484,13.484,0,0,1-4.406-3.257c-2.947-3.553-.895-7.473,2.141-7.473a4.167,4.167,0,0,1,2.669.96,4.167,4.167,0,0,1,2.669-.96C22.631,12.336,24.67,16.265,21.73,19.809Zm-2.142-5.664a2.442,2.442,0,0,0-1.915.948.9.9,0,0,1-1.506,0,2.432,2.432,0,0,0-1.917-.951c-1.95,0-3.625,3.758,2.669,7.094,6.294-3.336,4.62-7.094,2.669-7.094Zm0,0" transform="translate(0 0.001)" fill="#374eee"/>
</svg>
