<svg id="Grupo_7" data-name="Grupo 7" xmlns="http://www.w3.org/2000/svg" xmlns:xlink="http://www.w3.org/1999/xlink" width="78.05" height="82.105" viewBox="0 0 78.05 82.105">
  <defs>
    <clipPath id="clip-path">
      <rect id="Rectángulo_3" data-name="Rectángulo 3" width="78.05" height="82.105" fill="none"/>
    </clipPath>
  </defs>
  <g id="Grupo_6" data-name="Grupo 6" clip-path="url(#clip-path)">
    <path id="Trazado_5" data-name="Trazado 5" d="M55.15,47.821c4.812-.507,9.494-3.036,13.538-7.463a2.844,2.844,0,0,0,.636-2.405c5.439-6.577,8.726-15.56,8.726-22.52,0-10.753-5.056-11.89-13.659-13.662V1.646A3.352,3.352,0,0,0,61.48,0a3.111,3.111,0,0,0-3.165,3.037A3.109,3.109,0,0,0,61.48,6.071a2.583,2.583,0,0,0,1.9-.758l.121.126c8.351,1.772,10.5,2.154,10.5,9.995,0,6.075-3.033,14.295-7.844,20.244a2.985,2.985,0,0,0-2.155.885c-2.4,2.656-6.319,5.819-10.878,5.819-4.681,0-8.472-3.162-10.878-5.692A3.132,3.132,0,0,0,40.1,35.678c-4.8-5.949-7.967-14.169-7.967-20.244,0-7.841,2.275-8.222,10.625-9.995V5.313a2.875,2.875,0,0,0,2.023.758,3.108,3.108,0,0,0,3.164-3.034A3.11,3.11,0,0,0,44.778,0a3.078,3.078,0,0,0-2.911,1.646h-.122c-8.473,1.9-13.66,2.909-13.66,13.788,0,6.96,3.286,15.943,8.848,22.646a2.584,2.584,0,0,0,.636,2.279c4.046,4.3,8.6,6.83,13.286,7.463l-.131,13.661c0,9.362-8.22,16.954-18.218,16.954S14.417,70.844,14.417,61.482V49.467c5.823-.887,10.251-5.44,10.251-11.134,0-6.325-5.57-11.385-12.4-11.385C5.561,26.948,0,32.008,0,38.333,0,44.026,4.55,48.58,10.24,49.467V61.482c0,11.388,10,20.623,22.264,20.623,12.4,0,22.392-9.235,22.392-20.623V47.821Z" transform="translate(0 0)" fill="#374eee" fill-rule="evenodd"/>
    <path id="Trazado_6" data-name="Trazado 6" d="M19.855,101.922h0c4.557,0,8.228-3.417,8.228-7.591,0-4.3-3.671-7.591-8.228-7.591a7.814,7.814,0,0,0-8.1,7.591,7.9,7.9,0,0,0,8.1,7.591" transform="translate(-7.59 -55.998)" fill="#fefefe" fill-rule="evenodd"/>
    <path id="Trazado_7" data-name="Trazado 7" d="M23.431,92.1h0a5.809,5.809,0,0,1,5.944,5.693,5.914,5.914,0,0,1-5.944,5.82,5.83,5.83,0,0,1-5.944-5.82A5.728,5.728,0,0,1,23.431,92.1" transform="translate(-11.289 -59.456)" fill="#8adaff" fill-rule="evenodd"/>
  </g>
</svg>
