<svg id="money-box" xmlns="http://www.w3.org/2000/svg" width="24.162" height="22.652" viewBox="0 0 24.162 22.652">
  <path id="Trazado_1947" data-name="Trazado 1947" d="M334.124,78.832a.708.708,0,1,1,.653-.983l1.3-.552a2.124,2.124,0,1,0-1.957,2.951.708.708,0,1,1-.652.983l-1.3.552a2.124,2.124,0,1,0,1.956-2.951Z" transform="translate(-316.332 -73.168)" fill="#cacde8"/>
  <path id="Trazado_1948" data-name="Trazado 1948" d="M24.162,22.371a6.371,6.371,0,1,0-12.7.708H8.542a6.941,6.941,0,0,0-2.843.6,4.911,4.911,0,0,0-2.341-.6H1.189L2.4,26.715c-.121.211-.225.412-.316.611H0v5.663H2.081a7.1,7.1,0,0,0,2.627,3.09,2.185,2.185,0,0,1,1,1.841v.732H9.958V37.236H14.2v1.416h4.247v-.708a5.059,5.059,0,0,1,1.18-3.245,7.038,7.038,0,0,0,1.282-6.777,6.375,6.375,0,0,0,3.248-5.551ZM18.548,33.79a6.478,6.478,0,0,0-1.472,3.447H15.621V35.666c-.005,0-1.366.155-1.416.155H8.542v1.416H7.061a3.6,3.6,0,0,0-1.584-2.346,5.917,5.917,0,0,1-2.417-3.317H1.416V28.742H3.061l.167-.471a7.122,7.122,0,0,1,.724-1.38l-.8-2.4h.2a3.911,3.911,0,0,1,2.265.8,5.869,5.869,0,0,1,2.92-.8h3.243a6.372,6.372,0,0,0,7.822,3.983A5.625,5.625,0,0,1,18.548,33.79Zm-.756-6.464a4.955,4.955,0,1,1,4.955-4.955A4.961,4.961,0,0,1,17.791,27.326Z" transform="translate(0 -16)" fill="#cacde8"/>
  <path id="Trazado_1949" data-name="Trazado 1949" d="M121,256h1.416v1.416H121Z" transform="translate(-115.29 -244.674)" fill="#cacde8"/>
</svg>
