<svg xmlns="http://www.w3.org/2000/svg" width="262" height="245.035" viewBox="0 0 262 245.035">
  <g id="undraw_personal_finance_tqcd_1_" data-name="undraw_personal_finance_tqcd (1)" transform="translate(0 0)">
    <path id="Trazado_8" data-name="Trazado 8" d="M827.513,604.414s32.413,1.676,24.863,11.879-27.388-5.985-27.388-5.985Z" transform="translate(-618.84 -430.32)" fill="#ffb8b8"/>
    <path id="Trazado_9" data-name="Trazado 9" d="M632.889,313.448l6.6,1.649s3.848,11.546,6.6,21.992,8.247,41.784,8.247,41.784l42.623,29.872-5.084,11.372-56.782-22.379-12.645-49.653Z" transform="translate(-483.947 -236.541)" fill="#575a89"/>
    <path id="Trazado_10" data-name="Trazado 10" d="M439.859,291.607,437.4,343.1l5.131,15.31L427.5,347.387Z" transform="translate(-284.709 -194.206)" opacity="0.2"/>
    <path id="Trazado_11" data-name="Trazado 11" d="M546.73,634.16s7.147,19.242,8.247,32.438,2.2,23.641,2.2,23.641H523.638l-6.6-9.9v9.9H478.006s-11-35.736-6.6-40.134,46.182-23.091,46.182-23.091Z" transform="translate(-382.668 -445.371)" fill="#2f2e41"/>
    <rect id="Rectángulo_4" data-name="Rectángulo 4" width="194.062" height="0.668" transform="translate(33.902 244.367)" fill="#3f3d56"/>
    <circle id="Elipse_1" data-name="Elipse 1" cx="20.892" cy="20.892" r="20.892" transform="translate(101.11 14.231)" fill="#ffb8b8"/>
    <path id="Trazado_12" data-name="Trazado 12" d="M522.039,214.688l-1.649,24.191,20.892,28.039,10.446-26.39s-9.346-6.048-3.848-18.693Z" transform="translate(-415.981 -170.768)" fill="#ffb8b8"/>
    <path id="Trazado_13" data-name="Trazado 13" d="M517.293,392.942c0,4.95-13.745,12.646-13.745,12.646v2.749l-5.5,2.749L485.955,386.9l-3.3,26.387s-24.193,3.851-31.888,0-11.547-2.2-22.543-6.046,4.4-55.53,4.4-55.53l-11-79.719,24.022-12.011,1.266-.635,3.3-.608,5.064-.935,16.924,11.44,1.363,7.148.838,4.4,4.4-4.95,3.32-10.919,23.621,13.12-6.6,52.778S517.293,388,517.293,392.942Z" transform="translate(-350.209 -199.48)" fill="#575a89"/>
    <path id="Trazado_14" data-name="Trazado 14" d="M455.11,713.428s25.29,20.342,13.2,24.191-18.693-20.892-18.693-20.892Z" transform="translate(-368.844 -502.922)" fill="#ffb8b8"/>
    <path id="Trazado_15" data-name="Trazado 15" d="M394.241,301.38l-5.5-1.1s-8.247,4.4-8.8,13.195-7.7,70.373-7.7,70.373l23.091,62.126,18.693-7.147-18.143-58.278,13.745-50.581Z" transform="translate(-317.322 -227.771)" fill="#575a89"/>
    <circle id="Elipse_2" data-name="Elipse 2" cx="2.004" cy="2.004" r="2.004" transform="translate(122.416 86.378)" fill="#2f2e41"/>
    <circle id="Elipse_3" data-name="Elipse 3" cx="2.004" cy="2.004" r="2.004" transform="translate(122.416 99.405)" fill="#2f2e41"/>
    <circle id="Elipse_4" data-name="Elipse 4" cx="2.004" cy="2.004" r="2.004" transform="translate(133.772 185.247)" fill="#2f2e41"/>
    <path id="Trazado_16" data-name="Trazado 16" d="M509.352,96.917l-3.862-1.546s8.075-8.89,19.31-8.117l-3.16-3.479s7.724-3.092,14.746,5.025c3.691,4.267,7.962,9.283,10.625,14.933h4.136l-1.726,3.8,6.042,3.8-6.2-.683a21.235,21.235,0,0,1,.168,6.3,8.157,8.157,0,0,1-2.987,5.336h0s-4.79-9.914-4.79-11.46V114.7s-3.862-3.479-3.862-5.8l-2.106,2.706H521.64l2.106-3.479-8.075,1.16,3.16-4.252-12.5,17.557S499.17,102.715,509.352,96.917Z" transform="translate(-404.988 -83.197)" fill="#2f2e41"/>
    <circle id="Elipse_5" data-name="Elipse 5" cx="33.401" cy="33.401" r="33.401" transform="translate(195.197 94.708)" fill="#3f3d56"/>
    <circle id="Elipse_6" data-name="Elipse 6" cx="28.725" cy="28.725" r="28.725" transform="translate(199.873 99.384)" opacity="0.1"/>
    <path id="Trazado_17" data-name="Trazado 17" d="M876.962,449.727v-4.181a9.709,9.709,0,0,1-5.575-1.821l.875-2.773a8.912,8.912,0,0,0,5.247,1.78,4.019,4.019,0,0,0,4.336-4.057c0-2.277-1.421-3.684-4.118-4.926-3.717-1.656-6.012-3.56-6.012-7.161a6.509,6.509,0,0,1,5.5-6.665v-4.181h2.259v4.015a8.865,8.865,0,0,1,4.737,1.449l-.911,2.732a8.052,8.052,0,0,0-4.591-1.407,3.5,3.5,0,0,0-3.862,3.56c0,2.153,1.348,3.229,4.518,4.719,3.753,1.739,5.648,3.891,5.648,7.575a6.927,6.927,0,0,1-5.757,7.037v4.305Z" transform="translate(-649.74 -304.667)" fill="#374eee"/>
    <path id="Trazado_18" data-name="Trazado 18" d="M250.005,501.5l13.359,41.729L252.675,499.8Z" transform="translate(-166.5 -332.862)" opacity="0.2"/>
    <path id="Trazado_19" data-name="Trazado 19" d="M234.208,314.137h-8.479a1.4,1.4,0,0,1-1.394-1.394V300.554a1.4,1.4,0,0,1,1.394-1.394h8.48a1.4,1.4,0,0,1,1.394,1.394v12.189A1.4,1.4,0,0,1,234.208,314.137Zm-8.48-14.309a.727.727,0,0,0-.726.726v12.189a.727.727,0,0,0,.726.726h8.48a.727.727,0,0,0,.726-.726V300.554a.727.727,0,0,0-.726-.726Z" transform="translate(-218.812 -227.025)" fill="#3f3d56"/>
    <path id="Trazado_20" data-name="Trazado 20" d="M281.4,287.72h-7.658a1.807,1.807,0,0,1-1.8-1.8V261.3a1.807,1.807,0,0,1,1.8-1.8H281.4a1.807,1.807,0,0,1,1.8,1.8v24.617A1.807,1.807,0,0,1,281.4,287.72Zm-7.658-27.558A1.138,1.138,0,0,0,272.6,261.3v24.617a1.138,1.138,0,0,0,1.137,1.137H281.4a1.138,1.138,0,0,0,1.137-1.137V261.3a1.138,1.138,0,0,0-1.137-1.137Z" transform="translate(-250.513 -200.608)" fill="#3f3d56"/>
    <path id="Trazado_21" data-name="Trazado 21" d="M328.7,263.416h-7.066a2.1,2.1,0,0,1-2.1-2.1V225.1a2.1,2.1,0,0,1,2.1-2.1H328.7a2.1,2.1,0,0,1,2.1,2.1v36.214A2.1,2.1,0,0,1,328.7,263.416Zm-7.066-39.748A1.434,1.434,0,0,0,320.2,225.1v36.214a1.434,1.434,0,0,0,1.433,1.433H328.7a1.434,1.434,0,0,0,1.433-1.433V225.1a1.434,1.434,0,0,0-1.433-1.433Z" transform="translate(-282.214 -176.304)" fill="#3f3d56"/>
    <rect id="Rectángulo_5" data-name="Rectángulo 5" width="6.36" height="10.334" transform="translate(7.976 74.456)" fill="#374eee"/>
    <rect id="Rectángulo_6" data-name="Rectángulo 6" width="6.36" height="23.451" transform="translate(23.875 61.339)" fill="#374eee"/>
    <rect id="Rectángulo_7" data-name="Rectángulo 7" width="6.36" height="35.64" transform="translate(39.774 49.15)" fill="#374eee"/>
    <path id="Trazado_22" data-name="Trazado 22" d="M841.559,137.76H797.135a.334.334,0,0,1-.334-.334V92.334a.334.334,0,1,1,.668,0v44.758h44.09a.334.334,0,1,1,0,.668Z" transform="translate(-600.067 -89.06)" fill="#3f3d56"/>
    <path id="Trazado_23" data-name="Trazado 23" d="M260.909,252.108H208.135a.334.334,0,0,1-.334-.334v-52.44a.334.334,0,1,1,.668,0V251.44h52.44a.334.334,0,0,1,0,.668Z" transform="translate(-207.801 -160.32)" fill="#3f3d56"/>
    <path id="Trazado_24" data-name="Trazado 24" d="M824.013,186.6h-8.48a1.4,1.4,0,0,1-1.394-1.394V173.022a1.4,1.4,0,0,1,1.394-1.394h8.48a1.4,1.4,0,0,1,1.394,1.394v12.189A1.4,1.4,0,0,1,824.013,186.6Zm-8.48-14.309a.727.727,0,0,0-.726.726v12.189a.727.727,0,0,0,.726.726h8.48a.727.727,0,0,0,.726-.726V173.022a.727.727,0,0,0-.726-.726Z" transform="translate(-611.614 -142.09)" fill="#3f3d56"/>
    <path id="Trazado_25" data-name="Trazado 25" d="M876.675,165.541h-7.8a1.733,1.733,0,0,1-1.731-1.732V141.732A1.733,1.733,0,0,1,868.871,140h7.8a1.733,1.733,0,0,1,1.732,1.731V163.81A1.733,1.733,0,0,1,876.675,165.541Zm-7.8-24.873a1.065,1.065,0,0,0-1.063,1.063V163.81a1.065,1.065,0,0,0,1.063,1.064h7.8a1.064,1.064,0,0,0,1.063-1.064V141.732a1.064,1.064,0,0,0-1.063-1.064Z" transform="translate(-646.911 -121.027)" fill="#3f3d56"/>
    <rect id="Rectángulo_8" data-name="Rectángulo 8" width="6.36" height="10.334" transform="translate(204.827 31.974)" fill="#374eee"/>
    <rect id="Rectángulo_9" data-name="Rectángulo 9" width="6.36" height="19.995" transform="translate(222.682 21.746)" fill="#374eee"/>
    <circle id="Elipse_7" data-name="Elipse 7" cx="3.006" cy="3.006" r="3.006" transform="translate(205.084 19.975)" fill="#374eee"/>
    <circle id="Elipse_8" data-name="Elipse 8" cx="3.006" cy="3.006" r="3.006" transform="translate(222.787 8.619)" fill="#374eee"/>
  </g>
</svg>
