<svg id="Capa_1" data-name="Capa 1" xmlns="http://www.w3.org/2000/svg" viewBox="0 0 27 27"><path d="M13.59,0a.92.92,0,0,1,.55.21,1.07,1.07,0,0,1-.68,1.86h-.11a11.54,11.54,0,0,0-8,3.44A11.68,11.68,0,0,0,3.41,18.9a11.61,11.61,0,0,0,8.27,5.9A11.66,11.66,0,0,0,23.54,19,11.61,11.61,0,0,0,23,7.09a11.46,11.46,0,0,0-5.54-4.32l-.09,0a.83.83,0,0,1-.43-.39,1.06,1.06,0,0,1,1.3-1.5A13.71,13.71,0,0,1,27,12.72a13.72,13.72,0,0,1-4.77,11.11,13.7,13.7,0,0,1-13,2.49,13.73,13.73,0,0,1-9-10.54A13.77,13.77,0,0,1,5.94,2.31,13.57,13.57,0,0,1,13.49,0ZM19.46,6.6a.8.8,0,0,1,.4.11A1.08,1.08,0,0,1,20.36,8l-.05.13-3.8,8a.9.9,0,0,1-.49.49l-7.95,3.8a.84.84,0,0,1-.81,0,1.08,1.08,0,0,1-.63-1.3l0-.13,3.8-8a.9.9,0,0,1,.49-.49l8-3.8A1.23,1.23,0,0,1,19.46,6.6ZM12.2,12.21l-2.38,5,5-2.37,2.38-5Z" transform="translate(0)" fill="#fff"/></svg>