<svg width="17" height="18" viewBox="0 0 17 18" fill="none" xmlns="http://www.w3.org/2000/svg">
<path d="M1.926 3.88354C6.31 4.03882 10.6887 4.03882 15.062 3.88354C17.638 3.80591 17.654 -0.0759875 15.062 0.00165039C10.6993 0.136223 6.32067 0.136223 1.926 0.00165039C-0.649995 -0.091515 -0.633995 3.79038 1.926 3.88354Z" fill="white"/>
<path d="M6.02703 11H13.973C14.5106 11 15.0262 10.7893 15.4063 10.4142C15.7864 10.0391 16 9.53043 16 9C16 8.46957 15.7864 7.96086 15.4063 7.58579C15.0262 7.21071 14.5106 7 13.973 7H6.02703C5.48943 7 4.97384 7.21071 4.5937 7.58579C4.21356 7.96086 4 8.46957 4 9C4 9.53043 4.21356 10.0391 4.5937 10.4142C4.97384 10.7893 5.48943 11 6.02703 11Z" fill="white"/>
<path d="M9.9305 17.891L14.0695 18C14.5815 18 15.0725 17.795 15.4346 17.4302C15.7966 17.0653 16 16.5705 16 16.0545C16 15.5385 15.7966 15.0436 15.4346 14.6788C15.0725 14.3139 14.5815 14.109 14.0695 14.109L9.9305 14C9.4185 14 8.92747 14.205 8.56543 14.5698C8.20339 14.9347 8 15.4295 8 15.9455C8 16.4615 8.20339 16.9564 8.56543 17.3212C8.92747 17.6861 9.4185 17.891 9.9305 17.891Z" fill="white"/>
</svg>
