<svg id="Capa_1" data-name="Capa 1" xmlns="http://www.w3.org/2000/svg" viewBox="0 0 41 27"><path d="M34.1,10.45a9.72,9.72,0,0,1,.14,3.07c3.59,2.26,4.21,3.63,4.18,3.85,0,0-.68.81-4.62.53-.51,0-1-.09-1.59-.16a13.27,13.27,0,0,0,.69-4.24A13.73,13.73,0,0,0,6.45,8.57C3.14,6.43,2.56,5.14,2.58,4.92c0,0,.58-.86,4.51-.58A7.19,7.19,0,0,1,9.34,2C8.78,1.94,8,1.91,7.39,1.86,3.16,1.56.79,2.28.15,4.07s.94,4.09,5,6.67l.6.38A13.33,13.33,0,0,0,5.5,13.5a13.74,13.74,0,0,0,25.62,6.65c.87.13,1.71.22,2.49.28,4.23.3,6.6-.42,7.24-2.21C41.74,15.74,38.48,12.93,34.1,10.45ZM19.2,24.39a11,11,0,0,1-11-10.89c0-.33,0-.65,0-1a73.26,73.26,0,0,0,8.45,3.75,5,5,0,0,1,.88-2.39,66.38,66.38,0,0,1-8.76-4A11.07,11.07,0,0,1,30.25,13.5a10.79,10.79,0,0,1-.7,3.82c-.91-.17-1.85-.37-2.82-.61v0a4.9,4.9,0,0,1-.65,2.43c.76.18,1.5.35,2.22.49A11.09,11.09,0,0,1,19.2,24.39Z" transform="translate(0)" fill="#575568"/></svg>