<svg id="Capa_1" data-name="Capa 1" xmlns="http://www.w3.org/2000/svg" xmlns:xlink="http://www.w3.org/1999/xlink" viewBox="0 0 376.7 242.1"><defs><clipPath id="clip-path" transform="translate(-51.71 -49.67)"><rect x="-2" width="416" height="311" fill="none"/></clipPath></defs><g clip-path="url(#clip-path)"><path d="M160.66,243.9a12.81,12.81,0,0,1-3.49,7.21c-.34.36.21.9.55.54a13.51,13.51,0,0,0,3.66-7.57C161.46,243.62,160.71,243.41,160.66,243.9Z" transform="translate(-51.71 -49.67)" fill="#e8e8e8"/><path d="M160.76,244.34a23.94,23.94,0,0,0,3.9,6.09c.34.39.88-.18.55-.54a21.68,21.68,0,0,1-3.77-5.94C161.25,243.49,160.58,243.88,160.76,244.34Z" transform="translate(-51.71 -49.67)" fill="#e8e8e8"/><path d="M157.93,251.49c0-.05-.08-.12-.11-.18l-.62.47a16.41,16.41,0,0,1,4,5.18c.21.44.88.06.67-.38a16.91,16.91,0,0,0-4.13-5.37.4.4,0,0,0-.62.47,1.62,1.62,0,0,0,.1.18C157.48,252.32,158.16,251.94,157.93,251.49Z" transform="translate(-51.71 -49.67)" fill="#e8e8e8"/><path d="M162,256.73a35,35,0,0,1,3.15-6c.26-.41-.39-.8-.68-.39a36.54,36.54,0,0,0-3.22,6.25C161.05,257,161.8,257.2,162,256.73Z" transform="translate(-51.71 -49.67)" fill="#e8e8e8"/><path d="M72.23,158a23.34,23.34,0,0,1-3.64,7.34c-.31.38.23.93.55.54A24.78,24.78,0,0,0,73,158.17C73.14,157.7,72.39,157.5,72.23,158Z" transform="translate(-51.71 -49.67)" fill="#e8e8e8"/><path d="M72.23,158.17c.57,1.27.75,2.75,1.2,4.07a30,30,0,0,0,1.48,3.58c.21.44.88.05.67-.39a31.69,31.69,0,0,1-1.69-4.28,29.61,29.61,0,0,0-1-3.37C72.7,157.31,72.05,157.73,72.23,158.17Z" transform="translate(-51.71 -49.67)" fill="#e8e8e8"/><path d="M68.77,165.82c.76.31,1.28,1.78,1.59,2.48a16.35,16.35,0,0,1,1.06,3.14.39.39,0,0,0,.76-.21,20,20,0,0,0-1.41-3.86c-.41-.86-.85-1.92-1.79-2.31C68.51,164.86,68.33,165.61,68.77,165.82Z" transform="translate(-51.71 -49.67)" fill="#e8e8e8"/><path d="M72.2,171.59a44.16,44.16,0,0,1,3.18-5.75c.28-.41-.39-.8-.68-.39a43.57,43.57,0,0,0-3.17,5.76C71.32,171.67,72,172.06,72.2,171.59Z" transform="translate(-51.71 -49.67)" fill="#e8e8e8"/><path d="M104.6,113.8a14.69,14.69,0,0,1-3,5.68c-.34.38.23.93.54.54a15.26,15.26,0,0,0,3.25-6A.39.39,0,0,0,104.6,113.8Z" transform="translate(-51.71 -49.67)" fill="#e8e8e8"/><path d="M104.55,114.19c.47,1.94.93,4.22,2.23,5.8.32.39.86-.15.55-.54-1.2-1.42-1.61-3.68-2-5.44C105.2,113.49,104.44,113.7,104.55,114.19Z" transform="translate(-51.71 -49.67)" fill="#e8e8e8"/><path d="M101.38,120.23c.7.39,1.27,1.94,1.61,2.67a18.38,18.38,0,0,1,1.12,3,.39.39,0,0,0,.75-.21,22.45,22.45,0,0,0-1.38-3.6c-.39-.8-.88-2.13-1.71-2.59C101.32,119.32,100.93,120,101.38,120.23Z" transform="translate(-51.71 -49.67)" fill="#e8e8e8"/><path d="M104.91,125.75a38.09,38.09,0,0,1,2.42-5.7c.23-.44-.44-.83-.68-.39a40.5,40.5,0,0,0-2.49,5.88C104,126,104.76,126.21,104.91,125.75Z" transform="translate(-51.71 -49.67)" fill="#e8e8e8"/><path d="M268.11,187.12a8.53,8.53,0,0,1-2.47,3.91c-.39.31.16.86.55.55a9.15,9.15,0,0,0,2.65-4.25C269.05,186.86,268.3,186.65,268.11,187.12Z" transform="translate(-51.71 -49.67)" fill="#e8e8e8"/><path d="M268.4,187.51a11,11,0,0,0,1.82,3.62c.29.39,1,0,.68-.38a10.71,10.71,0,0,1-1.75-3.45A.39.39,0,0,0,268.4,187.51Z" transform="translate(-51.71 -49.67)" fill="#e8e8e8"/><path d="M265.8,191.65a9.83,9.83,0,0,1,1.82,3.55.39.39,0,0,0,.75-.2,10.77,10.77,0,0,0-2-3.92C266,190.72,265.49,191.26,265.8,191.65Z" transform="translate(-51.71 -49.67)" fill="#e8e8e8"/><path d="M268.35,195.46A22.09,22.09,0,0,1,271,191c.31-.39-.37-.78-.68-.39a21.44,21.44,0,0,0-2.6,4.43C267.46,195.51,268.14,195.9,268.35,195.46Z" transform="translate(-51.71 -49.67)" fill="#e8e8e8"/><path d="M315.28,247.32a12.39,12.39,0,0,1-2.39,4.15c-.34.39.23.93.54.54a13.1,13.1,0,0,0,2.6-4.48C316.19,247.06,315.43,246.86,315.28,247.32Z" transform="translate(-51.71 -49.67)" fill="#e8e8e8"/><path d="M315.23,248c.36.68.44,1.48.75,2.2a9.44,9.44,0,0,0,1.09,1.9c.29.38,1,0,.68-.39a7.76,7.76,0,0,1-1.17-2.13,13.9,13.9,0,0,0-.68-2C315.67,247.14,315,247.53,315.23,248Z" transform="translate(-51.71 -49.67)" fill="#e8e8e8"/><path d="M312.91,251.81a11.42,11.42,0,0,1,1.48,3.16.39.39,0,0,0,.71.1,7.07,7.07,0,0,1,2.31-2.72c.42-.28,0-1-.39-.67a8.17,8.17,0,0,0-2.6,3c.23,0,.47.06.7.11a13,13,0,0,0-1.56-3.35C313.3,251,312.63,251.39,312.91,251.81Z" transform="translate(-51.71 -49.67)" fill="#e8e8e8"/><path d="M323.39,142.77l-2.68-1-2.36,1.58.15-2.85-2.26-1.76L319,138l1-2.69,1.56,2.43,2.86.1L322.61,140Z" transform="translate(-51.71 -49.67)" fill="none" stroke="#e8e8e8" stroke-miterlimit="10" stroke-width="3"/><path d="M318.81,133.78a82.43,82.43,0,0,1,14.46-18c.36-.33-.18-.88-.55-.54a82.39,82.39,0,0,0-14.58,18.19A.39.39,0,0,0,318.81,133.78Z" transform="translate(-51.71 -49.67)" fill="#e8e8e8"/><path d="M324.43,132.49A96.63,96.63,0,0,1,348,108.07c.39-.28,0-1-.39-.67a97.27,97.27,0,0,0-23.82,24.7C323.47,132.51,324.14,132.9,324.43,132.49Z" transform="translate(-51.71 -49.67)" fill="#e8e8e8"/><path d="M325.83,140c3.07-3.76,6.35-7.39,9.75-10.83.37-.37-.2-.91-.54-.55-3.43,3.45-6.68,7.08-9.75,10.84C325,139.77,325.52,140.34,325.83,140Z" transform="translate(-51.71 -49.67)" fill="#e8e8e8"/><path d="M236.78,93.35c-2.08-4.22,2.4-8.24,6.24-8.91,4.79-.83,9.78.83,14.56,1.21a70.83,70.83,0,0,0,27.07-3.05,72,72,0,0,0,12.64-5.42c4.31-2.36,8.45-5,12.79-7.33A44.72,44.72,0,0,1,324,64.74a26,26,0,0,1,14.17,1.66A38.52,38.52,0,0,1,350,73.91a10.44,10.44,0,0,1,2.55,12.16c-3.9,8.73-15.16,10.06-23.59,10.39-9.07.36-18.38-.52-27.22,2s-15.62,9.1-23.42,13.79c-8,4.79-17.19,8.09-26.6,7.46-7.93-.51-15.94-4.19-20.91-10.49a23.06,23.06,0,0,1-3-5.08c-.21-.47-.89,0-.68.39,3.25,7.43,10.22,12.57,17.89,14.77,8.87,2.54,18.3.91,26.6-2.72a71.66,71.66,0,0,0,12.92-7.6c4-2.85,7.93-5.85,12.38-7.93,9.41-4.4,20.07-3.5,30.16-3.75,8.39-.21,19.18-.94,24.62-8.35,2.26-3.08,3.35-7.26,2-11-1.51-4-5.41-6.71-8.89-8.94a32.66,32.66,0,0,0-13.18-5.24,30.61,30.61,0,0,0-14.51,1.94c-9.83,3.61-18.05,10.42-27.74,14.31a69.77,69.77,0,0,1-29.54,5,72.22,72.22,0,0,1-8.16-.91,32,32,0,0,0-7.18-.64c-3.74.23-7.41,2.1-8.71,5.8a5.67,5.67,0,0,0,.26,4.46A.41.41,0,0,0,236.78,93.35Z" transform="translate(-51.71 -49.67)" fill="#e8e8e8"/><path d="M248.17,90.27a88.34,88.34,0,0,0,40.07-4c12.37-4.25,23.66-12.72,37-13.84,6.63-.57,13.57.75,18.69,5.21.37.34.94-.21.55-.54C335.19,69,321.78,71,311.3,75.26c-6.4,2.59-12.45,6-18.85,8.61A87.09,87.09,0,0,1,272,89.39a87.71,87.71,0,0,1-23.84.13C247.68,89.41,247.68,90.19,248.17,90.27Z" transform="translate(-51.71 -49.67)" fill="#e8e8e8"/><path d="M268.69,105.25c5.22-.42,9.88-2.83,14.32-5.42,4.86-2.82,9.6-5.7,15.13-7,11.94-2.77,24.37.34,36.35-2.15,5.33-1.11,11.78-4.35,11.26-10.75-.05-.5-.83-.5-.78,0,.52,6.55-6.53,9.28-11.8,10.21-5.78,1-11.68.85-17.5.75-5.62-.1-11.31-.16-16.85,1-5.12,1.06-9.62,3.4-14.09,6-5,2.93-10.14,6.09-16.07,6.56C268.19,104.5,268.19,105.27,268.69,105.25Z" transform="translate(-51.71 -49.67)" fill="#e8e8e8"/><path d="M289.07,111.11c6-4.2,12.43-8.07,19.6-9.88,7.8-2,15.92-1.32,23.85-.7.49,0,.49-.72,0-.78-8-.64-16.2-1.27-24,.73-7.23,1.84-13.73,5.7-19.79,10C288.26,110.74,288.65,111.42,289.07,111.11Z" transform="translate(-51.71 -49.67)" fill="#e8e8e8"/><path d="M125.19,96.62a7.31,7.31,0,0,1-3.33-4.3,4.64,4.64,0,0,1,1.72-4.83c1.56-1.06,3.61-.59,5.38-.72a12.55,12.55,0,0,0,4.14-1c5.9-2.51,9.51-8.11,14-12.41,2.26-2.18,5-4.3,8.11-5,2.91-.65,6.79.05,7.51,3.44.86,4-2.83,6.9-5.72,8.84l-9.9,6.58c-3.59,2.39-7.13,4.9-10.82,7.13-3.43,2.1-7.77,3.76-11.57,1.53a.39.39,0,0,0-.39.67c3.12,1.84,6.84,1.3,10-.2,4-1.92,7.77-4.85,11.49-7.31,3.87-2.57,7.75-5.11,11.62-7.7,2.83-1.89,5.82-4.25,6.16-7.9a5.42,5.42,0,0,0-4.76-5.91c-3.19-.57-6.34.75-8.91,2.54-6.32,4.4-10,12.28-17.42,15.18A12.39,12.39,0,0,1,129,86c-1.15.08-2.29-.05-3.43.08a4.79,4.79,0,0,0-3.93,2.54c-1.74,3.32.34,6.82,3.2,8.66C125.22,97.55,125.61,96.9,125.19,96.62Z" transform="translate(-51.71 -49.67)" fill="#e8e8e8"/><path d="M147.55,65c-.49-3.4,3.77-4.38,6.09-5.47A28.58,28.58,0,0,0,157,57.51c.55-.36,1.09-.73,1.66-1s1.51-.93,2.08-.2c.42.51.24.64,0,1.21-.13.26-.26.55-.42.81a9.3,9.3,0,0,1-1.3,1.84c-1.06,1.11-2.6,1.27-4,1.81A19,19,0,0,0,152,63.47c-1.23.78-2.76,2.51-4.32,1.63a.39.39,0,0,0-.39.68c1.38.77,2.68.07,3.85-.75a19.65,19.65,0,0,1,5.82-2.88,6.27,6.27,0,0,0,3.72-2.88c.55-.85,1.79-2.62,1-3.65s-2.13-.42-3,0c-1.82.93-3.38,2.28-5.23,3.19-2.78,1.34-7.2,2.43-6.63,6.45C146.88,65.72,147.63,65.52,147.55,65Z" transform="translate(-51.71 -49.67)" fill="#e8e8e8"/><path d="M126.52,91.93c-.81-.13-.7-.83-.52-1.3a1.78,1.78,0,0,1,1.3-1,11.69,11.69,0,0,1,2-.28,20.3,20.3,0,0,0,4.22-1.17,29.48,29.48,0,0,0,7.15-4.33c2.47-2,4.7-4.17,7-6.32s4.78-4.8,8.13-4.69l-.39-.39c.29,3-2.52,5.05-4.73,6.61-2.65,1.86-5.28,3.76-7.93,5.62-2.44,1.74-4.86,3.55-7.36,5.19A19.88,19.88,0,0,1,131.43,92c-1.35.5-3.46,1.25-4.57,0-.34-.36-.89.18-.55.54,1.77,2,5.33.37,7.23-.62,3.27-1.68,6.21-4.09,9.23-6.22s6.32-4.38,9.41-6.69c2.11-1.58,4.32-3.68,4.06-6.53a.41.41,0,0,0-.39-.39c-3.51-.1-6.17,2.54-8.53,4.77a80.24,80.24,0,0,1-9.26,8,25.69,25.69,0,0,1-5.15,2.74,30.69,30.69,0,0,1-5.38,1.25c-1.06.21-2.16.7-2.36,1.86a1.59,1.59,0,0,0,1.22,2C126.8,92.76,127,92,126.52,91.93Z" transform="translate(-51.71 -49.67)" fill="#e8e8e8"/><path d="M104.73,134.59a3,3,0,0,0,.78,4c1.77,1.4,3.67-.1,5.17-1.11,1.25-.86,3-1.43,3.9.23.39.78.52,1.68.89,2.49a2.41,2.41,0,0,0,1.25,1.37c1.19.52,2.36-.39,3.58-.21.5.08.71-.67.21-.75a7.79,7.79,0,0,0-2.44.31c-1.46.18-1.85-.77-2.21-1.92s-.7-2.46-1.9-3c-1.53-.68-3.09.41-4.32,1.24-1,.7-2.28,1.58-3.51.83a2.28,2.28,0,0,1-.72-3.06A.4.4,0,0,0,104.73,134.59Z" transform="translate(-51.71 -49.67)" fill="#e8e8e8"/><path d="M119.71,133.06c-.52,1.37.46,2.51,1.71,3,1.09.41,6.81.7,6.5,2.46-.08.49.65.7.76.21.75-4-9.65-1.69-8.22-5.45C120.64,132.8,119.89,132.59,119.71,133.06Z" transform="translate(-51.71 -49.67)" fill="#e8e8e8"/><path d="M132.78,234.6c.5.78,1.33.49,1.69-.26.84-1.69.78-3.68,2.66-4.74s3.19.72,5,.93A4.86,4.86,0,0,0,146,229a19.32,19.32,0,0,0,2.6-4.3c.46-.86,1.09-1.3,2-.6.29.23.52.52.78.75a4.45,4.45,0,0,0,1.22.78,5,5,0,0,0,6.19-2,.39.39,0,0,0-.67-.39,4.11,4.11,0,0,1-3.59,2c-1.72,0-2.39-1-3.67-1.92-2.39-1.71-3.43,2.18-4.31,3.68-1,1.69-2.79,3.37-4.92,2.65-1.19-.42-2.1-1.3-3.46-1.12a4.1,4.1,0,0,0-2.73,1.71,7.79,7.79,0,0,0-.85,1.58c-.16.39-.29.78-.42,1.19-.05.14-.49,1.43-.62,1.25C133.17,233.79,132.5,234.18,132.78,234.6Z" transform="translate(-51.71 -49.67)" fill="#e8e8e8"/><path d="M149.42,231.51c.37-2.92,4.58-.83,6.14-.67a3.22,3.22,0,0,0,3.41-1.66c.46-.91.62-2,1.76-2.41a16.93,16.93,0,0,1,3-.23,11.51,11.51,0,0,0,4.94-2c.42-.29,0-1-.39-.68a11,11,0,0,1-3.38,1.64,21.31,21.31,0,0,1-3.56.39c-1.93.18-2.24,1.4-3,2.9-1.49,2.72-4.61.31-6.84.39a2.75,2.75,0,0,0-2.81,2.33C148.57,232,149.35,232,149.42,231.51Z" transform="translate(-51.71 -49.67)" fill="#e8e8e8"/><path d="M164.37,172.48a5.91,5.91,0,0,1-2,3.88c-.37.34.18.88.54.55a6.69,6.69,0,0,0,2.26-4.43C165.21,172,164.43,172,164.37,172.48Z" transform="translate(-51.71 -49.67)" fill="#e8e8e8"/><path d="M164.71,173.43a5.19,5.19,0,0,0,1.8,3.14c.39.34.93-.23.54-.54a4.57,4.57,0,0,1-1.58-2.8C165.39,172.74,164.63,172.94,164.71,173.43Z" transform="translate(-51.71 -49.67)" fill="#e8e8e8"/><path d="M162.24,177.53a7.25,7.25,0,0,1,1.64,3.47c.1.49.86.29.75-.21a8.39,8.39,0,0,0-1.84-3.8C162.48,176.6,161.93,177.17,162.24,177.53Z" transform="translate(-51.71 -49.67)" fill="#e8e8e8"/><path d="M165.05,180.85a9.56,9.56,0,0,1,1.74-3.53c.31-.39-.23-.93-.54-.54a9.74,9.74,0,0,0-1.95,3.86A.39.39,0,0,0,165.05,180.85Z" transform="translate(-51.71 -49.67)" fill="#e8e8e8"/><path d="M265.85,223.35a2.74,2.74,0,0,0,2.71,2.93c2.73.18,4.36-2.77,6.91-3.24,1.9-.34,2.6,1.17,3.62,2.41a4.63,4.63,0,0,0,2.23,1.48,5,5,0,0,0,5.07-1.35c.34-.36-.21-.91-.54-.55a4.17,4.17,0,0,1-5.26.7c-1.48-.93-1.87-2.95-3.66-3.44-1.61-.44-3.23.46-4.47,1.37a10.22,10.22,0,0,1-2.58,1.58c-1.19.42-3.48.08-3.22-1.71C266.66,223.07,265.93,222.86,265.85,223.35Z" transform="translate(-51.71 -49.67)" fill="#e8e8e8"/><path d="M275.11,231.18a7.18,7.18,0,0,1,6.06-.26c1.43.62,2.49,1.73,4.16,1.66a9.63,9.63,0,0,0,4.08-1.56c1.58-.85,4.65-2,5.48.49.16.47.91.26.76-.2a3.28,3.28,0,0,0-3.1-2.1c-2.13-.06-3.82,1.53-5.72,2.23a4.16,4.16,0,0,1-3.92-.45,9.39,9.39,0,0,0-2.68-1.21,8.17,8.17,0,0,0-5.54.7C274.28,230.74,274.67,231.38,275.11,231.18Z" transform="translate(-51.71 -49.67)" fill="#e8e8e8"/><path d="M244.69,276.66a8.21,8.21,0,0,1-2.32,6.25l.63.46a12.86,12.86,0,0,0,1.61-3.26c.16-.47-.6-.68-.75-.21a11.4,11.4,0,0,1-1.54,3.08c-.26.37.31.78.63.47a9.1,9.1,0,0,0,2.52-6.79C245.44,276.17,244.66,276.17,244.69,276.66Z" transform="translate(-51.71 -49.67)" fill="#e8e8e8"/><path d="M244.71,276.76a11.55,11.55,0,0,0,3,5.65c.34.37.91-.18.55-.54a11,11,0,0,1-2.81-5.31C245.36,276.06,244.61,276.27,244.71,276.76Z" transform="translate(-51.71 -49.67)" fill="#e8e8e8"/><path d="M242.27,284.07a18.71,18.71,0,0,1,3.35,4.95c.21.47.89.06.68-.39a18.53,18.53,0,0,0-3.48-5.1C242.48,283.14,241.93,283.71,242.27,284.07Z" transform="translate(-51.71 -49.67)" fill="#e8e8e8"/><path d="M246.22,289c.83-2,1.69-3.91,2.52-5.88.21-.47-.46-.86-.67-.39-.83,2-1.69,3.91-2.52,5.88C245.36,289.1,246,289.49,246.22,289Z" transform="translate(-51.71 -49.67)" fill="#e8e8e8"/><path d="M178.18,284.18a32.45,32.45,0,0,0,12.45,7.56c.47.16.68-.59.21-.75a31.38,31.38,0,0,1-12.11-7.38C178.39,283.27,177.84,283.81,178.18,284.18Z" transform="translate(-51.71 -49.67)" fill="#e8e8e8"/><path d="M186.73,285.89A32.47,32.47,0,0,0,200,289.8c.49,0,.49-.75,0-.78a30.77,30.77,0,0,1-12.9-3.81C186.71,285,186.32,285.63,186.73,285.89Z" transform="translate(-51.71 -49.67)" fill="#e8e8e8"/><path d="M286.18,179.89a52.46,52.46,0,0,0,4.48,14.72c.2.44.88,0,.67-.39a51,51,0,0,1-4.39-14.54C286.86,179.19,286.11,179.4,286.18,179.89Z" transform="translate(-51.71 -49.67)" fill="#e8e8e8"/><path d="M303.37,165.56a79.58,79.58,0,0,0,4.24,14.38c.18.47.93.26.75-.21a82.68,82.68,0,0,1-4.24-14.38C304,164.86,303.27,165.06,303.37,165.56Z" transform="translate(-51.71 -49.67)" fill="#e8e8e8"/><path d="M308.6,177.37a55.23,55.23,0,0,0,7.33,13.45c.28.39,1,0,.67-.38a55,55,0,0,1-7.25-13.27C309.17,176.7,308.41,176.91,308.6,177.37Z" transform="translate(-51.71 -49.67)" fill="#e8e8e8"/><path d="M191.6,127.33A23.4,23.4,0,0,1,197,116.26c.34-.39-.23-.93-.54-.54a24.18,24.18,0,0,0-5.57,11.4C190.74,127.61,191.49,127.82,191.6,127.33Z" transform="translate(-51.71 -49.67)" fill="#e8e8e8"/><path d="M188.5,127.41a10.87,10.87,0,0,1,2.58-5.65c.33-.39-.24-.94-.55-.55a11.72,11.72,0,0,0-2.78,6C187.67,127.67,188.42,127.9,188.5,127.41Z" transform="translate(-51.71 -49.67)" fill="#e8e8e8"/><path d="M244,50.33a25.13,25.13,0,0,1,5.69,10.81.39.39,0,0,0,.75-.21,25.86,25.86,0,0,0-5.87-11.14C244.22,49.42,243.65,50,244,50.33Z" transform="translate(-51.71 -49.67)" fill="#e8e8e8"/><path d="M250.67,53.65a32.71,32.71,0,0,1,2.78,10.73c.05.49.83.49.78,0a32.77,32.77,0,0,0-2.89-11.12C251.14,52.79,250.46,53.18,250.67,53.65Z" transform="translate(-51.71 -49.67)" fill="#e8e8e8"/><path d="M323.7,87.62a13.5,13.5,0,1,0-13.78-13.5A13.64,13.64,0,0,0,323.7,87.62Z" transform="translate(-51.71 -49.67)" fill="#919191"/><path d="M317.41,124.3a7.62,7.62,0,1,0-7.46-7.62A7.54,7.54,0,0,0,317.41,124.3Z" transform="translate(-51.71 -49.67)" fill="#b7b7b7"/><path d="M92.22,106.41A15.78,15.78,0,1,0,76.08,90.63,16,16,0,0,0,92.22,106.41Z" transform="translate(-51.71 -49.67)" fill="#b7b7b7"/><path d="M282.52,260.57a15,15,0,1,0-15.24-15A15.1,15.1,0,0,0,282.52,260.57Z" transform="translate(-51.71 -49.67)" fill="#b7b7b7"/><path d="M92.43,130.21a.39.39,0,0,0,0-.78A.39.39,0,0,0,92.43,130.21Z" transform="translate(-51.71 -49.67)" fill="#5222d0"/><path d="M92.09,131.37a1.56,1.56,0,0,0,0-3.11A1.56,1.56,0,0,0,92.09,131.37Z" transform="translate(-51.71 -49.67)" fill="#191919"/><path d="M288.63,83.3a1.56,1.56,0,0,0,0-3.11A1.56,1.56,0,0,0,288.63,83.3Z" transform="translate(-51.71 -49.67)" fill="#191919"/><path d="M282.31,185.72a1.56,1.56,0,0,0,0-3.11A1.56,1.56,0,0,0,282.31,185.72Z" transform="translate(-51.71 -49.67)" fill="#191919"/><path d="M59.23,188c-1.66,1.58-.29,4.15,1.77,4.38a5.31,5.31,0,0,0,1.9-.2c.2-.06.54-.21.75-.13,0,0,0-.21,0,.15.13,1-.21,1.82.34,2.78a2.69,2.69,0,0,0,2.39,1.24,7,7,0,0,0,1.43-.31,2.24,2.24,0,0,0,.57-.18c.29,0,.21-.11-.23-.21,0,.1,0,.21.08.31a2.75,2.75,0,0,0,1.69,2.25,2.16,2.16,0,0,0,2.8-.82c1.17-1.64-1.53-3.19-2.7-1.58,1.09.18,1.48-.06,1.22-.68,0-.1,0-.21-.08-.31a3.55,3.55,0,0,0-.41-.93,2.66,2.66,0,0,0-1.67-1.12,4.16,4.16,0,0,0-2,.21l-.88.26c.31.39.47.47.47.23s0-.26,0-.36a3.05,3.05,0,0,0-3.27-4,11.82,11.82,0,0,0-1.17.18l-.65.16a1.15,1.15,0,0,0-.21.93C62.9,188.8,60.69,186.6,59.23,188Z" transform="translate(-51.71 -49.67)" fill="#191919"/><path d="M67.13,187.87c.16.88.34,1.79.5,2.67a1.55,1.55,0,0,0,1.51,1.14,4.29,4.29,0,0,0,2.75-1,.93.93,0,0,1,.42-.18c-.42-.52-.57-.52-.5,0a3.27,3.27,0,0,0,.08,1.21c.55,2.39,3.15,1.71,4.71,3s3.77-.93,2.21-2.2a7.61,7.61,0,0,0-3.23-1.66c.06,0-1.19-.18-.72,0,.07.21.1.24.07.06v-.44a4.21,4.21,0,0,0-.26-1.53,2.61,2.61,0,0,0-2.52-1.53,3.67,3.67,0,0,0-1.56.44c-.47.23-.93.75-1.45.78.49.38,1,.75,1.5,1.14-.15-.89-.33-1.79-.49-2.67C69.76,185.07,66.77,185.9,67.13,187.87Z" transform="translate(-51.71 -49.67)" fill="#191919"/><path d="M156.6,81.33c.47-.63,1-.73,1.56-.26a2,2,0,0,1,.47,1.29,13.15,13.15,0,0,1-.21,1.38,1.15,1.15,0,0,0,.36,1.06c.73.54,1.72-.13,2.16-.73.21-.28.39-.83.68-1,1.14-.75,1.06.34,1.27.81a1.5,1.5,0,0,0,.73.85c1.27.62,2.31-.62,2.91-1.58.26-.41-.41-.8-.67-.39-.39.6-1.38,2.2-2.29.75-.16-.26-.13-.64-.29-.93a1.3,1.3,0,0,0-.93-.73,1.64,1.64,0,0,0-1.3.65c-.47.5-1.72,2.83-1.8.83,0-1.19.26-2.59-1.12-3.19a1.71,1.71,0,0,0-2.34,1A.43.43,0,0,0,156.6,81.33Z" transform="translate(-51.71 -49.67)" fill="#2b2b2b"/><path d="M156.94,78a1.92,1.92,0,0,1,2.81.36c.36.57.1,1.32.49,1.87a.82.82,0,0,0,.94.36,1.9,1.9,0,0,0,.62-.31c.83-.52,1.56-.73,2.34.1.34.37.88-.18.55-.54a2.39,2.39,0,0,0-2.42-.73c-.47.16-1.17.86-1.43.34-.18-.34-.08-.85-.24-1.22a2.69,2.69,0,0,0-4.16-.77C156,77.8,156.57,78.35,156.94,78Z" transform="translate(-51.71 -49.67)" fill="#2b2b2b"/><path d="M258.52,192.54c.26.93.6,4.69,2.42,4,.7-.29,1.09-1.87,1.69-1.79.44,0,.34.24.44.65a7.52,7.52,0,0,0,.36,1,8.91,8.91,0,0,0,.94,1.58c.16.2.55.28.68,0a1.45,1.45,0,0,1,2.8.31c.11.49.86.28.76-.21a2.22,2.22,0,0,0-4.24-.49h.68a7.61,7.61,0,0,1-1-1.82c-.19-.49-.16-1.29-.45-1.73a1,1,0,0,0-1.17-.36c-.67.23-.8.85-1.22,1.34-.15.21-.7.73-1,.55s-.29-.94-.37-1.17c-.18-.7-.39-1.4-.57-2.1C259.14,191.86,258.39,192.07,258.52,192.54Z" transform="translate(-51.71 -49.67)" fill="#2b2b2b"/><path d="M265.36,193.88c.54-1.29,2-.72,2.44.24a2.52,2.52,0,0,0,.7,1.16c1.12.81,2.34-1,3.07.81.65,1.65,2.65,2.41,3.85.72.29-.41-.39-.8-.68-.39a1.34,1.34,0,0,1-1.5.52c-.68-.21-.78-.8-1-1.37a2.43,2.43,0,0,0-.62-1.09,1.3,1.3,0,0,0-1.15-.26c-.23.05-.46.26-.7.31-.86.16-1-.31-1.32-.93a2.09,2.09,0,0,0-3.85.08C264.4,194.14,265.15,194.35,265.36,193.88Z" transform="translate(-51.71 -49.67)" fill="#2b2b2b"/><path d="M342.55,104.78a2.39,2.39,0,0,1,.83-3.78c1.85-.62,3.36,1.81,2.5,3.34a.39.39,0,0,0,.68.39c1.17-2-.73-5.11-3.2-4.54a3.15,3.15,0,0,0-1.38,5.13C342.34,105.66,342.89,105.12,342.55,104.78Z" transform="translate(-51.71 -49.67)" fill="#2b2b2b"/><path d="M139,260c-1.56-1.79-.65-4.92,2-4.82a2.29,2.29,0,0,1,1,4.3c-.44.23,0,.91.39.68a3.07,3.07,0,0,0-1.19-5.73c-3.46-.34-4.84,3.73-2.78,6.11C138.76,260.9,139.31,260.36,139,260Z" transform="translate(-51.71 -49.67)" fill="#2b2b2b"/><path d="M135.57,224c-.89-.7-2.71-2.54-.32-3.08.47-.11.91.1,1.38-.08a2.23,2.23,0,0,0,1.22-2.31,10.18,10.18,0,0,0-.36-1.81c-.16-.7-.47-1.5.52-1.53.18,0,.36.08.57.08a2,2,0,0,0,1.87-1.43c.19-.46-.57-.67-.75-.21-.62,1.72-2.68-.31-3.07,1.66-.28,1.53,1.72,4.7-1,4.85-1.07,0-2,0-2.29,1.3s.73,2.3,1.67,3.05C135.38,224.83,136,224.28,135.57,224Z" transform="translate(-51.71 -49.67)" fill="#2b2b2b"/><path d="M141.34,220.34c-.39-.64-1-1.79-.76-2.59s1.77-.78,2.45-1.35a2.87,2.87,0,0,0,.93-3.05.39.39,0,0,0-.75.2,2,2,0,0,1-.42,2c-.49.54-1,.52-1.66.75a2,2,0,0,0-1.17.88c-.57,1.14.1,2.57.7,3.55C140.92,221.15,141.6,220.76,141.34,220.34Z" transform="translate(-51.71 -49.67)" fill="#2b2b2b"/><path d="M78.24,106.26c-.73.49-2.06,1.53-3,.85s.13-2.64.52-3.39a27.1,27.1,0,0,1,3.2-4.8,66.16,66.16,0,0,1,8.37-8.11c.75-.65-.34-1.73-1.09-1.09-4.08,3.48-8.17,7.13-11,11.77-1,1.58-2.76,4.22-1.66,6.12,1.24,2.15,3.87,1.08,5.43,0C79.85,107,79.07,105.69,78.24,106.26Z" transform="translate(-51.71 -49.67)" fill="#161616"/><path d="M93.11,85.81l7-5.68c.78-.62-.34-1.73-1.09-1.08l-7,5.67C91.21,85.34,92.33,86.43,93.11,85.81Z" transform="translate(-51.71 -49.67)" fill="#161616"/><path d="M106.45,77.05c1.19-.62,5.53-3.16,6.31-1.11.68,1.76-1,4.32-2.05,5.62-.62.78.47,1.87,1.09,1.09,1.56-1.89,3.64-5.39,2.13-7.88-1.71-2.8-6.26-.13-8.29.93C104.76,76.17,105.56,77.52,106.45,77.05Z" transform="translate(-51.71 -49.67)" fill="#161616"/><path d="M84.58,98.85A75.93,75.93,0,0,1,96.38,88c.81-.6,0-1.95-.78-1.35A76.85,76.85,0,0,0,83.49,97.76C82.81,98.48,83.9,99.6,84.58,98.85Z" transform="translate(-51.71 -49.67)" fill="#161616"/><path d="M273.18,232.76c.39-2.91,4.35-1.66,6-.91a28.4,28.4,0,0,1,4.57,2.72,32,32,0,0,1,7.93,8.58,42.65,42.65,0,0,1,5.05,11.45c.52,1.85,3.74,12.89-.86,11.69a.78.78,0,0,0-.42,1.51,3.46,3.46,0,0,0,3.8-1.61c1-1.55.73-3.52.44-5.24a52.12,52.12,0,0,0-3.46-12.36c-3.06-7.28-8.24-13.89-15.36-17.6-1.82-.93-3.95-2-6.06-1.52a3.81,3.81,0,0,0-3.17,3.31C271.49,233.77,273.05,233.74,273.18,232.76Z" transform="translate(-51.71 -49.67)" fill="#161616"/><path d="M290.89,247.38a23.58,23.58,0,0,1,3.85,13.73.78.78,0,0,0,1.56,0,24.69,24.69,0,0,0-4.06-14.51C291.7,245.74,290.34,246.52,290.89,247.38Z" transform="translate(-51.71 -49.67)" fill="#161616"/><path d="M276.38,227.37a11.87,11.87,0,0,1,7,3.42c.7.7,1.82-.39,1.09-1.09a13.47,13.47,0,0,0-8.11-3.89C275.39,225.71,275.39,227.26,276.38,227.37Z" transform="translate(-51.71 -49.67)" fill="#161616"/><path d="M108.45,90.63v.31c0,.21,0,.52,0,.91a17.18,17.18,0,0,1-.57,3.42,18.29,18.29,0,0,1-2.13,5,17.12,17.12,0,0,1-8.5,7q-.51.18-1,.33c-.34.11-.7.21-1,.29-.18,0-.36.07-.54.13a3.33,3.33,0,0,0-.55.1c-.36.08-.73.1-1.12.16s-.75,0-1.12.07-.75,0-1.14,0l-.57,0a5.48,5.48,0,0,1-.57,0c-.39,0-.78-.11-1.17-.16a18.57,18.57,0,0,1-2.32-.54,20.87,20.87,0,0,1-2.26-.86,18.59,18.59,0,0,1-7.51-6.35,17.75,17.75,0,0,1-3.1-9.64A22.46,22.46,0,0,1,73.32,88a21.57,21.57,0,0,1,.52-2.54,22.47,22.47,0,0,1,.91-2.44A19.79,19.79,0,0,1,76,80.81,17.84,17.84,0,0,1,92.93,73a17.36,17.36,0,0,1,4.26,1,17.24,17.24,0,0,1,8.5,7,17,17,0,0,1,2.13,5,15.46,15.46,0,0,1,.55,3.42c0,.39,0,.7,0,.9A1.94,1.94,0,0,1,108.45,90.63Zm-.11,0v-.31a6.77,6.77,0,0,0,0-.91,14.5,14.5,0,0,0-.62-3.37,15.62,15.62,0,0,0-.89-2.28,16.42,16.42,0,0,0-1.45-2.46,17.08,17.08,0,0,0-5-4.61A20.41,20.41,0,0,0,96.88,75a18.06,18.06,0,0,0-4-.9A9.63,9.63,0,0,0,91.78,74H90.69a5.15,5.15,0,0,0-.55,0l-.54,0c-.37,0-.73.08-1.09.13a15.54,15.54,0,0,0-2.21.47c-.37.1-.73.23-1.1.33a4,4,0,0,0-.54.21c-.18.08-.37.13-.55.21a17,17,0,0,0-7.33,5.93,16.41,16.41,0,0,0-2.18,4.38,14.9,14.9,0,0,0-.6,2.41,20.58,20.58,0,0,0-.24,2.49,16.19,16.19,0,0,0,.65,5,18.66,18.66,0,0,0,.89,2.33,15.26,15.26,0,0,0,1.25,2.15,16.27,16.27,0,0,0,3.32,3.6A17,17,0,0,0,84,106.1a15.88,15.88,0,0,0,2.21.73,13,13,0,0,0,2.23.41l1.12.11.55,0h.57l1.09,0c.37,0,.73-.06,1.07-.11a18.11,18.11,0,0,0,4-1,18.22,18.22,0,0,0,8.45-6.35,15.48,15.48,0,0,0,1.45-2.46,14,14,0,0,0,.89-2.28,14.33,14.33,0,0,0,.62-3.37c0-.39,0-.7,0-.9A1.07,1.07,0,0,1,108.34,90.63Z" transform="translate(-51.71 -49.67)" fill="#161616"/><path d="M300.41,247.43s0,.36-.06,1c0,.15,0,.33,0,.54a5.52,5.52,0,0,1-.11.65c-.05.23-.05.49-.13.78s-.13.54-.2.85a14.58,14.58,0,0,1-1.77,4.12c-.24.37-.5.73-.78,1.12a5.75,5.75,0,0,1-.44.54c-.16.18-.32.36-.47.55a1.6,1.6,0,0,1-.26.26l-.26.25-.55.55c-.39.33-.83.65-1.27,1a14.1,14.1,0,0,1-6.55,2.39c-.32.05-.63,0-.94.05a2.48,2.48,0,0,0-.47,0h-.47a14,14,0,0,1-1.89-.21,14.24,14.24,0,0,1-3.83-1.17c-.31-.15-.59-.31-.91-.46l-.44-.26-.44-.29-.44-.28c-.13-.11-.29-.21-.42-.32l-.8-.62a17.42,17.42,0,0,1-2.79-3.08c-.18-.29-.36-.6-.54-.91l-.13-.23c0-.08-.08-.16-.13-.23l-.24-.47-.23-.47c-.08-.15-.13-.34-.21-.49-.13-.34-.26-.65-.36-1a15.24,15.24,0,0,1-.73-4.22l0-1.06a4.52,4.52,0,0,1,0-.52l.08-.55.08-.54,0-.26.06-.26.26-1.06a15.53,15.53,0,0,1,1.79-3.91,15.93,15.93,0,0,1,2.83-3.17c.26-.23.58-.41.84-.64s.28-.21.41-.31l.44-.29.45-.26c.15-.08.28-.18.44-.26.31-.15.62-.31.93-.44a14.34,14.34,0,0,1,3.88-1.11,12.82,12.82,0,0,1,1.95-.16h.26l.23,0,.47,0c.16,0,.31,0,.47,0a1.54,1.54,0,0,1,.47,0l.93.16.47.07.44.11.89.23c.28.08.57.21.83.31a15.56,15.56,0,0,1,3,1.58c.45.32.86.65,1.25,1l.55.54a6468568104924.45,6468568104924.45,0,0,1,.52.52l.47.55c.15.18.31.36.44.54.26.39.54.75.78,1.11a14.46,14.46,0,0,1,1.74,4.13c.08.31.13.59.21.85s.08.52.13.78.08.46.1.65a3.51,3.51,0,0,1,0,.54A10.35,10.35,0,0,1,300.41,247.43Zm-.11,0s0-.37-.05-1c0-.16,0-.34-.05-.55s-.08-.41-.11-.65-.07-.49-.13-.75l-.23-.83c-.05-.15-.08-.31-.13-.44s-.13-.31-.18-.46-.13-.31-.21-.5-.13-.33-.23-.49c-.19-.34-.34-.67-.55-1s-.44-.67-.68-1a14.3,14.3,0,0,0-4.13-3.81,14.73,14.73,0,0,0-2.89-1.35l-.78-.26-.83-.21c-.13,0-.28-.07-.41-.1a3,3,0,0,0-.42-.05l-.86-.13a2,2,0,0,0-.44,0,3.7,3.7,0,0,1-.47,0,2.53,2.53,0,0,1-.47,0h-.44a14.45,14.45,0,0,0-1.82.16c-.31,0-.6.08-.91.15l-.91.24a6.33,6.33,0,0,0-.91.28l-.44.16a1.93,1.93,0,0,0-.44.18l-.89.41a2.75,2.75,0,0,0-.41.24l-.42.23-.41.23c-.13.08-.26.19-.39.29l-.81.57a15.21,15.21,0,0,0-2.7,2.9,15.06,15.06,0,0,0-1.82,3.63l-.29,1-.08.26,0,.26-.08.49-.1.5c0,.15,0,.33-.05.52l-.08,1a15.27,15.27,0,0,0,.52,4.1,13.89,13.89,0,0,0,1.77,3.73c.2.28.41.54.62.83.1.13.21.28.31.39l.34.36.34.36a1,1,0,0,0,.18.18l.18.16c.26.23.52.44.76.67s.54.39.8.6a2,2,0,0,0,.42.28l.44.24.44.23.44.24c.32.12.6.25.89.38s.31.13.44.19l.47.15a6.22,6.22,0,0,0,.91.26l.93.21c.32.05.63.07.91.13a16.54,16.54,0,0,0,1.88.1h.18l.23,0,.44,0c.29,0,.6,0,.89-.08a15.62,15.62,0,0,0,6.21-2.18,14.59,14.59,0,0,0,4.14-3.81c.23-.36.46-.7.67-1s.37-.7.55-1a5.4,5.4,0,0,0,.23-.49c.08-.16.13-.31.21-.49s.13-.31.18-.47.08-.31.13-.44c.08-.28.16-.57.24-.83a5.63,5.63,0,0,0,.13-.75c0-.23.07-.44.1-.65s0-.39.05-.54A5.75,5.75,0,0,0,300.3,247.43Z" transform="translate(-51.71 -49.67)" fill="#161616"/><path d="M323.91,117.19s0,.21,0,.57a1.72,1.72,0,0,1,0,.32,3,3,0,0,0-.05.38c0,.14,0,.29-.06.45s-.07.31-.1.49a8.83,8.83,0,0,1-1,2.38,8.25,8.25,0,0,1-2.29,2.52,8,8,0,0,1-3.82,1.42,3.38,3.38,0,0,1-.55,0h-.57a8.72,8.72,0,0,1-1.09-.13,8.44,8.44,0,0,1-2.21-.73,10.84,10.84,0,0,1-2-1.29,9.85,9.85,0,0,1-1.61-1.79,7.27,7.27,0,0,1-.6-1.06c-.1-.19-.18-.37-.26-.55s-.15-.39-.23-.57a9.5,9.5,0,0,1-.47-2.44,6.44,6.44,0,0,1,.05-1.24,6.33,6.33,0,0,1,.24-1.24,8,8,0,0,1,1-2.28,8.48,8.48,0,0,1,3.69-3.17,7.75,7.75,0,0,1,2.29-.64,9.33,9.33,0,0,1,1.14-.11h.31l.26,0c.18,0,.34,0,.52,0l.57.08a2.5,2.5,0,0,1,.29,0l.26.08a4.94,4.94,0,0,0,.52.13l.49.18a7.55,7.55,0,0,1,1.75,1,8.49,8.49,0,0,1,2.28,2.54,9.4,9.4,0,0,1,1,2.41c0,.18.07.34.1.49a2.47,2.47,0,0,1,.05.44c0,.13,0,.26.05.39s0,.23,0,.31A2.53,2.53,0,0,0,323.91,117.19Zm-.1,0s0-.2,0-.57a1.12,1.12,0,0,0,0-.31,1.84,1.84,0,0,1-.05-.36c0-.13-.05-.28-.08-.44a3.62,3.62,0,0,1-.13-.47l-.07-.25-.11-.26a3.94,3.94,0,0,0-.26-.55c-.1-.18-.21-.36-.31-.57l-.42-.57a8.37,8.37,0,0,0-4-2.8,3.81,3.81,0,0,0-.45-.13c-.15,0-.31-.08-.46-.1l-.24,0a.61.61,0,0,0-.23,0,3.75,3.75,0,0,0-.47,0,2.91,2.91,0,0,0-.52,0h-.49c-.34,0-.68,0-1,.08a8.13,8.13,0,0,0-3.85,1.63,10.63,10.63,0,0,0-1.53,1.61,9.5,9.5,0,0,0-1,2,10.29,10.29,0,0,0-.29,1.09,9.21,9.21,0,0,0-.15,1.16,8.53,8.53,0,0,0,.26,2.31,7.6,7.6,0,0,0,1,2.12,10.66,10.66,0,0,0,.72.91,4.09,4.09,0,0,0,.42.41l.44.37a8,8,0,0,0,1.95,1.09,8.74,8.74,0,0,0,2.08.46c.31,0,.7,0,1.07,0h.26l.26,0c.15,0,.34,0,.49,0a9.59,9.59,0,0,0,3.46-1.2,8.51,8.51,0,0,0,2.37-2.07c.13-.21.28-.39.41-.57l.31-.57c.11-.18.16-.36.26-.54l.11-.26a2.58,2.58,0,0,1,.08-.26c.05-.16.1-.34.13-.47a2.2,2.2,0,0,0,.07-.41,1.77,1.77,0,0,0,.06-.37,1.56,1.56,0,0,0,0-.31A2.88,2.88,0,0,1,323.81,117.19Z" transform="translate(-51.71 -49.67)" fill="#161616"/><path d="M339.54,74.12s0,.34-.06,1a4.7,4.7,0,0,1,0,.52,5.43,5.43,0,0,1-.11.62c-.05.23-.05.47-.1.73s-.13.54-.21.83a14,14,0,0,1-1.69,4c-.21.36-.49.7-.73,1.06a3.18,3.18,0,0,1-.44.52l-.47.55a12.48,12.48,0,0,1-1,1,14.49,14.49,0,0,1-1.22.93,13.71,13.71,0,0,1-6.29,2.31c-.29,0-.6,0-.91,0a3.7,3.7,0,0,0-.47,0h-.47a11.77,11.77,0,0,1-1.82-.2,13.4,13.4,0,0,1-3.66-1.14c-.29-.16-.57-.29-.86-.44a2.48,2.48,0,0,1-.42-.26l-.41-.26-.42-.26c-.13-.1-.26-.21-.39-.29l-.78-.59a16.54,16.54,0,0,1-2.68-3l-.54-.86-.13-.21-.11-.23-.23-.47-.23-.46a4.62,4.62,0,0,1-.19-.47,9.08,9.08,0,0,1-.36-1l-.29-1-.07-.26-.06-.26-.07-.52a5.82,5.82,0,0,1-.13-1l-.08-1,0-1a3.08,3.08,0,0,1,0-.52l.08-.51.08-.52,0-.26.05-.26.24-1a14.76,14.76,0,0,1,1.74-3.76,15.17,15.17,0,0,1,2.73-3c.26-.21.55-.42.81-.62a2.34,2.34,0,0,1,.41-.29L318,62l.41-.26a2.71,2.71,0,0,1,.45-.23c.31-.16.59-.28.88-.44A13.76,13.76,0,0,1,323.47,60a11.8,11.8,0,0,1,1.87-.16h.47c.15,0,.28,0,.44,0l.44,0a1.09,1.09,0,0,1,.44.06c.32,0,.6.1.91.12l.45.08c.15,0,.28.08.41.11l.86.23c.29.08.55.21.81.28a13.15,13.15,0,0,1,2.88,1.53c.42.31.83.63,1.22,1s.73.68,1,1l.47.54a4.56,4.56,0,0,1,.42.52c.26.36.52.73.73,1.06a15.07,15.07,0,0,1,1.69,4c.07.28.13.57.2.83s.08.52.11.72a3.47,3.47,0,0,0,.1.63,3.14,3.14,0,0,1,0,.52C339.51,73.78,339.54,74.12,339.54,74.12Zm-.11,0s0-.34-.05-1c0-.15,0-.33-.05-.52s-.08-.38-.11-.62-.07-.46-.13-.72-.15-.52-.23-.81c-.05-.13-.08-.28-.13-.44a3.14,3.14,0,0,0-.18-.44c-.05-.15-.13-.31-.18-.46a4,4,0,0,0-.21-.47c-.16-.31-.34-.65-.52-1s-.44-.65-.65-1A14.06,14.06,0,0,0,333,63.11a13.69,13.69,0,0,0-2.76-1.3c-.26-.08-.49-.18-.75-.26s-.52-.13-.78-.18-.26-.08-.39-.1a1.74,1.74,0,0,0-.39-.05l-.81-.11a3,3,0,0,0-.42,0,2.22,2.22,0,0,1-.44,0,2.22,2.22,0,0,1-.44,0h-.42c-.57.06-1.17,0-1.74.13a14.19,14.19,0,0,0-3.46,1l-.83.39a2,2,0,0,0-.41.21l-.39.23-.42.23c-.13.08-.26.19-.39.26s-.52.37-.75.55a14.25,14.25,0,0,0-2.6,2.77,15.27,15.27,0,0,0-1.75,3.47,15.11,15.11,0,0,0-.7,3.89,15.33,15.33,0,0,0,.5,3.92,13.6,13.6,0,0,0,1.69,3.57c.18.26.39.52.59.78s.42.49.65.75l.34.36.16.18.18.16c.23.21.49.42.73.65s.52.36.78.57l.39.26.41.23.42.23a1.83,1.83,0,0,0,.42.21l.85.39a1.34,1.34,0,0,0,.45.16l.44.15a5,5,0,0,0,.88.26c.29.08.6.13.89.21l.88.13a13.24,13.24,0,0,0,1.79.1h.19l.2,0c.16,0,.29,0,.45,0s.57,0,.85-.08a15,15,0,0,0,6-2.1,13.46,13.46,0,0,0,4-3.65c.23-.34.44-.68.65-1l.52-1a3.23,3.23,0,0,0,.21-.47c.05-.15.13-.31.18-.46s.13-.32.18-.45.08-.28.13-.44.16-.54.24-.8a5.24,5.24,0,0,0,.13-.72c0-.24.07-.45.1-.63s0-.36.05-.52C339.41,74.46,339.43,74.12,339.43,74.12Z" transform="translate(-51.71 -49.67)" fill="#161616"/><path d="M144,122c-.23-.16-.18-.55-.08-.76.18-.36.76-.46,1.12-.46a7.34,7.34,0,0,1,2.13.49,4.84,4.84,0,0,0,2.89.13c1.71-.6,2.36-2.38,3-3.94.36-.91,1.17-2.51,2.36-2.46,1,0,1.62,1.24,2.71,1.27,1.87.08,3.12-1.89,3.77-3.37.39-.91-.94-1.71-1.35-.78-.55,1.25-1.62,3.29-3.15,2.18a2.94,2.94,0,0,0-2.68-.81c-2.31.63-2.83,3.11-3.77,4.95-.8,1.56-1.92,1.74-3.56,1.28a5.59,5.59,0,0,0-3.56-.29c-1.61.62-2.19,2.93-.6,3.91A.78.78,0,0,0,144,122Z" transform="translate(-51.71 -49.67)" fill="#161616"/><path d="M155.87,121.91a1.94,1.94,0,0,1,1.61-2.1c.86-.13,1.51.6,2.32.75,1.48.26,2.62-1,3.2-2.15a6.47,6.47,0,0,1,1.22-2.25,4.12,4.12,0,0,1,2.13-.75c1.35-.24,2.65-.42,3.61-1.51.65-.75-.44-1.84-1.09-1.08-1.12,1.26-3.14.9-4.63,1.52-1.87.81-1.89,2.54-3,4-1,1.24-1.95.07-3.1-.06a3.55,3.55,0,0,0-2,.39,3.43,3.43,0,0,0-1.77,3.66C154.55,123.31,156.05,122.9,155.87,121.91Z" transform="translate(-51.71 -49.67)" fill="#161616"/><path d="M159.25,198.34a1.82,1.82,0,1,1,1.77.52.78.78,0,0,0,.42,1.5,3.37,3.37,0,1,0-3.54-1.24C158.47,199.92,159.85,199.14,159.25,198.34Z" transform="translate(-51.71 -49.67)" fill="#161616"/><path d="M310.91,164c-.13-.47.21-.6,1-.36.36.13.7.26,1,.41a4.88,4.88,0,0,0,1.12.36,2.54,2.54,0,0,0,2.05-.49c1.27-1,1.09-2.69,1.87-3.94s1.43-.38,2.06.39a2.18,2.18,0,0,0,1.3.93,2,2,0,0,0,1.66-.46,4.06,4.06,0,0,0,.78-.93c0-.06,1.17-1.71,1.2-1.27,0,1,1.61,1,1.56,0a1.63,1.63,0,0,0-1.67-1.61c-1.09,0-1.69.83-2.18,1.66s-1,1.4-1.64.46a4.7,4.7,0,0,0-.83-1,2.11,2.11,0,0,0-2.63,0,4.68,4.68,0,0,0-1.58,2.73,3.93,3.93,0,0,1-.78,1.81c-.73.65-1.77-.08-2.5-.36a2.48,2.48,0,0,0-3,.49,1.74,1.74,0,0,0,.11,2.33C310.52,165.82,311.61,164.7,310.91,164Z" transform="translate(-51.71 -49.67)" fill="#161616"/><path d="M323.49,165.58c-.28-1.11,1.25-1.29,1.95-1.17s1.15.34,1.75.5a4.9,4.9,0,0,0,2.91.08,3.15,3.15,0,0,0,1.64-1.43c.46-.78.62-1.87,1.43-2.38s.05-1.9-.78-1.35a5.22,5.22,0,0,0-1.77,2.51c-.91,1.84-2.5,1.19-4.08.75a4.07,4.07,0,0,0-3.54.29,2.38,2.38,0,0,0-1,2.64C322.25,167,323.75,166.54,323.49,165.58Z" transform="translate(-51.71 -49.67)" fill="#161616"/><path d="M106.55,194.74c-6,7.9-8.81,11.14-11.26,14.51a65.48,65.48,0,0,0-7.15,12.6,5.23,5.23,0,0,1-3.56,2.2c-3.54.08-4.42-6-9.62-9.31a15.41,15.41,0,0,0-14-1.08c-8.22,3.6-9.83,14.67-9.08,15.05s4.11-8.78,11.26-9.87a11.72,11.72,0,0,1,5.23.54c3.69,1.33,4.68,4,8,6.85a23.57,23.57,0,0,0,8.53,4.66,10.26,10.26,0,0,0-.84,3.84c0,5.18,4.32,8.52,5,9a9.33,9.33,0,0,1-.5,8.65,30.43,30.43,0,0,0,3.62,4.33c2.26,2.2,3.14,2.36,3.48,2.41,2.13.21,3.85-1.84,4.21-2.28a9,9,0,0,1-4.57-5.05,9.07,9.07,0,0,1,.49-6.85,10.69,10.69,0,0,1,1.09-1.81,8.69,8.69,0,0,1,4,4.2c1.14,2.88-.42,4.79,1,6.61s4.71,1.89,6.71,1.32c2.16-.6,4.39-2.26,4.13-3.29s-3.56-.29-5.22-2.2c-1.48-1.69-.78-4.52-.29-6.59,1.61-6.53,5.38-8.14,5.49-12.88a10.25,10.25,0,0,0-1.38-5.21c4.6-9.43,9.72-13.58,13.75-15.63,2.4-1.21,6.35-2.22,11-5.77a59.5,59.5,0,0,0,5.54-4.8c2.21-2.1,7-6.69,6.39-7.57-.52-.7-4.31,1.25-5.43,1.82-5.36,2.74-6,4.84-9.54,5.65-2.76.62-6.45.26-7.15-1.38-.84-1.94,3.48-3.81,3.56-8,0-.65-.08-1.43-3.56-7.39-3.18-5.39-4.11-6.48-4.68-6.3-.89.29.18,3.58-1.64,5.21a4.37,4.37,0,0,1-3.3.83c-4-4.12-5.46-4.74-6.06-4.38-1.09.7,1.53,4.74.54,9.88C110.19,189.79,109.12,191.32,106.55,194.74Z" transform="translate(-51.71 -49.67)" fill="#161616"/><path d="M119.16,187.69a.08.08,0,0,1,0,.08h0c0-.08,0,0,0,0s0,0,0,0,0,0,0,0h-.08s-.08,0,0,0,0,0,0,0,0,0,0,0v-.08s0-.05,0,0,0,0,0,0,0,0,0,0h0s.08,0,0,0,.08,0,0,0a.4.4,0,0,0-.41.68.68.68,0,0,0,.86-.11.67.67,0,0,0,0-.93.68.68,0,0,0-.88-.13.73.73,0,0,0-.24.93.41.41,0,0,0,.55.13A.36.36,0,0,0,119.16,187.69Z" transform="translate(-51.71 -49.67)" fill="#fff"/><path d="M124.62,185.54c-.05-.08,0,.05,0,.1s0,.05,0,.08a.21.21,0,0,1-.31,0,.2.2,0,0,1,.11-.31c-.06,0,0,0,0,0a.17.17,0,0,1,.13.05.38.38,0,0,0-.54.54.58.58,0,0,0,.75.08.59.59,0,0,0,.16-.83.56.56,0,0,0-.81-.13.66.66,0,0,0-.16.81.4.4,0,0,0,.55.13A.38.38,0,0,0,124.62,185.54Z" transform="translate(-51.71 -49.67)" fill="#fff"/><path d="M123.14,188.31c.21.49.52,2.2-.42,2.23a.2.2,0,0,0,0,.39c1.33,0,1.09-2.05.76-2.8C123.37,187.87,123,188.08,123.14,188.31Z" transform="translate(-51.71 -49.67)" fill="#fff"/><path d="M123.27,188.44a2.4,2.4,0,0,0,1.19,1.45.78.78,0,0,0,1.1-.62c0-.26-.37-.26-.39,0,0,.62-.81.16-1-.05a2.53,2.53,0,0,1-.52-.88C123.55,188.1,123.19,188.21,123.27,188.44Z" transform="translate(-51.71 -49.67)" fill="#fff"/><path d="M118.28,188.65a2,2,0,0,1,1.32.1c.24.1.34-.28.11-.36a2.33,2.33,0,0,0-1.54-.1C117.94,188.34,118,188.7,118.28,188.65Z" transform="translate(-51.71 -49.67)" fill="#fff"/><path d="M125.22,184.89a3.41,3.41,0,0,0-.47,1.43c0,.25.36.25.39,0a3,3,0,0,1,.42-1.25C125.69,184.86,125.35,184.68,125.22,184.89Z" transform="translate(-51.71 -49.67)" fill="#fff"/><path d="M119.58,202.59c.83-3.65,4.31-4.35,10.45-9.28,4.13-3.32,6.37-6.09,7.15-5.54.6.41-.11,2.54-.37,3.24a12.15,12.15,0,0,1-2.15,3.73,52.92,52.92,0,0,1-11.39,9.77c-1.25.83-2.55,1.63-3.3,1.17C119.06,205.08,119.52,202.82,119.58,202.59Z" transform="translate(-51.71 -49.67)" fill="#161616"/><path d="M106.94,195.44a14.28,14.28,0,0,1-4.32-7.6c-1.27-6.45,2.6-11.43,3.41-12.41,4.32-5.29,12.82-8.37,19.53-4.87,5.27,2.77,6.83,8.32,7.22,9.9a15.74,15.74,0,0,1-4.16,14.95C122.44,201.29,112.3,200.26,106.94,195.44Z" transform="translate(-51.71 -49.67)" fill="#fff" stroke="#161616" stroke-miterlimit="10" stroke-width="2" opacity="0.73" style="isolation:isolate"/><path d="M204.57,154.7a70.15,70.15,0,0,0-12.38,13.78c-3.12,4.59-8.42,12.57-10.27,24.06a55,55,0,0,0,5.67,33.66,55.65,55.65,0,0,0,23.71,23.43,46.89,46.89,0,0,0-3.56,7.1c-.28.75-5.93,15.14-2.1,17.78,2.88,2,9.82-3.53,10.89-4.38,6.34-5.05,9.31-11.84,12.58-19.64,1.38-3.32,2.34-6.1,2.94-8A54,54,0,0,1,218.43,229c-2.91-4.2-12.85-18.56-8.61-31.78,2-6.06,4.68-5.13,12.17-17.36,5.49-9,8.58-14,6.92-18.19C226.67,156,216.53,153.58,204.57,154.7Z" transform="translate(-51.71 -49.67)" fill="#fff" stroke="#161616" stroke-miterlimit="10" stroke-width="2"/><path d="M205.17,245.66A33.75,33.75,0,0,0,219.65,233c.21-.31-.31-.62-.49-.28a33.24,33.24,0,0,1-14.28,12.49C204.54,245.33,204.83,245.82,205.17,245.66Z" transform="translate(-51.71 -49.67)" fill="#161616"/><path d="M203.45,214.69a75.17,75.17,0,0,0,13.63,20c.26.28.67-.13.41-.42A75.33,75.33,0,0,1,204,214.38C203.79,214.07,203.3,214.36,203.45,214.69Z" transform="translate(-51.71 -49.67)" fill="#161616"/><path d="M183.59,215.16a4.14,4.14,0,0,1,4.7-1.56,6.44,6.44,0,0,1,3.8,3.74,9,9,0,0,1,.44,6c-.57,2-2.34,4-4.6,3.06-.34-.15-.49.42-.16.57,2,.83,4-.44,4.89-2.25a9.2,9.2,0,0,0,0-7.6A6.88,6.88,0,0,0,188,213a4.71,4.71,0,0,0-4.87,1.94C182.86,215.19,183.38,215.5,183.59,215.16Z" transform="translate(-51.71 -49.67)" fill="#161616"/><path d="M184.6,183.33a24.33,24.33,0,0,1,7.85.24c2.45.49,5.1,1.22,6.71,3.26.24.29.65-.13.42-.41-1.56-2-4.11-2.77-6.5-3.29a24.65,24.65,0,0,0-8.48-.37C184.24,182.82,184.24,183.39,184.6,183.33Z" transform="translate(-51.71 -49.67)" fill="#161616"/><path d="M183.72,185.8a21.24,21.24,0,0,1,8.08.93.3.3,0,0,0,.16-.57,22.72,22.72,0,0,0-8.24-1C183.35,185.25,183.35,185.82,183.72,185.8Z" transform="translate(-51.71 -49.67)" fill="#161616"/><path d="M208.26,165a129.91,129.91,0,0,1-8.37,10.37c-.26.28.16.7.42.41a130.62,130.62,0,0,0,8.45-10.47C209,165,208.5,164.7,208.26,165Z" transform="translate(-51.71 -49.67)" fill="#161616"/><path d="M201.63,193.18a31.88,31.88,0,0,0-3.22,13c0,.37.57.37.6,0a30.91,30.91,0,0,1,3.14-12.72C202.31,193.13,201.81,192.85,201.63,193.18Z" transform="translate(-51.71 -49.67)" fill="#161616"/><path d="M205.77,185a23.52,23.52,0,0,1,6.29,7.07c.18.34.7,0,.49-.28a24,24,0,0,0-6.52-7.28C205.77,184.29,205.48,184.79,205.77,185Z" transform="translate(-51.71 -49.67)" fill="#161616"/><path d="M229.24,240.82c-3.06,3.21-2,7.83-3.12,11.76a46.88,46.88,0,0,1-3,7.08c-1,2.28-2.08,4.54-3.15,6.82-.15.33.34.64.5.28,1.92-4.2,4.13-8.34,5.74-12.67,1.54-4.12.18-9.49,3.41-12.86C229.92,241,229.5,240.56,229.24,240.82Z" transform="translate(-51.71 -49.67)" fill="#161616"/><path d="M211.2,250a18.72,18.72,0,0,1,6-2.47c.36-.07.2-.64-.16-.57a19,19,0,0,0-6.16,2.52C210.6,249.65,210.89,250.17,211.2,250Z" transform="translate(-51.71 -49.67)" fill="#161616"/><path d="M218,182.4c-2.68,1.17-12.14,5.65-16.51,16.07-3.69,8.79-1.64,16.72-.13,22.55a53.21,53.21,0,0,0,16.25,26,18.15,18.15,0,0,1-1.56,6c-2.1,4.59-5.09,5.86-7.41,9.21-1.53,2.25-3.14,6-2.73,12.18a11.54,11.54,0,0,0,3.12-.13c1.93-.34,4.92-1.4,9.49-6.61a49.09,49.09,0,0,0,6.5-9.59,86.85,86.85,0,0,0,6.5-15.81,71.63,71.63,0,0,1-15.34-16.07,45.81,45.81,0,0,1-5.85-11A29.64,29.64,0,0,1,208.65,200a15.75,15.75,0,0,1,1.56-5.31c2.34-4.25,6.11-5.1,7.41-9.33A8.7,8.7,0,0,0,218,182.4Z" transform="translate(-51.71 -49.67)" fill="#6d6c6c" opacity="0.23" style="isolation:isolate"/><path d="M210.55,192.66A42.91,42.91,0,0,0,207,210.83c.47,16.49,10.69,27.37,13.52,30.19a28.3,28.3,0,0,1,1.15,12.19c-1.56,12-10.66,19-12.72,20.44a26.07,26.07,0,0,0,7.65-3.88c5.72-4.23,8.29-9.88,11.38-16.87a76.56,76.56,0,0,0,3.9-10.89,67.5,67.5,0,0,1-15.31-16.41c-2.94-4.45-5.69-8.73-7-15.08A36.51,36.51,0,0,1,210.55,192.66Z" transform="translate(-51.71 -49.67)" fill="#6d6c6c" opacity="0.24" style="isolation:isolate"/><path d="M255.63,167c2.16,4.66,1.3,10.08.63,14.25a38.7,38.7,0,0,1-4.6,13.06,33.85,33.85,0,0,0,.36,15.35c2,7.77,6.4,12.62,10.45,17.1a65.35,65.35,0,0,0,18.59,14.28c-.52,1.92-1.35,4.82-2.47,8.35-4.76,14.72-7.77,17.59-8.86,18.55-3,2.62-8.45,5.63-10.82,3.89-1.92-1.4-2.42-6.35,4.29-22.31a87,87,0,0,1-11.15-4.95c-4.58-2.42-17.19-9.13-25.15-20.12-12-16.66-9-37.19-8-42.86-1.85-.86-5.18-2.72-6.35-6.2-2.13-6.27,4.19-13.5,9.31-16.61C233,152,251,156.87,255.63,167Z" transform="translate(-51.71 -49.67)" fill="#fff" stroke="#161616" stroke-miterlimit="10" stroke-width="2"/><path d="M213.18,167.16a8.4,8.4,0,0,0-.6,8,10.22,10.22,0,0,0,2.39,3.37,11.06,11.06,0,0,0,1.59,1.29c.23.16,2.15,1.14,1.79,1.51a2.5,2.5,0,0,1,.47,0c-3.36-2.47-6-6.15-5.88-10.42,0-.42-.7-.55-.75-.11a9.64,9.64,0,0,0,3.9,9.54l.31-.7c-3.64-1.11-4.45-5.13-3.51-8.4-.26,0-.52-.07-.75-.1.26,3.42.67,7,3.4,9.46.37.34.91-.21.55-.55-3-2.84-4.81-7.3-2.29-11.09a5.62,5.62,0,0,1-.7-.1,5,5,0,0,1,0,1.76h.76a5.63,5.63,0,0,1,.62-4.74,5.65,5.65,0,0,1-.7-.11c.49,2.78-.55,5.55-.16,8.33a6.9,6.9,0,0,0,.91,2.72,4.87,4.87,0,0,0,.94,1.08c.39.34,1.27.65,1.35,1.22l.47-.46-1.66-.24c-.26,0-.6.18-.47.47a4.26,4.26,0,0,0,2.23,2.41v-.67h-.8c-.11.23-.18.44-.29.67.31.16.63.31.91.47.11-.24.18-.44.29-.68-.6,0-1.25-1.29-1.48-1.73a10.6,10.6,0,0,1-.81-2A10.17,10.17,0,0,1,215,173c-.23,0-.47,0-.7.1a7.42,7.42,0,0,1,.8,5.26l.58-.23c-.13-.23-.26-.47-.42-.7-.21.1-.39.23-.6.34.44.26.86.52,1.3.75a.39.39,0,0,0,.39-.67c-.44-.26-.86-.52-1.3-.75a.4.4,0,0,0-.6.33,1.75,1.75,0,0,0,.81,1.37.38.38,0,0,0,.57-.23,8.32,8.32,0,0,0-.88-5.85c-.16-.26-.65-.26-.7.1a11,11,0,0,0,.57,5.65c.41,1.06,1.27,3.37,2.7,3.34a.4.4,0,0,0,.29-.67,1.78,1.78,0,0,0-1.48-.7.4.4,0,0,0-.29.67,1.3,1.3,0,0,0,1.77.13c.21-.15.28-.54,0-.67a3.36,3.36,0,0,1-1.87-2l-.47.47,1.66.23a.38.38,0,0,0,.47-.46c-.13-.91-1.09-1.12-1.69-1.66a5.6,5.6,0,0,1-1.53-3.6c-.24-2.72.67-5.37.18-8.06a.39.39,0,0,0-.7-.11,6.34,6.34,0,0,0-.71,5.34c.11.34.71.42.76,0a6.94,6.94,0,0,0,0-2.18c0-.36-.54-.33-.7-.1-2.7,4.07-.86,8.94,2.42,12l.54-.55c-2.57-2.25-2.91-5.67-3.17-8.89,0-.41-.65-.54-.75-.1-1.07,3.7,0,8.11,4.05,9.35a.39.39,0,0,0,.32-.7A8.84,8.84,0,0,1,213,171c-.26,0-.52-.08-.75-.1-.08,4.56,2.7,8.47,6.26,11.09a.39.39,0,0,0,.47-.06c.57-.56.36-1.21-.23-1.68a25.16,25.16,0,0,1-3.7-2.75,8,8,0,0,1-1.11-9.82C214.14,167.14,213.46,166.75,213.18,167.16Z" transform="translate(-51.71 -49.67)" fill="#fff"/><path d="M248.56,172.86c.57,3-1,5.91-2.21,8.56-1,2.25-2,4.51-2.88,6.81a35.77,35.77,0,0,0-2.55,13.71A33.78,33.78,0,0,0,251,225.06c4.08,3.94,9,6.84,13.91,9.62a.29.29,0,0,0,.29-.5,72.17,72.17,0,0,1-12.46-8.29,33,33,0,0,1-8.21-11,33.6,33.6,0,0,1-3-13.14A35.88,35.88,0,0,1,244.17,188c1.06-2.77,2.34-5.46,3.48-8.19,1-2.25,1.9-4.56,1.43-7C249.06,172.32,248.48,172.5,248.56,172.86Z" transform="translate(-51.71 -49.67)" fill="#161616"/><path d="M259.38,247.71a32.94,32.94,0,0,1,3.53-8.37c1.38-2.44,3-4.74,5.57-6,.34-.18,0-.67-.29-.49a14,14,0,0,0-5.56,5.88,33.8,33.8,0,0,0-3.8,8.87A.29.29,0,0,0,259.38,247.71Z" transform="translate(-51.71 -49.67)" fill="#161616"/><path d="M276.64,239a7.93,7.93,0,0,0-1.64,5.55,7.76,7.76,0,0,0,.71,2.54,3.38,3.38,0,0,1,.07,2.7c-.2.72-.41,1.42-.62,2.12-1.72,5.57-3.72,11.07-6,16.43-.16.34.36.65.49.29,2.16-5.11,4.11-10.34,5.75-15.63.42-1.32.88-2.67,1.2-4a3.31,3.31,0,0,0-.47-2.34,7.24,7.24,0,0,1,1-7.36C277.37,239,276.85,238.69,276.64,239Z" transform="translate(-51.71 -49.67)" fill="#161616"/><path d="M263.43,249.86a8.25,8.25,0,0,1,4.35-2.28c.36-.08.2-.62-.16-.57a8.55,8.55,0,0,0-4.6,2.44C262.76,249.71,263.17,250.12,263.43,249.86Z" transform="translate(-51.71 -49.67)" fill="#161616"/><path d="M246.56,219.57c1.14.51,2.81-1,3.67-1.64a12.92,12.92,0,0,0,3.48-3.7c.18-.31-.31-.63-.49-.29a11.19,11.19,0,0,1-2.81,3.16c-.57.44-2.76,2.34-3.51,2C246.53,218.92,246.22,219.41,246.56,219.57Z" transform="translate(-51.71 -49.67)" fill="#161616"/><path d="M221.83,214.54c-.54-2.36,2.42-3.09,4.06-2.26a5.74,5.74,0,0,1,2.73,3.55,16.32,16.32,0,0,1,.57,4.07c.08,1.84-1.32,3.32-3.22,2.59-.34-.12-.5.42-.16.58a3,3,0,0,0,3.82-1.66,8.61,8.61,0,0,0-.07-3.71,10.64,10.64,0,0,0-.91-3.32A5.17,5.17,0,0,0,224,211.3a2.89,2.89,0,0,0-2.81,3.39A.32.32,0,0,0,221.83,214.54Z" transform="translate(-51.71 -49.67)" fill="#161616"/><path d="M231,197.85a9.21,9.21,0,0,1,.29,2.23.3.3,0,0,0,.59,0,10.62,10.62,0,0,0-.28-2.39A.31.31,0,0,0,231,197.85Z" transform="translate(-51.71 -49.67)" fill="#161616"/><path d="M239.64,237a26.49,26.49,0,0,0,8.92-7.78c.24-.31-.28-.59-.49-.28a25.47,25.47,0,0,1-8.71,7.56A.29.29,0,1,0,239.64,237Z" transform="translate(-51.71 -49.67)" fill="#161616"/><path d="M238.42,184c.5,5.37-2.29,10.21-3.12,15.4a22.22,22.22,0,0,0,2.29,13.84c.18.33.68,0,.49-.29a21.73,21.73,0,0,1-1.87-15.13c1.09-4.56,3.23-9,2.78-13.79C239,183.62,238.37,183.62,238.42,184Z" transform="translate(-51.71 -49.67)" fill="#161616"/><path d="M225.08,162.52c-1.69,7-5.74,28,4.74,49.4A75.87,75.87,0,0,0,248.9,236a78.84,78.84,0,0,0,18.38,11.54c-1,.57-2,1.16-3,1.73-1.17,5.5-2,9.54-2.44,11.54-1.48,7-2.19,10.47-1,11.35,1.82,1.4,6.52-1.14,9.46-4,2.6-2.57,3.56-5.21,5.77-11.87,2-5.91,3.57-10.86,4.74-14.49a82.36,82.36,0,0,1-10.87-7.51c-4.08-3.35-9.28-7.6-13.13-13.79-5.44-8.74-6.19-18-6-24.26a37.88,37.88,0,0,0,3.33-6.63c1-2.57,5.44-14.05,1.59-21.13S238.92,158,225.08,162.52Z" transform="translate(-51.71 -49.67)" fill="#6d6c6c" opacity="0.19" style="isolation:isolate"/><path d="M243.13,169.26a60,60,0,0,0-3.33,26.62c1.3,12.44,6.27,21,9.54,26.61a79.61,79.61,0,0,0,21.71,23.85,59.53,59.53,0,0,1-1.69,10.7A56.84,56.84,0,0,1,264,270.73a6.24,6.24,0,0,0,1.33-.06,5.22,5.22,0,0,0,3.12-2.12,26.58,26.58,0,0,0,4.08-4.77c2-3,2.89-5.78,4.53-11.14,1.87-6.12,3.09-10.19,3.58-11.82a69.66,69.66,0,0,1-15.26-10.45A49.54,49.54,0,0,1,256,219.93c-5.59-8.92-6.11-18.53-5.72-24.73,2.32-3.26,6.61-10.41,6.19-19.72a28,28,0,0,0-1-6.17C251.4,169.26,247.26,169.26,243.13,169.26Z" transform="translate(-51.71 -49.67)" fill="#6d6c6c" opacity="0.29" style="isolation:isolate"/><path d="M216.56,97.5c-4-1.58-12.69,11.92-14,14a79.57,79.57,0,0,0-9,19.46c-7.12,1.76-14.25,3.55-21.35,5.31-7-4.32-9.3-5-9.85-4.32-.39.46,0,1.89.49,2.82.63,1.09,1.36,1.25,1.33,1.66,0,1-3.93,1.06-7,2-6.27,1.86-10.58,7.41-10,8.31.78,1.2,11.65-4.09,11.67-4s-5.38,1.35-7.33,5.5c-.75,1.58-1.14,3.86-.15,4.66.54.44,1.45.31,4.68-1,4.08-1.66,6.7-3.08,6.81-2.9s-8.22,5.26-7.67,6.45c.44,1,6.47-1,7.15-1.19a47.31,47.31,0,0,0,10.74-5A30.22,30.22,0,0,0,186.19,151,31.29,31.29,0,0,0,205,142.23c3.56-3.45,5.64-8.68,9.85-19.13,2.47-6.16,5.49-14.79,3.33-23C217.93,99.05,217.52,97.89,216.56,97.5Z" transform="translate(-51.71 -49.67)" fill="#fff" stroke="#161616" stroke-miterlimit="10" stroke-width="2"/><path d="M151.76,152.36c2.19-3.11,6-4.25,9.36-5.77.45-.21.06-.89-.39-.68-3.45,1.61-7.33,2.8-9.62,6.07C150.8,152.39,151.48,152.78,151.76,152.36Z" transform="translate(-51.71 -49.67)" fill="#161616"/><path d="M164.11,140.65a7.57,7.57,0,0,0,6.37,2.9c.5,0,.5-.8,0-.78a6.75,6.75,0,0,1-5.79-2.67C164.35,139.72,163.8,140.26,164.11,140.65Z" transform="translate(-51.71 -49.67)" fill="#161616"/><path d="M202.49,111.7a12.67,12.67,0,0,0,4.52,3.76c0-.16-.13-.29-.18-.44a32.2,32.2,0,0,1-2.49,6.84c-.24.44.44.83.67.39a34.21,34.21,0,0,0,2.58-7,.42.42,0,0,0-.19-.44,11.7,11.7,0,0,1-4.26-3.48C202.88,110.92,202.2,111.31,202.49,111.7Z" transform="translate(-51.71 -49.67)" fill="#161616"/><path d="M201.29,145.39a5.84,5.84,0,0,1,6.56-6.63c.49.05.49-.73,0-.78a6.62,6.62,0,0,0-7.31,7.62C200.59,146.09,201.35,145.88,201.29,145.39Z" transform="translate(-51.71 -49.67)" fill="#161616"/><path d="M178.28,134.87a27.58,27.58,0,0,0-.23,7.75c0,.49.83.49.78,0a26.1,26.1,0,0,1,.21-7.54C179.12,134.59,178.36,134.38,178.28,134.87Z" transform="translate(-51.71 -49.67)" fill="#161616"/><path d="M218.9,104.34a76,76,0,0,0-6.14,9.67c-4.37,8.27-5.28,12.13-9.54,17.73a43.43,43.43,0,0,1-8.45,8.34c-3.2.65-7.78,1.66-13.21,3.06-6.63,1.73-10,2.64-13.86,4.35a52.59,52.59,0,0,0-12.45,7.88,38.44,38.44,0,0,0,8.84-1.84,37.4,37.4,0,0,0,8.94-4.35A29.77,29.77,0,0,0,181,151a30.48,30.48,0,0,0,17.11-3.79,26.4,26.4,0,0,0,8.61-7c.93-1.16,1.79-2.51,4-7.44,3.51-7.77,5.49-12.2,6.89-18.76A65.45,65.45,0,0,0,218.9,104.34Z" transform="translate(-51.71 -49.67)" fill="#6d6c6c" opacity="0.24" style="isolation:isolate"/><path d="M152.41,150.68c.37-.47,1.51-1.84,5.39-3.32,1.43-.54,5.43-2,5.95-1.14.16.29.05.86-1.27,2.28a30.43,30.43,0,0,1-7,3.42,27,27,0,0,1-4.37,1.14A9.65,9.65,0,0,1,152.41,150.68Z" transform="translate(-51.71 -49.67)" fill="#6d6c6c" opacity="0.26" style="isolation:isolate"/><path d="M218.38,112.35c-1.67,2.87-4.53,7.88-8.09,14.18-5.1,9-8,13.45-10.37,15.73-2.89,2.72-10.4,8.24-27.17,6.63a31.63,31.63,0,0,0,20.9.39,30,30,0,0,0,12.06-7.8c1-1.11,3.07-3.53,6.79-12.39A160.79,160.79,0,0,0,218.38,112.35Z" transform="translate(-51.71 -49.67)" fill="#6d6c6c" opacity="0.34" style="isolation:isolate"/><path d="M156.6,155.16a114.44,114.44,0,0,0,11.05-4.3c3-1.37,5-2.41,5.1-2.23s-2.92,2.44-6.48,4.05A30.9,30.9,0,0,1,156.6,155.16Z" transform="translate(-51.71 -49.67)" fill="#6d6c6c" opacity="0.47" style="isolation:isolate"/><path d="M238.21,98.07c1.49-.47,23-6.9,36.53,5.47,14.72,13.4,7.21,37.11,3.72,48.07-3.72,11.77-8.58,15.06-11.13,16.33-4.91,2.46-9.72,1.63-14.53.93A296.46,296.46,0,0,0,218,166q2.44-31,4.94-62Z" transform="translate(-51.71 -49.67)" fill="#161616" stroke="#161616" stroke-miterlimit="10" stroke-width="2"/><path d="M257.66,107.55c5.75.08,14.8,1.12,22.67,7,5,3.71,9.7,9.51,16.49,32.47,8.89,30,5.48,35.77,13.6,46,1.14,1.46,12,14.75,28.86,16.43,21,2.1,37.15-15.24,48.23-27.1,19.18-20.58,26.83-43.88,30.08-59.17l9.49,2.87a269.81,269.81,0,0,1-30.92,57.54c-17.44,24.65-27.76,30.24-34.21,32.86-4.63,1.89-20.39,8.29-37.52,1.64-15.91-6.17-23.17-19.81-25.56-24.24-2.7-5-2.88-7.28-7-25.47-8-35.33-10.76-41.94-16.9-46-3.46-2.31-9.57-4.85-20.2-3.29C255.74,115.22,256.7,111.39,257.66,107.55Z" transform="translate(-51.71 -49.67)" fill="#fff" stroke="#161616" stroke-miterlimit="10" stroke-width="2"/><path d="M275.21,122a9,9,0,0,1,4.11-6.58c.42-.26,0-.93-.39-.67a9.88,9.88,0,0,0-4.5,7.25C274.38,122.48,275.16,122.46,275.21,122Z" transform="translate(-51.71 -49.67)" fill="#161616"/><path d="M283.06,132a9.71,9.71,0,0,1,6.06-4.9.39.39,0,0,0-.21-.75,10.4,10.4,0,0,0-6.52,5.23C282.15,132,282.83,132.41,283.06,132Z" transform="translate(-51.71 -49.67)" fill="#161616"/><path d="M281.66,125.85a6.84,6.84,0,0,1,5.07-3.45c.49-.05.49-.83,0-.77a7.64,7.64,0,0,0-5.75,3.83C280.75,125.9,281.43,126.29,281.66,125.85Z" transform="translate(-51.71 -49.67)" fill="#161616"/><path d="M288.68,150.81a8.18,8.18,0,0,1,7-3.4c.5,0,.5-.75,0-.77a8.89,8.89,0,0,0-7.67,3.78C287.69,150.84,288.37,151.22,288.68,150.81Z" transform="translate(-51.71 -49.67)" fill="#161616"/><path d="M287.67,142.49c1.32-2.15,3.84-2.88,6.21-3.21.49-.08.29-.83-.21-.76-2.6.37-5.22,1.25-6.68,3.58C286.73,142.52,287.41,142.9,287.67,142.49Z" transform="translate(-51.71 -49.67)" fill="#161616"/><path d="M284.78,138.06a7.18,7.18,0,0,1,6-3.5c.49,0,.49-.8,0-.78a8,8,0,0,0-6.66,3.86A.4.4,0,0,0,284.78,138.06Z" transform="translate(-51.71 -49.67)" fill="#161616"/><path d="M292.19,168.1a10.68,10.68,0,0,1,8.4-3.45c.49,0,.49-.75,0-.78a11.53,11.53,0,0,0-8.95,3.68C291.28,167.91,291.85,168.46,292.19,168.1Z" transform="translate(-51.71 -49.67)" fill="#161616"/><path d="M291.12,163.38a9.33,9.33,0,0,1,8.06-3.4c.5.06.5-.72,0-.77a10,10,0,0,0-8.6,3.62C290.24,163.2,290.79,163.77,291.12,163.38Z" transform="translate(-51.71 -49.67)" fill="#161616"/><path d="M290,158.2a8.53,8.53,0,0,1,5.69-3c.5-.05.5-.83,0-.78a9.37,9.37,0,0,0-6.24,3.24C289.1,158,289.64,158.58,290,158.2Z" transform="translate(-51.71 -49.67)" fill="#161616"/><path d="M292.22,154a7.75,7.75,0,0,1,5.38-1.38c.49.05.49-.72,0-.78a8.52,8.52,0,0,0-5.77,1.48C291.41,153.58,291.8,154.26,292.22,154Z" transform="translate(-51.71 -49.67)" fill="#161616"/><path d="M300.2,195.49A11.71,11.71,0,0,1,307,190.1c.47-.16.29-.91-.2-.75a12.41,12.41,0,0,0-7.26,5.75A.39.39,0,0,0,300.2,195.49Z" transform="translate(-51.71 -49.67)" fill="#161616"/><path d="M297,188.65a9.49,9.49,0,0,1,7.44-4.62c.49,0,.49-.8,0-.77a10.32,10.32,0,0,0-8.11,5C296,188.67,296.71,189.06,297,188.65Z" transform="translate(-51.71 -49.67)" fill="#161616"/><path d="M295,179.94a8.89,8.89,0,0,1,7.93-3.55c.49.05.49-.73,0-.78a9.67,9.67,0,0,0-8.61,3.94C294,180,294.63,180.35,295,179.94Z" transform="translate(-51.71 -49.67)" fill="#161616"/><path d="M297.29,181.86a11.08,11.08,0,0,1,6.63-2.08.39.39,0,0,0,0-.77,11.74,11.74,0,0,0-7,2.17C296.48,181.47,296.87,182.14,297.29,181.86Z" transform="translate(-51.71 -49.67)" fill="#161616"/><path d="M327,206.87a14.43,14.43,0,0,1,.7,5c-.08,1.61-.34,3.63-1.66,4.69-.39.31.15.86.54.55,1.28-1.07,1.61-2.78,1.82-4.36a14.19,14.19,0,0,0-.65-6.17C327.58,206.19,326.82,206.4,327,206.87Z" transform="translate(-51.71 -49.67)" fill="#161616"/><path d="M336.34,210.68a8.31,8.31,0,0,1-.63,7.95c-.26.42.42.81.68.39a9.13,9.13,0,0,0,.62-8.73C336.81,209.82,336.13,210.21,336.34,210.68Z" transform="translate(-51.71 -49.67)" fill="#161616"/><path d="M352.87,208.81a9.46,9.46,0,0,1,1.51,9.28c-.18.46.57.67.76.21a10.25,10.25,0,0,0-1.69-10C353.11,207.88,352.56,208.42,352.87,208.81Z" transform="translate(-51.71 -49.67)" fill="#161616"/><path d="M389.27,181.18a5.22,5.22,0,0,1,3.18,4.1c.07.49.83.28.75-.21a6,6,0,0,0-3.72-4.64C389,180.25,388.81,181,389.27,181.18Z" transform="translate(-51.71 -49.67)" fill="#161616"/><path d="M402.92,162.47a6.21,6.21,0,0,1,3.59,3.76c.16.47.91.26.76-.21a7,7,0,0,0-4.14-4.3C402.66,161.54,402.48,162.29,402.92,162.47Z" transform="translate(-51.71 -49.67)" fill="#161616"/><path d="M370.42,199.07a11.43,11.43,0,0,1,2.24,8.86c-.08.49.68.7.75.21a12.3,12.3,0,0,0-2.31-9.46C370.79,198.29,370.11,198.68,370.42,199.07Z" transform="translate(-51.71 -49.67)" fill="#161616"/><path d="M363,205c2,2.28,4.08,5.05,3,8.22-.16.46.59.67.75.2,1.2-3.44-1-6.48-3.17-9C363.17,204.09,362.62,204.64,363,205Z" transform="translate(-51.71 -49.67)" fill="#161616"/><path d="M307.61,205.7a9.76,9.76,0,0,1,5.25-6.38c.44-.2.05-.88-.39-.67a10.48,10.48,0,0,0-5.62,6.84A.39.39,0,0,0,307.61,205.7Z" transform="translate(-51.71 -49.67)" fill="#161616"/><path d="M312.13,210.16a17,17,0,0,1,6.87-7.39.39.39,0,0,0-.39-.67,17.45,17.45,0,0,0-7.13,7.67C311.22,210.21,311.9,210.62,312.13,210.16Z" transform="translate(-51.71 -49.67)" fill="#161616"/><path d="M304.33,199.4a8.69,8.69,0,0,1,4.4-4c.46-.19.26-.94-.21-.76a9.34,9.34,0,0,0-4.86,4.38C303.45,199.43,304.1,199.84,304.33,199.4Z" transform="translate(-51.71 -49.67)" fill="#161616"/><path d="M380.15,190.62a8,8,0,0,1,5.28,5.83c.1.49.85.28.75-.21a8.74,8.74,0,0,0-5.8-6.37C379.89,189.71,379.68,190.46,380.15,190.62Z" transform="translate(-51.71 -49.67)" fill="#161616"/><path d="M385,188.47a5.37,5.37,0,0,1,2.63,3.08c.16.47.91.26.75-.21a6.31,6.31,0,0,0-3-3.55C384.93,187.56,384.54,188.23,385,188.47Z" transform="translate(-51.71 -49.67)" fill="#161616"/><path d="M394.16,175.25a6.92,6.92,0,0,1,3.43,2.62c.29.41,1,0,.68-.39a8,8,0,0,0-3.9-3C393.9,174.34,393.69,175.09,394.16,175.25Z" transform="translate(-51.71 -49.67)" fill="#161616"/><path d="M409.42,148.45a8.13,8.13,0,0,1,5.33,3.24c.29.39,1,0,.68-.39a8.91,8.91,0,0,0-5.8-3.6C409.14,147.62,408.93,148.37,409.42,148.45Z" transform="translate(-51.71 -49.67)" fill="#161616"/><path d="M347,211.58a7.92,7.92,0,0,1,.39,6.85c-.19.46.57.67.75.2a8.75,8.75,0,0,0-.47-7.43C347.39,210.75,346.71,211.14,347,211.58Z" transform="translate(-51.71 -49.67)" fill="#161616"/><path d="M379,196.53a6.84,6.84,0,0,1,2.16,5.23.39.39,0,0,0,.78,0,7.62,7.62,0,0,0-2.39-5.78C379.21,195.62,378.67,196.19,379,196.53Z" transform="translate(-51.71 -49.67)" fill="#161616"/><path d="M256.23,110.85c9,2.61,22,8,30.14,20.05,7.69,11.46,4.6,18.8,11.12,41,4.76,16.17,9.29,31.49,22.55,39,16.9,9.54,37.67.57,41.39-1.14,10.37-4.77,16.87-12.08,26.83-23.33A146.89,146.89,0,0,0,402.82,167a149.38,149.38,0,0,0,18.25-42.55c1.93.52,3.85,1.06,5.75,1.58A215,215,0,0,1,416.7,149.8c-5.95,11.92-11.38,19.8-22.23,35.61a116.64,116.64,0,0,1-11.9,15.24c-4.24,4.45-7.86,8.29-13.5,11.87a51.53,51.53,0,0,1-30.37,8.32,47.46,47.46,0,0,1-17.47-4.36,49.46,49.46,0,0,1-18.64-16c-5.1-7.2-6.84-14.61-10.32-29.46-3-12.8-3.28-18.76-7.54-32-3.1-9.64-5-12.8-7.75-15.42-7.33-6.94-17.65-7-22.23-6.71C255.32,114.81,255.76,112.82,256.23,110.85Z" transform="translate(-51.71 -49.67)" fill="#6d6c6c" opacity="0.29" style="isolation:isolate"/><path d="M214.61,98.22c-3.38,4.23-3.46,13.09-3.67,30.85-.05,5.77.08,10.54.21,13.76l-10.79,15.81A67.3,67.3,0,0,0,214.58,167c17.26,7.51,33.46,5.91,41.57,4.48,3.38-9.46,5.78-17.47,7.41-23.3,7.65-27.37,6-34.7,3.59-39.65a27.72,27.72,0,0,0-7.64-9.41C246.3,88.14,222.93,87.78,214.61,98.22Z" transform="translate(-51.71 -49.67)" fill="#fff" stroke="#161616" stroke-miterlimit="10" stroke-width="2"/><path d="M216.61,148a7.27,7.27,0,0,0,2.31,1.53c.47.18.68-.58.21-.76a6.48,6.48,0,0,1-2-1.32C216.79,147.15,216.24,147.7,216.61,148Z" transform="translate(-51.71 -49.67)" fill="#161616"/><path d="M210.86,140a9.06,9.06,0,0,0,1.77,5.65c.21.31.73,0,.49-.29a8.24,8.24,0,0,1-1.66-5.34A.3.3,0,0,0,210.86,140Z" transform="translate(-51.71 -49.67)" fill="#161616"/><path d="M241.54,137.12c-.15.73-.8,2.26-.39,3s2,.82,2.76,1a29.35,29.35,0,0,0,7.77.51,29.69,29.69,0,0,0,14.82-5.08c.31-.2,0-.72-.28-.49a28.91,28.91,0,0,1-12.69,4.82,29.67,29.67,0,0,1-6.66.1,34.49,34.49,0,0,1-3.64-.59c-.88-.21-1.48-.1-1.51-1.32a8.1,8.1,0,0,1,.34-1.71C242.19,136.92,241.62,136.76,241.54,137.12Z" transform="translate(-51.71 -49.67)" fill="#161616"/><path d="M206.75,149.49a35,35,0,0,0,11,7.95c.33.16.65-.33.28-.49a34.56,34.56,0,0,1-10.87-7.85C206.91,148.79,206.49,149.2,206.75,149.49Z" transform="translate(-51.71 -49.67)" fill="#161616"/><path d="M217.44,115.12c-.86.1-1.61-1.42-1.79-2.05a4.23,4.23,0,0,1,.13-2.85,3.54,3.54,0,1,1,6.7,2.26,3.78,3.78,0,0,1-2.08,2.23c-.85.39-2.31.83-3.19.33-.34-.18-.63.32-.29.5,1,.59,2.65.18,3.67-.29a4.43,4.43,0,0,0,2.28-2.23,4.2,4.2,0,0,0-2.18-5.57,4.25,4.25,0,0,0-5.56,2.72,4.78,4.78,0,0,0,.1,3.45c.34.8,1.2,2.18,2.21,2C217.8,115.67,217.83,115.1,217.44,115.12Z" transform="translate(-51.71 -49.67)" fill="#161616"/><path d="M211,133.89a17.51,17.51,0,0,0,11.2,3.83.3.3,0,0,0,0-.6,16.93,16.93,0,0,1-10.79-3.65C211.1,133.24,210.68,133.65,211,133.89Z" transform="translate(-51.71 -49.67)" fill="#161616"/><path d="M225.55,152a58.15,58.15,0,0,0,21.95,3.32c.36,0,.39-.6,0-.6a57.7,57.7,0,0,1-21.79-3.29C225.34,151.3,225.19,151.87,225.55,152Z" transform="translate(-51.71 -49.67)" fill="#161616"/><path d="M248.72,170a11,11,0,0,1-.55,2.15c-.13.36.44.52.57.16a9.84,9.84,0,0,0,.55-2.15C249.34,169.83,248.77,169.68,248.72,170Z" transform="translate(-51.71 -49.67)" fill="#161616"/><path d="M251.53,169.91a3.69,3.69,0,0,1-.42,1.76c-.18.34.34.62.49.29a4.21,4.21,0,0,0,.5-2.08C252.12,169.52,251.53,169.52,251.53,169.91Z" transform="translate(-51.71 -49.67)" fill="#161616"/><path d="M254.44,169.47a2.58,2.58,0,0,1-.42,1.45c-.21.31.31.62.5.29a3.3,3.3,0,0,0,.49-1.77C255,169.11,254.44,169.11,254.44,169.47Z" transform="translate(-51.71 -49.67)" fill="#161616"/><path d="M232.13,113.9c-.31,2.52-.6,5-.91,7.52-.05.49-.31,1.32,0,1.76s1.61.49,2.23.6c4.68.72,9.41,1.22,14.12,1.53.36,0,.36-.57,0-.6-4.19-.28-8.35-.7-12.48-1.29l-1.51-.24a4.64,4.64,0,0,1-1.51-.23c-.83-.52-.26-2.26-.15-3.06.23-2,.47-4,.73-6C232.78,113.51,232.18,113.51,232.13,113.9Z" transform="translate(-51.71 -49.67)" fill="#161616"/><path d="M232.57,113.88c4.53-.75,9.1-.24,13.6.49,1,.16,2.68,0,3,1.24a9.43,9.43,0,0,1-.13,2.85,30.36,30.36,0,0,1-1.38,6.43.3.3,0,0,0,.57.16,30.13,30.13,0,0,0,1.46-7.29,6.52,6.52,0,0,0,0-2.85c-.28-.64-.93-.7-1.56-.8-5.17-.91-10.42-1.66-15.65-.78C232.05,113.39,232.21,114,232.57,113.88Z" transform="translate(-51.71 -49.67)" fill="#161616"/><path d="M232.26,117a32.66,32.66,0,0,1,16.85,1.5c.36.13.49-.44.15-.57a33.4,33.4,0,0,0-17.16-1.5C231.74,116.5,231.9,117,232.26,117Z" transform="translate(-51.71 -49.67)" fill="#161616"/><path d="M240.29,119.45c-.2,1.53-.41,3.06-.57,4.61-.05.37.55.37.6,0,.16-1.47.34-3,.55-4.45C240.92,119.24,240.35,119.09,240.29,119.45Z" transform="translate(-51.71 -49.67)" fill="#161616"/><path d="M240.55,119.74l7.73,1.34c.36,0,.52-.49.15-.57l-7.72-1.34C240.35,119.09,240.19,119.66,240.55,119.74Z" transform="translate(-51.71 -49.67)" fill="#161616"/><path d="M233.56,159.72a23.59,23.59,0,0,1-1.64,5.89c-.65,1.91-1.32,3.83-2,5.73-.13.36.44.49.57.15.78-2.05,1.51-4.12,2.21-6.22a21.6,21.6,0,0,0,1.48-5.55C234.16,159.36,233.59,159.36,233.56,159.72Z" transform="translate(-51.71 -49.67)" fill="#161616"/><path d="M233.79,159.67a103.62,103.62,0,0,0,13.81,1.53l-.29-.28a24.27,24.27,0,0,1-2.34,11.5c-.15.34.34.63.5.29a25.13,25.13,0,0,0,2.42-11.82.29.29,0,0,0-.29-.28A104.38,104.38,0,0,1,234,159.1C233.59,159.05,233.43,159.62,233.79,159.67Z" transform="translate(-51.71 -49.67)" fill="#161616"/><path d="M232.47,165.76a27.74,27.74,0,0,0,13.91,1.74c.36-.05.36-.62,0-.6a27.41,27.41,0,0,1-13.76-1.71C232.29,165.06,232.13,165.61,232.47,165.76Z" transform="translate(-51.71 -49.67)" fill="#161616"/><path d="M241.83,164.68c-.16.8-.31,1.6-.47,2.41-.08.36.49.51.57.15.16-.8.31-1.61.47-2.41C242.48,164.47,241.91,164.31,241.83,164.68Z" transform="translate(-51.71 -49.67)" fill="#161616"/><path d="M233.77,170.43c-.24,0-.26-.36-.21-.52a.74.74,0,0,1,.36-.47.71.71,0,0,1,1,.24.76.76,0,0,1-1.12,1c-.29-.23-.7.18-.42.42a1.43,1.43,0,0,0,1.9-.11,1.36,1.36,0,0,0-.18-1.94,1.33,1.33,0,0,0-1.92.31,1,1,0,0,0,.57,1.71C234.13,171.05,234.13,170.48,233.77,170.43Z" transform="translate(-51.71 -49.67)" fill="#161616"/><path d="M238.19,170.84a.54.54,0,0,1-.39-.83.66.66,0,0,1,1.06-.07c.26.26.37.69,0,.9a1.58,1.58,0,0,1-.93.13c-.37,0-.37.57,0,.6a1.72,1.72,0,0,0,1.64-.62,1.29,1.29,0,0,0-.73-1.69,1.27,1.27,0,0,0-1.64.65,1.15,1.15,0,0,0,.83,1.53C238.4,171.49,238.55,170.92,238.19,170.84Z" transform="translate(-51.71 -49.67)" fill="#161616"/><path d="M242.5,171.05a.59.59,0,1,1,.37-1.11.69.69,0,0,1,.39.77.78.78,0,0,1-.89.5c-.36-.08-.52.49-.15.57a1.32,1.32,0,0,0,1.58-.88,1.28,1.28,0,0,0-.8-1.51,1.24,1.24,0,0,0-1.51.78,1.19,1.19,0,0,0,.86,1.48C242.71,171.7,242.87,171.15,242.5,171.05Z" transform="translate(-51.71 -49.67)" fill="#161616"/><path d="M245.81,98.48A40.89,40.89,0,0,1,256.44,105c.39.31.94-.23.55-.54a41.44,41.44,0,0,0-11-6.69C245.55,97.52,245.36,98.28,245.81,98.48Z" transform="translate(-51.71 -49.67)" fill="#161616"/><path d="M246.09,98a6.57,6.57,0,0,1,1.64-1.32,2.57,2.57,0,0,1,2.47.26,16.4,16.4,0,0,1,2.57,1.58A48.18,48.18,0,0,1,257.9,103c.36.37.91-.2.54-.54a37.43,37.43,0,0,0-6.71-5.65c-.83-.49-2.23-1.45-3.27-1.35s-2.19,1.22-2.89,1.92A.38.38,0,1,0,246.09,98Z" transform="translate(-51.71 -49.67)" fill="#161616"/><path d="M257.09,104.94c.42-.52.83-1.07,1.27-1.56s-.23-.93-.54-.54l-1.41,1.71c-.13.15,0,.44.13.54A.44.44,0,0,0,257.09,104.94Z" transform="translate(-51.71 -49.67)" fill="#161616"/><path d="M215.49,99.13c3.51,1,7.28,1.89,11.26,2.72,4.83,1,9.41,1.76,13.7,2.31-4.13,23.3-5.56,32-6.06,35.38-.08.62-.62,4.4-1.43,9.48-.26,1.58-.47,2.85-.57,3.6l-3.61.26c-3.1,5-6.17,10.06-9.26,15.06a56.2,56.2,0,0,0,13.21,3.94,57.19,57.19,0,0,0,23.19-.88c.91-2.57,2.24-6.48,3.82-11.27,7.8-23.72,8.45-30.2,8.66-33.2.57-8.27.88-13.46-2-19.31C260.44,95.5,244,91.9,243.23,91.77,228.39,89.31,217.39,97.65,215.49,99.13Z" transform="translate(-51.71 -49.67)" fill="#6d6c6c" opacity="0.18" style="isolation:isolate"/><path d="M211.12,143.06a6.88,6.88,0,0,0,2.71,4.9,3.93,3.93,0,0,0,2.31,1c.1-.16-1.48-.88-3-2.6A14.38,14.38,0,0,1,211.12,143.06Z" transform="translate(-51.71 -49.67)" fill="#6d6c6c" opacity="0.28" style="isolation:isolate"/><path d="M225.6,151.9a21.55,21.55,0,0,0,7.13,4,23.12,23.12,0,0,0,15.39-.6,55.47,55.47,0,0,1-22.52-3.39Z" transform="translate(-51.71 -49.67)" fill="#6d6c6c" opacity="0.33" style="isolation:isolate"/><path d="M266.48,114.71a263.31,263.31,0,0,1-6.79,28.77c-4.13,14-6.55,17.28-8.87,19.59-7.87,7.8-19.37,8.06-24.59,7.8a79.1,79.1,0,0,0,13.91,1.73,80.51,80.51,0,0,0,15.91-1c3.2-8.4,5.41-15.68,7-21.33,4.5-16.54,4.55-24.05,4.26-28.77C267.07,118.65,266.74,116.31,266.48,114.71Z" transform="translate(-51.71 -49.67)" fill="#6d6c6c" opacity="0.38" style="isolation:isolate"/><path d="M261.38,100.14c4.21.26,6.84,8.68,8.45,13.92,1.82,5.86,5.95,19.18-.31,32.73-3.8,8.19-9.88,13.32-16.23,18.64a85.68,85.68,0,0,1-9.56,6.92,12.42,12.42,0,0,1-2.11,8.65,13,13,0,0,1-9.44,5.24c3.23-4.23,3.72-5.13,3.59-5.24s-1.74,2.15-4.34,3.14-5.51.18-7.36-.6a15.24,15.24,0,0,0,5.2-3.55c1.07-1.11,1.95-2.38,1.74-2.59s-2.31,2.12-5.12,2.25a6.5,6.5,0,0,1-4.19-1.5,10.75,10.75,0,0,0,5.7-2.69,10.9,10.9,0,0,0,2.44-3.35,13.77,13.77,0,0,0-2.29-.39,14.36,14.36,0,0,0-4.78.44,16.48,16.48,0,0,1,7-5.52c3.3-1.29,5.46-.75,8.6-2.69a14.31,14.31,0,0,0,4.16-4.15c6.27-8.65,10.77-14.82,11.23-23s-3.71-8.63-3.45-17C250.67,110,256.65,99.86,261.38,100.14Z" transform="translate(-51.71 -49.67)" fill="#fff" stroke="#161616" stroke-miterlimit="10" stroke-width="2"/><path d="M224.62,183.77c3.17.73,7.22-1.39,9.17-3.86.32-.39-.23-.93-.54-.54-1.74,2.2-5.51,4.3-8.43,3.65C224.33,182.92,224.12,183.67,224.62,183.77Z" transform="translate(-51.71 -49.67)" fill="#161616"/><path d="M253.92,131.71c2.57-3,6.52-3.73,10.29-4,.37,0,.37-.62,0-.6-3.92.29-8,1-10.71,4.17C253.27,131.58,253.68,132,253.92,131.71Z" transform="translate(-51.71 -49.67)" fill="#161616"/><path d="M264,127.82a21.17,21.17,0,0,1,.29,7c-.06.36.54.36.59,0a21.56,21.56,0,0,0-.31-7.12C264.47,127.3,263.9,127.46,264,127.82Z" transform="translate(-51.71 -49.67)" fill="#161616"/><path d="M254.07,138.14c2.84-2.36,6.5-2.78,10-3.14.36,0,.36-.62,0-.6-3.72.37-7.49.86-10.45,3.32C253.37,138,253.79,138.37,254.07,138.14Z" transform="translate(-51.71 -49.67)" fill="#161616"/><path d="M254.18,134.25a14.38,14.38,0,0,1,10.16-4,.3.3,0,0,0,0-.59,14.86,14.86,0,0,0-10.58,4.12A.3.3,0,0,0,254.18,134.25Z" transform="translate(-51.71 -49.67)" fill="#161616"/><path d="M268.09,111.08a3.4,3.4,0,0,0,.86,1.3c.28.25.7-.16.41-.42a2.53,2.53,0,0,1-.7-1C268.53,110.59,268,110.74,268.09,111.08Z" transform="translate(-51.71 -49.67)" fill="#161616"/><path d="M271.47,139.33A9.91,9.91,0,0,0,266.11,152c.13.33.7.2.57-.16a9.35,9.35,0,0,1,5.1-12C272.12,139.69,271.83,139.17,271.47,139.33Z" transform="translate(-51.71 -49.67)" fill="#161616"/><path d="M241.7,161.25c.93,1.66,1.77,3.66,3.09,5a9.74,9.74,0,0,0,4.24,2.28c.36.11.52-.44.16-.57a8.47,8.47,0,0,1-4.24-2.43,28.53,28.53,0,0,1-2.76-4.64C242,160.63,241.52,160.94,241.7,161.25Z" transform="translate(-51.71 -49.67)" fill="#161616"/><path d="M253.4,158.07a25.1,25.1,0,0,0,3.59,3.7c.28.24.7-.18.41-.41a25.2,25.2,0,0,1-3.59-3.71C253.58,157.34,253.16,157.76,253.4,158.07Z" transform="translate(-51.71 -49.67)" fill="#161616"/><path d="M254,157.83a5.4,5.4,0,0,1,1.14-1.42c.75-.5,1.09,0,1.66.36a36.49,36.49,0,0,1,3,2.25c.29.24.71-.18.42-.41-.7-.6-1.43-1.17-2.18-1.71a8.27,8.27,0,0,0-2.16-1.43c-1-.26-1.9,1.33-2.39,2C253.27,157.83,253.79,158.14,254,157.83Z" transform="translate(-51.71 -49.67)" fill="#161616"/><path d="M254.78,104.94a37.32,37.32,0,0,1,9.59,18.86c1.61,9.15-.83,16.25-2.24,20.4-5.22,15.24-16.9,23.35-21.13,26-.37,1.32-.89,3.29-1.49,5.72-.83,3.37-.88,3.84-1.32,4.77-1.8,3.81-5.25,5.11-5.07,5.44s5.87-.8,8.92-5.44a13.09,13.09,0,0,0,1.87-8.63,70.77,70.77,0,0,0,13.18-9.56c4.16-3.81,8.5-7.8,11.86-14.62a40.91,40.91,0,0,0,4.13-15.52,44.36,44.36,0,0,0-1.87-14.88c-1.85-7.15-4.29-16.38-9.21-17C261,100.38,258.47,100.4,254.78,104.94Z" transform="translate(-51.71 -49.67)" fill="#6d6c6c" opacity="0.25" style="isolation:isolate"/><path d="M270.45,142.93a80.41,80.41,0,0,1-10.24,13.79c-5.28,5.7-9.91,10.57-17,11.61a19.33,19.33,0,0,1-4.68.1,6.48,6.48,0,0,1,3.59,2.78c1.38,2.43.28,5.18-.5,7.15a15.52,15.52,0,0,1-5.27,6.74,12.12,12.12,0,0,0,4.57-3.19,13.34,13.34,0,0,0,3-10.13,71.5,71.5,0,0,0,13.24-9.54c3.79-3.45,7.82-7.18,10.94-13.4A34.62,34.62,0,0,0,270.45,142.93Z" transform="translate(-51.71 -49.67)" fill="#6d6c6c" opacity="0.28" style="isolation:isolate"/><path d="M210.21,72.2c-1.4,5.81,1.28,10.6,3.46,14.54s3.9,7.05,7.83,8.61a13.19,13.19,0,0,0,10.5-.62c5.49-3,6.34-9.44,6.73-12.34.32-2.28,1.17-8.63-3-13.92-4.47-5.67-13.57-8.58-19.76-4.84C211.64,66.27,210.47,71.17,210.21,72.2Z" transform="translate(-51.71 -49.67)" fill="#fff" stroke="#161616" stroke-miterlimit="10" stroke-width="2"/><path d="M220.85,63.52a7.6,7.6,0,0,0,2.39,2.13,8,8,0,0,0,4.78,1,11.52,11.52,0,0,0,3.9,7.15c2,1.61,5.83,3.58,7.93,2.13,2.42-1.66,1.56-7.26-.49-10.7-2.63-4.46-7.7-5.39-10.66-6-1.82-.36-6.68-1.35-8,.85C220.4,60.52,220,61.53,220.85,63.52Z" transform="translate(-51.71 -49.67)" fill="#5d5d5d"/><path d="M217.8,61.89a2.54,2.54,0,0,1,1.15.65c1.17,1.45-.31,5.52-3.2,7.31a7.23,7.23,0,0,1-4,1,10.55,10.55,0,0,1-.08,5.83,9.57,9.57,0,0,1-1.9,3.45,10.76,10.76,0,0,1-1.48-2.8,11.91,11.91,0,0,1,0-7.21c.5-1.86,1.9-7.2,6-8.29A6.27,6.27,0,0,1,217.8,61.89Z" transform="translate(-51.71 -49.67)" fill="#5d5d5d"/><path d="M208.29,80.91c-.16-1.73-1-12,6.08-16.22,6.35-3.81,13.89.23,15,.8a18.1,18.1,0,0,1,9.1,15.32c0,1.37.15,7.49-4.08,11.09-2.16,1.84-4.53,2.26-7.67,2.83a32.36,32.36,0,0,1-11.13,0c.15,1.5.31,3,.47,4.53a48.32,48.32,0,0,0,13.15.93,51.9,51.9,0,0,0,10-1.71,63.23,63.23,0,0,0,9.57-3.29,74,74,0,0,0,1.09-12.33c0-7.26.05-12.06-2.39-17.26-1-2.1-4.61-9.83-13.29-12.73-9.83-3.29-18.3,2.15-19.76,3.14a23.31,23.31,0,0,0-9.1,11.87,23.72,23.72,0,0,0-.31,13c2.6,10.19,11.31,15.89,11.72,15.55C215.31,95.17,209,89.78,208.29,80.91Z" transform="translate(-51.71 -49.67)" fill="#161616"/><path d="M219.62,76.27a77.58,77.58,0,0,1,2,8.92c.08.49.83.28.75-.21a79.05,79.05,0,0,0-2-8.91C220.25,75.6,219.49,75.81,219.62,76.27Z" transform="translate(-51.71 -49.67)" fill="#161616"/><path d="M221.81,85.45a6.19,6.19,0,0,0,4.37-.7.39.39,0,0,0-.39-.68,5.35,5.35,0,0,1-3.77.63C221.52,84.59,221.31,85.34,221.81,85.45Z" transform="translate(-51.71 -49.67)" fill="#161616"/><path d="M216.27,82.18a4.1,4.1,0,0,1-1-3.63c-.21.06-.45.11-.65.18a4.49,4.49,0,0,1,1,1.79c.08.24.16.5.23.75s.08.34.13.5.11.36.37.41c-.26-.41-.94,0-.68.39a.56.56,0,0,0,.78.26c.42-.18.42-.65.34-1a7.42,7.42,0,0,0-1.64-3.6.39.39,0,0,0-.65.18,5,5,0,0,0,1.22,4.38C216.06,83.11,216.61,82.54,216.27,82.18Z" transform="translate(-51.71 -49.67)" fill="#161616"/><path d="M214.74,79.18a12.77,12.77,0,0,0,1.09,3.13c.21.44.88,0,.67-.39a13,13,0,0,1-1-3C215.39,78.48,214.63,78.68,214.74,79.18Z" transform="translate(-51.71 -49.67)" fill="#161616"/><path d="M227.29,77.36a3.07,3.07,0,0,1-.41-3l-.57.23c.59.34.67,1.09.83,1.68q.12.51.21,1c.15.82-.26-.5-.29-.68,0-.49-.81-.49-.78,0a1.9,1.9,0,0,0,.86,1.61.67.67,0,0,0,1-.47,6.13,6.13,0,0,0-.47-2.36,2.35,2.35,0,0,0-1-1.47.4.4,0,0,0-.57.23,3.79,3.79,0,0,0,.49,3.55C226.9,78.16,227.58,77.78,227.29,77.36Z" transform="translate(-51.71 -49.67)" fill="#161616"/><path d="M226.36,74.82a12.07,12.07,0,0,0,.83,3.06c.18.47.94.26.75-.21a13.69,13.69,0,0,1-.83-3.06C227.06,74.12,226.31,74.33,226.36,74.82Z" transform="translate(-51.71 -49.67)" fill="#161616"/><path d="M212.37,77.1a2.33,2.33,0,0,1,2.68-2c.49.08.7-.67.21-.75a3.11,3.11,0,0,0-3.67,2.72C211.51,77.62,212.29,77.59,212.37,77.1Z" transform="translate(-51.71 -49.67)" fill="#161616"/><path d="M223.78,72.23a3.45,3.45,0,0,1,4.76,0c.37.33.91-.21.55-.55a4.19,4.19,0,0,0-5.85,0C222.87,72,223.42,72.57,223.78,72.23Z" transform="translate(-51.71 -49.67)" fill="#161616"/><path d="M222.67,90a10.94,10.94,0,0,0,8.76-4c.31-.39-.24-.93-.55-.54a10.18,10.18,0,0,1-8.19,3.81A.39.39,0,1,0,222.67,90Z" transform="translate(-51.71 -49.67)" fill="#161616"/><path d="M230.08,85.4a1.78,1.78,0,0,1,1.32,1.08c.18.47.94.26.76-.2a2.58,2.58,0,0,0-1.88-1.64C229.79,84.54,229.58,85.29,230.08,85.4Z" transform="translate(-51.71 -49.67)" fill="#161616"/><path d="M231.35,66.84a53.89,53.89,0,0,1,3,13.92c.41,5.36-.29,7.23-.89,8.34-2.1,3.91-6.45,5.26-8,5.68a13.29,13.29,0,0,0,9.05-3.11c4.18-3.81,3.9-9.36,3.79-11.46C237.9,72.67,232.62,67.93,231.35,66.84Z" transform="translate(-51.71 -49.67)" fill="#6d6c6c" opacity="0.29" style="isolation:isolate"/></g></svg>