<svg width="31" height="21" viewBox="0 0 31 21" fill="none" xmlns="http://www.w3.org/2000/svg">
<path d="M0.410889 9.38955L9.38958 0.410859C9.93739 -0.136953 10.8258 -0.136953 11.3736 0.410859C11.9216 0.958784 11.9216 1.847 11.3736 2.39493L4.78991 8.97867H28.7691C29.5438 8.97867 30.172 9.60684 30.172 10.3816C30.172 11.1562 29.5438 11.7845 28.7691 11.7845H4.78991L11.3734 18.3682C11.9213 18.9162 11.9213 19.8044 11.3734 20.3523C11.0996 20.6261 10.7404 20.7632 10.3814 20.7632C10.0224 20.7632 9.66332 20.6261 9.38935 20.3523L0.410889 11.3736C-0.137037 10.8257 -0.137037 9.93748 0.410889 9.38955Z" fill="white"/>
</svg>
