<svg width="11" height="15" viewBox="0 0 11 15" fill="none" xmlns="http://www.w3.org/2000/svg">
<path d="M5.43244 0C2.43698 0 0 2.43698 0 5.43241C0 9.14984 4.8615 14.6072 5.06848 14.8377C5.2629 15.0543 5.60233 15.0539 5.79639 14.8377C6.00338 14.6072 10.8649 9.14984 10.8649 5.43241C10.8648 2.43698 8.42787 0 5.43244 0ZM5.43244 8.16561C3.92535 8.16561 2.69927 6.9395 2.69927 5.43241C2.69927 3.92532 3.92538 2.69924 5.43244 2.69924C6.9395 2.69924 8.16558 3.92535 8.16558 5.43244C8.16558 6.93953 6.9395 8.16561 5.43244 8.16561Z" fill="#026FB3"/>
</svg>
