<svg width="130" height="20" viewBox="0 0 130 20" fill="none" xmlns="http://www.w3.org/2000/svg">
<path d="M14.4765 6.3C15.2765 2.475 13.9265 0.799999 9.87647 0.799999C5.95147 0.799999 3.60147 2.775 2.82647 6.375C1.50146 12.7 9.15147 10.95 8.40147 14.475C8.20147 15.45 7.50147 16.2 6.55146 16.2C5.65147 16.2 5.12646 15.65 5.45147 14.125L5.55147 13.7H1.05146L0.926465 14.325C0.126465 18.025 2.00146 19.35 5.85146 19.35C9.95147 19.35 12.5265 17.65 13.3515 13.85C14.7265 7.325 6.77646 9.05 7.52646 5.525C7.67647 4.725 8.30147 3.95 9.30147 3.95C10.2015 3.95 10.4515 4.825 10.2265 5.875L10.1265 6.3H14.4765ZM17.5042 1.15L15.0042 12.85C13.9542 17.85 15.7792 19.35 19.6792 19.35C23.5792 19.35 26.0542 17.85 27.1042 12.85L29.6042 1.15H24.9542L22.2042 14.025C21.8542 15.75 21.2292 16.2 20.3542 16.2C19.4792 16.2 19.0542 15.75 19.4042 14.025L22.1542 1.15H17.5042ZM27.6208 19H32.2708L33.7208 12.2H35.3458C39.1208 12.2 41.5958 10.3 42.3708 6.65C43.0458 3.525 41.9458 1.15 38.3958 1.15H31.4208L27.6208 19ZM35.3458 4.5H36.2208C37.3958 4.5 37.8708 5.2 37.5708 6.675C37.2458 8.175 36.4708 8.85 35.2958 8.85H34.4208L35.3458 4.5ZM41.2235 19H52.0235L52.8235 15.2H46.6735L47.4235 11.65H52.9735L53.7735 8H48.2235L48.8485 4.95H54.7735L55.5985 1.15H45.0235L41.2235 19ZM53.7235 19H58.3735L59.8985 11.85H61.1235C62.2485 11.85 62.5235 12.375 62.0985 14.4L61.8485 15.6C61.6985 16.35 61.3235 18.05 61.5735 19H66.5235L66.5735 18.75C66.2985 18.6 66.2485 18.4 66.1735 18.2C66.0235 17.85 66.2735 16.65 66.4735 15.725L66.7985 14.2C67.2985 11.825 66.9235 10.4 64.7235 10.2V10.15C66.9235 9.825 68.1735 8.275 68.6735 5.9C69.2735 3.15 68.3485 1.15 64.7985 1.15H57.5235L53.7235 19ZM61.4485 4.5H62.3485C63.7485 4.5 64.1985 5.125 63.8985 6.575C63.6235 7.85 62.8235 8.7 61.4985 8.7H60.5735L61.4485 4.5ZM77.629 7.575H82.129L82.379 6.45C83.104 3 82.004 0.799999 77.804 0.799999C72.979 0.799999 70.904 3.25 69.454 10.075C68.029 16.725 68.629 19.35 73.854 19.35C76.829 19.35 80.004 18.15 81.079 13.15L81.354 11.825H76.854C76.129 15.2 75.679 16.2 74.529 16.2C73.104 16.2 73.229 14.9 74.254 10.075C75.279 5.25 75.704 3.95 77.129 3.95C78.029 3.95 78.279 4.55 77.854 6.575L77.629 7.575ZM81.3317 19H85.9817L89.7817 1.15H85.1317L81.3317 19ZM88.0009 19H92.3509L94.7009 7.975H94.7509L95.5009 19H100.601L104.401 1.15H100.051L97.7009 12.15H97.6509L97.0009 1.15H91.8009L88.0009 19ZM102.796 19H113.596L114.396 15.2H108.246L108.996 11.65H114.546L115.346 8H109.796L110.421 4.95H116.346L117.171 1.15H106.596L102.796 19ZM129.296 6.3C130.096 2.475 128.746 0.799999 124.696 0.799999C120.771 0.799999 118.421 2.775 117.646 6.375C116.321 12.7 123.971 10.95 123.221 14.475C123.021 15.45 122.321 16.2 121.371 16.2C120.471 16.2 119.946 15.65 120.271 14.125L120.371 13.7H115.871L115.746 14.325C114.946 18.025 116.821 19.35 120.671 19.35C124.771 19.35 127.346 17.65 128.171 13.85C129.546 7.325 121.596 9.05 122.346 5.525C122.496 4.725 123.121 3.95 124.121 3.95C125.021 3.95 125.271 4.825 125.046 5.875L124.946 6.3H129.296Z" fill="#FED100"/>
</svg>
