<svg width="31" height="48" viewBox="0 0 31 48" fill="none" xmlns="http://www.w3.org/2000/svg">
<path d="M30.9488 15.4746C30.9488 14.0196 30.2552 12.6701 29.1213 11.8179C29.6773 10.5127 29.6033 8.99726 28.876 7.7371C28.1483 6.47731 26.8728 5.65551 25.4646 5.48412C25.2933 4.07601 24.4715 2.80047 23.2117 2.07316C21.9519 1.34585 20.4365 1.27188 19.1313 1.82743C18.2787 0.693618 16.9296 0 15.4746 0C14.0196 0 12.6701 0.693618 11.8179 1.82743C10.5127 1.27151 8.99726 1.34549 7.7371 2.07316C6.47731 2.80047 5.65551 4.07601 5.48412 5.48412C4.07601 5.65551 2.80047 6.47731 2.07316 7.7371C1.34585 8.99726 1.27188 10.5127 1.82743 11.8179C0.693618 12.6701 0 14.0196 0 15.4746C0 16.7556 0.523326 17.948 1.44803 18.8108L4.22873 47.155C4.27597 47.6352 4.67954 48.001 5.16185 48.001H25.7869C26.2692 48.001 26.6728 47.6352 26.72 47.155L29.5011 18.8108C30.4254 17.9484 30.9488 16.756 30.9488 15.4746ZM3.47175 13.0114C3.72957 12.896 3.92147 12.6712 3.99435 12.3983C4.06722 12.1259 4.01376 11.8347 3.84823 11.6062C3.22529 10.7452 3.16596 9.59456 3.69698 8.67462C4.22799 7.75505 5.2556 7.23209 6.31141 7.34012C6.59157 7.36942 6.87099 7.27017 7.07058 7.07058C7.27017 6.87099 7.36905 6.59194 7.34012 6.31141C7.23099 5.25414 7.75505 4.22799 8.67462 3.69698C9.59456 3.16596 10.7452 3.22529 11.6062 3.84823C11.8347 4.01376 12.1259 4.06759 12.3983 3.99435C12.6708 3.9211 12.896 3.7292 13.0114 3.47175C13.4454 2.50201 14.4122 1.87504 15.4746 1.87504C16.5366 1.87504 17.5034 2.50201 17.9374 3.47175C18.0527 3.7292 18.278 3.92147 18.5504 3.99435C18.8233 4.06759 19.1144 4.01376 19.3426 3.84823C20.2039 3.22529 21.3546 3.16596 22.2742 3.69698C23.1941 4.22799 23.7178 5.25414 23.6087 6.31141C23.5797 6.59194 23.679 6.87099 23.8786 7.07058C24.0781 7.27017 24.3572 7.36868 24.6377 7.34012C25.695 7.23172 26.7208 7.75505 27.2518 8.67462C27.7828 9.59456 27.7235 10.7452 27.1005 11.6062C26.935 11.8347 26.8815 12.1259 26.9544 12.3983C27.0277 12.6712 27.2196 12.8964 27.477 13.0114C28.4471 13.4457 29.0737 14.4122 29.0737 15.4746C29.0737 15.9236 28.9639 16.3539 28.7613 16.7362C28.0824 15.9371 27.0727 15.4438 25.9744 15.4438C24.9607 15.4438 24.0221 15.8639 23.3494 16.5571C22.677 15.8639 21.7384 15.4438 20.7243 15.4438C19.7106 15.4438 18.772 15.8639 18.0996 16.5571C17.4269 15.8639 16.4883 15.4438 15.4746 15.4438C14.4605 15.4438 13.5219 15.8639 12.8495 16.5571C12.1768 15.8639 11.2382 15.4438 10.2245 15.4438C9.2104 15.4438 8.27178 15.8639 7.5994 16.5571C6.92666 15.8639 5.98804 15.4438 4.97435 15.4438C3.87606 15.4438 2.86676 15.9371 2.18742 16.7362C1.98454 16.3539 1.87504 15.9236 1.87504 15.4746C1.87504 14.4125 2.50164 13.4457 3.47175 13.0114ZM10.1706 46.126L9.54732 35.5353H12.2478L12.4558 46.126H10.1706ZM21.8904 27.2302H18.8639L19.0342 18.5453C19.2723 17.8187 19.9531 17.3188 20.7243 17.3188C21.4835 17.3188 22.1555 17.8026 22.4038 18.5102L21.8904 27.2302ZM16.9885 27.2302H13.9603L13.7896 18.5277C14.0328 17.8107 14.7092 17.3188 15.4742 17.3188C16.2396 17.3188 16.916 17.8107 17.1592 18.5277L16.9885 27.2302ZM11.9146 18.5453L12.0848 27.2302H9.05842L8.54498 18.5102C8.79328 17.8026 9.46529 17.3192 10.2241 17.3192C10.9957 17.3188 11.6765 17.8187 11.9146 18.5453ZM14.1236 35.5353H16.8256L16.6175 46.126H14.3312L14.1236 35.5353ZM8.65411 33.6603V29.1052H22.2947V33.6603H8.65411ZM3.30073 18.4926C3.55379 17.7946 4.2214 17.3188 4.97435 17.3188C5.75183 17.3188 6.43703 17.8268 6.66994 18.5629L7.1896 27.3924C6.94204 27.5612 6.77907 27.8454 6.77907 28.1677V34.5978C6.77907 35.0995 7.17349 35.5078 7.66898 35.5327L8.29265 46.126H6.01185L3.30073 18.4926ZM24.9369 46.126H22.6565L22.7444 44.6292C22.7748 44.1125 22.3804 43.6686 21.8636 43.6382C21.3473 43.6089 20.903 44.0023 20.8726 44.519L20.7781 46.126H18.4929L18.701 35.5353H21.4015L21.3132 37.032C21.2828 37.5491 21.6772 37.9926 22.1943 38.023C22.213 38.0241 22.2317 38.0248 22.25 38.0248C22.7425 38.0248 23.156 37.6403 23.1853 37.1423L23.2802 35.5331C23.7753 35.5082 24.1697 35.0995 24.1697 34.5981V28.1681C24.1697 27.8458 24.0071 27.5612 23.7592 27.3928L24.2788 18.5629C24.5117 17.8272 25.1969 17.3192 25.9744 17.3192C26.7274 17.3192 27.395 17.7946 27.648 18.4926L24.9369 46.126Z" fill="white"/>
<path d="M16.7003 7.50749C17.6954 7.50749 18.5051 8.31719 18.5051 9.31221C18.5051 9.82968 18.9247 10.2497 19.4426 10.2497C19.96 10.2497 20.3801 9.82968 20.3801 9.31221C20.3801 7.28299 18.7292 5.63245 16.7003 5.63245C16.1825 5.63245 15.7628 6.05213 15.7628 6.56997C15.7628 7.0878 16.1825 7.50749 16.7003 7.50749Z" fill="white"/>
<path d="M12.9359 7.93669C13.4534 7.93669 13.8735 7.51663 13.8735 6.9988C13.8735 6.48097 13.4534 6.06128 12.9359 6.06128C12.4181 6.06128 11.9984 6.48133 11.9984 6.9988V6.99953C11.9984 7.51736 12.4181 7.93669 12.9359 7.93669Z" fill="white"/>
<path d="M22.1609 39.9024C21.6482 39.8277 21.1736 40.1859 21.1004 40.6982C21.0271 41.2109 21.3835 41.6856 21.8958 41.7588C21.9408 41.7654 21.9855 41.7683 22.0298 41.7683C22.4887 41.7683 22.8897 41.431 22.9567 40.9634V40.9626C23.03 40.4503 22.6736 39.9757 22.1609 39.9024Z" fill="white"/>
</svg>
